# https://github.com/mikedh/trimesh
v 0.17552700 -0.00763200 0.12200000
v 0.17552700 -0.00563200 0.12400000
v 0.17552700 -0.00763200 0.00200000
v 0.17552700 -0.00563200 0.00050000
v 0.17552700 -0.15863200 0.00200000
v 0.17552700 -0.16063200 0.00050000
v 0.17552700 -0.15863200 0.12200000
v 0.17552700 -0.16063200 0.12400000
v 0.18352700 -0.00763200 0.12250000
v 0.18352700 -0.00563200 0.12350000
v 0.18352700 -0.15913200 0.12250000
v 0.18352700 -0.16013200 0.12350000
v 0.18352700 -0.15913200 0.00150000
v 0.18352700 -0.16013200 0.00050000
v 0.18352700 -0.00763200 0.00150000
v 0.18352700 -0.00563200 0.00050000
v 0.18302700 -0.00563200 0.12400000
v 0.17602700 -0.00563200 0.00000000
v 0.17594900 -0.00563200 0.00000600
v 0.18310500 -0.00563200 0.00000600
v 0.18302700 -0.00563200 0.00000000
v 0.17587300 -0.00563200 0.00002400
v 0.17580000 -0.00563200 0.00005400
v 0.17573300 -0.00563200 0.00009500
v 0.17562300 -0.00563200 0.00020600
v 0.17558200 -0.00563200 0.00027300
v 0.17555200 -0.00563200 0.00034500
v 0.18347300 -0.00563200 0.12372700
v 0.18350300 -0.00563200 0.12365500
v 0.18352100 -0.00563200 0.12357800
v 0.18350300 -0.00563200 0.00034500
v 0.18347300 -0.00563200 0.00027300
v 0.18343200 -0.00563200 0.00020600
v 0.18338100 -0.00563200 0.00014600
v 0.18332100 -0.00563200 0.00009500
v 0.17567400 -0.00563200 0.00014600
v 0.17553300 -0.00563200 0.00042200
v 0.18310500 -0.00563200 0.12399400
v 0.18318200 -0.00563200 0.12397600
v 0.18325400 -0.00563200 0.12394600
v 0.18325400 -0.00563200 0.00005400
v 0.18318200 -0.00563200 0.00002400
v 0.18332100 -0.00563200 0.12390500
v 0.18338100 -0.00563200 0.12385400
v 0.18343200 -0.00563200 0.12379400
v 0.18352100 -0.00563200 0.00042200
v 0.17602700 -0.16013200 0.00000000
v 0.18302700 -0.16013200 0.00000000
v 0.18302700 -0.16063200 0.00050000
v 0.18302700 -0.16063200 0.12400000
v 0.18325400 -0.00763200 0.00194600
v 0.18318200 -0.00763200 0.00197600
v 0.18310500 -0.00763200 0.00199400
v 0.18332100 -0.00763200 0.12209500
v 0.18325400 -0.00763200 0.12205500
v 0.18318200 -0.00763200 0.12202400
v 0.18310500 -0.00763200 0.12200600
v 0.18302700 -0.00763200 0.12200000
v 0.18352100 -0.00763200 0.00157800
v 0.18347300 -0.00763200 0.12227300
v 0.18343200 -0.00763200 0.12220600
v 0.18338100 -0.00763200 0.12214600
v 0.18332100 -0.00763200 0.00190500
v 0.18338100 -0.00763200 0.00185400
v 0.18343200 -0.00763200 0.00179400
v 0.18347300 -0.00763200 0.00172700
v 0.18350300 -0.00763200 0.00165500
v 0.18302700 -0.00763200 0.00200000
v 0.18352100 -0.00763200 0.12242200
v 0.18350300 -0.00763200 0.12234500
v 0.18302700 -0.15863200 0.00200000
v 0.18302700 -0.15863200 0.12200000
v 0.18352100 -0.16021000 0.12357800
v 0.18350300 -0.16028700 0.12365500
v 0.18347300 -0.16035900 0.12372700
v 0.18343200 -0.16042600 0.12379400
v 0.18338100 -0.16048600 0.12385400
v 0.18332100 -0.16053700 0.12390500
v 0.18328800 -0.16055800 0.12392600
v 0.18325400 -0.16057800 0.12394600
v 0.18321900 -0.16059400 0.12396200
v 0.18318200 -0.16060800 0.12397600
v 0.18314400 -0.16061800 0.12398600
v 0.18310500 -0.16062600 0.12399400
v 0.18306600 -0.16063100 0.12399800
v 0.18310500 -0.16062600 0.00050000
v 0.18318200 -0.16060800 0.00050000
v 0.18325400 -0.16057800 0.00050000
v 0.18332100 -0.16053700 0.00050000
v 0.18338100 -0.16048600 0.00050000
v 0.18343200 -0.16042600 0.00050000
v 0.18347300 -0.16035900 0.00050000
v 0.18350300 -0.16028700 0.00050000
v 0.18352100 -0.16021000 0.00050000
v 0.18352100 -0.16013200 0.00042200
v 0.18350300 -0.16013200 0.00034500
v 0.18347300 -0.16013200 0.00027300
v 0.18343200 -0.16013200 0.00020600
v 0.18338100 -0.16013200 0.00014600
v 0.18332100 -0.16013200 0.00009500
v 0.18325400 -0.16013200 0.00005400
v 0.18318200 -0.16013200 0.00002400
v 0.18310500 -0.16013200 0.00000600
v 0.18310500 -0.16020900 0.00001200
v 0.18350300 -0.16025700 0.00040900
v 0.18352100 -0.16019500 0.00045400
v 0.18352100 -0.16020200 0.00046400
v 0.18352100 -0.16020900 0.00048800
v 0.18352100 -0.16018700 0.00044500
v 0.18350300 -0.16024100 0.00039100
v 0.18347300 -0.16029300 0.00033900
v 0.18352100 -0.16017800 0.00043700
v 0.18350300 -0.16027000 0.00043000
v 0.18352100 -0.16020700 0.00047600
v 0.18350300 -0.16027900 0.00045200
v 0.18350300 -0.16028500 0.00047600
v 0.18350300 -0.16022300 0.00037500
v 0.18347300 -0.16026600 0.00031600
v 0.18343200 -0.16030500 0.00026200
v 0.18352100 -0.16016800 0.00043000
v 0.18347300 -0.16031600 0.00036700
v 0.18347300 -0.16033400 0.00039700
v 0.18347300 -0.16034800 0.00043000
v 0.18347300 -0.16035600 0.00046400
v 0.18350300 -0.16020200 0.00036200
v 0.18347300 -0.16023500 0.00029800
v 0.18343200 -0.16026600 0.00023800
v 0.18338100 -0.16029300 0.00018500
v 0.18352100 -0.16015600 0.00042600
v 0.18343200 -0.16034000 0.00029200
v 0.18343200 -0.16037000 0.00032700
v 0.18343200 -0.16039400 0.00036700
v 0.18343200 -0.16041200 0.00040900
v 0.18343200 -0.16042200 0.00045400
v 0.18350300 -0.16018000 0.00035300
v 0.18347300 -0.16020200 0.00028400
v 0.18343200 -0.16022300 0.00022000
v 0.18338100 -0.16024100 0.00016400
v 0.18332100 -0.16025700 0.00011500
v 0.18352100 -0.16014400 0.00042300
v 0.18338100 -0.16034000 0.00021400
v 0.18338100 -0.16038200 0.00025000
v 0.18338100 -0.16041800 0.00029200
v 0.18338100 -0.16044700 0.00033900
v 0.18338100 -0.16046800 0.00039100
v 0.18338100 -0.16048100 0.00044500
v 0.18350300 -0.16015600 0.00034700
v 0.18347300 -0.16016800 0.00027600
v 0.18343200 -0.16017800 0.00021000
v 0.18338100 -0.16018700 0.00015100
v 0.18332100 -0.16019500 0.00010000
v 0.18325400 -0.16020200 0.00006000
v 0.18332100 -0.16031600 0.00014000
v 0.18332100 -0.16037000 0.00017300
v 0.18332100 -0.16041800 0.00021400
v 0.18332100 -0.16045900 0.00026200
v 0.18332100 -0.16049300 0.00031600
v 0.18332100 -0.16051700 0.00037500
v 0.18332100 -0.16053200 0.00043700
v 0.18325400 -0.16027000 0.00007600
v 0.18325400 -0.16033400 0.00010300
v 0.18325400 -0.16039400 0.00014000
v 0.18325400 -0.16044700 0.00018500
v 0.18325400 -0.16049300 0.00023800
v 0.18325400 -0.16052900 0.00029800
v 0.18325400 -0.16055600 0.00036200
v 0.18325400 -0.16057200 0.00043000
v 0.18318200 -0.16020700 0.00003000
v 0.18318200 -0.16027900 0.00004800
v 0.18318200 -0.16034800 0.00007600
v 0.18318200 -0.16041200 0.00011500
v 0.18318200 -0.16046800 0.00016400
v 0.18318200 -0.16051700 0.00022000
v 0.18318200 -0.16055600 0.00028400
v 0.18318200 -0.16058400 0.00035300
v 0.18318200 -0.16060200 0.00042600
v 0.18310500 -0.16028500 0.00003000
v 0.18310500 -0.16035600 0.00006000
v 0.18310500 -0.16042200 0.00010000
v 0.18310500 -0.16048100 0.00015100
v 0.18310500 -0.16053200 0.00021000
v 0.18310500 -0.16057200 0.00027600
v 0.18310500 -0.16060200 0.00034700
v 0.18310500 -0.16062000 0.00042300
v 0.18302700 -0.16021000 0.00000600
v 0.18302700 -0.16028700 0.00002400
v 0.18302700 -0.16035900 0.00005400
v 0.18302700 -0.16042600 0.00009500
v 0.18302700 -0.16048600 0.00014600
v 0.18302700 -0.16053700 0.00020600
v 0.18302700 -0.16057800 0.00027300
v 0.18302700 -0.16060800 0.00034500
v 0.18302700 -0.16062600 0.00042200
v 0.17594900 -0.16021000 0.00000600
v 0.17587300 -0.16028700 0.00002400
v 0.17580000 -0.16035900 0.00005400
v 0.17573300 -0.16042600 0.00009500
v 0.17567400 -0.16048600 0.00014600
v 0.17562300 -0.16053700 0.00020600
v 0.17560100 -0.16055800 0.00023900
v 0.17558200 -0.16057800 0.00027300
v 0.17556500 -0.16059400 0.00030900
v 0.17555200 -0.16060800 0.00034500
v 0.17554100 -0.16061800 0.00038300
v 0.17553300 -0.16062600 0.00042200
v 0.17552900 -0.16063100 0.00046100
v 0.18318200 -0.15865700 0.12202400
v 0.18314400 -0.15864600 0.12201400
v 0.18310500 -0.15863800 0.12200600
v 0.18306600 -0.15863400 0.12200200
v 0.18332100 -0.15872800 0.12209500
v 0.18328800 -0.15870600 0.12207400
v 0.18325400 -0.15868700 0.12205500
v 0.18321900 -0.15867000 0.12203800
v 0.18338100 -0.15877900 0.12214600
v 0.18343200 -0.15883800 0.12220600
v 0.18347300 -0.15890500 0.12227300
v 0.18350300 -0.15897800 0.12234500
v 0.18352100 -0.15905400 0.12242200
v 0.18306600 -0.15863400 0.00199800
v 0.18310500 -0.15863800 0.00199400
v 0.18314400 -0.15864600 0.00198600
v 0.18318200 -0.15865700 0.00197600
v 0.18321900 -0.15867000 0.00196200
v 0.18325400 -0.15868700 0.00194600
v 0.18332100 -0.15872800 0.00190500
v 0.18328800 -0.15870600 0.00192600
v 0.18338100 -0.15877900 0.00185400
v 0.18343200 -0.15883800 0.00179400
v 0.18347300 -0.15890500 0.00172700
v 0.18350300 -0.15897800 0.00165500
v 0.18352100 -0.15905400 0.00157800
f 1 2 3
f 3 2 4
f 3 4 5
f 5 4 6
f 5 6 7
f 7 6 8
f 7 8 1
f 1 8 2
f 9 10 11
f 11 10 12
f 11 12 13
f 13 12 14
f 13 14 15
f 15 14 16
f 15 16 9
f 9 16 10
f 2 17 4
f 4 17 18
f 4 18 19
f 20 21 16
f 16 21 18
f 16 18 10
f 10 18 17
f 19 22 4
f 4 22 23
f 4 23 24
f 25 26 27
f 28 29 30
f 31 32 33
f 16 34 35
f 24 36 4
f 4 36 25
f 4 25 37
f 37 25 27
f 17 38 10
f 10 38 39
f 10 39 40
f 35 41 16
f 16 41 42
f 16 42 20
f 40 43 10
f 10 43 44
f 10 44 30
f 30 44 45
f 30 45 28
f 34 16 33
f 33 16 46
f 33 46 31
f 18 21 47
f 47 21 48
f 49 50 6
f 6 50 8
f 17 2 50
f 50 2 8
f 51 9 52
f 52 9 53
f 54 55 3
f 3 55 56
f 56 57 3
f 3 57 58
f 3 58 1
f 59 15 9
f 60 61 3
f 3 61 62
f 3 62 54
f 51 63 9
f 9 63 64
f 9 64 65
f 65 66 9
f 9 66 67
f 9 67 59
f 53 9 68
f 68 9 69
f 68 69 3
f 3 69 70
f 3 70 60
f 68 3 71
f 71 3 5
f 71 5 72
f 72 5 7
f 72 7 58
f 58 7 1
f 12 10 30
f 12 30 73
f 73 30 29
f 73 29 74
f 74 29 28
f 74 28 75
f 75 28 45
f 75 45 76
f 76 45 44
f 76 44 77
f 77 44 43
f 77 43 78
f 78 43 79
f 79 43 40
f 79 40 80
f 80 40 81
f 81 40 39
f 81 39 82
f 82 39 83
f 83 39 38
f 83 38 84
f 84 38 85
f 85 38 17
f 85 17 50
f 50 49 85
f 85 49 86
f 85 86 84
f 84 86 83
f 83 86 87
f 83 87 82
f 82 87 81
f 81 87 88
f 81 88 80
f 80 88 79
f 79 88 89
f 79 89 78
f 78 89 90
f 78 90 77
f 77 90 91
f 77 91 76
f 76 91 92
f 76 92 75
f 75 92 93
f 75 93 74
f 74 93 94
f 74 94 73
f 73 94 14
f 73 14 12
f 16 14 95
f 16 95 46
f 46 95 96
f 46 96 31
f 31 96 97
f 31 97 32
f 32 97 98
f 32 98 33
f 33 98 99
f 33 99 34
f 34 99 100
f 34 100 35
f 35 100 101
f 35 101 41
f 41 101 102
f 41 102 42
f 42 102 103
f 42 103 20
f 20 103 48
f 20 48 21
f 48 103 104
f 105 106 107
f 14 94 108
f 107 106 14
f 109 14 106
f 109 106 110
f 110 106 105
f 110 105 111
f 112 14 109
f 113 114 115
f 115 114 108
f 115 108 116
f 116 108 94
f 116 94 93
f 112 109 117
f 117 109 110
f 117 110 118
f 118 110 111
f 118 111 119
f 120 14 112
f 121 113 122
f 122 113 115
f 122 115 123
f 123 115 116
f 123 116 124
f 124 116 93
f 124 93 92
f 120 112 125
f 125 112 117
f 125 117 126
f 126 117 118
f 126 118 127
f 127 118 119
f 127 119 128
f 129 14 120
f 130 121 131
f 131 121 122
f 131 122 132
f 132 122 123
f 132 123 133
f 133 123 124
f 133 124 134
f 134 124 92
f 134 92 91
f 129 120 135
f 135 120 125
f 135 125 136
f 136 125 126
f 136 126 137
f 137 126 127
f 137 127 138
f 138 127 128
f 138 128 139
f 140 14 129
f 141 130 142
f 142 130 131
f 142 131 143
f 143 131 132
f 143 132 144
f 144 132 133
f 144 133 145
f 145 133 134
f 145 134 146
f 146 134 91
f 146 91 90
f 140 129 147
f 147 129 135
f 147 135 148
f 148 135 136
f 148 136 149
f 149 136 137
f 149 137 150
f 150 137 138
f 150 138 151
f 151 138 139
f 151 139 152
f 95 14 140
f 153 141 154
f 154 141 142
f 154 142 155
f 155 142 143
f 155 143 156
f 156 143 144
f 156 144 157
f 157 144 145
f 157 145 158
f 158 145 146
f 158 146 159
f 159 146 90
f 159 90 89
f 95 140 96
f 96 140 147
f 96 147 97
f 97 147 148
f 97 148 98
f 98 148 149
f 98 149 99
f 99 149 150
f 99 150 100
f 100 150 151
f 100 151 101
f 101 151 152
f 101 152 102
f 160 153 161
f 161 153 154
f 161 154 162
f 162 154 155
f 162 155 163
f 163 155 156
f 163 156 164
f 164 156 157
f 164 157 165
f 165 157 158
f 165 158 166
f 166 158 159
f 166 159 167
f 167 159 89
f 167 89 88
f 168 160 169
f 169 160 161
f 169 161 170
f 170 161 162
f 170 162 171
f 171 162 163
f 171 163 172
f 172 163 164
f 172 164 173
f 173 164 165
f 173 165 174
f 174 165 166
f 174 166 175
f 175 166 167
f 175 167 176
f 176 167 88
f 176 88 87
f 103 168 104
f 104 168 169
f 104 169 177
f 177 169 170
f 177 170 178
f 178 170 171
f 178 171 179
f 179 171 172
f 179 172 180
f 180 172 173
f 180 173 181
f 181 173 174
f 181 174 182
f 182 174 175
f 182 175 183
f 183 175 176
f 183 176 184
f 184 176 87
f 184 87 86
f 48 104 185
f 185 104 177
f 185 177 186
f 186 177 178
f 186 178 187
f 187 178 179
f 187 179 188
f 188 179 180
f 188 180 189
f 189 180 181
f 189 181 190
f 190 181 182
f 190 182 191
f 191 182 183
f 191 183 192
f 192 183 184
f 192 184 193
f 193 184 86
f 193 86 49
f 114 14 108
f 103 102 168
f 168 102 152
f 168 152 160
f 160 152 139
f 160 139 153
f 153 139 128
f 153 128 141
f 141 128 119
f 141 119 130
f 130 119 111
f 130 111 121
f 121 111 105
f 121 105 113
f 113 105 107
f 113 107 114
f 114 107 14
f 47 48 185
f 47 185 194
f 194 185 186
f 194 186 195
f 195 186 187
f 195 187 196
f 196 187 188
f 196 188 197
f 197 188 189
f 197 189 198
f 198 189 190
f 198 190 199
f 199 190 200
f 200 190 191
f 200 191 201
f 201 191 202
f 202 191 192
f 202 192 203
f 203 192 204
f 204 192 193
f 204 193 205
f 205 193 206
f 206 193 49
f 206 49 6
f 6 4 206
f 206 4 37
f 206 37 205
f 205 37 204
f 204 37 27
f 204 27 203
f 203 27 202
f 202 27 26
f 202 26 201
f 201 26 200
f 200 26 25
f 200 25 199
f 199 25 36
f 199 36 198
f 198 36 24
f 198 24 197
f 197 24 23
f 197 23 196
f 196 23 22
f 196 22 195
f 195 22 19
f 195 19 194
f 194 19 18
f 194 18 47
f 57 56 207
f 207 208 57
f 57 208 209
f 57 209 58
f 58 209 210
f 58 210 72
f 211 212 55
f 55 212 213
f 55 213 56
f 56 213 214
f 56 214 207
f 55 54 211
f 211 54 62
f 211 62 215
f 215 62 61
f 215 61 216
f 216 61 60
f 216 60 217
f 217 60 70
f 217 70 218
f 218 70 69
f 218 69 219
f 219 69 9
f 219 9 11
f 220 71 72
f 220 72 221
f 72 210 221
f 221 210 209
f 221 209 222
f 222 209 223
f 209 208 223
f 223 208 207
f 223 207 224
f 224 207 225
f 213 212 226
f 207 214 225
f 225 214 213
f 225 213 227
f 227 213 226
f 212 211 226
f 226 211 215
f 226 215 228
f 228 215 216
f 228 216 229
f 229 216 217
f 229 217 230
f 230 217 218
f 230 218 231
f 231 218 219
f 231 219 232
f 232 219 11
f 232 11 13
f 13 15 59
f 13 59 232
f 232 59 67
f 232 67 231
f 231 67 66
f 231 66 230
f 230 66 65
f 230 65 229
f 229 65 64
f 229 64 228
f 228 64 63
f 228 63 226
f 51 52 223
f 223 224 51
f 51 224 225
f 51 225 63
f 63 225 227
f 63 227 226
f 53 68 71
f 71 220 53
f 53 220 221
f 53 221 52
f 52 221 222
f 52 222 223

