# https://github.com/mikedh/trimesh
v -0.05339737 0.00985733 -0.02117138
v -0.05412670 0.00990313 -0.02115481
v -0.05339737 0.01059011 -0.02117138
v -0.05267962 0.00998432 -0.02115481
v -0.05339737 0.00927027 -0.02105950
v -0.05412670 0.01046104 -0.02115481
v -0.05456661 0.00835637 -0.02071972
v -0.05453188 0.00951800 -0.02100978
v -0.05453188 0.01079204 -0.02104293
v -0.05339737 0.01117717 -0.02111337
v -0.05267962 0.01040275 -0.02115481
v -0.01959372 0.00952841 -0.01650149
v -0.01970948 0.00860827 -0.01648492
v -0.01936218 0.00718226 -0.01617000
v -0.05221656 0.00835637 -0.02062442
v -0.05339737 0.00835637 -0.02076530
v -0.01936218 0.00600814 -0.01582193
v -0.05456661 0.01187456 -0.02095591
v -0.05456661 0.00729467 -0.02022663
v -0.05538855 0.00749036 -0.02010232
v -0.05558535 0.00835637 -0.02028464
v -0.05567796 0.00952841 -0.02041724
v -0.05570112 0.01070044 -0.02043795
v -0.05585161 0.01185166 -0.02034679
v -0.05339737 0.01187456 -0.02099320
v -0.05221656 0.01187456 -0.02084818
v -0.01985998 0.01135412 -0.01644348
v -0.01970948 0.01070044 -0.01646834
v -0.01913065 0.01070044 -0.01636061
v -0.01900331 0.00952841 -0.01637718
v -0.01231204 0.00952841 -0.01495177
v -0.01114280 0.00835637 -0.01464514
v -0.01231204 0.00835637 -0.01489376
v -0.01114280 0.00718226 -0.01446282
v -0.01039032 0.00648695 -0.01411889
v -0.01114280 0.00623922 -0.01420591
v -0.01936218 0.00512964 -0.01541586
v -0.05221656 0.00737794 -0.02017690
v -0.05339737 0.00727802 -0.02024735
v -0.01177951 0.00544607 -0.01407331
v -0.01847079 0.00527744 -0.01533713
v -0.05456661 0.01304867 -0.02069072
v -0.05580530 0.01300704 -0.02024735
v -0.05456661 0.00670762 -0.01987856
v -0.05529594 0.00536071 -0.01883022
v -0.05571269 0.00604145 -0.01904983
v -0.05637256 0.00645572 -0.01885508
v -0.05616418 0.00835637 -0.01966309
v -0.05626837 0.00952841 -0.01976254
v -0.05634940 0.01222638 -0.01998215
v -0.05634940 0.01258652 -0.01998215
v -0.05339737 0.01304867 -0.02067829
v -0.01943164 0.01179753 -0.01626116
v -0.01114280 0.01187456 -0.01446282
v -0.01114280 0.01070044 -0.01463685
v -0.01114280 0.00952841 -0.01469486
v -0.00997357 0.00835637 -0.01437580
v -0.00926739 0.00762776 -0.01411061
v -0.00998514 0.00721348 -0.01419762
v -0.00960311 0.00684501 -0.01403188
v 0.04517733 0.00600814 -0.00065204
v 0.04400810 0.00483403 -0.00053602
v -0.01936218 0.00454258 -0.01508022
v -0.05339737 0.00669096 -0.01988685
v -0.00937158 0.00424072 -0.01291309
v -0.00997357 0.00352668 -0.01267276
v -0.01114280 0.00329144 -0.01278464
v 0.01544864 0.00417411 -0.00709541
v 0.00586322 0.00424697 -0.00938685
v -0.01198789 0.00314363 -0.01286751
v -0.05456661 0.01406250 -0.02021420
v -0.05545801 0.01390220 -0.02011061
v -0.05623364 0.01336927 -0.01984541
v -0.05456661 0.00600814 -0.01938133
v -0.05456661 0.00532116 -0.01886751
v -0.05456661 0.00473618 -0.01825011
v -0.05523805 0.00423031 -0.01762442
v -0.05602526 0.00439269 -0.01749182
v -0.05607157 0.00567298 -0.01859403
v -0.05643044 0.00517544 -0.01781503
v -0.05663882 0.00480488 -0.01706503
v -0.05714819 0.00483403 -0.01584265
v -0.05741445 0.00483403 -0.01498077
v -0.05640729 0.00718226 -0.01895039
v -0.05643044 0.00835637 -0.01907884
v -0.05757652 0.00483403 -0.01439238
v -0.05868788 0.01476197 -0.01058022
v -0.05645359 0.01422279 -0.01903740
v -0.05868788 0.01487230 -0.01058022
v -0.05339737 0.01402294 -0.02021005
v -0.01988313 0.01484940 -0.01527497
v -0.01936218 0.01304867 -0.01587994
v -0.01124699 0.01300704 -0.01418519
v -0.01040190 0.01258860 -0.01412304
v -0.00961469 0.01218058 -0.01402359
v -0.00999672 0.01182251 -0.01419348
v -0.00929055 0.01139783 -0.01410646
v -0.00997357 0.01070044 -0.01435508
v -0.00997357 0.00952841 -0.01442138
v -0.00905901 0.00835637 -0.01416033
v -0.00846861 0.00835637 -0.01401945
v 0.04517733 0.00718226 -0.00091309
v 0.03871759 0.00659728 -0.00234265
v 0.04635815 0.00718226 -0.00060646
v 0.04643918 0.00592071 -0.00026669
v 0.04689067 0.00547105 0.00001508
v 0.04610346 0.00518376 -0.00010508
v 0.04516575 0.00480905 -0.00022525
v 0.04476057 0.00415745 -0.00005122
v -0.01277510 0.00304787 -0.01292967
v -0.01818137 0.00383894 -0.01438409
v -0.01936218 0.00373694 -0.01449597
v -0.05339737 0.00600814 -0.01936061
v -0.00890852 0.00377441 -0.01256503
v 0.00824799 0.00306036 -0.00822663
v -0.00879275 0.00284802 -0.01196420
v 0.04400810 0.00398467 -0.00015066
v -0.05456661 0.01464955 -0.01982469
v -0.05562008 0.01533237 -0.01899597
v -0.05515701 0.01598188 -0.01877635
v -0.05637256 0.01489728 -0.01884265
v -0.05594422 0.01568003 -0.01856503
v -0.05339737 0.00535863 -0.01883436
v -0.05339737 0.00477157 -0.01823353
v -0.05339737 0.00421366 -0.01764514
v -0.05456661 0.00420117 -0.01766171
v -0.05456661 0.00382229 -0.01701530
v -0.05567796 0.00399716 -0.01706503
v -0.05647675 0.00409084 -0.01670867
v -0.05755337 0.00418660 -0.01423492
v -0.05777333 0.00483403 -0.01349320
v -0.05808589 0.00600814 -0.01232055
v -0.05905832 0.01187456 -0.00879845
v -0.05653463 0.01533237 -0.01817967
v -0.05684720 0.01539482 -0.01701530
v -0.05880364 0.01431231 -0.01001254
v -0.05875733 0.01500137 -0.00997525
v -0.05786594 0.01656894 -0.01232055
v -0.05754180 0.01720596 -0.01304155
v -0.05761125 0.01647110 -0.01345591
v -0.05339737 0.01461000 -0.01974596
v -0.02640075 0.01870691 -0.01324873
v -0.01936218 0.01619630 -0.01425563
v -0.01194159 0.01593817 -0.01287994
v -0.01114280 0.01580910 -0.01279293
v -0.01114280 0.01522204 -0.01315342
v -0.01124699 0.01410829 -0.01375840
v -0.01171006 0.01364198 -0.01408574
v -0.01093442 0.01337135 -0.01399873
v 0.04175066 0.01197240 -0.00143105
v 0.04282728 0.01159977 -0.00128188
v 0.04348715 0.01134371 -0.00119072
v 0.04432066 0.01070044 -0.00110785
v 0.04455220 0.00999264 -0.00116171
v -0.00897798 0.00952841 -0.01418105
v 0.04467954 0.00920990 -0.00119486
v 0.04467954 0.00867280 -0.00119486
v 0.04511945 0.00831266 -0.00106227
v 0.04454062 0.00789214 -0.00116171
v 0.04635815 0.00835637 -0.00073906
v 0.04752738 0.00835637 -0.00033713
v 0.04757369 0.00724263 -0.00017967
v 0.04720324 0.00625379 -0.00010923
v 0.04805990 0.00429901 0.00119602
v 0.04727269 0.00401381 0.00100956
v 0.04643918 0.00480905 0.00019326
v 0.04553621 0.00440102 0.00007309
v 0.05729803 0.00808158 0.00357862
v 0.05691600 0.00718018 0.00371536
v 0.05693915 0.00596443 0.00431204
v 0.04516575 0.00372444 0.00036315
v 0.04400810 0.00339761 0.00022641
v 0.04310512 0.00320400 0.00009796
v -0.01701214 0.00273353 -0.01324458
v -0.01936218 0.00314988 -0.01401116
v -0.01818137 0.00325188 -0.01393243
v -0.00997357 0.00275642 -0.01208436
v -0.01114280 0.00268564 -0.01220039
v -0.02020728 0.00309783 -0.01406088
v 0.04231791 0.00305203 -0.00001807
v 0.02914375 0.00192996 -0.00231365
v 0.03226943 0.00174260 -0.00135646
v 0.00715979 0.00188416 -0.00706641
v -0.05645359 0.01617132 -0.01778188
v -0.05562008 0.01627333 -0.01817967
v -0.05574742 0.01693325 -0.01723492
v -0.05456661 0.01699570 -0.01733851
v -0.02640075 0.01929397 -0.01251530
v -0.02098291 0.00306244 -0.01409403
v -0.02171223 0.00303954 -0.01411475
v -0.02056615 0.00268773 -0.01360094
v -0.02171223 0.00256282 -0.01349320
v -0.05428877 0.00302497 -0.01537027
v -0.05463607 0.00324980 -0.01579293
v -0.02053142 0.00201323 -0.01247801
v -0.05574742 0.00347047 -0.01584265
v -0.05667355 0.00393470 -0.01584265
v -0.05758810 0.00415537 -0.01349320
v -0.05797013 0.00483403 -0.01232055
v -0.05697454 0.00388058 -0.01464099
v -0.05691666 0.00366616 -0.01349320
v -0.05832900 0.00600814 -0.01114790
v -0.05902360 0.01304867 -0.00879845
v -0.05898887 0.01070044 -0.00879845
v -0.05898887 0.01070044 -0.00762580
v -0.05878049 0.01500137 -0.00914652
v -0.05847950 0.01558843 -0.00997525
v -0.05757652 0.01723302 -0.01232055
v -0.05696296 0.01740789 -0.01345591
v -0.05665040 0.01738083 -0.01467000
v -0.05648832 0.01728091 -0.01584265
v -0.05638413 0.01718931 -0.01650978
v -0.05656936 0.01656478 -0.01694486
v -0.02327507 0.01962914 -0.01184818
v -0.01936218 0.01678336 -0.01372525
v -0.01166375 0.01717682 -0.01175287
v -0.01122384 0.01662931 -0.01212166
v -0.00927897 0.01484732 -0.01293381
v -0.00997357 0.01498888 -0.01301668
v -0.00797081 0.01606099 -0.01179845
v 0.04232949 0.01483899 -0.00002221
v -0.00997357 0.01422279 -0.01340204
v 0.04080138 0.01347544 -0.00110370
v 0.04175066 0.01306949 -0.00103326
v 0.04141494 0.01269269 -0.00126530
v 0.03279038 0.01240541 -0.00350287
v 0.04220215 0.01243039 -0.00116171
v 0.04517733 0.01187456 -0.00060646
v 0.04392706 0.01179129 -0.00094624
v 0.04635815 0.01070044 -0.00058160
v 0.04517733 0.01070044 -0.00089238
v 0.04635815 0.00952841 -0.00074320
v 0.04511945 0.00957213 -0.00105812
v 0.04752738 0.00952841 -0.00034541
v 0.04815252 0.00767356 -0.00001392
v 0.05755271 0.00952841 0.00349989
v 0.05752956 0.00886433 0.00350403
v 0.04799045 0.00689081 0.00005238
v 0.05656870 0.00525038 0.00456895
v 0.05521424 0.00421158 0.00466425
v 0.04669387 0.00323315 0.00129547
v 0.04632342 0.00363909 0.00084381
v 0.05790001 0.00718226 0.00430790
v 0.05768005 0.00632665 0.00451508
v 0.05734433 0.00554391 0.00483414
v 0.04591824 0.00300832 0.00110486
v -0.01349285 0.00250869 -0.01232055
v -0.01466209 0.00238379 -0.01232055
v -0.01818137 0.00267524 -0.01334403
v -0.01231204 0.00204654 -0.01129707
v -0.01936218 0.00263360 -0.01342276
v 0.04517733 0.00290007 0.00098055
v 0.03868286 0.00191539 0.00001508
v 0.03789566 0.00182587 -0.00008436
v 0.03226943 0.00133874 -0.00058575
v 0.03110019 0.00166974 -0.00148906
v 0.03110019 0.00123049 -0.00058575
v 0.00645362 0.00184877 -0.00712028
v -0.05574742 0.01725592 -0.01664652
v -0.05456661 0.01731630 -0.01675425
v -0.02405071 0.02003300 -0.01114790
v -0.01936218 0.00204654 -0.01246144
v -0.05339737 0.00291880 -0.01467000
v -0.05463607 0.00298750 -0.01470315
v -0.05507598 0.00308742 -0.01511751
v -0.02053142 0.00186335 -0.01188961
v -0.01936218 0.00168431 -0.01114790
v -0.01818137 0.00143242 -0.00997525
v -0.01936218 0.00186126 -0.01187304
v -0.05567796 0.00322066 -0.01470315
v -0.05759968 0.00415329 -0.01232055
v -0.05800486 0.00483403 -0.01114790
v -0.05838689 0.00600814 -0.00997525
v -0.05589792 0.00317278 -0.01349320
v -0.05691666 0.00366824 -0.01232055
v -0.05872261 0.00766523 -0.00843796
v -0.05880364 0.00835637 -0.00866171
v -0.05894256 0.01192660 -0.00753050
v -0.05890784 0.01304867 -0.00782470
v -0.05887310 0.01424777 -0.00877359
v -0.05880364 0.00835637 -0.00790343
v -0.05884995 0.00949926 -0.00754293
v -0.05871102 0.00986982 -0.00699597
v -0.05874576 0.01070044 -0.00696282
v -0.05879206 0.01387514 -0.00804845
v -0.05856054 0.01465580 -0.00836337
v -0.05812062 0.01540107 -0.00879017
v -0.05768071 0.01609430 -0.00922110
v -0.05790067 0.01629415 -0.00997525
v -0.05756495 0.01720804 -0.01157884
v -0.05790067 0.01663348 -0.01117276
v -0.05691666 0.01748908 -0.01232055
v -0.05574742 0.01768269 -0.01467000
v -0.05574742 0.01750574 -0.01584265
v -0.01176794 0.01832179 -0.01055122
v -0.01221943 0.01792833 -0.01108160
v 0.04282728 0.01852372 0.00435348
v 0.04024570 0.01839465 0.00341702
v 0.04400810 0.01808655 0.00393497
v 0.04400810 0.01749949 0.00308138
v -0.00997357 0.01754113 -0.01095729
v -0.00879275 0.01739748 -0.01080812
v 0.04400810 0.01591318 0.00123331
v -0.00997357 0.01693741 -0.01154569
v -0.00879275 0.01677295 -0.01139652
v -0.00849176 0.01465372 -0.01283851
v 0.04276940 0.01424153 -0.00022939
v 0.04400810 0.01532613 0.00079409
v 0.04517733 0.01510546 0.00096812
v 0.04400810 0.01443929 0.00020569
v 0.04470269 0.01369610 -0.00003050
v 0.04400810 0.01304867 -0.00047801
v 0.04513103 0.01305492 -0.00019210
v 0.04605715 0.01266979 -0.00008851
v 0.04640445 0.01193285 -0.00023768
v 0.04713378 0.01157895 -0.00009680
v 0.04752738 0.01061509 -0.00017967
v 0.05752956 0.01017792 0.00350818
v 0.05799262 0.01062134 0.00379409
v 0.05890718 0.01070044 0.00440320
v 0.05813154 0.00952841 0.00388939
v 0.05883771 0.00952841 0.00447365
v 0.05808524 0.00840217 0.00409657
v 0.05664974 0.00401797 0.00565044
v 0.05598987 0.00446972 0.00486729
v 0.05565415 0.00372444 0.00531895
v 0.05456595 0.00342883 0.00498331
v 0.05376717 0.00319359 0.00478442
v 0.05873352 0.00872068 0.00461039
v 0.05864091 0.00794002 0.00481757
v 0.05771478 0.00395968 0.00671121
v 0.05742537 0.00434273 0.00592807
v 0.05456595 0.00281471 0.00557171
v 0.04752738 0.00283761 0.00209519
v 0.04812936 0.00189457 0.00350818
v 0.04635815 0.00205487 0.00258000
v 0.04515418 0.00226305 0.00184657
v 0.04131075 0.00181338 0.00104685
v -0.01584290 0.00226513 -0.01232055
v -0.01818137 0.00208818 -0.01237442
v -0.01349285 0.00200699 -0.01140895
v 0.04048881 0.00171762 0.00089354
v 0.03696953 0.00136997 0.00058276
v 0.03930800 0.00163435 0.00070707
v 0.03823137 0.00159272 0.00047917
v 0.03930800 0.00115971 0.00175956
v 0.04489949 0.00068299 0.00458138
v 0.04635815 0.00016671 0.00645431
v 0.03226943 0.00095986 0.00058276
v -0.01231204 0.00161770 -0.00997525
v -0.01349285 0.00181547 -0.01082470
v -0.01466209 0.00196952 -0.01151668
v -0.05456661 0.01762648 -0.01584265
v -0.05339737 0.01765771 -0.01584265
v -0.02405071 0.02036400 -0.00997525
v -0.01231204 0.02038482 -0.00645315
v 0.01527499 0.01950631 -0.00117829
v -0.01584290 0.00193829 -0.01160784
v -0.01818137 0.00188416 -0.01178602
v -0.05339737 0.00287508 -0.01349320
v -0.01936218 0.00146573 -0.00997525
v -0.01818137 0.00131168 -0.00879845
v -0.01936218 0.00135331 -0.00879845
v -0.02171223 0.00138662 -0.00762580
v -0.02405071 0.00143034 -0.00645315
v -0.05523805 0.00304995 -0.01433436
v -0.05456661 0.00295419 -0.01349320
v -0.01818137 0.00170513 -0.01114790
v -0.01701214 0.00144283 -0.00997525
v -0.01584290 0.00129086 -0.00879845
v -0.01701214 0.00129086 -0.00879845
v -0.01349285 0.00156149 -0.00997525
v -0.05758810 0.00416786 -0.01114790
v -0.05755337 0.00420325 -0.01047249
v -0.05781963 0.00482570 -0.01003740
v -0.05872261 0.00766523 -0.00813547
v -0.05531909 0.00304579 -0.01349320
v -0.05570112 0.00315820 -0.01225011
v -0.05691666 0.00381604 -0.01114790
v -0.05872261 0.01156854 -0.00697939
v -0.05865315 0.01235128 -0.00707470
v -0.05864157 0.00908916 -0.00709541
v -0.05819008 0.00949926 -0.00666862
v -0.05808589 0.01070044 -0.00647387
v -0.05846792 0.01304867 -0.00723630
v -0.05810905 0.01421863 -0.00763823
v -0.05777333 0.01502011 -0.00800702
v -0.05691666 0.01579036 -0.00845867
v -0.05691666 0.01621296 -0.00904293
v -0.05681247 0.01681875 -0.01008298
v -0.05714819 0.01706856 -0.01079569
v -0.05681247 0.01727466 -0.01117276
v -0.05574742 0.01770350 -0.01232055
v -0.05574742 0.01774306 -0.01349320
v -0.05221656 0.01809904 -0.01349320
v -0.05456661 0.01778053 -0.01467000
v -0.01114280 0.01825725 -0.01046834
v 0.04282728 0.01889427 0.00527751
v 0.04400810 0.01872981 0.00527751
v 0.04400810 0.01842588 0.00452337
v 0.04467954 0.01835301 0.00464768
v 0.04511945 0.01797413 0.00419602
v 0.04517733 0.01736209 0.00325127
v 0.04400810 0.01702693 0.00249713
v 0.04242210 0.01719972 0.00229409
v 0.04400810 0.01643987 0.00182171
v 0.04517733 0.01628582 0.00200818
v 0.04517733 0.01569252 0.00142392
v 0.04513103 0.01414160 0.00035486
v 0.04677490 0.01472033 0.00122917
v 0.04548990 0.01345046 0.00008552
v 0.04640445 0.01305492 0.00020983
v 0.04684436 0.01236169 0.00003580
v 0.05820100 0.01198489 0.00427061
v 0.05882614 0.01166638 0.00451923
v 0.05920817 0.01070044 0.00527751
v 0.05910398 0.00952841 0.00527751
v 0.05700861 0.00359746 0.00637558
v 0.05608248 0.00323731 0.00603580
v 0.05530685 0.00298750 0.00577061
v 0.05886087 0.00833972 0.00523608
v 0.05875668 0.00753616 0.00560072
v 0.05847884 0.00715936 0.00523608
v 0.05818942 0.00483403 0.00762696
v 0.05779582 0.00376608 0.00762696
v 0.05739064 0.00317902 0.00762696
v 0.05659186 0.00289590 0.00681895
v 0.05458910 0.00219851 0.00648331
v 0.05339671 0.00201115 0.00606895
v 0.04859243 0.00168848 0.00410486
v 0.04752738 0.00140744 0.00410486
v 0.04752738 0.00181755 0.00338801
v 0.05277158 0.00191331 0.00589077
v 0.04635815 0.00167807 0.00316425
v 0.04048881 0.00128878 0.00175956
v 0.04635815 0.00115346 0.00410486
v 0.04524679 0.00092655 0.00415459
v 0.04400810 0.00085994 0.00387696
v 0.04568670 0.00073919 0.00472226
v 0.04635815 0.00054975 0.00543083
v 0.04764315 0.00042693 0.00633829
v 0.04752738 0.00001682 0.00762696
v 0.04635815 -0.00009559 0.00762696
v 0.04517733 0.00010425 0.00645431
v 0.03110019 0.00090990 0.00058276
v -0.01466209 0.00178840 -0.01092829
v -0.05221656 0.01795748 -0.01467000
v -0.02238367 0.02072206 -0.00528050
v -0.02231422 0.02068876 -0.00592691
v -0.02212899 0.02068876 -0.00592691
v -0.01349285 0.02070957 -0.00495729
v -0.01349285 0.02063671 -0.00554569
v -0.01349285 0.02045976 -0.00645315
v -0.05104732 0.01818439 -0.01349320
v -0.01114280 0.02054095 -0.00528050
v 0.04121814 0.01951464 0.00699713
v 0.03768728 0.01951464 0.00582447
v 0.03053294 0.01950631 0.00351232
v 0.04165805 0.01901293 0.00527751
v -0.02640075 0.00147197 -0.00293105
v -0.02053142 0.00134290 -0.00762580
v -0.00410423 0.00047689 0.00293221
v -0.02288147 0.00138454 -0.00645315
v -0.05465922 0.00301456 -0.01225011
v -0.05512229 0.00307702 -0.01181088
v -0.05528436 0.00306036 -0.01259403
v -0.01466209 0.00151777 -0.00997525
v -0.01584290 0.00147822 -0.00997525
v 0.04517733 -0.00010392 0.00762696
v 0.03906489 -0.00046615 0.01162558
v 0.03850922 -0.00046615 0.01162558
v 0.00292276 0.00026039 0.00527751
v -0.05772702 0.00521083 -0.00914237
v -0.05574742 0.00339136 -0.01114790
v -0.05691666 0.00408043 -0.01022387
v -0.05691666 0.00439269 -0.00963547
v -0.05692824 0.00496934 -0.00876945
v -0.05770387 0.00637037 -0.00801116
v -0.05805116 0.00725096 -0.00768381
v -0.05844477 0.00835637 -0.00731917
v -0.05819008 0.01192660 -0.00664790
v -0.05787751 0.01304867 -0.00676392
v -0.05761125 0.00761943 -0.00695453
v -0.05785436 0.00835637 -0.00679293
v -0.05712504 0.00952841 -0.00602221
v -0.05724080 0.01070044 -0.00596420
v -0.05715977 0.01187456 -0.00600564
v -0.05764598 0.01378146 -0.00694210
v -0.05691666 0.01459959 -0.00720315
v -0.05691666 0.01520330 -0.00778740
v -0.02348345 0.01834261 0.00118773
v -0.05636098 0.01716224 -0.01054707
v -0.02354134 0.01954170 -0.00106641
v -0.02288147 0.02028489 -0.00293105
v -0.05574742 0.01743079 -0.01114790
v -0.05221656 0.01812818 -0.01232055
v -0.02239525 0.02072623 -0.00444348
v 0.04282728 0.01923360 0.00645431
v 0.04400810 0.01909204 0.00645431
v 0.05664974 0.01721845 0.00924298
v 0.05698546 0.01699154 0.00883276
v 0.05751798 0.01598813 0.00703442
v 0.04594139 0.01723511 0.00341702
v 0.04517733 0.01687288 0.00266702
v 0.05762217 0.01486606 0.00581204
v 0.05733275 0.01358577 0.00472226
v 0.05788843 0.01280303 0.00449851
v 0.05866407 0.01244913 0.00470155
v 0.05875668 0.01381060 0.00574989
v 0.05886087 0.01304867 0.00549298
v 0.05898821 0.01198489 0.00516978
v 0.05916186 0.01187456 0.00645431
v 0.05916186 0.01070044 0.00645431
v 0.05909241 0.00952841 0.00645431
v 0.05905767 0.01304867 0.00645431
v 0.05893033 0.00835637 0.00645431
v 0.05571203 0.00271479 0.00643773
v 0.05875668 0.00747995 0.00645431
v 0.05749483 0.00324564 0.01050265
v 0.05755271 0.00296876 0.00971950
v 0.05755271 0.00296876 0.00909381
v 0.05662658 0.00160729 0.00997226
v 0.05651082 0.00174469 0.00901508
v 0.05630244 0.00190915 0.00823608
v 0.05680023 0.00265442 0.00762696
v 0.05585095 0.00206944 0.00758138
v 0.05499428 0.00195911 0.00715873
v 0.05420708 0.00182171 0.00689768
v 0.05339671 0.00169264 0.00665735
v 0.05198437 0.00179257 0.00570017
v 0.05232009 0.00153859 0.00635072
v 0.04869662 0.00112848 0.00527751
v 0.04764315 0.00086826 0.00526508
v 0.04635815 0.00078915 0.00484243
v 0.04731900 0.00063719 0.00564630
v 0.04869662 0.00023332 0.00762696
v 0.05040995 0.00073711 0.00707586
v 0.04869662 0.00005429 0.00879961
v 0.04752738 -0.00009351 0.00879961
v 0.05178757 0.00069964 0.00812005
v 0.05448491 0.00084328 0.01006342
v 0.05482064 0.00076834 0.01084657
v 0.05522582 0.00071213 0.01162972
v 0.04635815 -0.00016846 0.00879961
v 0.04048881 -0.00050779 0.01245845
v 0.03940061 -0.00050570 0.01221812
v -0.01349285 0.02075537 -0.00410370
v -0.02192061 0.02072206 -0.00528050
v -0.01262461 0.02069708 -0.00483713
v -0.01226573 0.02061589 -0.00525149
v 0.03930800 0.01957501 0.00670707
v 0.04048881 0.01963746 0.00762696
v 0.04282728 0.01955419 0.00791702
v 0.04199377 0.01948341 0.00715044
v -0.02640075 0.00154900 -0.00175840
v -0.05425404 0.00304787 -0.01114790
v -0.01936218 0.00117636 -0.00058575
v -0.02053142 0.00124090 -0.00058575
v -0.02523152 0.00146781 -0.00175840
v 0.00175352 0.00030410 0.00527751
v -0.05398778 0.00307285 -0.01055536
v -0.05484445 0.00315612 -0.01114790
v 0.03843975 -0.00048697 0.01232171
v 0.03930800 -0.00050570 0.01305514
v -0.05655778 0.00525662 -0.00801530
v -0.05733342 0.00558763 -0.00835923
v -0.05582846 0.00390348 -0.00987166
v -0.05550431 0.00413872 -0.00911337
v -0.05487918 0.00430318 -0.00833436
v -0.05582846 0.00442600 -0.00875287
v -0.05690508 0.00601439 -0.00762166
v -0.05726395 0.00683877 -0.00722801
v -0.05685877 0.01298414 -0.00619624
v -0.05648832 0.00644323 -0.00695039
v -0.05689351 0.00720932 -0.00677221
v -0.05684720 0.00842299 -0.00620453
v -0.05639571 0.00885808 -0.00583575
v -0.05653463 0.00952841 -0.00579431
v -0.05666197 0.01070044 -0.00575287
v -0.05656936 0.01187456 -0.00578188
v -0.05641886 0.01254905 -0.00583160
v -0.05594422 0.01333180 -0.00600149
v -0.05691666 0.01401253 -0.00677221
v -0.05623364 0.01477446 -0.00707055
v -0.02348345 0.01716016 0.00234796
v 0.00223974 0.01717265 0.00823608
v -0.01279825 0.01831554 0.00349989
v -0.01349285 0.01869026 0.00283691
v -0.01349285 0.01927732 0.00190873
v -0.01519461 0.01949799 0.00116287
v -0.02288147 0.01928773 -0.00040757
v -0.05200818 0.01494100 -0.00570729
v -0.02288147 0.01991226 -0.00175840
v -0.02288147 0.01959166 -0.00099597
v -0.01466209 0.02024742 -0.00058575
v -0.02171223 0.02037233 -0.00293105
v -0.01349285 0.02032445 -0.00058575
v -0.01456947 0.02056801 -0.00187442
v -0.01410641 0.02067835 -0.00234265
v -0.01350443 0.02071582 -0.00281917
v 0.04282728 0.01945011 0.00733276
v 0.04353345 0.01952505 0.00809934
v 0.04396179 0.01936892 0.00767668
v 0.05698546 0.01731213 0.00994326
v 0.05742537 0.01713518 0.00953304
v 0.05771478 0.01617757 0.00762696
v 0.05869879 0.01485565 0.00696812
v 0.05840938 0.01459334 0.00618497
v 0.05805051 0.01421030 0.00554685
v 0.05820100 0.01313611 0.00487972
v 0.05881456 0.01421030 0.00652475
v 0.05893033 0.01304867 0.00762696
v 0.05676550 0.01187456 0.01818911
v 0.05698546 0.01070044 0.01701646
v 0.05692757 0.00952841 0.01701646
v 0.05681181 0.00835637 0.01701646
v 0.05631401 0.00453425 0.01750541
v 0.05668447 0.00483403 0.01584381
v 0.05722857 0.00366199 0.01232171
v 0.05882614 0.01422279 0.00762696
v 0.05700861 0.00248788 0.01232171
v 0.05717068 0.00248788 0.01114906
v 0.05658028 0.00154275 0.01232171
v 0.05663816 0.00151153 0.01114906
v 0.05566573 0.00090990 0.01120293
v 0.05574676 0.00112848 0.00997226
v 0.05585095 0.00155525 0.00869602
v 0.05552681 0.00176759 0.00793773
v 0.05458910 0.00161353 0.00758138
v 0.05339671 0.00123049 0.00762696
v 0.05104667 0.00115763 0.00645431
v 0.05219275 0.00092655 0.00768911
v 0.05104667 0.00022291 0.01114906
v 0.04987743 0.00009385 0.01114906
v 0.04752738 -0.00012058 0.00997226
v 0.04635815 -0.00028295 0.01232171
v 0.04635815 -0.00024756 0.01114906
v 0.04635815 -0.00020801 0.00997226
v 0.05456595 0.00112640 0.00879961
v 0.05582780 0.00095570 0.01232171
v 0.05523739 0.00070588 0.01232171
v 0.04261891 -0.00046823 0.01278580
v 0.04165805 -0.00049113 0.01264077
v 0.04048881 -0.00050779 0.01308414
v -0.01242780 0.02071790 -0.00281917
v -0.01114280 0.02071998 -0.00293105
v -0.00936001 0.02067835 -0.00353602
v 0.03930800 0.01969575 0.00762696
v 0.03226943 0.01974572 0.00527751
v 0.04282728 0.01961040 0.00879961
v -0.02644706 0.00177591 -0.00051530
v -0.02171223 0.00132000 -0.00058575
v -0.02288147 0.00141160 -0.00058575
v -0.02405071 0.00151569 -0.00058575
v -0.02523152 0.00162811 -0.00058575
v -0.00409266 0.00059555 0.00415873
v 0.03855552 -0.00048072 0.01298469
v 0.00410357 0.00032908 0.00645431
v -0.02686382 0.00191955 -0.00007608
v 0.04048881 -0.00028712 0.01366840
v 0.04165805 0.00008968 0.01466702
v 0.04165805 0.00052269 0.01572365
v 0.04048881 0.00012715 0.01466702
v 0.03930800 -0.00024548 0.01364353
v -0.05574742 0.00504637 -0.00777912
v -0.05574742 0.00561053 -0.00719072
v -0.02523152 0.00201323 0.00089768
v -0.02523152 0.00260029 0.00161867
v -0.05604841 0.00807534 -0.00598492
v -0.05574742 0.00619758 -0.00680122
v -0.05568954 0.00725096 -0.00621282
v -0.05574742 0.00952841 -0.00551669
v -0.05568954 0.00842299 -0.00571972
v -0.02513890 0.00726137 0.00444050
v -0.02469899 0.00770478 0.00470569
v -0.02486107 0.00835637 0.00478442
v -0.02498841 0.00952841 0.00485900
v -0.02490737 0.01070044 0.00483000
v -0.02475688 0.01187456 0.00475127
v -0.02465269 0.01248035 0.00469740
v -0.05164931 0.01364406 -0.00468796
v -0.05515701 0.01363573 -0.00586475
v -0.05104732 0.01441015 -0.00494901
v -0.05008647 0.01465788 -0.00480398
v -0.02394652 0.01658976 0.00265044
v -0.02405071 0.01570293 0.00330928
v -0.01466209 0.01559467 0.00560072
v -0.01466209 0.01636701 0.00501232
v 0.03753678 0.01481609 0.01760900
v 0.01886373 0.01714143 0.01171674
v 0.00464767 0.01834052 0.00705099
v -0.01231204 0.01934602 0.00202475
v 0.04165805 0.01846127 0.01429409
v -0.01474312 0.01974780 0.00069464
v 0.01349219 0.01944386 0.00690597
v -0.01349285 0.01990185 0.00058276
v -0.01231204 0.01998720 0.00058276
v 0.01349219 0.01967910 0.00631757
v -0.01231204 0.02038274 -0.00058575
v -0.01114280 0.02062214 -0.00159265
v -0.01114280 0.02069708 -0.00217691
v 0.04375341 0.01954378 0.00879961
v 0.04434382 0.01945843 0.00879961
v 0.05691600 0.01749325 0.01114906
v 0.05752956 0.01718514 0.01031619
v 0.05790001 0.01645028 0.00879961
v 0.05869879 0.01486189 0.00762696
v 0.05780740 0.01667303 0.00994326
v 0.05755271 0.01720596 0.01114906
v 0.05868722 0.01483275 0.00824851
v 0.05806208 0.01539482 0.01114906
v 0.05758744 0.01625459 0.01320016
v 0.05670762 0.01304867 0.01818911
v 0.05646451 0.01187456 0.01899713
v 0.05645294 0.01070044 0.01900541
v 0.05674235 0.01070044 0.01818911
v 0.05667289 0.00952841 0.01818911
v 0.05631401 0.00785675 0.01873608
v 0.05612879 0.00488815 0.01808552
v 0.05580465 0.00366199 0.01818911
v 0.05620983 0.00364117 0.01707447
v 0.05639505 0.00401797 0.01672226
v 0.05699704 0.00366199 0.01349436
v 0.05651082 0.00829184 0.01828027
v 0.05637190 0.00863949 0.01886867
v 0.05674235 0.00248788 0.01349436
v 0.05645294 0.00173428 0.01349436
v 0.04987743 0.00009385 0.01232171
v 0.04869662 -0.00003939 0.01232171
v 0.04752738 -0.00016846 0.01232171
v 0.04752738 -0.00011433 0.01349436
v 0.04635815 -0.00021217 0.01349436
v 0.04261891 -0.00046823 0.01298055
v 0.04517733 -0.00033708 0.01232171
v 0.05564257 0.00110350 0.01341563
v 0.05519109 0.00071629 0.01297226
v 0.04165805 -0.00049113 0.01304271
v 0.04517733 0.00009385 0.01466702
v 0.04400810 0.00008760 0.01466702
v 0.04282728 0.00008760 0.01466702
v -0.01032086 0.02069084 -0.00222249
v 0.03930800 0.01970408 0.00879961
v 0.04048881 0.01967910 0.00879961
v 0.04165805 0.01964579 0.00879961
v 0.04282728 0.01959583 0.00997226
v 0.04395021 0.01953754 0.00997226
v 0.04452904 0.01949799 0.00997226
v -0.02607661 0.00186751 0.00012282
v -0.02523152 0.00181963 0.00030928
v -0.02402755 0.00177591 0.00064492
v 0.00997291 0.00065592 0.00947088
v 0.00645362 0.00059763 0.00836867
v 0.00645362 0.00041860 0.00762696
v 0.00528439 0.00053102 0.00767254
v -0.02439800 0.00192996 0.00107171
v 0.04282728 0.00052269 0.01576922
v 0.04165805 0.00079748 0.01631204
v 0.04048881 0.00055600 0.01558691
v 0.04282728 0.00076626 0.01635348
v -0.05509913 0.00543566 -0.00704983
v -0.01689637 0.00268564 0.00415873
v -0.02381917 0.00296668 0.00246398
v -0.02460638 0.00308951 0.00233552
v -0.05526121 0.00769021 -0.00582746
v -0.02445589 0.00433857 0.00345431
v -0.02498841 0.00511923 0.00370707
v -0.02396967 0.00610390 0.00446122
v -0.02430539 0.00692204 0.00462282
v -0.01575029 0.00728010 0.00683967
v -0.01701214 0.00835637 0.00675265
v -0.01636385 0.00952841 0.00702613
v -0.01630596 0.01070044 0.00701370
v -0.02405071 0.01070044 0.00506204
v -0.01548402 0.01156854 0.00708414
v -0.01585448 0.01192660 0.00693497
v -0.01515988 0.01235128 0.00702199
v -0.01584290 0.01304867 0.00660348
v -0.02405071 0.01323187 0.00456481
v -0.02405071 0.01422279 0.00416702
v -0.02476845 0.01495765 0.00361177
v -0.02405071 0.01511587 0.00370707
v -0.01466209 0.01500970 0.00599436
v 0.01067908 0.01476197 0.01171260
v -0.01466209 0.01422279 0.00639215
v 0.04002575 0.01358577 0.01875679
v 0.03813876 0.01489312 0.01766702
v 0.04048881 0.01640448 0.01680928
v 0.04048881 0.01699154 0.01620845
v 0.04165805 0.01708522 0.01632862
v 0.04165805 0.01748492 0.01574436
v 0.04165805 0.01807198 0.01488248
v 0.04048881 0.01838841 0.01417392
v 0.02222094 0.01834261 0.01057724
v 0.04282728 0.01808447 0.01488248
v 0.04282728 0.01845710 0.01429409
v 0.04282728 0.01882766 0.01349436
v 0.04165805 0.01880892 0.01349436
v 0.04165805 0.01918780 0.01232171
v 0.01349219 0.01997055 0.00527751
v 0.01232296 0.01991642 0.00527751
v 0.01114214 0.02010170 0.00410486
v 0.04165805 0.01953546 0.01075956
v 0.04282728 0.01953962 0.01078856
v 0.05574676 0.01778886 0.01232171
v 0.05574676 0.01769518 0.01114906
v 0.05699704 0.01743079 0.01230099
v 0.05847884 0.01529282 0.00870431
v 0.05752956 0.01719139 0.01189906
v 0.05784213 0.01656894 0.01114906
v 0.05768005 0.01661474 0.01230099
v 0.05744852 0.01703734 0.01268221
v 0.05733275 0.01661474 0.01355237
v 0.05646451 0.01500553 0.01779961
v 0.05654555 0.01414577 0.01818911
v 0.05686969 0.01422279 0.01701646
v 0.05636032 0.01370443 0.01881481
v 0.05641821 0.01304867 0.01890597
v 0.05604775 0.01187456 0.01958552
v 0.05610564 0.01070044 0.01958967
v 0.05641821 0.00952841 0.01895155
v 0.05610564 0.00952841 0.01953994
v 0.05593199 0.00718226 0.01936177
v 0.05543419 0.00494020 0.01941149
v 0.05634875 0.00187167 0.01413248
v 0.05534158 0.00366199 0.01899298
v 0.05517951 0.00305620 0.01879409
v 0.05536474 0.00286468 0.01818911
v 0.05611721 0.00829184 0.01929961
v 0.05576992 0.00155525 0.01458000
v 0.04869662 0.00002306 0.01349436
v 0.05104667 0.00046232 0.01466702
v 0.04987743 0.00032908 0.01466702
v 0.04635815 0.00012924 0.01466702
v 0.04517733 -0.00025381 0.01349436
v 0.05104667 0.00062886 0.01557447
v 0.04869662 0.00024373 0.01466702
v 0.04987743 0.00057057 0.01560762
v 0.05537631 0.00170097 0.01584381
v 0.05456595 0.00130335 0.01584381
v 0.05456595 0.00097235 0.01466702
v 0.05339671 0.00096819 0.01584381
v 0.05273685 0.00073711 0.01516840
v 0.04517733 0.00052893 0.01574436
v 0.04400810 0.00052269 0.01575679
v 0.05104667 0.00081414 0.01615873
v 0.04378814 0.01951672 0.01064768
v 0.04411229 0.01945219 0.01108276
v 0.05574676 0.01772640 0.01349436
v 0.00931304 0.00070588 0.00940873
v 0.00568957 0.00067050 0.00826923
v 0.04282728 0.00135331 0.01696674
v 0.04165805 0.00138454 0.01691287
v 0.04048881 0.00148030 0.01682585
v 0.03930800 0.00159896 0.01673884
v 0.04400810 0.00077042 0.01634519
v 0.05104667 0.00128045 0.01701646
v 0.04987743 0.00176550 0.01774574
v 0.04869662 0.00178008 0.01771674
v -0.01584290 0.00297501 0.00477613
v -0.02366868 0.00417202 0.00357862
v -0.02413174 0.00363077 0.00296122
v -0.01643331 0.00307285 0.00469326
v -0.02406228 0.00477157 0.00383138
v -0.01669957 0.00524413 0.00595707
v -0.01584290 0.00600814 0.00645431
v -0.01701214 0.00718226 0.00649989
v -0.01529880 0.00773601 0.00704685
v -0.01408326 0.00658687 0.00704271
v 0.03534880 0.00679713 0.01874851
v -0.01609758 0.00835637 0.00697641
v 0.03510569 0.00757988 0.01880237
v 0.03503624 0.00835637 0.01881895
v 0.02460572 0.01002595 0.01644050
v 0.02460572 0.01021331 0.01644050
v -0.01070289 0.01138743 0.00824436
v -0.01473155 0.01302786 0.00687696
v 0.01992878 0.01129999 0.01525956
v -0.01772988 0.01370443 0.00590735
v -0.01537984 0.01487022 0.00590320
v -0.01291402 0.01363990 0.00704271
v 0.03764097 0.01240749 0.01875679
v 0.03930800 0.01280927 0.01891011
v 0.04044250 0.01313611 0.01898884
v 0.04165805 0.01304867 0.01920016
v 0.04081296 0.01369402 0.01881066
v 0.04044250 0.01413952 0.01849160
v 0.03930800 0.01502427 0.01777475
v 0.04048881 0.01572791 0.01739353
v 0.04165805 0.01582991 0.01748884
v 0.04165805 0.01649816 0.01690458
v 0.05456595 0.01492226 0.01888939
v 0.05485536 0.01607140 0.01771259
v 0.04282728 0.01708106 0.01633690
v 0.04282728 0.01749741 0.01574851
v 0.05530685 0.01607140 0.01771259
v 0.05456595 0.01699362 0.01610486
v 0.05550365 0.01725384 0.01548746
v 0.04400810 0.01917323 0.01232171
v 0.04282728 0.01922944 0.01232171
v 0.04165805 0.01942512 0.01134381
v 0.04282728 0.01944594 0.01137696
v 0.05673077 0.01741206 0.01349436
v 0.05653397 0.01729131 0.01443912
v 0.05658028 0.01635660 0.01584381
v 0.05642978 0.01611303 0.01658552
v 0.05608248 0.01578828 0.01736867
v 0.05568888 0.01535111 0.01814768
v 0.05530685 0.01491602 0.01887696
v 0.05608248 0.01448718 0.01858276
v 0.05571203 0.01414577 0.01907586
v 0.05533001 0.01277596 0.02009519
v 0.05545735 0.01187456 0.02022364
v 0.05551523 0.01070044 0.02031895
v 0.05551523 0.00952841 0.02035624
v 0.05548050 0.00835637 0.02033138
v 0.05541104 0.00718226 0.02024022
v 0.05526054 0.00600814 0.02006204
v 0.05516793 0.00540027 0.01995431
v 0.05521424 0.00185710 0.01653580
v 0.05456595 0.00466332 0.01979271
v 0.05456595 0.00366199 0.01928304
v 0.05456595 0.00297709 0.01885210
v 0.05409131 0.00185710 0.01767116
v 0.05486694 0.00202989 0.01731895
v 0.05194964 0.00068715 0.01544188
v 0.05229694 0.00079748 0.01583552
v 0.05451965 0.00172387 0.01696260
v 0.05339671 0.00141577 0.01701646
v 0.04517733 0.00077458 0.01633276
v 0.05222748 0.00129086 0.01701646
v 0.05582780 0.01741206 0.01476646
v 0.03813876 0.00171970 0.01662696
v 0.03724736 0.00182171 0.01651922
v 0.03817349 0.00256906 0.01726094
v 0.03441110 0.00438020 0.01753442
v -0.00226355 0.00310616 0.00819050
v -0.01584290 0.00366199 0.00524851
v 0.04282728 0.00195703 0.01755099
v 0.04165805 0.00202156 0.01750127
v 0.04048881 0.00214647 0.01741425
v 0.05104667 0.00178008 0.01774160
v 0.05339671 0.00233174 0.01829685
v 0.05339671 0.00291880 0.01889768
v 0.04282728 0.00254408 0.01805652
v -0.01584290 0.00444890 0.00575403
v -0.01584290 0.00503596 0.00606895
v 0.03575398 0.00603729 0.01861591
v 0.03612443 0.00644740 0.01882309
v 0.04104449 0.00773809 0.01995431
v 0.04096345 0.00835637 0.01997503
v 0.04095188 0.00930982 0.01997503
v 0.03503624 0.00952841 0.01881481
v 0.03511727 0.01025494 0.01879823
v 0.02480253 0.01099605 0.01639492
v 0.02558973 0.01140616 0.01647779
v 0.03541826 0.01103769 0.01873608
v 0.02142216 0.01230965 0.01519740
v 0.03620547 0.01138326 0.01880652
v 0.03696953 0.01161017 0.01887696
v 0.04048881 0.01187456 0.01942806
v 0.04165805 0.01187456 0.01961453
v 0.04165805 0.01379187 0.01886038
v 0.05339671 0.01187456 0.02059243
v 0.04282728 0.01304867 0.01929547
v 0.05397554 0.01363990 0.01995431
v 0.04282728 0.01391053 0.01892668
v 0.04165805 0.01437892 0.01850818
v 0.04282728 0.01449758 0.01858691
v 0.04048881 0.01514085 0.01784934
v 0.04165805 0.01524286 0.01792392
v 0.04282728 0.01529490 0.01799851
v 0.04282728 0.01588196 0.01751370
v 0.05401027 0.01363990 0.01995431
v 0.05571203 0.01630456 0.01699160
v 0.05627929 0.01713310 0.01521812
v 0.05582780 0.01694158 0.01586453
v 0.05479748 0.01355871 0.01991287
v 0.05447334 0.01311945 0.02016563
v 0.05456595 0.01187456 0.02062972
v 0.05447334 0.01061509 0.02091149
v 0.05468172 0.00952841 0.02094464
v 0.05451965 0.00834805 0.02094050
v 0.05456595 0.00718226 0.02069602
v 0.05456595 0.00600814 0.02032309
v 0.05456595 0.00525038 0.02003304
v 0.05339671 0.00521915 0.02004547
v 0.05339671 0.00463210 0.01978027
v 0.05339671 0.00366199 0.01931204
v 0.05339671 0.00181963 0.01770845
v 0.05222748 0.00179465 0.01772503
v 0.03930800 0.00230676 0.01732724
v 0.04165805 0.00343300 0.01858276
v 0.03857867 0.00301664 0.01763387
v 0.03578871 0.00483403 0.01808967
v 0.04165805 0.00260862 0.01799436
v 0.04282728 0.00386392 0.01898470
v 0.04282728 0.00327687 0.01864492
v 0.03696953 0.00562926 0.01870707
v 0.03930800 0.00600814 0.01927475
v 0.04058143 0.00728010 0.01978442
v 0.04165805 0.00698449 0.01987144
v 0.04165805 0.00757155 0.01999160
v 0.04165805 0.00835637 0.02007447
v 0.04155386 0.00963250 0.02004547
v 0.04109079 0.01009257 0.01995016
v 0.03580029 0.01066922 0.01886453
v 0.04048881 0.01070044 0.01970569
v 0.04155386 0.01071502 0.01987972
v 0.05394082 0.01016751 0.02113525
v 0.05402185 0.01016751 0.02113525
v 0.05409131 0.00873317 0.02116011
v 0.05409131 0.00952841 0.02115597
v 0.05339671 0.00718226 0.02073746
v 0.05339671 0.00600814 0.02036039
v 0.04282728 0.00483403 0.01937834
v 0.04048881 0.00273353 0.01786177
v 0.04165805 0.00402006 0.01889768
v 0.03696953 0.00483403 0.01833414
v 0.03760624 0.00545439 0.01876508
v 0.04165805 0.00483403 0.01923331
v 0.03930800 0.00510257 0.01894740
v 0.04048881 0.00600814 0.01947779
v 0.04165805 0.00600814 0.01962282
v 0.05384820 0.00873317 0.02116011
v 0.05385978 0.00952841 0.02115597
v 0.04186643 0.01033405 0.01999574
f 1 2 6
f 1 6 3
f 1 3 11
f 1 11 4
f 1 4 5
f 1 5 2
f 2 5 7
f 2 7 8
f 2 8 9
f 2 9 6
f 3 10 11
f 3 6 10
f 4 11 12
f 4 12 13
f 4 13 14
f 4 14 5
f 5 15 16
f 5 16 7
f 5 14 17
f 5 17 15
f 6 9 18
f 6 18 10
f 7 19 20
f 7 20 21
f 7 21 8
f 7 16 19
f 8 21 22
f 8 22 23
f 8 23 9
f 9 23 24
f 9 24 18
f 10 18 25
f 10 25 26
f 10 26 11
f 11 26 27
f 11 27 28
f 11 28 12
f 12 28 29
f 12 29 30
f 12 30 13
f 13 30 31
f 13 31 32
f 13 32 33
f 13 33 34
f 13 34 14
f 14 34 35
f 14 35 36
f 14 36 17
f 15 17 16
f 16 17 37
f 16 37 38
f 16 38 39
f 16 39 19
f 17 36 40
f 17 40 41
f 17 41 37
f 18 42 25
f 18 24 43
f 18 43 42
f 19 39 44
f 19 44 20
f 20 45 46
f 20 46 47
f 20 47 21
f 20 44 45
f 21 47 48
f 21 48 22
f 22 48 49
f 22 49 50
f 22 50 23
f 23 50 24
f 24 50 51
f 24 51 43
f 25 52 26
f 25 42 52
f 26 52 53
f 26 53 27
f 27 53 54
f 27 54 55
f 27 55 29
f 27 29 28
f 29 55 31
f 29 31 30
f 31 55 56
f 31 56 32
f 32 56 57
f 32 57 58
f 32 58 34
f 32 34 33
f 34 58 59
f 34 59 60
f 34 60 35
f 35 40 36
f 35 60 61
f 35 61 62
f 35 62 40
f 37 41 63
f 37 63 39
f 37 39 38
f 39 64 44
f 39 63 64
f 40 65 66
f 40 66 67
f 40 67 41
f 40 62 68
f 40 68 69
f 40 69 65
f 41 67 70
f 41 70 63
f 42 71 52
f 42 43 72
f 42 72 71
f 43 51 73
f 43 73 72
f 44 64 74
f 44 74 45
f 45 74 75
f 45 75 76
f 45 76 77
f 45 77 78
f 45 78 79
f 45 79 46
f 46 79 47
f 47 79 80
f 47 80 81
f 47 81 82
f 47 82 83
f 47 83 84
f 47 84 49
f 47 49 48
f 49 84 50
f 50 84 85
f 50 85 83
f 50 83 86
f 50 86 87
f 50 87 89
f 50 89 51
f 51 88 73
f 51 89 88
f 52 71 90
f 52 90 91
f 52 91 92
f 52 92 53
f 53 92 93
f 53 93 94
f 53 94 54
f 54 94 95
f 54 95 96
f 54 96 97
f 54 97 55
f 55 97 98
f 55 98 99
f 55 99 56
f 56 99 57
f 57 99 100
f 57 100 58
f 58 60 59
f 58 100 101
f 58 101 102
f 58 102 60
f 60 102 103
f 60 103 61
f 61 103 102
f 61 102 104
f 61 104 105
f 61 105 106
f 61 106 107
f 61 107 108
f 61 108 62
f 62 108 109
f 62 109 68
f 63 70 110
f 63 110 111
f 63 111 112
f 63 112 64
f 64 113 75
f 64 75 74
f 64 112 113
f 65 114 66
f 65 69 115
f 65 115 114
f 66 116 67
f 66 114 115
f 66 115 116
f 67 116 70
f 68 109 117
f 68 117 115
f 68 115 69
f 70 116 110
f 71 118 90
f 71 72 118
f 72 119 120
f 72 120 118
f 72 73 121
f 72 121 122
f 72 122 119
f 73 88 121
f 75 113 123
f 75 123 124
f 75 124 125
f 75 125 76
f 76 125 126
f 76 126 77
f 77 126 127
f 77 127 128
f 77 128 78
f 78 129 80
f 78 80 79
f 78 128 129
f 80 129 81
f 81 129 130
f 81 130 82
f 82 130 83
f 83 130 86
f 83 85 84
f 86 130 131
f 86 131 132
f 86 132 133
f 86 133 87
f 87 133 89
f 88 134 121
f 88 89 135
f 88 135 134
f 89 133 136
f 89 136 137
f 89 137 138
f 89 138 139
f 89 139 140
f 89 140 135
f 90 118 141
f 90 141 142
f 90 142 143
f 90 143 91
f 91 143 144
f 91 144 145
f 91 145 146
f 91 146 147
f 91 147 148
f 91 148 92
f 92 148 93
f 93 148 149
f 93 149 94
f 94 149 150
f 94 150 151
f 94 151 152
f 94 152 95
f 95 152 96
f 96 152 97
f 97 152 153
f 97 153 154
f 97 154 98
f 98 155 99
f 98 154 156
f 98 156 155
f 99 155 101
f 99 101 100
f 101 155 157
f 101 157 158
f 101 158 159
f 101 159 102
f 102 159 158
f 102 158 104
f 104 160 161
f 104 161 162
f 104 162 163
f 104 163 105
f 104 158 160
f 105 163 106
f 106 164 165
f 106 165 166
f 106 166 167
f 106 167 107
f 106 163 168
f 106 168 169
f 106 169 170
f 106 170 164
f 107 167 108
f 108 167 109
f 109 167 171
f 109 171 172
f 109 172 173
f 109 173 117
f 110 174 175
f 110 175 176
f 110 176 112
f 110 112 111
f 110 116 177
f 110 177 178
f 110 178 174
f 112 176 175
f 112 175 179
f 112 179 113
f 113 179 123
f 115 117 180
f 115 180 181
f 115 181 116
f 116 181 182
f 116 182 183
f 116 183 177
f 117 173 180
f 118 120 141
f 119 122 120
f 120 122 184
f 120 184 185
f 120 185 186
f 120 186 187
f 120 187 188
f 120 188 142
f 120 142 141
f 121 134 184
f 121 184 122
f 123 179 189
f 123 189 124
f 124 189 125
f 125 127 126
f 125 189 190
f 125 190 191
f 125 191 192
f 125 192 127
f 127 193 194
f 127 194 128
f 127 192 195
f 127 195 193
f 128 194 196
f 128 196 129
f 129 196 197
f 129 197 130
f 130 198 199
f 130 199 131
f 130 197 200
f 130 200 201
f 130 201 198
f 131 199 202
f 131 202 132
f 132 202 133
f 133 203 136
f 133 202 204
f 133 204 205
f 133 205 203
f 134 135 140
f 134 140 184
f 136 203 137
f 137 203 206
f 137 206 207
f 137 207 208
f 137 208 139
f 137 139 138
f 139 208 209
f 139 209 210
f 139 210 211
f 139 211 212
f 139 212 213
f 139 213 184
f 139 184 140
f 142 188 214
f 142 214 215
f 142 215 143
f 143 215 216
f 143 216 144
f 144 216 217
f 144 217 145
f 145 218 219
f 145 219 146
f 145 217 220
f 145 220 221
f 145 221 218
f 146 219 147
f 147 219 218
f 147 218 222
f 147 222 148
f 148 222 223
f 148 223 224
f 148 224 225
f 148 225 149
f 149 225 226
f 149 226 150
f 150 227 228
f 150 228 229
f 150 229 151
f 150 226 227
f 151 229 228
f 151 228 152
f 152 228 230
f 152 230 231
f 152 231 153
f 153 231 154
f 154 231 230
f 154 230 232
f 154 232 233
f 154 233 156
f 155 156 157
f 156 233 232
f 156 232 157
f 157 232 160
f 157 160 158
f 160 232 234
f 160 234 161
f 161 235 162
f 161 234 236
f 161 236 237
f 161 237 235
f 162 235 237
f 162 237 238
f 162 238 163
f 163 238 168
f 164 170 239
f 164 239 165
f 165 239 240
f 165 240 241
f 165 241 242
f 165 242 166
f 166 242 167
f 167 242 171
f 168 237 243
f 168 243 244
f 168 244 169
f 168 238 237
f 169 244 170
f 170 244 245
f 170 245 239
f 171 242 246
f 171 246 172
f 172 246 173
f 173 246 180
f 174 247 248
f 174 248 249
f 174 249 175
f 174 178 247
f 175 249 179
f 177 183 178
f 178 183 250
f 178 250 248
f 178 248 247
f 179 249 251
f 179 251 189
f 180 246 252
f 180 252 253
f 180 253 181
f 181 253 254
f 181 254 182
f 182 254 255
f 182 255 256
f 182 256 183
f 183 256 255
f 183 255 257
f 183 257 258
f 183 258 250
f 184 213 212
f 184 212 185
f 185 212 186
f 186 212 259
f 186 259 260
f 186 260 187
f 187 260 261
f 187 261 214
f 187 214 188
f 189 251 191
f 189 191 190
f 191 251 192
f 192 251 262
f 192 262 195
f 193 263 264
f 193 264 265
f 193 265 196
f 193 196 194
f 193 195 266
f 193 266 267
f 193 267 268
f 193 268 263
f 195 262 269
f 195 269 266
f 196 265 270
f 196 270 197
f 197 270 200
f 198 271 272
f 198 272 199
f 198 201 271
f 199 272 273
f 199 273 202
f 200 270 201
f 201 274 275
f 201 275 271
f 201 270 274
f 202 273 276
f 202 276 277
f 202 277 204
f 203 205 278
f 203 278 279
f 203 279 280
f 203 280 206
f 204 277 281
f 204 281 205
f 205 281 282
f 205 282 283
f 205 283 284
f 205 284 278
f 206 280 285
f 206 285 286
f 206 286 287
f 206 287 288
f 206 288 289
f 206 289 290
f 206 290 207
f 207 290 291
f 207 291 208
f 208 291 290
f 208 290 292
f 208 292 209
f 209 292 293
f 209 293 210
f 210 293 211
f 211 293 294
f 211 294 212
f 212 294 259
f 214 295 296
f 214 296 216
f 214 216 215
f 214 261 297
f 214 297 298
f 214 298 299
f 214 299 300
f 214 300 295
f 216 296 301
f 216 301 302
f 216 302 303
f 216 303 304
f 216 304 217
f 217 304 305
f 217 305 220
f 218 306 222
f 218 221 307
f 218 307 306
f 220 305 303
f 220 303 221
f 221 303 308
f 221 308 309
f 221 309 310
f 221 310 311
f 221 311 307
f 222 306 223
f 223 311 312
f 223 312 224
f 223 306 311
f 224 312 225
f 225 312 313
f 225 313 227
f 225 227 226
f 227 313 228
f 228 313 314
f 228 314 315
f 228 315 230
f 230 315 316
f 230 316 317
f 230 317 234
f 230 234 232
f 234 317 318
f 234 318 236
f 236 318 319
f 236 319 320
f 236 320 321
f 236 321 237
f 237 321 322
f 237 322 323
f 237 323 243
f 239 245 324
f 239 324 325
f 239 325 240
f 240 325 326
f 240 326 327
f 240 327 241
f 241 246 242
f 241 327 328
f 241 328 246
f 243 323 329
f 243 329 330
f 243 330 244
f 244 330 331
f 244 331 332
f 244 332 245
f 245 332 324
f 246 328 333
f 246 333 334
f 246 334 335
f 246 335 336
f 246 336 337
f 246 337 338
f 246 338 252
f 248 250 339
f 248 339 249
f 249 339 340
f 249 340 262
f 249 262 251
f 250 341 340
f 250 340 339
f 250 258 341
f 252 338 253
f 253 338 342
f 253 342 254
f 254 343 255
f 254 342 344
f 254 344 345
f 254 345 343
f 255 343 346
f 255 346 257
f 257 346 347
f 257 347 348
f 257 348 349
f 257 349 350
f 257 350 351
f 257 351 352
f 257 352 341
f 257 341 258
f 259 294 353
f 259 353 260
f 260 353 354
f 260 354 261
f 261 354 353
f 261 353 355
f 261 355 356
f 261 356 357
f 261 357 297
f 262 340 352
f 262 352 358
f 262 358 359
f 262 359 269
f 263 360 264
f 263 268 361
f 263 361 362
f 263 362 363
f 263 363 364
f 263 364 365
f 263 365 360
f 264 366 265
f 264 360 367
f 264 367 366
f 265 366 270
f 266 269 267
f 267 269 368
f 267 368 369
f 267 369 268
f 268 369 370
f 268 370 371
f 268 371 362
f 268 362 361
f 269 359 372
f 269 372 368
f 270 366 274
f 271 275 373
f 271 373 272
f 272 373 374
f 272 374 375
f 272 375 273
f 273 376 276
f 273 375 376
f 274 366 377
f 274 377 378
f 274 378 275
f 275 379 374
f 275 374 373
f 275 378 379
f 276 376 281
f 276 281 277
f 278 284 380
f 278 380 381
f 278 381 279
f 279 381 285
f 279 285 280
f 281 376 382
f 281 382 282
f 282 382 283
f 283 382 383
f 283 383 384
f 283 384 284
f 284 384 380
f 285 381 385
f 285 385 386
f 285 386 286
f 286 386 387
f 286 387 287
f 287 387 288
f 288 290 289
f 288 387 388
f 288 388 389
f 288 389 390
f 288 390 391
f 288 391 290
f 290 391 392
f 290 392 292
f 292 392 393
f 292 393 394
f 292 394 293
f 293 394 395
f 293 395 396
f 293 396 353
f 293 353 294
f 295 397 301
f 295 301 296
f 295 300 397
f 297 398 399
f 297 399 400
f 297 400 299
f 297 299 298
f 297 357 398
f 299 400 401
f 299 401 402
f 299 402 403
f 299 403 300
f 300 403 404
f 300 404 405
f 300 405 397
f 301 397 303
f 301 303 302
f 303 406 407
f 303 407 408
f 303 408 309
f 303 309 308
f 303 305 304
f 303 397 406
f 306 307 311
f 309 409 310
f 309 408 410
f 309 410 409
f 310 409 311
f 311 409 411
f 311 411 313
f 311 313 312
f 313 411 314
f 314 411 412
f 314 412 413
f 314 413 315
f 315 413 316
f 316 413 414
f 316 414 319
f 316 319 318
f 316 318 317
f 319 414 415
f 319 415 320
f 320 415 416
f 320 416 322
f 320 322 321
f 322 416 417
f 322 417 329
f 322 329 323
f 324 332 418
f 324 418 419
f 324 419 420
f 324 420 326
f 324 326 325
f 326 420 327
f 327 420 328
f 328 420 333
f 329 417 421
f 329 421 330
f 330 421 422
f 330 422 423
f 330 423 331
f 331 423 422
f 331 422 424
f 331 424 425
f 331 425 426
f 331 426 427
f 331 427 418
f 331 418 332
f 333 420 428
f 333 428 429
f 333 429 335
f 333 335 334
f 335 430 431
f 335 431 432
f 335 432 336
f 335 429 433
f 335 433 430
f 336 432 338
f 336 338 337
f 338 432 434
f 338 434 342
f 340 341 352
f 342 435 344
f 342 434 436
f 342 436 437
f 342 437 435
f 343 345 435
f 343 435 346
f 344 435 345
f 346 435 347
f 347 435 438
f 347 438 439
f 347 439 440
f 347 440 348
f 348 440 441
f 348 441 442
f 348 442 443
f 348 443 444
f 348 444 349
f 349 444 445
f 349 445 372
f 349 372 350
f 350 372 446
f 350 446 351
f 351 446 352
f 352 446 358
f 353 396 447
f 353 447 355
f 355 448 449
f 355 449 450
f 355 450 451
f 355 451 452
f 355 452 453
f 355 453 356
f 355 447 454
f 355 454 395
f 355 395 448
f 356 453 455
f 356 455 456
f 356 456 457
f 356 457 458
f 356 458 357
f 357 458 459
f 357 459 398
f 358 446 359
f 359 446 372
f 360 460 367
f 360 365 460
f 362 461 363
f 362 371 462
f 362 462 461
f 363 461 364
f 364 461 463
f 364 463 365
f 365 463 462
f 365 462 460
f 366 367 377
f 367 464 465
f 367 465 466
f 367 466 377
f 367 460 464
f 368 372 467
f 368 467 468
f 368 468 369
f 369 468 443
f 369 443 370
f 370 443 469
f 370 469 470
f 370 470 471
f 370 471 371
f 371 471 472
f 371 472 462
f 372 445 444
f 372 444 467
f 374 473 375
f 374 379 474
f 374 474 475
f 374 475 476
f 374 476 477
f 374 477 473
f 375 473 376
f 376 473 478
f 376 478 479
f 376 479 480
f 376 480 382
f 377 466 378
f 378 466 465
f 378 465 474
f 378 474 379
f 380 384 481
f 380 481 381
f 381 481 482
f 381 482 385
f 382 480 483
f 382 483 484
f 382 484 383
f 383 484 485
f 383 485 384
f 384 485 486
f 384 486 487
f 384 487 481
f 385 482 488
f 385 488 386
f 386 488 387
f 387 488 489
f 387 489 490
f 387 490 388
f 388 490 491
f 388 491 389
f 389 491 390
f 390 492 391
f 390 491 493
f 390 493 492
f 391 492 392
f 392 492 494
f 392 494 495
f 392 495 393
f 393 496 394
f 393 495 497
f 393 497 496
f 394 496 395
f 395 454 447
f 395 447 396
f 395 496 448
f 397 405 404
f 397 404 406
f 398 459 498
f 398 498 499
f 398 499 399
f 399 401 400
f 399 499 500
f 399 500 401
f 401 500 501
f 401 501 502
f 401 502 402
f 402 502 503
f 402 503 403
f 403 504 404
f 403 503 504
f 404 504 406
f 406 504 407
f 407 504 505
f 407 505 408
f 408 505 410
f 409 410 411
f 410 505 506
f 410 506 507
f 410 507 412
f 410 412 411
f 412 507 413
f 413 507 414
f 414 507 508
f 414 508 415
f 415 509 510
f 415 510 511
f 415 511 416
f 415 508 509
f 416 512 513
f 416 513 514
f 416 514 417
f 416 511 515
f 416 515 512
f 417 514 516
f 417 516 422
f 417 422 421
f 418 427 419
f 419 427 420
f 420 427 517
f 420 517 428
f 422 516 518
f 422 518 424
f 424 518 516
f 424 516 519
f 424 519 520
f 424 520 521
f 424 521 425
f 425 521 426
f 426 522 523
f 426 523 524
f 426 524 525
f 426 525 427
f 426 521 522
f 427 525 524
f 427 524 526
f 427 526 517
f 428 517 526
f 428 526 527
f 428 527 528
f 428 528 429
f 429 529 433
f 429 528 529
f 430 433 530
f 430 530 531
f 430 531 431
f 431 532 533
f 431 533 534
f 431 534 436
f 431 436 434
f 431 434 432
f 431 531 532
f 433 529 531
f 433 531 530
f 435 437 438
f 436 534 437
f 437 534 439
f 437 439 438
f 439 534 440
f 440 534 535
f 440 535 441
f 441 536 442
f 441 535 537
f 441 537 536
f 442 538 539
f 442 539 443
f 442 536 540
f 442 540 541
f 442 541 542
f 442 542 543
f 442 543 538
f 443 539 544
f 443 544 545
f 443 545 546
f 443 546 470
f 443 470 469
f 443 468 444
f 444 468 467
f 448 497 547
f 448 547 548
f 448 548 450
f 448 450 449
f 448 496 497
f 450 548 547
f 450 547 451
f 451 547 549
f 451 549 452
f 452 549 550
f 452 550 455
f 452 455 453
f 455 550 456
f 456 551 552
f 456 552 553
f 456 553 554
f 456 554 498
f 456 498 457
f 456 550 549
f 456 549 551
f 457 498 459
f 457 459 458
f 460 555 556
f 460 556 464
f 460 462 557
f 460 557 558
f 460 558 559
f 460 559 555
f 461 462 463
f 462 560 558
f 462 558 557
f 462 472 560
f 464 556 465
f 465 556 561
f 465 561 562
f 465 562 474
f 470 546 471
f 471 546 472
f 472 546 563
f 472 563 564
f 472 564 560
f 473 477 565
f 473 565 566
f 473 566 478
f 474 562 561
f 474 561 475
f 475 561 567
f 475 567 568
f 475 568 569
f 475 569 570
f 475 570 476
f 476 570 565
f 476 565 477
f 478 566 571
f 478 571 572
f 478 572 483
f 478 483 479
f 479 483 480
f 481 487 482
f 482 487 573
f 482 573 488
f 483 572 574
f 483 574 575
f 483 575 576
f 483 576 484
f 484 576 485
f 485 576 577
f 485 577 578
f 485 578 486
f 486 578 579
f 486 579 580
f 486 580 487
f 487 580 581
f 487 581 573
f 488 573 582
f 488 582 583
f 488 583 489
f 489 583 584
f 489 584 490
f 490 584 491
f 491 585 586
f 491 586 587
f 491 587 588
f 491 588 589
f 491 589 590
f 491 590 591
f 491 591 493
f 491 584 592
f 491 592 585
f 492 493 593
f 492 593 494
f 493 591 590
f 493 590 594
f 493 594 593
f 494 593 595
f 494 595 596
f 494 596 497
f 494 497 495
f 497 596 595
f 497 595 597
f 497 597 598
f 497 598 599
f 497 599 600
f 497 600 547
f 498 554 601
f 498 601 499
f 499 601 602
f 499 602 603
f 499 603 604
f 499 604 605
f 499 605 500
f 500 605 501
f 501 605 606
f 501 606 502
f 502 606 607
f 502 607 608
f 502 608 505
f 502 505 504
f 502 504 503
f 505 608 609
f 505 609 506
f 506 609 610
f 506 610 507
f 507 610 508
f 508 610 609
f 508 609 509
f 509 608 607
f 509 607 611
f 509 611 515
f 509 515 510
f 509 609 608
f 510 515 511
f 512 515 620
f 512 620 612
f 512 612 513
f 513 612 613
f 513 613 614
f 513 614 615
f 513 615 514
f 514 615 616
f 514 616 617
f 514 617 618
f 514 618 619
f 514 619 516
f 515 611 607
f 515 607 620
f 516 619 519
f 519 619 621
f 519 621 520
f 520 621 622
f 520 622 623
f 520 623 624
f 520 624 521
f 521 624 522
f 522 624 625
f 522 625 626
f 522 626 523
f 523 626 627
f 523 627 524
f 524 627 628
f 524 628 527
f 524 527 526
f 527 628 629
f 527 629 528
f 528 630 529
f 528 629 630
f 529 630 531
f 531 630 631
f 531 631 532
f 532 631 533
f 533 535 534
f 533 631 537
f 533 537 535
f 536 537 540
f 537 632 540
f 537 631 630
f 537 630 632
f 538 543 539
f 539 633 634
f 539 634 635
f 539 635 636
f 539 636 637
f 539 637 638
f 539 638 544
f 539 543 633
f 540 632 639
f 540 639 541
f 541 639 626
f 541 626 542
f 542 626 543
f 543 626 625
f 543 625 640
f 543 640 641
f 543 641 633
f 544 638 642
f 544 642 643
f 544 643 545
f 545 643 737
f 545 737 644
f 545 644 564
f 545 564 546
f 546 564 563
f 547 600 645
f 547 645 646
f 547 646 647
f 547 647 549
f 549 647 648
f 549 648 552
f 549 552 649
f 549 649 551
f 551 649 552
f 552 648 553
f 553 601 554
f 553 648 650
f 553 650 602
f 553 602 601
f 555 651 561
f 555 561 556
f 555 559 652
f 555 652 653
f 555 653 654
f 555 654 655
f 555 655 651
f 558 560 652
f 558 652 559
f 560 656 652
f 560 564 657
f 560 657 658
f 560 658 656
f 561 569 568
f 561 568 567
f 561 651 659
f 561 659 569
f 564 644 660
f 564 660 661
f 564 661 662
f 564 662 663
f 564 663 664
f 564 664 657
f 565 570 665
f 565 665 666
f 565 666 574
f 565 574 571
f 565 571 566
f 569 665 570
f 569 659 667
f 569 667 668
f 569 668 665
f 571 574 572
f 573 581 582
f 574 669 575
f 574 666 670
f 574 670 671
f 574 671 669
f 575 669 576
f 576 669 577
f 577 672 578
f 577 669 673
f 577 673 674
f 577 674 675
f 577 675 676
f 577 676 672
f 578 672 579
f 579 672 677
f 579 677 678
f 579 678 580
f 580 678 679
f 580 679 680
f 580 680 581
f 581 681 582
f 581 680 681
f 582 681 682
f 582 682 583
f 583 682 584
f 584 682 683
f 584 683 684
f 584 684 592
f 585 685 686
f 585 686 687
f 585 687 688
f 585 688 586
f 585 592 684
f 585 684 685
f 586 588 587
f 586 688 687
f 586 687 689
f 586 689 690
f 586 690 588
f 588 690 691
f 588 691 589
f 589 692 590
f 589 691 693
f 589 693 692
f 590 694 594
f 590 692 695
f 590 695 694
f 593 594 694
f 593 694 595
f 595 694 696
f 595 696 697
f 595 697 698
f 595 698 597
f 597 699 598
f 597 698 699
f 598 699 599
f 599 699 700
f 599 700 701
f 599 701 600
f 600 701 645
f 602 702 703
f 602 703 704
f 602 704 604
f 602 604 603
f 602 650 702
f 604 704 605
f 605 704 705
f 605 705 706
f 605 706 606
f 606 706 607
f 607 707 620
f 607 706 708
f 607 708 709
f 607 709 707
f 612 620 710
f 612 710 711
f 612 711 712
f 612 712 713
f 612 713 613
f 613 713 714
f 613 714 715
f 613 715 716
f 613 716 614
f 614 716 615
f 615 716 717
f 615 717 616
f 616 717 617
f 617 718 719
f 617 719 720
f 617 720 721
f 617 721 722
f 617 722 723
f 617 723 618
f 617 717 724
f 617 724 725
f 617 725 718
f 618 723 619
f 619 723 621
f 620 707 710
f 621 723 722
f 621 722 726
f 621 726 727
f 621 727 623
f 621 623 622
f 623 727 640
f 623 640 624
f 624 640 625
f 626 639 627
f 627 639 630
f 627 630 629
f 627 629 628
f 630 639 632
f 633 728 729
f 633 729 730
f 633 730 634
f 633 641 728
f 634 730 635
f 635 730 636
f 636 730 731
f 636 731 732
f 636 732 733
f 636 733 642
f 636 642 734
f 636 734 637
f 637 734 642
f 637 642 638
f 640 735 736
f 640 736 641
f 640 727 735
f 641 736 728
f 642 733 737
f 642 737 643
f 644 737 738
f 644 738 739
f 644 739 740
f 644 740 660
f 645 701 646
f 646 701 741
f 646 741 742
f 646 742 743
f 646 743 647
f 647 743 648
f 648 743 744
f 648 744 650
f 650 745 746
f 650 746 747
f 650 747 702
f 650 744 745
f 651 655 748
f 651 748 659
f 652 656 653
f 653 656 654
f 654 656 655
f 655 656 749
f 655 749 748
f 656 750 749
f 656 658 750
f 657 664 751
f 657 751 752
f 657 752 753
f 657 753 658
f 658 753 752
f 658 752 754
f 658 754 755
f 658 755 750
f 659 748 755
f 659 755 667
f 660 740 661
f 661 740 756
f 661 756 662
f 662 757 758
f 662 758 663
f 662 756 759
f 662 759 757
f 663 758 664
f 664 758 751
f 665 760 666
f 665 668 760
f 666 760 670
f 667 755 668
f 668 755 761
f 668 761 762
f 668 762 763
f 668 763 760
f 669 671 764
f 669 764 673
f 670 760 765
f 670 765 766
f 670 766 671
f 671 766 764
f 672 676 677
f 673 764 767
f 673 767 768
f 673 768 674
f 674 768 675
f 675 768 769
f 675 769 770
f 675 770 676
f 676 770 771
f 676 771 677
f 677 771 772
f 677 772 773
f 677 773 678
f 678 773 679
f 679 773 772
f 679 772 680
f 680 772 774
f 680 774 775
f 680 775 776
f 680 776 777
f 680 777 778
f 680 778 779
f 680 779 681
f 681 779 780
f 681 780 682
f 682 780 683
f 683 780 686
f 683 686 684
f 684 686 685
f 686 780 781
f 686 781 687
f 687 781 782
f 687 782 689
f 689 783 784
f 689 784 785
f 689 785 786
f 689 786 690
f 689 782 783
f 690 786 787
f 690 787 788
f 690 788 789
f 690 789 790
f 690 790 791
f 690 791 792
f 690 792 793
f 690 793 691
f 691 793 693
f 692 693 695
f 693 792 791
f 693 791 794
f 693 794 795
f 693 795 796
f 693 796 797
f 693 797 695
f 693 793 792
f 694 695 696
f 695 797 698
f 695 698 696
f 696 698 697
f 698 797 798
f 698 798 799
f 698 799 800
f 698 800 699
f 699 800 799
f 699 799 700
f 700 799 801
f 700 801 701
f 701 801 802
f 701 802 803
f 701 803 742
f 701 742 741
f 702 747 703
f 703 747 804
f 703 804 805
f 703 805 704
f 704 806 709
f 704 709 705
f 704 805 804
f 704 804 806
f 705 709 706
f 706 709 708
f 707 709 807
f 707 807 710
f 709 806 808
f 709 808 809
f 709 809 807
f 710 807 809
f 710 809 810
f 710 810 712
f 710 712 711
f 712 810 811
f 712 811 812
f 712 812 813
f 712 813 814
f 712 814 815
f 712 815 713
f 713 815 814
f 713 814 816
f 713 816 817
f 713 817 714
f 714 817 818
f 714 818 819
f 714 819 715
f 715 820 716
f 715 819 821
f 715 821 820
f 716 820 717
f 717 820 725
f 717 725 724
f 718 822 719
f 718 725 822
f 719 822 823
f 719 823 720
f 720 824 721
f 720 823 825
f 720 825 826
f 720 826 827
f 720 827 824
f 721 824 726
f 721 726 722
f 725 820 828
f 725 828 822
f 726 824 727
f 727 824 829
f 727 829 735
f 728 736 729
f 729 731 730
f 729 736 731
f 731 830 831
f 731 831 832
f 731 832 732
f 731 736 830
f 732 833 834
f 732 834 737
f 732 737 733
f 732 832 835
f 732 835 836
f 732 836 837
f 732 837 833
f 735 829 838
f 735 838 736
f 736 838 839
f 736 839 840
f 736 840 841
f 736 841 842
f 736 842 831
f 736 831 830
f 737 834 738
f 738 843 844
f 738 844 739
f 738 834 833
f 738 833 837
f 738 837 845
f 738 845 843
f 739 844 756
f 739 756 740
f 742 803 745
f 742 745 743
f 743 745 744
f 745 803 846
f 745 846 746
f 746 846 747
f 747 846 847
f 747 847 848
f 747 848 804
f 748 749 755
f 749 750 755
f 751 849 752
f 751 758 757
f 751 757 849
f 752 849 850
f 752 850 755
f 752 755 754
f 755 850 849
f 755 849 761
f 756 844 759
f 757 759 851
f 757 851 852
f 757 852 853
f 757 853 854
f 757 854 849
f 759 844 855
f 759 855 856
f 759 856 857
f 759 857 858
f 759 858 851
f 760 763 765
f 761 859 762
f 761 849 859
f 762 860 861
f 762 861 763
f 762 859 862
f 762 862 860
f 763 861 765
f 764 766 767
f 765 861 860
f 765 860 863
f 765 863 766
f 766 863 767
f 767 863 864
f 767 864 865
f 767 865 768
f 768 865 866
f 768 866 769
f 769 867 770
f 769 866 865
f 769 865 868
f 769 868 869
f 769 869 867
f 770 867 870
f 770 870 771
f 771 870 871
f 771 871 872
f 771 872 873
f 771 873 874
f 771 874 772
f 772 875 774
f 772 874 875
f 774 875 775
f 775 875 776
f 776 876 777
f 776 875 877
f 776 877 876
f 777 876 878
f 777 878 778
f 778 878 779
f 779 781 780
f 779 878 784
f 779 784 879
f 779 879 781
f 781 879 782
f 782 879 784
f 782 784 783
f 784 878 880
f 784 880 785
f 785 881 882
f 785 882 883
f 785 883 884
f 785 884 885
f 785 885 886
f 785 886 786
f 785 880 881
f 786 886 887
f 786 887 888
f 786 888 787
f 787 888 889
f 787 889 890
f 787 890 789
f 787 789 788
f 789 890 891
f 789 891 892
f 789 892 893
f 789 893 894
f 789 894 790
f 790 894 791
f 791 894 794
f 794 894 895
f 794 895 795
f 795 895 896
f 795 896 897
f 795 897 796
f 796 898 899
f 796 899 797
f 796 897 898
f 797 899 798
f 798 899 799
f 799 899 900
f 799 900 901
f 799 901 802
f 799 802 801
f 802 901 803
f 803 901 847
f 803 847 846
f 804 848 806
f 806 848 902
f 806 902 808
f 808 810 809
f 808 902 811
f 808 811 810
f 811 902 903
f 811 903 904
f 811 904 905
f 811 905 812
f 812 905 813
f 813 905 906
f 813 906 907
f 813 907 908
f 813 908 909
f 813 909 816
f 813 816 814
f 816 909 910
f 816 910 911
f 816 911 912
f 816 912 818
f 816 818 817
f 818 912 913
f 818 913 819
f 819 913 914
f 819 914 821
f 820 821 828
f 821 914 915
f 821 915 916
f 821 916 828
f 822 828 916
f 822 916 823
f 823 916 917
f 823 917 918
f 823 918 825
f 824 827 919
f 824 919 838
f 824 838 829
f 825 918 826
f 826 919 827
f 826 918 920
f 826 920 921
f 826 921 922
f 826 922 923
f 826 923 924
f 826 924 919
f 831 925 832
f 831 842 925
f 832 925 926
f 832 926 835
f 835 926 845
f 835 845 837
f 835 837 836
f 838 919 839
f 839 919 927
f 839 927 923
f 839 923 841
f 839 841 840
f 841 923 928
f 841 928 926
f 841 926 842
f 842 926 925
f 843 929 844
f 843 845 929
f 844 929 855
f 845 926 930
f 845 930 929
f 847 901 898
f 847 898 848
f 848 931 903
f 848 903 902
f 848 898 931
f 849 854 932
f 849 932 933
f 849 933 934
f 849 934 935
f 849 935 936
f 849 936 937
f 849 937 859
f 851 938 852
f 851 858 938
f 852 939 853
f 852 938 939
f 853 939 854
f 854 939 940
f 854 940 932
f 855 929 930
f 855 930 856
f 856 930 857
f 857 930 941
f 857 941 942
f 857 942 943
f 857 943 858
f 858 943 944
f 858 944 938
f 859 937 862
f 860 862 937
f 860 937 945
f 860 945 863
f 863 945 946
f 863 946 864
f 864 946 947
f 864 947 865
f 865 947 868
f 867 869 870
f 868 947 869
f 869 947 948
f 869 948 949
f 869 949 871
f 869 871 870
f 871 949 950
f 871 950 872
f 872 950 951
f 872 951 952
f 872 952 874
f 872 874 873
f 874 952 953
f 874 953 954
f 874 954 877
f 874 877 875
f 876 880 878
f 876 877 955
f 876 955 880
f 877 954 956
f 877 956 955
f 880 955 957
f 880 957 881
f 881 957 955
f 881 955 958
f 881 958 959
f 881 959 960
f 881 960 882
f 882 960 883
f 883 960 961
f 883 961 884
f 884 962 885
f 884 961 963
f 884 963 964
f 884 964 965
f 884 965 966
f 884 966 962
f 885 962 967
f 885 967 886
f 886 967 887
f 887 967 968
f 887 968 969
f 887 969 889
f 887 889 888
f 889 969 970
f 889 970 971
f 889 971 972
f 889 972 890
f 890 972 891
f 891 965 973
f 891 973 908
f 891 908 895
f 891 895 892
f 891 972 965
f 892 895 893
f 893 895 894
f 895 908 907
f 895 907 906
f 895 906 905
f 895 905 974
f 895 974 975
f 895 975 976
f 895 976 897
f 895 897 896
f 897 976 975
f 897 975 931
f 897 931 898
f 898 901 899
f 899 901 900
f 903 905 904
f 903 931 975
f 903 975 905
f 905 975 974
f 908 973 977
f 908 977 911
f 908 911 910
f 908 910 909
f 911 977 978
f 911 978 979
f 911 979 912
f 912 979 980
f 912 980 981
f 912 981 913
f 913 981 914
f 914 981 915
f 915 981 982
f 915 982 916
f 916 983 917
f 916 982 983
f 917 983 918
f 918 983 984
f 918 984 985
f 918 985 920
f 919 924 927
f 920 985 986
f 920 986 987
f 920 987 988
f 920 988 921
f 921 988 943
f 921 943 922
f 922 943 942
f 922 942 923
f 923 942 989
f 923 989 930
f 923 930 928
f 923 927 924
f 926 928 930
f 930 989 990
f 930 990 941
f 932 940 991
f 932 991 933
f 933 991 934
f 934 991 992
f 934 992 993
f 934 993 935
f 935 993 992
f 935 992 994
f 935 994 946
f 935 946 945
f 935 945 936
f 936 945 937
f 938 944 939
f 939 995 940
f 939 944 995
f 940 995 991
f 941 990 942
f 942 990 989
f 943 988 996
f 943 996 997
f 943 997 944
f 944 997 995
f 946 994 947
f 947 994 998
f 947 998 999
f 947 999 948
f 948 999 1000
f 948 1000 949
f 949 1000 1001
f 949 1001 1002
f 949 1002 1003
f 949 1003 950
f 950 1003 951
f 951 1003 1004
f 951 1004 1005
f 951 1005 953
f 951 953 952
f 953 1005 1006
f 953 1006 956
f 953 956 954
f 955 956 958
f 956 1006 1005
f 956 1005 958
f 958 1005 1007
f 958 1007 960
f 958 960 959
f 960 1007 1005
f 960 1005 1008
f 960 1008 961
f 961 1008 1009
f 961 1009 963
f 962 966 968
f 962 968 967
f 963 1009 979
f 963 979 978
f 963 978 965
f 963 965 964
f 965 978 973
f 965 972 971
f 965 971 968
f 965 968 966
f 968 971 970
f 968 970 969
f 973 978 977
f 979 1009 1010
f 979 1010 980
f 980 1010 981
f 981 1011 982
f 981 1010 1012
f 981 1012 1011
f 982 1011 983
f 983 1011 1013
f 983 1013 984
f 984 1013 1014
f 984 1014 985
f 985 1014 986
f 986 1014 1015
f 986 1015 996
f 986 996 987
f 987 996 988
f 991 995 1016
f 991 1016 992
f 992 1016 995
f 992 995 997
f 992 997 996
f 992 996 1017
f 992 1017 994
f 994 1017 1018
f 994 1018 1019
f 994 1019 998
f 996 1015 1020
f 996 1020 1017
f 998 1019 999
f 999 1021 1022
f 999 1022 1000
f 999 1019 1021
f 1000 1022 1001
f 1001 1022 1023
f 1001 1023 1013
f 1001 1013 1024
f 1001 1024 1002
f 1002 1024 1003
f 1003 1024 1025
f 1003 1025 1004
f 1004 1026 1005
f 1004 1025 1009
f 1004 1009 1026
f 1005 1026 1008
f 1008 1026 1009
f 1009 1025 1012
f 1009 1012 1010
f 1011 1012 1025
f 1011 1025 1024
f 1011 1024 1013
f 1013 1023 1015
f 1013 1015 1014
f 1015 1023 1022
f 1015 1022 1020
f 1017 1020 1021
f 1017 1021 1018
f 1018 1021 1019
f 1020 1022 1021

