# https://github.com/mikedh/trimesh
v -0.03700467 0.00769525 -0.02875832
v -0.03672305 0.00940045 -0.03037316
v -0.03672305 0.00769525 -0.03037316
v -0.03658568 0.00629345 -0.03009541
v -0.03668871 0.00582268 -0.02890042
v -0.03674366 0.00597960 -0.02705304
v -0.03471737 0.00849032 0.01666410
v -0.03471737 0.00862631 0.01666410
v -0.03510889 0.02135770 0.00368719
v -0.03505394 0.03844099 -0.00484566
v -0.03477232 0.07779637 -0.03041838
v -0.03472424 0.07905172 -0.03145188
v -0.03476545 0.07771268 -0.03159399
v -0.03634527 0.00940045 -0.03122580
v -0.03465555 0.06917627 -0.03289232
v -0.03472424 0.06365270 -0.03305381
v -0.03631779 0.00769525 -0.03123226
v -0.03578890 0.00572853 -0.03069613
v -0.03640022 0.00515316 -0.02956574
v -0.03648265 0.00498578 -0.02842889
v -0.03648951 0.00494393 -0.02705304
v -0.03639335 0.00523685 -0.02363602
v -0.03635901 0.00547746 -0.02193074
v -0.03470363 0.00515316 0.00777598
v -0.03407170 0.00769525 0.02589457
v -0.03421595 0.00940045 0.02589457
v -0.03409918 0.01452648 0.02589457
v -0.03405797 0.01623167 0.02589457
v -0.03400302 0.01793686 0.02589457
v -0.03396181 0.05892420 0.00198191
v -0.03396181 0.10162719 -0.03047005
v -0.03394807 0.10333238 -0.03217533
v -0.03474485 0.03844099 -0.03306027
v -0.03473798 0.03724840 -0.03306027
v -0.03341230 0.10602094 -0.03360931
v -0.03353594 0.09650116 -0.03362869
v -0.03214158 0.10602094 -0.03443612
v -0.03214158 0.09821681 -0.03444258
v -0.03545233 0.01282129 -0.03193633
v -0.03546607 0.01110564 -0.03187174
v -0.03548667 0.00940045 -0.03174255
v -0.03545920 0.00769525 -0.03161982
v -0.03517758 0.00631437 -0.03148418
v -0.03526000 0.00478702 -0.03016000
v -0.03493030 0.00323874 -0.02815113
v -0.03516384 0.00301905 -0.02705304
v -0.03530122 0.00279937 -0.02534776
v -0.03601557 0.00408611 -0.02705304
v -0.03620102 0.00438949 -0.02521857
v -0.03612547 0.00427441 -0.02363602
v -0.03605678 0.00427441 -0.02193074
v -0.03472424 0.00340612 -0.00213272
v -0.03427090 0.00427441 0.01052122
v -0.03363210 0.00427441 0.02076581
v -0.03426403 0.00597960 0.01734879
v -0.03392059 0.00597960 0.02247755
v -0.03357716 0.00597960 0.02759984
v -0.03385877 0.00769525 0.02759984
v -0.03397554 0.00940045 0.02759984
v -0.03394807 0.01110564 0.02759984
v -0.03389999 0.01282129 0.02759984
v -0.03341230 0.02648374 0.02759984
v -0.03299331 0.03401586 0.02842019
v -0.03311695 0.03338818 0.02774841
v -0.03278725 0.04185137 0.02759984
v -0.03132420 0.07895757 0.02686347
v -0.03197673 0.06575542 0.02589457
v -0.03218966 0.06405023 0.02418283
v -0.03213471 0.07088145 0.02076581
v -0.03225148 0.07088145 0.01906053
v -0.03382443 0.10504804 -0.03047005
v -0.03387938 0.10504804 -0.03217533
v -0.03385190 0.03844099 -0.03327343
v -0.03397554 0.03669396 -0.03320883
v -0.03417474 0.02818892 -0.03294400
v -0.03385190 0.01282129 -0.03256290
v -0.03214158 0.08796474 -0.03431339
v -0.03383817 0.10602094 -0.03217533
v -0.03043812 0.10602094 -0.03471387
v -0.03043812 0.09992200 -0.03466866
v -0.03385190 0.01110564 -0.03241433
v 0.02251324 0.00597960 -0.03360286
v 0.02080291 0.00459871 -0.03324113
v -0.03385190 0.00543561 -0.03123226
v -0.03374201 0.00424302 -0.03026335
v -0.03385190 0.00940045 -0.03210428
v -0.03310321 0.00337474 -0.02967555
v -0.03423656 0.00364674 -0.02928799
v -0.03374201 0.00305044 -0.02873894
v -0.03385190 0.00236000 -0.02705304
v -0.03377635 0.00194154 -0.02526379
v -0.03529435 0.00275753 -0.02363602
v -0.03431211 0.00188924 -0.02021900
v -0.03517071 0.00273660 -0.01851373
v -0.03317877 0.00321782 0.02076581
v -0.03320624 0.00475563 0.02759984
v -0.03325432 0.00597960 0.02891756
v -0.03311695 0.00496485 0.02863335
v -0.03336422 0.00769525 0.02908550
v -0.03339170 0.00940045 0.02901445
v -0.03314442 0.02648374 0.02876899
v -0.03311695 0.02818892 0.02872378
v -0.03128299 0.06990856 0.02843956
v -0.03126925 0.07088145 0.02834913
v -0.03135854 0.07771268 0.02696682
v -0.02954519 0.10333238 0.02832330
v -0.02949710 0.10504804 0.02816181
v -0.02946963 0.10602094 0.02806492
v -0.02955892 0.10602094 0.02769028
v -0.02966882 0.10602094 0.02720582
v -0.03008095 0.10333238 0.02589457
v -0.03028701 0.10333238 0.02418283
v -0.03095328 0.10162719 0.01564352
v -0.03377635 0.10602094 -0.03047005
v -0.03214158 0.03672534 -0.03351242
v -0.03214158 0.08283871 -0.03424234
v -0.03348099 0.02989411 -0.03310548
v 0.01055471 0.01110564 -0.03374496
v -0.03214158 0.02135770 -0.03295692
v -0.00823139 0.02135770 -0.03371912
v -0.00823139 0.01965251 -0.03363515
v -0.02701748 0.10602094 -0.03486890
v -0.03043812 0.09821681 -0.03464282
v 0.02251324 0.00769525 -0.03374496
v 0.02421669 0.00940045 -0.03375788
v 0.02421669 0.00769525 -0.03358994
v 0.02425790 0.00599006 -0.03329926
v 0.02371527 0.00483932 -0.03316362
v 0.02251324 0.00460917 -0.03326051
v 0.02080291 0.00374088 -0.03282127
v 0.01909259 0.00384550 -0.03281481
v 0.01738913 0.00398150 -0.03281481
v -0.03214158 0.00329105 -0.02974014
v 0.01225816 0.00274706 -0.03187820
v -0.02018305 0.00173231 -0.02959158
v -0.03214158 0.00266337 -0.02875832
v -0.03198360 0.00194154 -0.02688509
v -0.03244381 0.00178463 -0.02578054
v -0.03315816 0.00169047 -0.02464368
v -0.03432585 0.00188924 -0.01851373
v -0.03346038 0.00158586 -0.02021900
v -0.03145471 0.00156494 0.02247755
v -0.03234764 0.00236000 0.02076581
v -0.03308260 0.00332243 0.02203831
v -0.03139288 0.00162770 0.02418283
v -0.03132420 0.00169047 0.02512590
v -0.03216905 0.00256922 0.02418283
v -0.03282846 0.00371996 0.02589457
v -0.03209350 0.00608421 0.02976374
v -0.03247815 0.00769525 0.02994460
v -0.03159895 0.00312366 0.02759984
v -0.03128985 0.00341659 0.02845894
v -0.03197673 0.00434764 0.02881421
v -0.03185996 0.00249599 0.02577184
v -0.03094641 0.00187877 0.02626275
v -0.03251936 0.02648374 0.02962163
v -0.03249876 0.02818892 0.02958287
v -0.03250563 0.02989411 0.02950536
v -0.03168137 0.05379816 0.02913072
v -0.03163329 0.05551382 0.02908550
v -0.02959327 0.10105182 0.02847832
v -0.03123490 0.07258665 0.02818765
v -0.02898882 0.10602094 0.02865272
v -0.02977186 0.10602094 0.02659864
v -0.02986115 0.10602094 0.02589457
v -0.02993671 0.10602094 0.02515820
v -0.03002600 0.10602094 0.02418283
v -0.03041752 0.10602094 0.01906053
v -0.03086399 0.10333238 0.01564352
v -0.03043812 0.03672534 -0.03358348
v -0.03043812 0.03502015 -0.03352534
v 0.00543060 0.02135770 -0.03409377
v 0.02080291 0.01623167 -0.03416482
v -0.01505895 0.02476808 -0.03363515
v -0.01335549 0.02648374 -0.03375142
v -0.01335549 0.02989411 -0.03386769
v -0.02189337 0.05039825 -0.03404209
v -0.02628252 0.10602094 -0.03488182
v 0.01909259 0.02476808 -0.03446841
v -0.00823139 0.03502015 -0.03411315
v 0.02421669 0.01110564 -0.03388061
v 0.02251324 0.01793686 -0.03426817
v 0.02570035 0.01110564 -0.03342845
v 0.02556984 0.00940045 -0.03334448
v 0.02536378 0.00769525 -0.03322175
v 0.02519206 0.00656544 -0.03311194
v 0.02485549 0.00542516 -0.03291170
v 0.02438841 0.00413841 -0.03226576
v 0.02251324 0.00376181 -0.03273084
v 0.01567881 0.00273660 -0.03192988
v 0.01396849 0.00270522 -0.03191050
v 0.01396849 0.00184739 -0.03111599
v 0.00200995 0.00133479 -0.03004373
v 0.00030650 0.00066527 -0.02875832
v -0.00652106 0.00017359 -0.02745998
v -0.00823139 0.00020496 -0.02731141
v -0.02018305 0.00140802 -0.02873248
v -0.03043812 0.00185785 -0.02727266
v -0.03043812 0.00165909 -0.02642002
v -0.03130359 0.00171139 -0.02620686
v -0.03198360 0.00164863 -0.02526379
v -0.02872780 0.00132433 -0.02534776
v -0.03043812 0.00129294 -0.02363602
v -0.03043812 0.00116741 -0.02193074
v -0.03214158 0.00132433 -0.02021900
v -0.03347412 0.00158586 -0.01851373
v -0.03043812 0.00103141 0.02247755
v -0.03043812 0.00083265 0.00368719
v -0.03043812 0.00113602 0.02418283
v -0.03039691 0.00147079 0.02577184
v -0.03149592 0.00671189 0.03019652
v -0.03043812 0.00427441 0.02920823
v -0.03162642 0.00769525 0.03024819
v -0.03166077 0.02648374 0.03035800
v -0.03165390 0.02989411 0.03034508
v -0.02980620 0.00160678 0.02688931
v -0.03043812 0.00328059 0.02856875
v -0.03162642 0.03160976 0.03033216
v -0.03131733 0.04306488 0.03018360
v -0.03092581 0.05379816 0.02998336
v -0.02980620 0.09309078 0.02880129
v -0.02861790 0.10602094 0.02902737
v -0.00310728 0.02818892 -0.03407439
v -0.00066887 0.10602094 -0.03506914
v -0.00140383 0.09992200 -0.03502392
v -0.00310728 0.09992200 -0.03501100
v 0.00200995 0.08113352 -0.03488182
v 0.02080291 0.02476808 -0.03448133
v 0.02421669 0.01282129 -0.03394520
v 0.02251324 0.02648374 -0.03441674
v 0.02421669 0.01793686 -0.03408731
v 0.02655207 0.01110564 -0.03271792
v 0.02574156 0.01282129 -0.03347367
v 0.02642157 0.00940045 -0.03253060
v 0.02572095 0.00599006 -0.03227868
v 0.02550115 0.00456733 -0.03177485
v 0.02506155 0.00342705 -0.03131623
v 0.02392134 0.00328059 -0.03161982
v 0.02251324 0.00309229 -0.03187820
v 0.02080291 0.00300860 -0.03196863
v 0.01567881 0.00188924 -0.03100618
v 0.01396849 0.00137663 -0.03025689
v 0.01225816 0.00134525 -0.03022460
v 0.01225816 0.00061296 -0.02875832
v -0.00652106 -0.00015072 -0.02660734
v -0.02018305 0.00095818 -0.02705304
v -0.00823139 -0.00007748 -0.02645877
v -0.02872780 0.00156494 -0.02668485
v -0.02701748 0.00116741 -0.02534776
v -0.02872780 0.00113602 -0.02363602
v -0.02872780 0.00101048 -0.02193074
v -0.01164517 -0.00067378 -0.02021900
v -0.02531402 0.00053973 -0.01851373
v -0.02701748 0.00070711 -0.01851373
v -0.02872780 0.00088495 -0.01851373
v -0.03043812 0.00111510 -0.02021900
v -0.03043812 0.00108372 -0.01851373
v -0.02872780 0.00055019 0.00198191
v -0.02872780 0.00052927 0.00368719
v -0.02872780 0.00051881 0.02247755
v -0.02872780 0.00064435 0.02418283
v -0.02872780 0.00102095 0.02589457
v -0.02872780 0.00427441 0.02927928
v -0.03117995 0.00671189 0.03019652
v -0.02872780 0.00940045 0.03042260
v -0.03043812 0.00940045 0.03041614
v -0.02872780 0.00315505 0.02866564
v -0.03043812 0.01110564 0.03047427
v -0.03043812 0.01282129 0.03050011
v -0.03043812 0.02648374 0.03067451
v -0.03043812 0.02989411 0.03066805
v -0.02872780 0.00149171 0.02702496
v -0.02872780 0.00229723 0.02787760
v -0.03043812 0.03160976 0.03063576
v -0.03007408 0.05379816 0.03030633
v -0.02975812 0.06062939 0.03022235
v -0.02872780 0.09309078 0.02958287
v -0.02872780 0.09479597 0.02951828
v -0.02701748 0.10602094 0.02971852
v 0.00104146 0.10602094 -0.03507560
v 0.00884438 0.09309078 -0.03502392
v 0.02080291 0.02648374 -0.03449425
v 0.02592702 0.10602094 -0.03494641
v 0.02519206 0.07801606 -0.03475263
v 0.02421669 0.04014618 -0.03441028
v 0.02421669 0.02648374 -0.03421650
v 0.02659329 0.08966993 -0.03472679
v 0.02679248 0.09370799 -0.03474617
v 0.02702602 0.01110564 -0.03186528
v 0.02693673 0.00940045 -0.03167796
v 0.02659329 0.01282129 -0.03274376
v 0.02694359 0.03502015 -0.03320237
v 0.02776785 0.10162719 -0.03440382
v 0.02683370 0.00819739 -0.03145834
v 0.02630480 0.00765341 -0.03209136
v 0.02664824 0.00597960 -0.03078656
v 0.02680622 0.00506947 -0.02974660
v 0.02597510 0.00424302 -0.03052819
v 0.02530883 0.00322828 -0.03017292
v 0.02358477 0.00162770 -0.02811238
v 0.02251324 0.00240184 -0.03047005
v 0.02021907 0.00168001 -0.02967555
v 0.01909259 0.00161725 -0.02978536
v 0.01738913 0.00153356 -0.02996622
v 0.01567881 0.00146032 -0.03015354
v 0.01396849 0.00069665 -0.02875832
v 0.01225816 0.00013174 -0.02746644
v 0.01225816 -0.00010887 -0.02660734
v -0.00652106 -0.00042271 -0.02534776
v -0.02531402 0.00103141 -0.02534776
v -0.00935100 -0.00002518 -0.02629729
v -0.00823139 -0.00029718 -0.02534776
v -0.01621290 -0.00002518 -0.02295133
v -0.01505895 -0.00022394 -0.02193074
v -0.01335549 -0.00037040 -0.02193074
v -0.00993484 -0.00066331 -0.02193074
v -0.00993484 -0.00079931 -0.02021900
v -0.02701748 0.00035143 0.00198191
v -0.02111033 -0.00000426 -0.01447661
v -0.02090427 0.00001666 -0.01561346
v -0.02531402 0.00030959 -0.00655740
v -0.02701748 0.00033051 0.01734879
v -0.02701748 0.00042466 0.02247755
v -0.02701748 0.00034097 0.01906053
v -0.02701748 0.00056066 0.02418283
v -0.02701748 0.00092679 0.02589457
v -0.00386972 0.00340612 0.02845894
v 0.02592702 0.00464056 0.02867856
v 0.02592702 0.00597960 0.02898861
v 0.02592702 0.00940045 0.02943431
v 0.02592702 0.01110564 0.02963455
v -0.01847959 0.01282129 0.03054532
v -0.02872780 0.01110564 0.03051303
v -0.02872780 0.01452648 0.03066159
v -0.02701748 0.00231815 0.02795511
v -0.01164517 0.00134525 0.02711539
v 0.00713406 0.00256922 0.02778071
v -0.02872780 0.01965251 0.03078432
v -0.02872780 0.02818892 0.03086183
v -0.02872780 0.02989411 0.03086829
v -0.02872780 0.05379816 0.03048719
v -0.02701748 0.00143940 0.02710247
v -0.02701748 0.09992200 0.02989293
v -0.02701748 0.10333238 0.02980895
v -0.02531402 0.10602094 0.02978312
v 0.02421669 0.10602094 -0.03497225
v 0.01567881 0.08283871 -0.03492057
v 0.01396849 0.07600749 -0.03488182
v 0.01909259 0.06917627 -0.03479784
v 0.02635975 0.10602094 -0.03489473
v 0.02697794 0.10602094 -0.03481722
v 0.02739693 0.01110564 -0.03047005
v 0.02854402 0.07941787 -0.03310548
v 0.02954686 0.10162719 -0.03217533
v 0.02850281 0.05779438 -0.03138083
v 0.02720461 0.00940045 -0.03047005
v 0.02863331 0.08454390 -0.03321529
v 0.02890806 0.10162719 -0.03355118
v 0.02734198 0.10602094 -0.03464282
v 0.02782967 0.10602094 -0.03440382
v 0.02832422 0.10602094 -0.03403563
v 0.02924463 0.00597960 0.02589457
v 0.02885998 0.00427441 0.02589457
v 0.02850281 0.00340612 0.02501609
v 0.02636662 0.00418025 -0.02875832
v 0.02551489 0.00299813 -0.02875832
v 0.02756179 0.01110564 -0.02875832
v 0.02460134 0.00200431 -0.02705304
v 0.02374275 0.00153356 -0.02705304
v 0.02251324 0.00107325 -0.02534776
v 0.02251324 0.00128249 -0.02705304
v 0.01496446 -0.00002518 -0.02631021
v 0.02251324 0.00156494 -0.02838367
v 0.02135928 0.00175324 -0.02948177
v 0.02251324 0.00187877 -0.02924277
v 0.01738913 0.00104187 -0.02875832
v 0.01567881 0.00086403 -0.02875832
v 0.01396849 0.00018404 -0.02736309
v 0.01396849 -0.00009841 -0.02651045
v 0.01225816 -0.00027625 -0.02534776
v -0.00652106 -0.00061101 -0.02363602
v -0.00823139 -0.00076794 -0.02193074
v -0.00823139 -0.00055870 -0.02363602
v -0.00823139 -0.00085163 -0.02021900
v -0.02111033 0.00000621 0.01488131
v -0.02531402 0.00023635 0.01734879
v -0.02018305 0.00024681 0.02247755
v -0.02018305 0.00044558 0.02418283
v -0.01164517 0.00076988 0.02589457
v 0.02592702 0.00378273 0.02820703
v 0.02763734 0.00483932 0.02859459
v 0.02763734 0.00597960 0.02886588
v 0.02763734 0.01110564 0.02951828
v 0.02763734 0.01282129 0.02960225
v 0.02763734 0.03160976 0.02974436
v -0.00140383 0.01965251 0.03031279
v -0.02018305 0.01452648 0.03060346
v -0.01164517 0.02306289 0.03056470
v 0.00713406 0.00155448 0.02699912
v -0.00993484 0.00078034 0.02589457
v 0.00030650 0.00089542 0.02589457
v 0.00884438 0.00256922 0.02773549
v -0.02701748 0.02818892 0.03091351
v -0.02701748 0.02989411 0.03090059
v -0.02701748 0.09479597 0.02998336
v -0.02531402 0.10504804 0.02980895
v 0.02934080 0.10602094 0.02929220
v 0.02932019 0.08113352 -0.03047005
v 0.02956747 0.10333238 -0.03217533
v 0.02984222 0.10602094 -0.03047005
v 0.02980787 0.10333238 -0.03047005
v 0.02978040 0.10162719 -0.03047005
v 0.02974605 0.09992200 -0.03047005
v 0.02892180 0.10333238 -0.03355118
v 0.02892867 0.10602094 -0.03355118
v 0.02932019 0.00769525 0.02759984
v 0.02912787 0.00597960 0.02759984
v 0.03022000 0.02686034 0.02659218
v 0.03022000 0.02686034 0.02708955
v 0.02849594 0.00341659 0.02675366
v 0.02850281 0.00340612 0.02589457
v 0.02763734 0.00286214 0.02589457
v 0.02535691 0.00148125 -0.00655740
v 0.02520579 0.00162770 -0.01478020
v 0.02555610 0.00286214 -0.02705304
v 0.03065960 0.10602094 -0.02193074
v 0.03079011 0.10602094 -0.02021900
v 0.03083819 0.10602094 -0.01948263
v 0.03089314 0.10602094 -0.01851373
v 0.03093435 0.10602094 -0.01777736
v 0.03125032 0.10602094 -0.01167969
v 0.03243174 0.08113352 0.02589457
v 0.02382517 0.00148125 -0.02534776
v 0.02251324 0.00100003 -0.02363602
v 0.01507436 -0.00005656 -0.02534776
v 0.01396849 -0.00021349 -0.02534776
v 0.01396849 -0.00019256 -0.02363602
v -0.01847959 0.00001666 0.01596649
v -0.01847959 -0.00003564 0.01393824
v -0.02018305 -0.00000426 0.01512031
v -0.00652106 -0.00076794 -0.01851373
v -0.00481074 -0.00065286 -0.01509671
v 0.01055471 0.00041420 0.01564352
v 0.01055471 0.00049789 0.01906053
v -0.01847959 0.00023635 0.02247755
v -0.01847959 0.00043512 0.02418283
v -0.01335549 0.00044558 0.02418283
v 0.00030650 0.00051881 0.02418283
v 0.02592702 0.00296675 0.02735439
v 0.02763734 0.00399195 0.02792927
v 0.00884438 0.00157540 0.02694744
v 0.02849594 0.00512178 0.02845894
v 0.02862644 0.00597960 0.02856229
v 0.02893554 0.01110564 0.02891110
v 0.02899736 0.01282129 0.02900153
v 0.02877756 0.00769525 0.02867210
v 0.02934080 0.04185137 0.02935034
v 0.02934080 0.05039825 0.02947952
v 0.02934080 0.06405023 0.02951828
v 0.02763734 0.05039825 0.02973144
v 0.00200995 0.00093726 0.02589457
v 0.02934080 0.09821681 0.02935680
v 0.03031616 0.10602094 0.02927282
v 0.03035737 0.10602094 -0.02540589
v 0.02958120 0.10602094 -0.03217533
v 0.03033677 0.02989411 0.02759984
v 0.03019939 0.02901537 0.02845894
v 0.02868139 0.00444179 0.02743190
v 0.02763734 0.00317598 0.02707663
v 0.02592702 0.00228677 0.02589457
v 0.02592702 0.00208800 0.02418283
v 0.02513711 0.00168001 0.02207061
v 0.02421669 0.00114649 -0.00655740
v 0.02421669 0.00114649 -0.00826268
v 0.03316670 0.10602094 0.02589457
v 0.03313236 0.10602094 0.02663093
v 0.03249356 0.08625956 0.02759984
v 0.03233558 0.08113352 0.02759984
v 0.01514304 -0.00007748 -0.02363602
v 0.02080291 0.00070711 0.01393824
v -0.01164517 0.00030959 0.02247755
v -0.01335549 0.00028866 0.02247755
v 0.01225816 0.00053973 0.01906053
v 0.01055471 0.00057111 0.02076581
v 0.00200995 0.00057111 0.02418283
v 0.00884438 0.00125110 0.02589457
v 0.03030929 0.03367064 0.02858813
v 0.03043980 0.04185137 0.02876253
v 0.03060465 0.05210344 0.02886588
v 0.03210891 0.08625956 0.02866564
v 0.03236306 0.10602094 0.02881421
v 0.03105112 0.08966993 0.02915655
v 0.03105112 0.10602094 0.02925345
v 0.03191658 0.07672932 0.02846540
v 0.02431286 0.00180555 0.02413761
v 0.02494478 0.00172186 0.02320746
v 0.02251324 0.00095818 0.01393824
v 0.03307054 0.10602094 0.02759984
v 0.02251324 0.00133479 0.02076581
v 0.01225816 0.00065480 0.02076581
v 0.01055471 0.00074896 0.02247755
v 0.01055471 0.00102095 0.02418283
v 0.03278205 0.10602094 0.02812305
v 0.02380457 0.00168001 0.02353689
v 0.02251324 0.00148125 0.02247755
v 0.01829307 0.16347243 0.02335663
v 0.01567913 0.16442299 0.02418565
v 0.01825317 0.16347243 0.02418565
v 0.01825317 0.16347243 0.02247786
v 0.01396976 0.16503250 0.02418565
v -0.00223272 0.17081858 0.02491519
v -0.00223272 0.17081858 0.02508652
v 0.01666019 0.16403122 0.02511969
v 0.01707257 0.16347243 0.02541261
v -0.00155761 0.17055869 0.02428514
v 0.01332126 0.16347243 -0.02631845
v -0.00719123 0.17087632 -0.02534573
v -0.00481341 0.17142887 0.02418565
v -0.00823216 0.17118148 -0.02534573
v -0.00481341 0.17141404 0.02589344
v -0.00307410 0.17098325 0.02574974
v -0.00248214 0.17069995 0.02622505
v -0.00361951 0.17091691 0.02691038
v 0.00124257 0.16913832 0.02678878
v 0.00488081 0.16752128 0.02687721
v 0.00839932 0.16586209 0.02687169
v 0.01567913 0.16347243 0.02583265
v 0.01175156 0.16409599 0.02680536
v 0.01321816 0.16347243 -0.02710325
v -0.00730098 0.17084198 -0.02623554
v -0.00652278 0.17138204 0.02418565
v -0.00993820 0.17138906 -0.02363794
v -0.00993820 0.17144448 -0.00484674
v -0.00823216 0.17095046 -0.02635161
v -0.00947262 0.17096686 -0.02636266
v -0.01000139 0.17114557 -0.02540099
v -0.00666578 0.17116743 0.02596529
v -0.00619022 0.17104490 0.02706513
v -0.00481341 0.17106519 0.02710934
v -0.00139798 0.16961984 0.02718119
v 0.00030806 0.16930299 0.02696012
v 0.00372349 0.16773902 0.02704302
v 0.00713891 0.16612900 0.02700986
v 0.01396976 0.16347243 0.02626374
v 0.00372349 0.16654341 0.02739121
v 0.01055433 0.16439411 0.02689932
v 0.01065078 0.16347243 0.02689379
v 0.01175156 0.16347243 0.02680536
v 0.01273595 0.16347243 -0.02754540
v 0.01136246 0.16396488 -0.02781069
v 0.01022510 0.16413579 -0.02808703
v 0.00489078 0.16578327 -0.02798755
v -0.00763022 0.17104021 0.02247786
v -0.00753377 0.17097544 0.02418565
v -0.00993820 0.17141872 -0.00313895
v -0.01120859 0.17113464 -0.00313895
v -0.01097580 0.17096139 -0.02486489
v -0.01110550 0.17104645 -0.02363794
v -0.01120527 0.17118459 -0.00484674
v -0.00823216 0.16995855 -0.02678270
v 0.00857891 0.16347243 -0.02896027
v -0.00977525 0.16995855 -0.02650636
v -0.01062994 0.16995855 -0.02602000
v -0.00743400 0.17087945 0.02544577
v -0.00626338 0.16995855 0.02711487
v -0.00481341 0.16995855 0.02750174
v -0.00711474 0.16995855 0.02630243
v -0.00307410 0.17006156 0.02725304
v 0.00030806 0.16825020 0.02739674
v 0.00189106 0.16827907 0.02714250
v 0.00544284 0.16661989 0.02712592
v 0.00201411 0.16654341 0.02740779
v 0.00713891 0.16483505 0.02716461
v 0.00894805 0.16347243 0.02693801
v 0.01181475 0.16347243 -0.02818651
v 0.01056098 0.16347243 -0.02859550
v 0.01022510 0.16347243 -0.02866735
v 0.00884828 0.16347243 -0.02892158
v -0.01549533 0.16347243 0.01222561
v -0.01110218 0.17104958 -0.00143117
v -0.01095252 0.17094656 0.00027109
v -0.01206328 0.17001551 -0.00313895
v -0.01567824 0.16347243 0.01082732
v -0.01109552 0.16995855 -0.02516887
v -0.01143474 0.16995855 -0.02363794
v -0.01568157 0.16347243 0.01049571
v -0.01252887 0.16916095 -0.00313895
v -0.00961894 0.16883005 -0.02644556
v 0.00674981 0.16347243 -0.02892711
v -0.01101238 0.16888546 -0.02501964
v -0.01544212 0.16347243 0.01239694
v -0.01479030 0.16347243 0.01379523
v -0.00593747 0.16892916 0.02692143
v -0.00481341 0.16865290 0.02713698
v -0.00307078 0.16816513 0.02722541
v -0.01417173 0.16347243 0.01463530
v -0.01253552 0.16347243 0.01652548
v 0.00038455 0.16650829 0.02714250
v 0.00372349 0.16503719 0.02709829
v 0.00525993 0.16466492 0.02709829
v 0.00781069 0.16347243 0.02691038
v -0.01253552 0.16917578 -0.00211649
v -0.01357977 0.16347243 -0.00655453
v -0.01361635 0.16347243 -0.00635557
v -0.01409524 0.16347243 -0.00313895
v 0.00503046 0.16347243 -0.02851812
v 0.00168155 0.16347243 -0.02734091
v -0.00005776 0.16347243 -0.02667769
v -0.00469701 0.16347243 -0.02479857
v -0.00551844 0.16347243 -0.02442275
v -0.00617692 0.16347243 -0.02400823
v -0.00660925 0.16347243 -0.02372637
v -0.00751715 0.16347243 -0.02294709
v -0.00800601 0.16347243 -0.02202963
v -0.01322725 0.16347243 -0.00819047
v -0.01329377 0.16347243 -0.00792518
v -0.00095568 0.16347243 0.02417460
v -0.00039032 0.16406087 0.02497599
v -0.01063991 0.16347243 0.01814484
v -0.00962559 0.16347243 0.01896833
v -0.00489655 0.16347243 0.02211309
v -0.00442098 0.16347243 0.02239496
v 0.00100312 0.16559831 0.02681642
v 0.00201411 0.16539540 0.02694354
v 0.00074705 0.16380255 0.02520259
v 0.00457817 0.16398205 0.02674457
v 0.00571886 0.16385952 0.02683300
v 0.00503711 0.16347243 0.02638533
v 0.00002871 0.16347243 0.02460569
v 0.00046769 0.16347243 0.02478808
v 0.00236996 0.16347243 0.02547340
v 0.00416247 0.16347243 0.02611451
v 0.02771219 0.15289429 -0.03480762
v 0.02251172 0.14945822 -0.03502047
v -0.00139612 0.15116782 -0.03503957
v 0.02592433 0.14774863 -0.03506413
v 0.02763389 0.15116782 -0.03489494
v 0.02852130 0.15376596 -0.03475578
v 0.02858655 0.15287742 -0.03479125
v 0.02763389 0.14774863 -0.03499864
v 0.02863875 0.15116782 -0.03481035
v 0.02949354 0.15116782 -0.03435192
v 0.02950659 0.14945822 -0.03437102
v 0.03068762 0.15458140 -0.03347053
v 0.02944134 0.15287742 -0.03431372
v 0.03053755 0.15598731 -0.03332045
v 0.03150978 0.15458140 -0.03217983
v 0.03096168 0.15645408 -0.03234082
v 0.03058975 0.15756194 -0.03187966
v 0.03088338 0.15807932 -0.03050164
v 0.03041357 0.15902410 -0.02995315
v 0.01188891 0.16085742 -0.03326314
v 0.02934346 0.15696583 -0.03278561
v 0.02934346 0.15611103 -0.03351146
v 0.01055127 0.16099238 -0.03333682
v 0.01055127 0.16175721 -0.03217983
v 0.01181061 0.16347242 -0.02818492
v 0.01273064 0.16347242 -0.02754639
v 0.01022502 0.16347242 -0.02867064
v 0.01055780 0.16347242 -0.02859696
v 0.00858070 0.16347242 -0.02895989
v 0.00674716 0.16347242 -0.02892714
v 0.00713866 0.16166723 -0.03217983
v 0.00713866 0.16094740 -0.03325496
v -0.03043267 0.15763505 -0.03363426
v -0.03138533 0.15583548 -0.03479944
v -0.02872962 0.15287742 -0.03503684
v -0.03043267 0.15287742 -0.03502865
v -0.03043267 0.15116782 -0.03509141
v -0.03150930 0.15116782 -0.03487857
v -0.03043267 0.14604465 -0.03517328
v -0.02872962 0.14604465 -0.03526333
v -0.02872962 0.15116782 -0.03510233
v 0.02592433 0.14604465 -0.03510506
v -0.01505961 0.13750229 -0.03537794
v -0.02872962 0.14091586 -0.03531517
v -0.03043267 0.14091586 -0.03521148
v -0.02872962 0.13750229 -0.03528243
v -0.01847875 0.13067514 -0.03534519
v 0.00030692 0.12213278 -0.03537248
v 0.00030692 0.12384237 -0.03537794
v 0.00200996 0.13238474 -0.03538885
v 0.02592433 0.13750229 -0.03520875
v 0.02763389 0.14604465 -0.03502047
v 0.02763389 0.13750229 -0.03501501
v 0.02868443 0.14774863 -0.03482672
v 0.02858003 0.12085058 -0.03479671
v 0.03060932 0.14945822 -0.03351692
v 0.03036790 0.13750229 -0.03325769
v 0.02892586 0.10602094 -0.03355239
v 0.02957836 0.10602094 -0.03217983
v 0.03186866 0.15469949 -0.03034610
v 0.02984589 0.10602094 -0.03047162
v 0.03040052 0.10676327 -0.02534701
v 0.03024392 0.10602094 -0.02655312
v 0.03035485 0.10602094 -0.02540704
v 0.03065500 0.10602094 -0.02193060
v 0.03069415 0.10676327 -0.02193060
v 0.03114438 0.11017684 -0.01851691
v 0.03205789 0.12725595 -0.01510050
v 0.03205136 0.12384237 -0.01339230
v 0.03238414 0.13408872 -0.01339230
v 0.03216881 0.13408872 -0.01680871
v 0.03203179 0.15616165 -0.02886711
v 0.03176426 0.15616165 -0.03034610
v 0.03203179 0.15741573 -0.02836775
v 0.03214271 0.15629100 -0.02705521
v 0.03438156 0.15458140 0.01223033
v 0.03214271 0.12384237 -0.01168409
v 0.03260714 0.12213278 0.00027448
v 0.03466207 0.15458140 0.01912744
v 0.03459684 0.15629100 0.01912744
v 0.03403581 0.15749446 0.01912744
v 0.03275718 0.15828740 0.01912744
v 0.03400971 0.15754507 0.01912744
v 0.03060280 0.15913095 -0.02876341
v 0.03152936 0.15798934 -0.02886711
v 0.01322002 0.16347242 -0.02710160
v 0.01331790 0.16347242 -0.02632117
v 0.01753760 0.16347242 0.01912744
v 0.02415254 0.16143666 0.01912744
v 0.02600524 0.16081243 0.01911962
v 0.03156988 0.15874854 0.01912744
v -0.02809503 0.15908596 0.01912744
v -0.00918961 0.16347242 0.01912744
v -0.02509417 0.16078431 0.01912744
v -0.02701863 0.15985640 0.01912744
v -0.02701863 0.15990702 0.01735427
v -0.02598790 0.16050312 0.01735427
v -0.02594876 0.16047501 0.01912744
v -0.02978016 0.15892287 -0.03047162
v -0.02974101 0.15894537 -0.02193060
v -0.03063494 0.15856858 -0.03047162
v -0.02852558 0.15929966 0.00027448
v -0.03187471 0.15773066 -0.03217983
v -0.02967576 0.15888351 -0.03139121
v -0.01329132 0.16347242 -0.00792932
v -0.01358000 0.16347242 -0.00655743
v -0.01409536 0.16347242 -0.00314148
v -0.01568060 0.16347242 0.01049628
v -0.01568060 0.16347242 0.01082744
v -0.01543923 0.16347242 0.01239983
v -0.02360026 0.16111611 0.01912744
v -0.01479339 0.16347242 0.01379750
v -0.01416712 0.16347242 0.01463454
v -0.01253622 0.16347242 0.01652766
v -0.00962669 0.16347242 0.01896837
v -0.00751664 0.16347242 -0.02294842
v -0.00800602 0.16347242 -0.02203156
v -0.00660965 0.16347242 -0.02372612
v -0.00551344 0.16347242 -0.02442468
v -0.00469781 0.16347242 -0.02480125
v 0.00167718 0.16347242 -0.02734173
v -0.00006501 0.16347242 -0.02667864
v 0.00503106 0.16347242 -0.02851783
v -0.03172463 0.15753945 -0.03356604
v -0.03192038 0.15635848 -0.03403538
v -0.03269034 0.15629100 -0.03217983
v -0.03295787 0.15464325 -0.03211161
v -0.03222053 0.15458140 -0.03388803
v -0.03233146 0.15116782 -0.03388803
v -0.03325150 0.12725595 -0.03344324
v -0.03336242 0.11530001 -0.03360151
v -0.03157455 0.14604465 -0.03491678
v -0.03158760 0.14433505 -0.03492223
v -0.03160718 0.14091586 -0.03492496
v -0.03235104 0.11530001 -0.03445561
v -0.03151583 0.11700961 -0.03481581
v -0.03149625 0.11530001 -0.03479944
v -0.03214223 0.10602094 -0.03443651
v -0.03130050 0.11089667 -0.03474213
v -0.03043267 0.11700961 -0.03491132
v -0.03096120 0.10846724 -0.03472849
v -0.03043919 0.10602094 -0.03471485
v -0.02702006 0.10676327 -0.03488948
v -0.03043267 0.12384237 -0.03502047
v -0.01847875 0.11700961 -0.03520329
v -0.02018831 0.11017684 -0.03506959
v 0.00030692 0.11359603 -0.03524150
v -0.00139612 0.10676327 -0.03509141
v 0.00104425 0.10602094 -0.03507504
v 0.02592433 0.10846724 -0.03504230
v 0.02592433 0.11530001 -0.03514599
v 0.02712494 0.10846724 -0.03488676
v 0.02728154 0.11359603 -0.03492496
v 0.02592433 0.11700961 -0.03516509
v 0.02776439 0.12033882 -0.03492496
v 0.02251172 0.12384237 -0.03526878
v 0.02797972 0.10846724 -0.03446380
v 0.02782965 0.10602094 -0.03440650
v 0.02832555 0.10602094 -0.03403811
v 0.02697486 0.10602094 -0.03481854
v 0.02592433 0.10602094 -0.03494679
v -0.02702006 0.10602094 -0.03487038
v 0.02422128 0.10602094 -0.03497408
v -0.02628272 0.10602094 -0.03488403
v -0.03383875 0.10602094 -0.03217983
v -0.03340810 0.10602094 -0.03361242
v -0.03360385 0.12725595 -0.03217983
v -0.03300354 0.15411463 -0.03149764
v -0.03300354 0.15411463 -0.03121384
v -0.03366257 0.12725595 -0.03047162
v -0.03377350 0.10602094 -0.03047162
v -0.03041743 0.10846724 0.01906225
v -0.03095889 0.13579269 0.00710640
v -0.03083494 0.13579269 0.00881437
v -0.03013691 0.14945822 0.01223033
v -0.03003253 0.14774863 0.01393831
v -0.02943889 0.15122968 0.01912744
v -0.03000644 0.13067514 0.01912744
v -0.03019563 0.12220026 0.01912744
v -0.03041743 0.10602094 0.01912744
v -0.03041091 0.10853472 0.01912744
v 0.03235924 0.10602094 0.01912744
v 0.03252885 0.12042880 0.00027448
v 0.03158156 0.11017684 -0.00997589
v 0.03149021 0.10846724 -0.00997589
v 0.03125530 0.10602094 -0.01168409
v 0.03156988 0.10602094 -0.00484946
v 0.03179821 0.10846724 -0.00314148
v 0.03186345 0.10846724 -0.00143350
v 0.03175907 0.10676327 -0.00143350
v 0.03163512 0.10602094 -0.00314148
v 0.03083770 0.10602094 -0.01948835
v 0.03083770 0.10676327 -0.02022512
v -0.02890395 0.15629100 0.01912744
v -0.02935408 0.15293928 0.01912744
v -0.02936713 0.15287742 0.01906225
v -0.03240324 0.15458140 -0.02193060
v -0.02958893 0.15716828 0.00817551
v -0.03200521 0.15629100 -0.02193060
v -0.03257941 0.15629100 -0.03047162
v -0.02857777 0.15800059 0.01906225
v -0.02857125 0.15800059 0.01912744
v -0.03293829 0.15464325 -0.03057531
v -0.03167243 0.14774863 -0.00826768
v -0.03016301 0.15116782 0.01052235
v -0.03147668 0.15739323 -0.02193060
v -0.00310569 0.16096989 -0.03188785
v 0.01828719 0.16347242 0.02336114
v 0.01824829 0.16347242 0.02247977
v 0.01825477 0.16347242 0.02418827
v 0.02080282 0.16274135 0.02247977
v 0.01753509 0.16347242 0.01912848
v 0.02087414 0.16260076 0.02423938
v 0.02193096 0.16237019 0.02370430
v 0.02200228 0.16238143 0.02247977
v 0.01706827 0.16347242 0.02541489
v 0.02421966 0.16163349 0.02077231
v 0.02414834 0.16143666 0.01912848
v -0.00919023 0.16347242 0.01912848
v 0.02149656 0.16218461 0.02484226
v 0.02704002 0.16065497 0.02352594
v 0.02592485 0.16114423 0.02247977
v 0.02421966 0.16170659 0.02247977
v 0.02035545 0.16243205 0.02520732
v 0.01568079 0.16347242 0.02583732
v 0.03447021 0.15607729 0.02736433
v 0.03447021 0.15693209 0.02624619
v 0.02592485 0.16104862 0.02077231
v 0.02601562 0.16080680 0.01912848
v 0.02421966 0.16141416 0.01912848
v -0.02360323 0.16111611 0.01912848
v -0.02360323 0.16108799 0.02077231
v -0.02471841 0.16062123 0.02348943
v -0.00660977 0.16347242 0.02093920
v 0.03447021 0.15737636 0.02539194
v 0.03532604 0.15714579 0.02505399
v 0.03190919 0.15885539 0.02333923
v 0.02803849 0.16040190 0.02247977
v 0.01396912 0.16347242 0.02626705
v 0.03369866 0.15425522 0.02848977
v 0.03434702 0.15472761 0.02806942
v 0.03550758 0.15580173 0.02700239
v 0.01175174 0.16347242 0.02680734
v 0.02704651 0.16064934 0.02077231
v 0.02685200 0.16058749 0.01973031
v 0.03156556 0.15874854 0.01912848
v -0.02365510 0.16110486 0.01912848
v -0.02509446 0.16078431 0.01912848
v -0.02502962 0.16076744 0.02077231
v -0.02491292 0.16069996 0.02247977
v -0.02576226 0.16042439 0.02247977
v -0.02702008 0.15976080 0.02418827
v -0.02529545 0.16033442 0.02411108
v 0.00047031 0.16347242 0.02478906
v 0.00002942 0.16347242 0.02460861
v -0.00095608 0.16347242 0.02417784
v -0.00441832 0.16347242 0.02239841
v -0.00489810 0.16347242 0.02211470
v 0.03556593 0.15633598 0.02573197
v 0.03532604 0.15714579 0.02502896
v 0.03258997 0.15853484 0.02261745
v 0.03190919 0.15885539 0.02327874
v 0.02934169 0.15989015 0.02247977
v 0.02934169 0.15979454 0.02077231
v 0.02789585 0.16034004 0.02077231
v 0.03343932 0.15425522 0.02848977
v -0.02189157 0.14945822 0.02883710
v 0.03105336 0.14433505 0.02899564
v 0.03275854 0.14945822 0.02872862
v 0.03275854 0.14774863 0.02880372
v 0.03275854 0.14604465 0.02887778
v 0.03382185 0.14774863 0.02860867
v 0.01064953 0.16347242 0.02689392
v 0.00894435 0.16347242 0.02693772
v -0.02530841 0.15629100 0.02819355
v -0.02360323 0.15491882 0.02840841
v 0.03458691 0.15287742 0.02792548
v 0.03555945 0.15458140 0.02712130
v 0.03581879 0.15458140 0.02589573
v 0.03271964 0.15830427 0.01912848
v -0.02595029 0.16047501 0.01912848
v -0.02587897 0.16044689 0.02077231
v -0.02707195 0.15929404 0.02598856
v -0.02702008 0.15985640 0.01912848
v -0.02809635 0.15908596 0.01912848
v -0.02799910 0.15900723 0.02548164
v 0.00415946 0.16347242 0.02611685
v 0.03548813 0.15624038 0.02435203
v 0.03459339 0.15629100 0.01912848
v 0.03403581 0.15749446 0.01912848
v 0.03400987 0.15754507 0.01912848
v 0.03410064 0.15762380 0.02077231
v 0.03275854 0.15842237 0.02077231
v 0.03187029 0.15883852 0.02213974
v -0.02475731 0.15408651 0.02848560
v -0.02189157 0.15116782 0.02871089
v -0.02360323 0.14945822 0.02883710
v 0.03105336 0.11530001 0.02929604
v -0.02360323 0.11530001 0.02960269
v -0.02530841 0.10602094 0.02978314
v 0.03275854 0.13921188 0.02888612
v 0.03378295 0.13921188 0.02859511
v 0.03381537 0.14604465 0.02860555
v 0.00780972 0.16347242 0.02691478
v -0.02707195 0.15811306 0.02725064
v -0.02702008 0.15629100 0.02784517
v -0.02532138 0.15462638 0.02840528
v 0.03549461 0.15287742 0.02707123
v 0.03349118 0.12384237 0.02830515
v 0.03343283 0.12042880 0.02819355
v 0.03306975 0.10602094 0.02760318
v 0.03555945 0.15441831 0.02402138
v 0.03537791 0.15563865 0.02313897
v 0.03361437 0.11269062 0.02676041
v 0.03361437 0.11269062 0.02672807
v 0.03320591 0.10676327 0.02589573
v 0.03235656 0.10602094 0.01912848
v 0.03275854 0.15828740 0.01912848
v -0.02767492 0.15875416 0.02662064
v -0.02653381 0.15893412 0.02684907
v 0.00503475 0.16347242 0.02638596
v -0.02855669 0.15803996 0.01912848
v -0.02841405 0.15800059 0.02418827
v -0.02820657 0.15811306 0.02598856
v 0.03459988 0.15622913 0.01912848
v -0.02530841 0.14945822 0.02870985
v -0.02530841 0.14091586 0.02896227
v -0.02702008 0.10846724 0.02970908
v 0.02934169 0.10676327 0.02930125
v 0.03105336 0.10676327 0.02926996
v 0.02934169 0.10602094 0.02929604
v -0.02702008 0.10602094 0.02972160
v 0.03237601 0.10676327 0.02882563
v 0.03236304 0.10602094 0.02881728
v -0.02803800 0.15761818 0.02698675
v -0.02790833 0.14186626 0.02849394
v -0.02635227 0.14945822 0.02851689
v -0.02622260 0.15048736 0.02847621
v -0.02809635 0.15629100 0.02707645
v 0.03277799 0.10602094 0.02812262
v 0.03312811 0.10602094 0.02663316
v 0.03465823 0.15458140 0.01912848
v 0.03238898 0.10669578 0.01912848
v 0.03279744 0.11530001 0.01912848
v 0.03316052 0.10602094 0.02589573
v -0.03041748 0.10602094 0.01912848
v -0.02856966 0.15800059 0.01912848
v -0.02845295 0.15629100 0.02589573
v -0.02890032 0.15629100 0.01912848
v -0.02935417 0.15293928 0.01912848
v -0.02862801 0.15629100 0.02418827
v -0.02702008 0.14091586 0.02876930
v -0.02702008 0.12213278 0.02931481
v -0.02794075 0.14091586 0.02852210
v -0.02816767 0.13067514 0.02870255
v -0.02861504 0.11017684 0.02902380
v -0.02860856 0.10846724 0.02905301
v 0.03031423 0.10602094 0.02927831
v 0.03105336 0.10602094 0.02925640
v -0.02862152 0.10602094 0.02903006
v -0.02951626 0.12384237 0.02642142
v -0.02953571 0.12213278 0.02654450
v -0.02915966 0.12213278 0.02760318
v -0.03002198 0.10602094 0.02418827
v -0.03041099 0.10853472 0.01912848
v -0.02922450 0.15287742 0.02077231
v -0.02912724 0.14433505 0.02418827
v -0.02995066 0.12213278 0.02418827
v -0.02968483 0.12384237 0.02556717
v -0.02936065 0.15287742 0.01912848
v -0.02947087 0.11017684 0.02785664
v -0.02947087 0.10602094 0.02806525
v -0.02898461 0.10602094 0.02865457
v -0.02971725 0.12213278 0.02569025
v -0.02955516 0.12042880 0.02661542
v -0.02993769 0.10602094 0.02515830
v -0.03007385 0.12213278 0.02247977
v -0.03019704 0.12220026 0.01912848
v -0.02944494 0.15116782 0.01912848
v -0.02940604 0.14262546 0.02247977
v -0.02985989 0.10602094 0.02589573
v -0.02977560 0.10602094 0.02659874
v -0.02967186 0.10602094 0.02721100
v -0.02956164 0.10602094 0.02769601
v -0.02972373 0.14098334 0.01912848
v -0.03000253 0.13073700 0.01912848
f 1 2 3
f 1 3 4
f 1 4 5
f 1 5 6
f 1 6 7
f 1 7 8
f 1 8 9
f 1 9 10
f 1 10 11
f 1 11 12
f 1 12 13
f 1 13 2
f 2 14 3
f 2 13 15
f 2 15 16
f 2 16 14
f 3 14 17
f 3 17 4
f 4 17 18
f 4 18 19
f 4 19 5
f 5 19 20
f 5 20 21
f 5 21 6
f 6 21 22
f 6 22 23
f 6 23 24
f 6 24 7
f 7 25 26
f 7 26 8
f 7 24 25
f 8 26 9
f 9 26 27
f 9 27 28
f 9 28 10
f 10 28 29
f 10 29 30
f 10 30 31
f 10 31 11
f 11 31 32
f 11 32 12
f 12 32 13
f 13 32 15
f 14 33 34
f 14 34 17
f 14 16 33
f 15 32 35
f 15 35 16
f 16 35 36
f 16 36 37
f 16 37 38
f 16 38 33
f 17 34 39
f 17 39 40
f 17 40 41
f 17 41 42
f 17 42 43
f 17 43 18
f 18 44 19
f 18 43 44
f 19 44 45
f 19 45 46
f 19 46 20
f 20 46 47
f 20 47 48
f 20 48 21
f 21 48 49
f 21 49 50
f 21 50 51
f 21 51 22
f 22 51 24
f 22 24 23
f 24 51 52
f 24 52 53
f 24 53 54
f 24 54 55
f 24 55 25
f 25 55 56
f 25 56 57
f 25 57 58
f 25 58 26
f 26 59 60
f 26 60 27
f 26 58 59
f 27 60 28
f 28 60 61
f 28 61 29
f 29 61 62
f 29 62 63
f 29 63 64
f 29 64 65
f 29 65 66
f 29 66 67
f 29 67 68
f 29 68 30
f 30 68 69
f 30 69 70
f 30 70 71
f 30 71 31
f 31 71 72
f 31 72 32
f 32 72 35
f 33 38 34
f 34 73 74
f 34 74 75
f 34 75 76
f 34 76 40
f 34 40 39
f 34 38 77
f 34 77 73
f 35 72 78
f 35 78 114
f 35 114 168
f 35 168 167
f 35 167 166
f 35 166 165
f 35 165 164
f 35 164 110
f 35 110 109
f 35 109 108
f 35 108 163
f 35 163 222
f 35 222 279
f 35 279 345
f 35 345 407
f 35 407 463
f 35 463 493
f 35 493 491
f 35 491 503
f 35 503 498
f 35 498 476
f 35 476 475
f 35 475 431
f 35 431 430
f 35 430 429
f 35 429 428
f 35 428 427
f 35 427 426
f 35 426 464
f 35 464 410
f 35 410 465
f 35 465 415
f 35 415 361
f 35 361 360
f 35 360 359
f 35 359 351
f 35 351 350
f 35 350 283
f 35 283 346
f 35 346 280
f 35 280 224
f 35 224 178
f 35 178 122
f 35 122 79
f 35 79 37
f 35 37 36
f 37 79 38
f 38 79 80
f 38 80 77
f 40 76 41
f 41 76 42
f 42 76 81
f 42 81 43
f 43 82 83
f 43 83 84
f 43 84 85
f 43 85 44
f 43 81 86
f 43 86 82
f 44 85 87
f 44 87 88
f 44 88 45
f 45 88 89
f 45 89 90
f 45 90 46
f 46 90 91
f 46 91 47
f 47 92 48
f 47 91 93
f 47 93 92
f 48 92 49
f 49 92 50
f 50 92 94
f 50 94 51
f 51 94 52
f 52 94 95
f 52 95 54
f 52 54 53
f 54 95 96
f 54 96 57
f 54 57 56
f 54 56 55
f 57 97 58
f 57 96 98
f 57 98 97
f 58 97 99
f 58 99 59
f 59 99 100
f 59 100 60
f 60 100 101
f 60 101 102
f 60 102 61
f 61 102 63
f 61 63 62
f 63 65 64
f 63 102 103
f 63 103 104
f 63 104 105
f 63 105 66
f 63 66 65
f 66 105 106
f 66 106 107
f 66 107 108
f 66 108 109
f 66 109 110
f 66 110 111
f 66 111 112
f 66 112 113
f 66 113 70
f 66 70 69
f 66 69 68
f 66 68 67
f 70 113 114
f 70 114 71
f 71 114 78
f 71 78 72
f 73 115 74
f 73 77 116
f 73 116 115
f 74 115 117
f 74 117 75
f 75 117 76
f 76 118 81
f 76 117 115
f 76 115 119
f 76 119 120
f 76 120 121
f 76 121 118
f 77 80 116
f 79 122 80
f 80 123 116
f 80 122 123
f 81 118 82
f 81 82 86
f 82 124 125
f 82 125 126
f 82 126 127
f 82 127 128
f 82 128 129
f 82 129 83
f 82 118 124
f 83 129 130
f 83 130 131
f 83 131 132
f 83 132 84
f 84 133 87
f 84 87 85
f 84 132 134
f 84 134 135
f 84 135 133
f 87 133 136
f 87 136 89
f 87 89 88
f 89 136 90
f 90 136 137
f 90 137 138
f 90 138 91
f 91 138 139
f 91 139 93
f 92 93 140
f 92 140 94
f 93 139 141
f 93 141 206
f 93 206 140
f 94 140 142
f 94 142 143
f 94 143 95
f 95 144 96
f 95 143 142
f 95 142 145
f 95 145 146
f 95 146 147
f 95 147 144
f 96 144 148
f 96 148 98
f 97 149 150
f 97 150 99
f 97 98 149
f 98 151 152
f 98 152 153
f 98 153 149
f 98 148 154
f 98 154 146
f 98 146 155
f 98 155 151
f 99 150 156
f 99 156 100
f 100 156 101
f 101 156 157
f 101 157 158
f 101 158 102
f 102 158 159
f 102 159 160
f 102 160 103
f 103 160 161
f 103 161 106
f 103 106 104
f 104 106 162
f 104 162 105
f 105 162 106
f 106 161 163
f 106 163 107
f 107 163 108
f 110 164 111
f 111 164 165
f 111 165 112
f 112 165 166
f 112 166 167
f 112 167 168
f 112 168 114
f 112 114 169
f 112 169 113
f 113 169 114
f 115 170 171
f 115 171 119
f 115 116 123
f 115 123 170
f 118 121 120
f 118 120 172
f 118 172 173
f 118 173 124
f 119 171 174
f 119 174 120
f 120 174 175
f 120 175 176
f 120 176 172
f 122 177 170
f 122 170 123
f 122 178 179
f 122 179 180
f 122 180 177
f 124 181 125
f 124 173 182
f 124 182 181
f 125 181 183
f 125 183 184
f 125 184 126
f 126 185 186
f 126 186 127
f 126 184 185
f 127 186 187
f 127 187 128
f 128 187 188
f 128 188 189
f 128 189 129
f 129 189 130
f 130 190 191
f 130 191 134
f 130 134 131
f 130 189 192
f 130 192 190
f 131 134 132
f 133 135 136
f 134 191 135
f 135 192 193
f 135 193 194
f 135 194 195
f 135 195 196
f 135 196 197
f 135 197 198
f 135 198 136
f 135 191 192
f 136 198 137
f 137 198 199
f 137 199 200
f 137 200 138
f 138 200 139
f 139 200 201
f 139 201 202
f 139 202 203
f 139 203 204
f 139 204 205
f 139 205 141
f 140 206 207
f 140 207 142
f 141 205 208
f 141 208 206
f 142 207 145
f 144 147 148
f 145 207 209
f 145 209 146
f 146 154 148
f 146 148 147
f 146 209 210
f 146 210 155
f 149 211 150
f 149 153 212
f 149 212 211
f 150 211 213
f 150 213 214
f 150 214 215
f 150 215 156
f 151 155 152
f 152 155 216
f 152 216 217
f 152 217 212
f 152 212 153
f 155 210 216
f 156 215 218
f 156 218 157
f 157 218 219
f 157 219 158
f 158 219 159
f 159 219 160
f 160 219 220
f 160 220 221
f 160 221 161
f 161 221 222
f 161 222 163
f 170 180 176
f 170 176 175
f 170 175 171
f 170 177 180
f 171 175 174
f 172 176 223
f 172 223 179
f 172 179 182
f 172 182 173
f 176 180 223
f 178 224 225
f 178 225 226
f 178 226 227
f 178 227 179
f 179 228 182
f 179 223 180
f 179 227 228
f 181 229 183
f 181 182 229
f 182 228 230
f 182 230 231
f 182 231 229
f 183 232 184
f 183 229 233
f 183 233 232
f 184 234 185
f 184 232 234
f 185 234 186
f 186 235 187
f 186 234 235
f 187 236 237
f 187 237 188
f 187 235 236
f 188 237 189
f 189 237 238
f 189 238 239
f 189 239 240
f 189 240 192
f 190 192 191
f 192 241 242
f 192 242 243
f 192 243 193
f 192 240 241
f 193 243 194
f 194 243 244
f 194 244 195
f 195 245 196
f 195 244 245
f 196 245 197
f 197 246 198
f 197 245 247
f 197 247 246
f 198 246 248
f 198 248 199
f 199 248 249
f 199 249 202
f 199 202 200
f 200 202 201
f 202 249 250
f 202 250 203
f 203 250 251
f 203 251 204
f 204 251 252
f 204 252 253
f 204 253 254
f 204 254 255
f 204 255 256
f 204 256 205
f 205 256 257
f 205 257 258
f 205 258 259
f 205 259 208
f 206 208 207
f 207 208 260
f 207 260 209
f 208 259 260
f 209 260 261
f 209 261 210
f 210 261 262
f 210 262 216
f 211 212 263
f 211 263 264
f 211 264 265
f 211 265 266
f 211 266 213
f 212 217 267
f 212 267 263
f 213 266 268
f 213 268 269
f 213 269 270
f 213 270 214
f 214 270 271
f 214 271 215
f 215 271 218
f 216 262 272
f 216 272 217
f 217 272 273
f 217 273 267
f 218 271 274
f 218 274 275
f 218 275 219
f 219 275 276
f 219 276 277
f 219 277 220
f 220 277 278
f 220 278 222
f 220 222 221
f 222 278 279
f 224 280 281
f 224 281 225
f 225 281 227
f 225 227 226
f 227 281 228
f 228 281 282
f 228 282 283
f 228 283 284
f 228 284 230
f 229 231 233
f 230 285 286
f 230 286 231
f 230 284 285
f 231 286 287
f 231 287 288
f 231 288 233
f 232 289 290
f 232 290 234
f 232 233 291
f 232 291 289
f 233 292 291
f 233 288 293
f 233 293 292
f 234 290 294
f 234 294 295
f 234 295 235
f 235 295 296
f 235 296 236
f 236 296 297
f 236 297 298
f 236 298 237
f 237 298 299
f 237 299 300
f 237 300 301
f 237 301 238
f 238 301 239
f 239 301 302
f 239 302 241
f 239 241 240
f 241 302 303
f 241 303 304
f 241 304 305
f 241 305 242
f 242 305 306
f 242 306 244
f 242 244 243
f 244 306 307
f 244 307 245
f 245 308 309
f 245 309 247
f 245 307 308
f 246 310 248
f 246 247 311
f 246 311 312
f 246 312 310
f 247 309 312
f 247 312 311
f 248 310 249
f 249 310 313
f 249 313 250
f 250 313 314
f 250 314 252
f 250 252 251
f 252 314 315
f 252 315 316
f 252 316 317
f 252 317 318
f 252 318 319
f 252 319 320
f 252 320 253
f 253 320 319
f 253 319 254
f 254 319 255
f 255 257 256
f 255 319 321
f 255 321 318
f 255 318 258
f 255 258 257
f 258 318 259
f 259 318 322
f 259 322 260
f 260 323 261
f 260 322 324
f 260 324 323
f 261 323 325
f 261 325 326
f 261 326 262
f 262 326 272
f 263 267 327
f 263 327 328
f 263 328 264
f 264 328 329
f 264 329 330
f 264 330 331
f 264 331 265
f 265 331 332
f 265 332 333
f 265 333 266
f 266 333 334
f 266 334 268
f 267 273 335
f 267 335 336
f 267 336 337
f 267 337 327
f 268 334 338
f 268 338 269
f 269 338 270
f 270 338 339
f 270 339 340
f 270 340 271
f 271 340 341
f 271 341 275
f 271 275 274
f 272 342 273
f 272 326 342
f 273 342 335
f 275 341 343
f 275 343 276
f 276 343 344
f 276 344 277
f 277 344 279
f 277 279 278
f 279 344 345
f 280 346 281
f 281 346 347
f 281 347 348
f 281 348 282
f 282 348 347
f 282 347 349
f 282 349 346
f 282 346 283
f 283 350 288
f 283 288 284
f 284 288 287
f 284 287 285
f 285 287 286
f 288 350 351
f 288 351 293
f 289 352 290
f 289 291 353
f 289 353 354
f 289 354 355
f 289 355 352
f 290 356 294
f 290 352 356
f 291 292 357
f 291 357 353
f 292 293 358
f 292 358 357
f 293 351 359
f 293 359 360
f 293 360 361
f 293 361 358
f 294 297 296
f 294 296 295
f 294 356 297
f 297 362 363
f 297 363 364
f 297 364 365
f 297 365 366
f 297 366 299
f 297 299 298
f 297 356 352
f 297 352 367
f 297 367 362
f 299 366 300
f 300 368 369
f 300 369 370
f 300 370 371
f 300 371 372
f 300 372 373
f 300 373 374
f 300 374 375
f 300 375 301
f 300 366 368
f 301 375 374
f 301 374 302
f 302 374 376
f 302 376 377
f 302 377 306
f 302 306 303
f 303 306 304
f 304 306 305
f 306 377 378
f 306 378 307
f 307 378 379
f 307 379 308
f 308 379 380
f 308 380 309
f 309 380 381
f 309 381 382
f 309 382 383
f 309 383 312
f 310 312 383
f 310 383 313
f 313 383 316
f 313 316 315
f 313 315 314
f 316 383 382
f 316 382 317
f 317 382 384
f 317 384 385
f 317 385 386
f 317 386 322
f 317 322 318
f 318 321 319
f 322 386 324
f 323 324 385
f 323 385 387
f 323 387 325
f 324 386 385
f 325 387 388
f 325 388 326
f 326 389 342
f 326 388 389
f 327 390 328
f 327 337 390
f 328 391 392
f 328 392 329
f 328 390 391
f 329 392 330
f 330 393 331
f 330 392 393
f 331 393 394
f 331 394 395
f 331 395 396
f 331 396 332
f 332 397 334
f 332 334 333
f 332 396 398
f 332 398 397
f 334 397 338
f 335 342 336
f 336 399 337
f 336 342 389
f 336 389 400
f 336 400 401
f 336 401 399
f 337 399 402
f 337 402 390
f 338 403 339
f 338 397 403
f 339 403 340
f 340 403 404
f 340 404 405
f 340 405 341
f 341 405 343
f 343 405 406
f 343 406 344
f 344 406 345
f 345 406 407
f 346 349 347
f 352 355 408
f 352 408 367
f 353 357 354
f 354 357 358
f 354 358 409
f 354 409 410
f 354 410 411
f 354 411 412
f 354 412 413
f 354 413 408
f 354 408 355
f 358 361 414
f 358 414 409
f 361 415 414
f 362 416 417
f 362 417 363
f 362 367 418
f 362 418 419
f 362 419 416
f 363 420 421
f 363 421 364
f 363 417 420
f 364 421 422
f 364 422 423
f 364 423 424
f 364 424 425
f 364 425 365
f 365 425 366
f 366 425 368
f 367 408 426
f 367 426 427
f 367 427 428
f 367 428 429
f 367 429 430
f 367 430 431
f 367 431 432
f 367 432 418
f 368 424 369
f 368 425 424
f 369 424 433
f 369 433 370
f 370 433 434
f 370 434 435
f 370 435 372
f 370 372 371
f 372 435 436
f 372 436 379
f 372 379 373
f 373 379 374
f 374 379 376
f 376 379 378
f 376 378 377
f 379 436 380
f 380 384 382
f 380 382 381
f 380 436 437
f 380 437 384
f 384 438 439
f 384 439 440
f 384 440 385
f 384 437 441
f 384 441 442
f 384 442 443
f 384 443 444
f 384 444 438
f 385 440 387
f 387 440 445
f 387 445 446
f 387 446 388
f 388 446 389
f 389 446 447
f 389 447 448
f 389 448 400
f 390 449 469
f 390 469 450
f 390 450 391
f 390 402 399
f 390 399 451
f 390 451 449
f 391 450 452
f 391 452 392
f 392 452 453
f 392 453 393
f 393 454 455
f 393 455 394
f 393 453 456
f 393 456 454
f 394 455 457
f 394 457 458
f 394 458 395
f 395 403 398
f 395 398 396
f 395 458 459
f 395 459 460
f 395 460 403
f 397 398 403
f 399 401 461
f 399 461 451
f 400 448 401
f 401 448 461
f 403 460 462
f 403 462 404
f 404 462 407
f 404 407 405
f 405 407 406
f 407 462 463
f 408 413 464
f 408 464 426
f 409 414 465
f 409 465 410
f 410 464 411
f 411 464 412
f 412 464 413
f 414 415 465
f 416 455 454
f 416 454 456
f 416 456 417
f 416 419 466
f 416 466 467
f 416 467 455
f 417 456 453
f 417 453 452
f 417 452 468
f 417 468 420
f 418 432 419
f 419 432 466
f 420 450 469
f 420 469 422
f 420 422 421
f 420 468 452
f 420 452 450
f 422 469 470
f 422 470 471
f 422 471 472
f 422 472 423
f 423 472 473
f 423 473 474
f 423 474 424
f 424 474 434
f 424 434 433
f 431 475 432
f 432 475 476
f 432 476 477
f 432 477 478
f 432 478 466
f 434 474 479
f 434 479 435
f 435 479 436
f 436 479 480
f 436 480 437
f 437 442 441
f 437 480 442
f 438 481 482
f 438 482 445
f 438 445 440
f 438 440 439
f 438 444 448
f 438 448 481
f 442 480 443
f 443 480 483
f 443 483 444
f 444 483 484
f 444 484 448
f 445 482 448
f 445 448 447
f 445 447 446
f 448 484 485
f 448 485 461
f 448 482 481
f 449 451 470
f 449 470 469
f 451 461 486
f 451 486 470
f 455 467 487
f 455 487 488
f 455 488 489
f 455 489 457
f 457 489 490
f 457 490 458
f 458 490 491
f 458 491 492
f 458 492 493
f 458 493 459
f 459 493 460
f 460 493 462
f 461 485 486
f 462 493 463
f 466 478 467
f 467 478 494
f 467 494 487
f 470 486 495
f 470 495 496
f 470 496 471
f 471 496 472
f 472 496 480
f 472 480 497
f 472 497 473
f 473 497 480
f 473 480 479
f 473 479 474
f 476 498 477
f 477 498 494
f 477 494 478
f 480 496 499
f 480 499 500
f 480 500 483
f 483 500 484
f 484 500 501
f 484 501 485
f 485 501 502
f 485 502 486
f 486 502 495
f 487 494 490
f 487 490 488
f 488 490 489
f 490 494 498
f 490 498 503
f 490 503 491
f 491 493 492
f 495 502 504
f 495 504 496
f 496 504 505
f 496 505 499
f 499 505 500
f 500 505 504
f 500 504 501
f 501 504 502
f 506 507 508
f 506 508 514
f 506 514 527
f 506 527 544
f 506 544 548
f 506 548 547
f 506 547 574
f 506 574 601
f 506 601 628
f 506 628 632
f 506 632 631
f 506 631 630
f 506 630 629
f 506 629 617
f 506 617 622
f 506 622 621
f 506 621 620
f 506 620 619
f 506 619 597
f 506 597 596
f 506 596 592
f 506 592 591
f 506 591 579
f 506 579 583
f 506 583 586
f 506 586 605
f 506 605 604
f 506 604 603
f 506 603 616
f 506 616 615
f 506 615 614
f 506 614 613
f 506 613 612
f 506 612 611
f 506 611 610
f 506 610 609
f 506 609 608
f 506 608 607
f 506 607 606
f 506 606 589
f 506 589 561
f 506 561 578
f 506 578 577
f 506 577 576
f 506 576 575
f 506 575 549
f 506 549 529
f 506 529 516
f 506 516 509
f 506 509 507
f 507 509 510
f 507 510 511
f 507 511 512
f 507 512 513
f 507 513 508
f 508 513 514
f 509 515 511
f 509 511 510
f 509 516 517
f 509 517 515
f 511 518 512
f 511 515 517
f 511 517 519
f 511 519 518
f 512 518 520
f 512 520 521
f 512 521 522
f 512 522 513
f 513 522 523
f 513 523 524
f 513 524 525
f 513 525 526
f 513 526 514
f 514 526 528
f 514 528 527
f 516 529 517
f 517 529 530
f 517 530 519
f 518 531 520
f 518 519 532
f 518 532 533
f 518 533 531
f 519 530 534
f 519 534 535
f 519 535 536
f 519 536 532
f 520 537 538
f 520 538 539
f 520 539 523
f 520 523 521
f 520 531 537
f 521 523 522
f 523 539 540
f 523 540 541
f 523 541 524
f 524 541 525
f 525 541 542
f 525 542 526
f 526 542 543
f 526 543 528
f 527 528 544
f 528 543 545
f 528 545 546
f 528 546 547
f 528 547 548
f 528 548 544
f 529 549 550
f 529 550 530
f 530 550 551
f 530 551 552
f 530 552 534
f 531 553 554
f 531 554 537
f 531 533 555
f 531 555 556
f 531 556 553
f 532 536 557
f 532 557 558
f 532 558 559
f 532 559 533
f 533 559 555
f 534 560 535
f 534 552 561
f 534 561 560
f 535 560 562
f 535 562 563
f 535 563 557
f 535 557 536
f 537 554 564
f 537 564 538
f 538 565 566
f 538 566 539
f 538 564 567
f 538 567 565
f 539 566 568
f 539 568 540
f 540 568 569
f 540 569 570
f 540 570 542
f 540 542 541
f 542 570 569
f 542 569 571
f 542 571 543
f 543 571 545
f 545 569 566
f 545 566 572
f 545 572 573
f 545 573 546
f 545 571 569
f 546 573 547
f 547 573 574
f 549 575 550
f 550 575 551
f 551 575 576
f 551 576 552
f 552 576 577
f 552 577 578
f 552 578 561
f 553 556 554
f 554 579 564
f 554 556 580
f 554 580 581
f 554 581 579
f 555 559 556
f 556 559 582
f 556 582 583
f 556 583 580
f 557 563 584
f 557 584 585
f 557 585 558
f 558 585 586
f 558 586 587
f 558 587 582
f 558 582 559
f 560 588 562
f 560 561 589
f 560 589 588
f 562 588 563
f 563 590 584
f 563 588 590
f 564 579 591
f 564 591 592
f 564 592 567
f 565 567 593
f 565 593 566
f 566 569 568
f 566 593 594
f 566 594 595
f 566 595 572
f 567 592 596
f 567 596 597
f 567 597 593
f 572 595 598
f 572 598 599
f 572 599 600
f 572 600 574
f 572 574 573
f 574 600 601
f 579 581 580
f 579 580 583
f 582 587 602
f 582 602 583
f 583 602 586
f 584 590 585
f 585 590 603
f 585 603 604
f 585 604 605
f 585 605 586
f 586 602 587
f 588 589 606
f 588 606 607
f 588 607 608
f 588 608 609
f 588 609 610
f 588 610 611
f 588 611 612
f 588 612 613
f 588 613 590
f 590 613 614
f 590 614 615
f 590 615 616
f 590 616 603
f 593 617 618
f 593 618 594
f 593 597 619
f 593 619 620
f 593 620 621
f 593 621 622
f 593 622 617
f 594 623 624
f 594 624 598
f 594 598 595
f 594 618 625
f 594 625 623
f 598 624 599
f 599 624 626
f 599 626 627
f 599 627 601
f 599 601 600
f 601 627 626
f 601 626 628
f 617 629 618
f 618 629 630
f 618 630 625
f 623 626 624
f 623 625 626
f 625 630 631
f 625 631 626
f 626 632 628
f 626 631 632
f 634 635 633
f 634 636 635
f 634 637 636
f 634 633 637
f 637 633 638
f 639 637 638
f 639 640 637
f 639 641 640
f 642 641 639
f 642 643 641
f 642 644 643
f 642 645 644
f 642 639 645
f 639 638 645
f 645 638 644
f 646 644 638
f 646 647 644
f 646 648 647
f 649 648 646
f 649 650 648
f 649 651 650
f 649 652 651
f 653 652 649
f 653 654 652
f 653 646 654
f 653 649 646
f 646 638 654
f 652 654 638
f 652 638 655
f 656 652 655
f 656 651 652
f 657 651 656
f 657 658 651
f 657 659 658
f 660 659 657
f 660 656 659
f 660 657 656
f 656 661 659
f 656 662 661
f 656 663 662
f 656 655 663
f 664 663 655
f 664 665 663
f 664 666 665
f 664 655 666
f 666 655 638
f 667 666 638
f 668 666 667
f 669 666 668
f 669 670 666
f 669 671 670
f 669 672 671
f 669 673 672
f 669 668 673
f 673 668 667
f 673 667 635
f 673 635 672
f 672 635 636
f 672 636 674
f 675 672 674
f 676 672 675
f 676 671 672
f 676 677 671
f 676 678 677
f 676 679 678
f 676 675 679
f 675 680 679
f 675 681 680
f 675 682 681
f 675 674 682
f 674 683 682
f 684 683 674
f 684 685 683
f 686 685 684
f 686 687 685
f 686 643 687
f 641 643 686
f 641 686 684
f 641 684 640
f 684 674 640
f 674 636 640
f 636 637 640
f 643 688 687
f 643 644 688
f 647 688 644
f 689 688 647
f 689 687 688
f 689 690 687
f 689 691 690
f 689 647 691
f 692 691 647
f 692 693 691
f 694 693 692
f 694 695 693
f 696 695 694
f 696 697 695
f 696 694 697
f 694 698 697
f 694 699 698
f 694 692 699
f 700 699 692
f 700 701 699
f 700 702 701
f 700 703 702
f 700 692 703
f 692 704 703
f 692 705 704
f 692 647 705
f 647 648 705
f 705 648 706
f 704 705 706
f 704 706 707
f 702 704 707
f 702 703 704
f 708 702 707
f 708 709 702
f 708 710 709
f 708 711 710
f 708 712 711
f 708 706 712
f 708 707 706
f 712 706 713
f 712 713 711
f 713 714 711
f 715 714 713
f 715 716 714
f 706 716 715
f 717 716 706
f 717 651 716
f 717 650 651
f 717 706 650
f 650 706 648
f 718 716 651
f 718 719 716
f 718 658 719
f 718 651 658
f 719 658 720
f 719 720 716
f 721 716 720
f 721 722 716
f 723 722 721
f 723 716 722
f 723 714 716
f 723 721 714
f 721 720 714
f 714 720 711
f 720 724 711
f 725 724 720
f 726 724 725
f 727 724 726
f 727 728 724
f 727 729 728
f 730 729 727
f 730 726 729
f 730 727 726
f 731 729 726
f 731 732 729
f 733 732 731
f 733 729 732
f 733 728 729
f 733 734 728
f 733 735 734
f 733 736 735
f 733 731 736
f 731 737 736
f 738 737 731
f 738 739 737
f 738 731 739
f 731 740 739
f 731 726 740
f 741 740 726
f 741 742 740
f 741 726 742
f 742 726 743
f 744 742 743
f 744 745 742
f 744 743 745
f 746 745 743
f 746 725 745
f 747 725 746
f 747 743 725
f 747 746 743
f 743 726 725
f 745 725 740
f 742 745 740
f 725 720 740
f 740 720 737
f 739 740 737
f 658 737 720
f 662 737 658
f 748 737 662
f 749 737 748
f 749 736 737
f 749 748 736
f 750 736 748
f 751 736 750
f 751 752 736
f 751 750 752
f 750 748 752
f 752 748 662
f 753 752 662
f 754 752 753
f 754 736 752
f 754 753 736
f 755 736 753
f 755 662 736
f 755 753 662
f 665 736 662
f 665 756 736
f 665 666 756
f 757 756 666
f 757 758 756
f 757 759 758
f 757 760 759
f 757 666 760
f 670 760 666
f 761 760 670
f 761 759 760
f 761 762 759
f 761 670 762
f 670 763 762
f 764 763 670
f 764 765 763
f 764 677 765
f 671 677 764
f 671 764 670
f 766 765 677
f 766 767 765
f 766 768 767
f 766 677 768
f 769 768 677
f 769 770 768
f 769 771 770
f 772 771 769
f 772 773 771
f 772 774 773
f 772 775 774
f 772 776 775
f 772 769 776
f 769 677 776
f 678 776 677
f 678 775 776
f 777 775 678
f 777 778 775
f 779 778 777
f 779 780 778
f 779 781 780
f 779 782 781
f 779 680 782
f 779 777 680
f 777 679 680
f 777 678 679
f 783 782 680
f 783 784 782
f 783 785 784
f 786 785 783
f 786 787 785
f 786 685 787
f 786 683 685
f 786 788 683
f 786 783 788
f 783 680 788
f 680 681 788
f 681 682 788
f 788 682 683
f 787 685 687
f 787 687 785
f 785 687 784
f 789 784 687
f 789 790 784
f 789 791 790
f 789 687 791
f 791 687 690
f 791 690 790
f 790 690 792
f 784 790 792
f 784 792 782
f 792 793 782
f 792 690 793
f 793 690 794
f 781 793 794
f 795 793 781
f 795 782 793
f 795 781 782
f 796 781 794
f 796 780 781
f 796 778 780
f 796 775 778
f 796 794 775
f 774 775 794
f 774 794 770
f 773 774 770
f 773 770 771
f 770 794 797
f 798 770 797
f 767 770 798
f 767 768 770
f 767 798 763
f 767 763 765
f 798 797 763
f 799 763 797
f 762 763 799
f 762 799 759
f 800 759 799
f 800 801 759
f 800 802 801
f 800 799 802
f 799 797 802
f 802 797 803
f 804 802 803
f 804 805 802
f 806 805 804
f 806 807 805
f 808 807 806
f 808 809 807
f 808 810 809
f 808 806 810
f 810 806 811
f 810 811 809
f 811 812 809
f 813 812 811
f 813 804 812
f 813 811 804
f 806 804 811
f 804 803 812
f 803 797 812
f 690 812 797
f 814 812 690
f 814 711 812
f 815 711 814
f 710 711 815
f 710 815 709
f 816 709 815
f 816 699 709
f 817 699 816
f 817 818 699
f 817 819 818
f 817 820 819
f 817 816 820
f 820 816 815
f 821 820 815
f 821 822 820
f 821 814 822
f 821 815 814
f 823 822 814
f 819 822 823
f 820 822 819
f 819 823 818
f 823 814 818
f 818 814 824
f 818 824 699
f 825 699 824
f 825 698 699
f 697 698 825
f 697 825 824
f 697 824 693
f 695 697 693
f 693 824 690
f 691 693 690
f 824 814 690
f 701 709 699
f 702 709 701
f 812 711 724
f 809 812 724
f 826 809 724
f 827 809 826
f 827 828 809
f 827 829 828
f 827 826 829
f 830 829 826
f 831 829 830
f 831 832 829
f 831 833 832
f 831 830 833
f 833 830 826
f 834 833 826
f 834 724 833
f 834 826 724
f 833 724 832
f 832 724 758
f 832 758 829
f 835 829 758
f 801 829 835
f 801 802 829
f 802 805 829
f 836 829 805
f 836 807 829
f 836 805 807
f 837 829 807
f 837 828 829
f 837 807 828
f 828 807 809
f 801 835 759
f 835 758 759
f 838 758 724
f 838 735 758
f 838 724 735
f 734 735 724
f 734 724 728
f 735 756 758
f 736 756 735
f 794 690 797
f 839 665 662
f 839 663 665
f 839 662 663
f 659 662 658
f 661 662 659
f 706 715 713
f 635 667 638
f 635 638 633
f 840 841 844
f 840 844 851
f 840 851 866
f 840 866 890
f 840 890 889
f 840 889 888
f 840 888 887
f 840 887 886
f 840 886 919
f 840 919 953
f 840 953 936
f 840 936 906
f 840 906 905
f 840 905 875
f 840 875 871
f 840 871 857
f 840 857 848
f 840 848 842
f 840 842 843
f 840 843 841
f 841 843 844
f 842 845 846
f 842 846 847
f 842 847 843
f 842 848 845
f 843 847 849
f 843 849 844
f 844 849 850
f 844 850 862
f 844 862 861
f 844 861 878
f 844 878 912
f 844 912 950
f 844 950 923
f 844 923 922
f 844 922 921
f 844 921 957
f 844 957 974
f 844 974 976
f 844 976 975
f 844 975 949
f 844 949 978
f 844 978 997
f 844 997 1010
f 844 1010 1018
f 844 1018 1017
f 844 1017 1011
f 844 1011 1002
f 844 1002 982
f 844 982 981
f 844 981 979
f 844 979 954
f 844 954 917
f 844 917 916
f 844 916 913
f 844 913 880
f 844 880 879
f 844 879 863
f 844 863 851
f 845 852 853
f 845 853 846
f 845 848 852
f 846 853 854
f 846 854 855
f 846 855 847
f 847 855 849
f 848 856 852
f 848 857 858
f 848 858 859
f 848 859 856
f 849 855 854
f 849 854 860
f 849 860 861
f 849 861 862
f 849 862 850
f 851 863 864
f 851 864 865
f 851 865 866
f 852 856 867
f 852 867 853
f 853 867 868
f 853 868 869
f 853 869 870
f 853 870 854
f 854 870 860
f 856 859 867
f 857 871 858
f 858 872 873
f 858 873 874
f 858 874 859
f 858 871 875
f 858 875 872
f 859 874 868
f 859 868 867
f 860 876 877
f 860 877 861
f 860 870 876
f 861 877 878
f 863 879 864
f 864 879 880
f 864 880 881
f 864 881 882
f 864 882 865
f 865 882 883
f 865 883 884
f 865 884 885
f 865 885 886
f 865 886 887
f 865 887 888
f 865 888 889
f 865 889 890
f 865 890 866
f 868 874 891
f 868 891 892
f 868 892 893
f 868 893 869
f 869 893 894
f 869 894 895
f 869 895 870
f 870 895 896
f 870 896 897
f 870 897 876
f 872 898 929
f 872 929 899
f 872 899 900
f 872 900 901
f 872 901 902
f 872 902 903
f 872 903 904
f 872 904 873
f 872 875 905
f 872 905 906
f 872 906 907
f 872 907 908
f 872 908 898
f 873 904 909
f 873 909 910
f 873 910 874
f 874 910 911
f 874 911 891
f 876 897 877
f 877 897 878
f 878 897 896
f 878 896 912
f 880 913 881
f 881 913 914
f 881 914 883
f 881 883 882
f 883 914 884
f 884 915 885
f 884 914 913
f 884 913 916
f 884 916 917
f 884 917 918
f 884 918 915
f 885 915 919
f 885 919 886
f 891 911 920
f 891 920 892
f 892 920 921
f 892 921 922
f 892 922 923
f 892 923 924
f 892 924 925
f 892 925 893
f 893 925 894
f 894 925 926
f 894 926 895
f 895 926 925
f 895 925 896
f 896 925 912
f 898 908 927
f 898 927 928
f 898 928 929
f 899 929 900
f 900 930 903
f 900 903 902
f 900 902 901
f 900 929 931
f 900 931 932
f 900 932 930
f 903 933 904
f 903 930 933
f 904 934 935
f 904 935 910
f 904 910 909
f 904 933 934
f 906 936 907
f 907 937 938
f 907 938 939
f 907 939 908
f 907 936 937
f 908 939 927
f 910 940 911
f 910 935 934
f 910 934 941
f 910 941 942
f 910 942 943
f 910 943 940
f 911 944 945
f 911 945 920
f 911 940 946
f 911 946 947
f 911 947 948
f 911 948 949
f 911 949 944
f 912 925 950
f 915 918 951
f 915 951 952
f 915 952 953
f 915 953 919
f 917 954 918
f 918 954 955
f 918 955 956
f 918 956 951
f 920 945 921
f 921 945 957
f 923 950 925
f 923 925 924
f 927 939 958
f 927 958 929
f 927 929 928
f 929 958 959
f 929 959 960
f 929 960 931
f 930 961 962
f 930 962 933
f 930 932 961
f 931 960 932
f 932 963 961
f 932 960 964
f 932 964 992
f 932 992 1005
f 932 1005 1004
f 932 1004 1016
f 932 1016 1015
f 932 1015 1014
f 932 1014 1013
f 932 1013 1008
f 932 1008 996
f 932 996 978
f 932 978 949
f 932 949 977
f 932 977 973
f 932 973 943
f 932 943 972
f 932 972 966
f 932 966 991
f 932 991 990
f 932 990 963
f 933 962 934
f 934 962 965
f 934 965 966
f 934 966 941
f 936 953 952
f 936 952 937
f 937 952 951
f 937 951 967
f 937 967 938
f 938 968 969
f 938 969 970
f 938 970 939
f 938 967 971
f 938 971 968
f 939 970 969
f 939 969 958
f 940 943 946
f 941 966 942
f 942 966 972
f 942 972 943
f 943 973 946
f 944 974 945
f 944 949 975
f 944 975 976
f 944 976 974
f 945 974 957
f 946 973 977
f 946 977 947
f 947 977 948
f 948 977 949
f 951 956 967
f 954 979 955
f 955 980 956
f 955 979 981
f 955 981 982
f 955 982 983
f 955 983 980
f 956 980 967
f 958 969 984
f 958 984 959
f 959 984 985
f 959 985 960
f 960 985 986
f 960 986 987
f 960 987 988
f 960 988 989
f 960 989 964
f 961 963 990
f 961 990 962
f 962 990 991
f 962 991 966
f 962 966 965
f 964 989 992
f 967 980 971
f 968 986 984
f 968 984 969
f 968 971 986
f 971 980 993
f 971 993 994
f 971 994 995
f 971 995 986
f 978 996 997
f 980 983 998
f 980 998 999
f 980 999 1000
f 980 1000 1001
f 980 1001 993
f 982 1002 983
f 983 1002 998
f 984 986 985
f 986 995 1003
f 986 1003 1004
f 986 1004 987
f 987 1004 988
f 988 1004 1005
f 988 1005 989
f 989 1005 992
f 993 1001 1006
f 993 1006 994
f 994 1003 995
f 994 1006 1007
f 994 1007 1003
f 996 1008 1000
f 996 1000 997
f 997 1009 1010
f 997 1000 1009
f 998 1002 1011
f 998 1011 1000
f 998 1000 1012
f 998 1012 999
f 999 1012 1000
f 1000 1008 1013
f 1000 1013 1014
f 1000 1014 1006
f 1000 1006 1001
f 1000 1011 1009
f 1003 1007 1006
f 1003 1006 1015
f 1003 1015 1016
f 1003 1016 1004
f 1006 1014 1015
f 1009 1017 1018
f 1009 1018 1010
f 1009 1011 1017

