# https://github.com/mikedh/trimesh
v 0.02551683 0.17698029 0.00886109
v 0.02551683 0.17691142 0.00709917
v 0.02375422 0.17691142 0.00709917
v 0.02375422 0.17697168 0.00886109
v 0.02551683 0.17695446 0.01061913
v 0.02727943 0.17694586 0.01061913
v 0.02727943 0.17695446 0.00886109
v 0.02727943 0.17689419 0.00709917
v 0.02551683 0.17680811 0.00533724
v -0.02200786 0.17626574 -0.00169880
v -0.02377047 0.17625714 -0.00169880
v -0.02200786 0.17634322 0.00005924
v -0.02377047 0.17632600 0.00005924
v -0.02200786 0.17636044 0.00182116
v -0.02377047 0.17633462 0.00182116
v 0.02551683 0.17686837 0.01238105
v 0.02727943 0.17688559 0.01238105
v -0.02200786 0.17630019 0.00358308
v 0.02904204 0.17685116 0.01061913
v 0.02904204 0.17689419 0.00886109
v 0.02727943 0.17676507 0.00533724
v 0.02904204 0.17682532 0.00709917
v 0.02551683 0.17663593 0.00358308
v -0.02200786 0.17613661 -0.00334042
v -0.02377047 0.17612800 -0.00334042
v -0.02553307 0.17611940 -0.00320071
v -0.02729568 0.17618826 -0.00169880
v -0.02553307 0.17629157 0.00005924
v -0.02553307 0.17628297 0.00182116
v -0.02377047 0.17625714 0.00358308
v 0.02551683 0.17669620 0.01414297
v 0.02727943 0.17673063 0.01414297
v -0.02200786 0.17616244 0.00533724
v -0.02200786 0.17607635 0.00634239
v 0.02904204 0.17665315 0.01414297
v 0.02904204 0.17678228 0.01238105
v 0.03079527 0.17670480 0.01061913
v 0.03079527 0.17674785 0.00886109
v 0.02727943 0.17658428 0.00358308
v 0.02904204 0.17667037 0.00533724
v 0.03079527 0.17667897 0.00709917
v 0.02551683 0.17637766 0.00182116
v -0.02200786 0.17589556 -0.00522265
v -0.02200786 0.17604191 -0.00422138
v -0.02377047 0.17604191 -0.00422138
v -0.02553307 0.17602469 -0.00407778
v -0.02729568 0.17600748 -0.00387598
v -0.02729568 0.17609356 -0.00299502
v -0.02864576 0.17607635 -0.00277381
v -0.02981770 0.17605052 -0.00249050
v -0.02916141 0.17611078 -0.00182299
v -0.02904890 0.17616244 0.00005924
v -0.02729568 0.17623130 0.00005924
v -0.02553307 0.17619687 0.00358308
v -0.02729568 0.17621409 0.00182116
v -0.02553307 0.17609356 0.00484437
v -0.02361108 0.17611078 0.00539158
v 0.02023839 0.17649819 0.01414297
v 0.01847579 0.17618826 0.01554397
v 0.02727943 0.17640349 0.01590101
v -0.01849203 0.17585251 0.00886109
v 0.02904204 0.17638627 0.01590101
v -0.02291729 0.17605913 0.00622597
v 0.03086090 0.17623130 0.01600580
v 0.03079527 0.17649819 0.01414297
v 0.03079527 0.17661871 0.01238105
v 0.03255787 0.17652401 0.01061913
v 0.03255787 0.17653263 0.00886109
v 0.03255787 0.17647236 0.00709917
v 0.02727943 0.17632600 0.00182116
v 0.02904204 0.17648096 0.00358308
v 0.02904204 0.17623992 0.00182116
v 0.03079527 0.17652401 0.00533724
v 0.03079527 0.17634322 0.00358308
v 0.04655557 0.17422542 -0.00338311
v 0.04663996 0.17409629 -0.00522265
v 0.02727943 0.17596443 -0.00028228
v 0.02551683 0.17598165 -0.00042199
v 0.02375422 0.17599886 -0.00049185
v -0.02200786 0.17555120 -0.00698069
v -0.02377047 0.17556842 -0.00698069
v -0.02377047 0.17590417 -0.00522265
v 0.02551683 0.17574060 -0.00169880
v -0.02553307 0.17587834 -0.00522265
v -0.02729568 0.17583529 -0.00522265
v -0.02904890 0.17577503 -0.00522265
v -0.02916141 0.17599026 -0.00339863
v -0.03081151 0.17588695 -0.00346072
v -0.03257411 0.17574060 -0.00346072
v -0.03083026 0.17600748 -0.00182299
v -0.03025835 0.17607635 -0.00131848
v -0.03038023 0.17608496 0.00005924
v -0.03018335 0.17606773 0.00182116
v -0.02904890 0.17612800 0.00182116
v -0.02904890 0.17608496 0.00300095
v -0.02725817 0.17611940 0.00361413
v -0.02664876 0.17606773 0.00459211
v -0.02998646 0.17605913 0.00275257
v -0.02409861 0.17603330 0.00601640
v -0.03081151 0.17580086 0.00533724
v -0.01849203 0.17555981 0.01061913
v 0.01847579 0.17595582 0.01642105
v -0.03257411 0.17493136 0.01061913
v -0.03240535 0.17446647 0.01250524
v -0.03287413 0.17426847 0.01317663
v 0.02727943 0.17611940 0.01693721
v 0.02904204 0.17612800 0.01696438
v -0.02361108 0.17592999 0.00692841
v -0.03257411 0.17527572 0.00886109
v 0.03030774 0.17610218 0.01690228
v -0.03257411 0.17551676 0.00709917
v -0.03081151 0.17559425 0.00709917
v 0.04488673 0.17387246 0.02118290
v 0.04482110 0.17419099 0.01933560
v 0.03255787 0.17613661 0.01543143
v 0.03353293 0.17606773 0.01509767
v 0.03255787 0.17629157 0.01414297
v 0.03255787 0.17643793 0.01238105
v 0.03442361 0.17617965 0.01236553
v 0.03432048 0.17626574 0.01061913
v 0.04713686 0.17423403 0.00182116
v 0.04694935 0.17424264 -0.00169880
v 0.02993272 0.17605913 0.00093632
v 0.03432048 0.17515519 -0.00346072
v 0.03255787 0.17522406 -0.00346072
v 0.03062651 0.17613661 0.00182116
v 0.03608308 0.17505188 -0.00346072
v 0.04840256 0.17362280 -0.00522265
v 0.04663996 0.17345061 -0.00698069
v 0.04136152 0.17425986 -0.00586299
v 0.03608308 0.17469030 -0.00522265
v 0.03079527 0.17527572 -0.00346072
v 0.02727943 0.17569755 -0.00169880
v -0.02377047 0.17506049 -0.00874261
v 0.02904204 0.17531015 -0.00346072
v 0.03255787 0.17484527 -0.00522265
v -0.00792578 0.17524128 -0.00698069
v -0.00616317 0.17469892 -0.00874261
v -0.02553307 0.17506049 -0.00874261
v -0.02553307 0.17555120 -0.00698069
v -0.02729568 0.17550816 -0.00698069
v -0.02904890 0.17545651 -0.00698069
v -0.03081151 0.17537041 -0.00698069
v -0.03081151 0.17567173 -0.00522265
v -0.03257411 0.17554259 -0.00522265
v -0.03257411 0.17585251 -0.00169880
v -0.03433672 0.17535319 -0.00522265
v -0.03433672 0.17551676 -0.00346072
v -0.03257411 0.17590417 0.00005924
v -0.03126154 0.17602469 0.00005924
v -0.03106465 0.17601608 0.00182116
v -0.03257411 0.17582669 0.00358308
v -0.03067087 0.17596443 0.00343561
v -0.03257411 0.17569755 0.00533724
v 0.01847579 0.17547372 0.01766294
v 0.02599498 0.17609356 0.01686735
v -0.03433672 0.17386384 0.01414297
v -0.03433672 0.17482805 0.01061913
v -0.03433672 0.17445786 0.01211327
v -0.03433672 0.17422542 0.01299423
v -0.03608995 0.17376054 0.01414297
v 0.02727943 0.17573199 0.01781817
v 0.02904204 0.17575782 0.01784146
v 0.04488673 0.17314930 0.02294482
v -0.03433672 0.17515519 0.00886109
v -0.03433672 0.17537902 0.00709917
v 0.04617118 0.17281355 0.02294482
v 0.04678059 0.17308904 0.02117126
v 0.04663996 0.17350227 0.01942486
v 0.04544926 0.17425986 0.01766294
v 0.03386107 0.17611940 0.01414297
v 0.04715561 0.17423403 0.00358308
v 0.04840256 0.17366584 -0.00346072
v 0.03432048 0.17478500 -0.00522265
v 0.04950888 0.17286521 -0.00522265
v 0.04943387 0.17274468 -0.00632482
v 0.04830880 0.17301156 -0.00693800
v 0.04663996 0.17270164 -0.00797031
v 0.03959891 0.17303738 -0.00826138
v 0.03432048 0.17407046 -0.00734937
v 0.04136152 0.17380359 -0.00698069
v 0.03899888 0.17431151 -0.00613854
v 0.04017082 0.17427707 -0.00602599
v 0.04766189 0.17263277 -0.00793150
v -0.02377047 0.17452673 -0.01007763
v -0.02553307 0.17453534 -0.01011256
v -0.00318175 0.17432012 -0.00967014
v 0.03432048 0.17442343 -0.00646841
v 0.03255787 0.17445786 -0.00654603
v -0.02729568 0.17451813 -0.01013197
v -0.02904890 0.17450091 -0.01013973
v -0.03081151 0.17448369 -0.01012420
v -0.02729568 0.17503466 -0.00874261
v -0.02904890 0.17499162 -0.00874261
v -0.03081151 0.17493136 -0.00874261
v -0.03257411 0.17485388 -0.00874261
v -0.03608995 0.17438899 -0.00995733
v -0.03433672 0.17476779 -0.00874261
v -0.03257411 0.17525850 -0.00698069
v -0.03433672 0.17511215 -0.00698069
v -0.03433672 0.17561146 -0.00169880
v -0.03433672 0.17568034 0.00005924
v -0.03608995 0.17492275 -0.00698069
v -0.03608995 0.17507771 -0.00522265
v -0.03608995 0.17543928 0.00005924
v -0.03433672 0.17569755 0.00182116
v -0.03257411 0.17589556 0.00182116
v -0.03433672 0.17564590 0.00358308
v -0.03433672 0.17553398 0.00533724
v 0.01671318 0.17463865 0.01906393
v 0.02727943 0.17490553 0.01942486
v -0.03785255 0.17296851 0.01583892
v -0.03626808 0.17295130 0.01607565
v -0.03608995 0.17464726 0.01061913
v -0.03715876 0.17432012 0.01160487
v -0.03961516 0.17348505 0.01414297
v -0.03785255 0.17364001 0.01414297
v -0.03961516 0.17289103 0.01573802
v 0.02904204 0.17494857 0.01942486
v 0.04312412 0.17315791 0.02294482
v 0.04312412 0.17259833 0.02388788
v 0.04488673 0.17258972 0.02387623
v 0.04577741 0.17254668 0.02383354
v -0.03608995 0.17495718 0.00886109
v -0.03608995 0.17517240 0.00709917
v 0.04746501 0.17234006 0.02175339
v 0.04756814 0.17259833 0.02057748
v 0.04764314 0.17271024 0.01942486
v 0.04776502 0.17284799 0.01766294
v 0.04663996 0.17370027 0.01766294
v 0.04682747 0.17413072 0.00886109
v 0.04811192 0.17316652 0.01061913
v 0.04814942 0.17324400 0.00886109
v 0.04840256 0.17347644 0.00182116
v 0.04840256 0.17363140 -0.00169880
v 0.04949950 0.17284799 -0.00346072
v 0.04995891 0.17165134 -0.00346072
v 0.04996828 0.17165134 -0.00522265
v 0.04961201 0.17165134 -0.00658096
v 0.02470116 0.17253807 -0.00962357
v 0.03783631 0.17308043 -0.00834288
v -0.00440057 0.17273607 -0.01154073
v -0.00616317 0.17280494 -0.01160670
v 0.03255787 0.17409629 -0.00742699
v 0.03958954 0.17398437 -0.00682933
v 0.03608308 0.17313208 -0.00840497
v 0.00381242 0.17100567 -0.01142818
v -0.01919520 0.17085071 -0.01316682
v -0.02024526 0.17103150 -0.01321339
v 0.04860882 0.17165134 -0.00745804
v 0.04772752 0.17165134 -0.00793927
v -0.00264734 0.15581087 -0.01233243
v -0.02729568 0.17411350 -0.01101293
v -0.02904890 0.17413933 -0.01102069
v -0.03081151 0.17414794 -0.01100517
v -0.03785255 0.17286521 -0.01354715
v -0.03608995 0.17413933 -0.01083829
v -0.03786193 0.17413072 -0.01043856
v -0.03728064 0.17433734 -0.00980985
v -0.03608995 0.17465587 -0.00874261
v -0.03608995 0.17547372 0.00182116
v -0.03786193 0.17442343 -0.00868052
v -0.03785255 0.17461283 -0.00698069
v -0.03785255 0.17506049 0.00005924
v -0.03785255 0.17513797 0.00182116
v -0.03608995 0.17541346 0.00358308
v -0.03608995 0.17532737 0.00533724
v 0.01671318 0.17401881 0.01994490
v 0.02727943 0.17434594 0.02037955
v -0.03696187 0.17252946 0.01678197
v -0.03778692 0.17442343 0.01060360
v -0.03961516 0.17385524 0.01238105
v -0.04137776 0.17320957 0.01414297
v -0.04137776 0.17279634 0.01560607
v -0.03961516 0.17240893 0.01661898
v 0.04187717 0.17256390 0.02385683
v 0.04312412 0.17165134 0.02426044
v 0.04488673 0.17165134 0.02422163
v 0.04601179 0.17165134 0.02398878
v 0.04697748 0.17171161 0.02288273
v -0.03785255 0.17470752 0.00886109
v -0.03785255 0.17492275 0.00709917
v 0.04760564 0.17116063 0.02225014
v 0.04773689 0.17171161 0.02117126
v 0.04806504 0.17165134 0.01942486
v 0.04929324 0.17079906 0.01332799
v 0.04889009 0.17149638 0.01400326
v 0.04892759 0.17178048 0.01238105
v 0.04934949 0.17259833 0.00316007
v 0.04857132 0.17323539 0.00368010
v 0.04939637 0.17265859 0.00182116
v 0.04948075 0.17279634 -0.00169880
v 0.04989328 0.17165134 0.00005924
v 0.05016516 0.16989512 0.00182116
v 0.05021204 0.16989512 -0.00522265
v 0.04971514 0.16989512 -0.00670126
v -0.03785255 0.17165134 -0.01425347
v -0.00144727 0.17257250 -0.01140878
v -0.02648938 0.17251224 -0.01313577
v -0.02904890 0.17263277 -0.01324056
v -0.03081151 0.17269302 -0.01329877
v -0.03961516 0.16989512 -0.01471141
v 0.04930261 0.13056940 -0.00787717
v 0.04931199 0.12940719 -0.00788881
v 0.04933074 0.12765096 -0.00790046
v 0.04945262 0.11532294 -0.00798196
v 0.04840256 0.09243172 -0.00831571
v -0.03835883 0.09771762 -0.01505293
v -0.03836821 0.09947385 -0.01504905
v -0.03855572 0.13117203 -0.01497919
v -0.03861197 0.13996177 -0.01495203
v -0.03863072 0.14172661 -0.01494426
v -0.03866822 0.14309543 -0.01493650
v -0.03257411 0.15404603 -0.01441258
v -0.03961516 0.16637405 -0.01475798
v -0.03785255 0.17357114 -0.01226257
v -0.03961516 0.17165134 -0.01426123
v -0.03961516 0.17278773 -0.01346953
v -0.03961516 0.17331287 -0.01226257
v -0.03961516 0.17371749 -0.01050453
v -0.03845259 0.17425125 -0.00922772
v -0.03785255 0.17512075 0.00358308
v -0.03879011 0.17431151 -0.00805181
v -0.03887449 0.17435456 -0.00698069
v -0.03950265 0.17459560 0.00182116
v -0.03978392 0.17455256 0.00355204
v -0.03961516 0.17460421 0.00533724
v -0.03785255 0.17505188 0.00533724
v 0.02727943 0.17282216 0.02235104
v 0.02727943 0.17370888 0.02126052
v -0.01320422 0.17277051 0.01876123
v -0.02553307 0.17128977 0.01890870
v -0.03893074 0.17433734 0.01000595
v -0.03955890 0.17412211 0.01060360
v -0.04137776 0.17345061 0.01238105
v -0.04254033 0.17266720 0.01534993
v -0.03926826 0.17443204 0.00886109
v -0.04137776 0.17231424 0.01648315
v -0.03961516 0.17153082 0.01731366
v -0.04137776 0.17142751 0.01720111
v 0.03608308 0.17119507 0.02398490
v 0.04131464 0.17180631 0.02410132
v 0.01993837 0.17249502 0.02204446
v 0.00687822 0.17079906 0.02207938
v 0.04136152 0.16989512 0.02450106
v 0.04312412 0.16989512 0.02455927
v 0.04488673 0.16989512 0.02449718
v 0.04624618 0.16989512 0.02413237
v 0.04712749 0.16989512 0.02325529
v -0.03974641 0.17449230 0.00697886
v 0.04767127 0.16989512 0.02237433
v 0.04826193 0.16813028 0.02118290
v 0.04809317 0.16989512 0.02118290
v 0.04852444 0.16989512 0.01942486
v 0.04921823 0.17030835 0.01450001
v 0.04930261 0.16913753 0.01514036
v 0.04934949 0.16979181 0.01400326
v 0.04945262 0.16989512 0.01238105
v 0.04983702 0.17165134 0.00182116
v 0.04933074 0.17090236 0.01238105
v 0.04944325 0.17272747 0.00005924
v 0.05003391 0.15404603 0.00709917
v 0.05088708 0.09595278 -0.00346072
v 0.05039018 0.15756709 -0.00346072
v 0.04949013 0.16813028 0.01414297
v 0.04955575 0.16637405 0.01414297
v 0.04948075 0.16460922 0.01590101
v 0.05035267 0.15756709 -0.00522265
v 0.05010891 0.11532294 -0.00698069
v 0.04978077 0.15756709 -0.00680605
v -0.04129338 0.16813028 -0.01393912
v -0.04124650 0.16989512 -0.01391583
v -0.04094648 0.17165134 -0.01362864
v 0.05021204 0.10299491 -0.00698069
v 0.05026830 0.09595278 -0.00698069
v 0.04951825 0.10299491 -0.00802853
v 0.04955575 0.08903118 -0.00806345
v 0.04840256 0.09067549 -0.00831183
v -0.03257411 0.08903118 -0.01457170
v -0.03838696 0.08903118 -0.01501024
v -0.03927763 0.09771762 -0.01505293
v -0.03914638 0.13117203 -0.01497919
v -0.03902449 0.13996177 -0.01495203
v -0.03900574 0.14172661 -0.01494426
v -0.03893074 0.14309543 -0.01493650
v -0.04029957 0.12060884 -0.01487053
v -0.04062772 0.17264137 -0.01328713
v -0.03947452 0.17397576 -0.00868052
v -0.04080585 0.17279634 -0.01226257
v -0.04096524 0.17296851 -0.01050453
v -0.04047771 0.17428569 0.00294662
v -0.04051521 0.17430290 0.00411864
v -0.04051521 0.17430290 0.00533724
v -0.04050583 0.17429429 0.00631135
v -0.04042145 0.17427707 0.00748337
v -0.03081151 0.17093680 0.01862928
v -0.04267159 0.17277912 0.01414297
v -0.04014956 0.17420820 0.00886109
v -0.04355289 0.17182352 0.01414297
v -0.04404980 0.17087654 0.01517141
v -0.04318724 0.17160830 0.01584668
v -0.04265283 0.17116063 0.01700318
v -0.04137776 0.16989512 0.01771339
v -0.03961516 0.16989512 0.01795400
v -0.03194595 0.17083349 0.01857494
v 0.03432048 0.17100567 0.02390728
v 0.03959891 0.16989512 0.02440015
v 0.00687822 0.17044609 0.02207938
v 0.03783631 0.16813028 0.02431477
v 0.03783631 0.16989512 0.02427984
v -0.02553307 0.16989512 0.01937829
v -0.03961516 0.16285299 0.01829552
v 0.04312412 0.15404603 0.02459420
v 0.03959891 0.16813028 0.02443508
v 0.04488673 0.15404603 0.02454375
v 0.04634931 0.15052496 0.02415178
v 0.04723062 0.14876874 0.02353083
v 0.04722124 0.15052496 0.02352307
v 0.04712749 0.16637405 0.02341829
v 0.04714623 0.16813028 0.02334843
v 0.04779315 0.16637405 0.02253733
v 0.04772752 0.16813028 0.02246747
v 0.04836506 0.16637405 0.02118290
v 0.04875883 0.16813028 0.01942486
v 0.04910573 0.16796671 0.01749606
v 0.04880571 0.16989512 0.01766294
v 0.04921823 0.16844020 0.01631627
v 0.04928386 0.16726938 0.01679750
v 0.05084958 0.08903118 -0.00182299
v 0.04949013 0.16285299 0.01590101
v 0.04974327 0.09067549 0.01766294
v 0.05090584 0.08903118 -0.00346072
v 0.05086833 0.09595278 -0.00522265
v 0.04942450 0.16637405 0.01590101
v 0.04934949 0.16460922 0.01716230
v 0.04935887 0.16285299 0.01719335
v -0.04128401 0.16637405 -0.01395076
v -0.04217468 0.16813028 -0.01294949
v -0.04031832 0.11884400 -0.01487441
v -0.04212781 0.16989512 -0.01270499
v -0.04172466 0.17151360 -0.01216943
v 0.05028704 0.09243172 -0.00698069
v 0.05029642 0.08903118 -0.00698069
v 0.04840256 0.08903118 -0.00830407
v -0.03904325 0.08903118 -0.01501024
v -0.03919326 0.12940719 -0.01497919
v -0.04015894 0.09771762 -0.01473470
v -0.04184654 0.17184074 -0.01050453
v -0.04104962 0.17304600 -0.00874261
v -0.04193092 0.17199570 -0.00874261
v -0.04211843 0.17236589 -0.00346072
v -0.04236219 0.17265859 0.00182116
v -0.04120900 0.17375193 0.00355204
v -0.04139651 0.17366584 0.00533724
v -0.04265283 0.17284799 0.01238105
v -0.04352476 0.17178048 0.01238105
v -0.04407792 0.17090236 0.01238105
v -0.04408730 0.17094541 0.01414297
v -0.04259658 0.17284799 0.01061913
v -0.04247470 0.17278773 0.00533724
v -0.04430294 0.16989512 0.01414297
v -0.04414355 0.16989512 0.01543143
v -0.04379666 0.16989512 0.01631239
v -0.04291535 0.16989512 0.01716618
v -0.04137776 0.16813028 0.01783369
v -0.03961516 0.16813028 0.01810924
v 0.00439370 0.12588613 0.02165637
v 0.00614693 0.12588613 0.02178444
v -0.03785255 0.12765096 0.01832269
v 0.04312412 0.11003704 0.02437299
v -0.03961516 0.16637405 0.01819074
v -0.03961516 0.16460922 0.01825283
v -0.04137776 0.16285299 0.01800057
v -0.04137776 0.16108816 0.01801998
v -0.03961516 0.12765096 0.01810536
v 0.04488673 0.11003704 0.02441956
v 0.04631181 0.11003704 0.02409356
v 0.04715561 0.12060884 0.02363174
v 0.04717436 0.12236507 0.02362009
v 0.04719312 0.12940719 0.02360457
v 0.04722124 0.14524767 0.02355412
v 0.04783065 0.15933192 0.02260330
v 0.04809317 0.09243172 0.02273913
v 0.04795253 0.12236507 0.02273913
v 0.04897447 0.09243172 0.02126828
v 0.04931199 0.09243172 0.02038732
v 0.04889946 0.16460922 0.01942486
v 0.04886196 0.16637405 0.01942486
v 0.04917136 0.16637405 0.01783369
v 0.04931199 0.16637405 0.01695273
v 0.04984639 0.08903118 0.01590101
v 0.04973389 0.08903118 0.01766294
v 0.04949950 0.09243172 0.01942486
v 0.05083083 0.08903118 -0.00522265
v 0.04919948 0.16460922 0.01804326
v -0.04216531 0.16637405 -0.01294561
v -0.04253095 0.16637405 -0.01206465
v -0.04250283 0.16813028 -0.01206853
v -0.04105899 0.11532294 -0.01397792
v -0.04098399 0.09947385 -0.01386150
v -0.04239032 0.16989512 -0.01182403
v -0.04228719 0.17084211 -0.01151744
v -0.03910888 0.08903118 -0.01497919
v -0.03992455 0.08903118 -0.01457946
v -0.03999018 0.08903118 -0.01451737
v -0.04085273 0.08903118 -0.01369850
v -0.04094648 0.09771762 -0.01385374
v -0.04235282 0.17096263 -0.01050453
v -0.04243720 0.17274468 0.00358308
v -0.04243720 0.17111759 -0.00874261
v -0.04252158 0.17123811 -0.00698069
v -0.04259658 0.17136725 -0.00522265
v -0.04299973 0.17165134 0.00182116
v -0.04401229 0.17076462 0.00977310
v -0.04423731 0.17006730 0.01046389
v -0.04433106 0.16989512 0.01238105
v -0.04462170 0.16813028 0.01238105
v -0.04451857 0.16813028 0.01414297
v -0.04422793 0.16813028 0.01564876
v -0.04387166 0.16813028 0.01652972
v -0.04299035 0.16813028 0.01722051
v 0.04312412 0.09243172 0.02410520
v -0.03785255 0.09771762 0.01792684
v -0.00088474 0.08903118 0.02065898
v -0.03961516 0.12588613 0.01808595
v -0.04304661 0.16460922 0.01725544
v -0.04300911 0.16285299 0.01727873
v -0.04298098 0.16108816 0.01728649
v -0.04137776 0.12588613 0.01758920
v 0.04488673 0.09243172 0.02413625
v 0.04615243 0.09067549 0.02393445
v 0.04617118 0.09243172 0.02395385
v 0.04703373 0.09067549 0.02362786
v 0.04719312 0.11003704 0.02358517
v 0.04808379 0.09067549 0.02274690
v 0.04796191 0.12412990 0.02270809
v 0.04806504 0.08903118 0.02273913
v 0.04891822 0.08903118 0.02117126
v 0.04902135 0.09058940 0.02103543
v 0.04930261 0.09111455 0.02034851
v 0.04946200 0.08903118 0.01932395
v 0.04944325 0.09058940 0.01958397
v -0.04179028 0.09947385 -0.01226257
v -0.04299973 0.16637405 -0.01050453
v -0.04293410 0.16813028 -0.01050453
v -0.04088085 0.09067549 -0.01371014
v -0.04266221 0.16989512 -0.01050453
v -0.04287785 0.16989512 -0.00874261
v -0.04306536 0.16989512 -0.00698069
v -0.04089961 0.08903118 -0.01359760
v -0.04405917 0.16914614 0.00057928
v -0.04374977 0.16980042 0.00002043
v -0.04376853 0.17011895 0.00182116
v -0.04424668 0.16978320 0.00886109
v -0.04464045 0.16813028 0.01061913
v -0.04477171 0.16637405 0.01238105
v -0.04461233 0.16637405 0.01414297
v -0.04468733 0.16460922 0.01414297
v -0.04429356 0.16460922 0.01576518
v -0.04389978 0.16637405 0.01658793
v -0.04392791 0.16460922 0.01664614
v 0.04312412 0.09067549 0.02401983
v 0.04488673 0.09067549 0.02407804
v -0.03961516 0.09771762 0.01758920
v -0.03961516 0.08903118 0.01725932
v -0.03785255 0.09595278 0.01783758
v 0.04312412 0.08903118 0.02389564
v -0.03785255 0.08903118 0.01744172
v -0.04260596 0.12588613 0.01702259
v -0.04233406 0.10299491 0.01684019
v -0.04224969 0.09771762 0.01677809
v -0.04136839 0.09771762 0.01707692
v 0.04607742 0.08903118 0.02390340
v 0.04694935 0.08903118 0.02361621
v 0.04702435 0.08903118 0.02355800
v 0.04895572 0.08903118 0.02107811
v 0.04928386 0.08994373 0.02028253
v 0.04925574 0.08903118 0.02019327
v -0.04153715 0.09067549 -0.01226257
v -0.04218406 0.09947385 -0.01078395
v -0.04220281 0.10123868 -0.01088486
v -0.04298098 0.16460922 -0.01050453
v -0.04331850 0.16460922 -0.00874261
v -0.04332788 0.16637405 -0.00874261
v -0.04323412 0.16813028 -0.00874261
v -0.04344038 0.16813028 -0.00698069
v -0.04148089 0.08903118 -0.01226257
v -0.04399354 0.16867264 -0.00059663
v -0.04410605 0.16810445 0.00002043
v -0.04424668 0.16813028 0.00182116
v -0.04458420 0.16813028 0.00886109
v -0.04479046 0.16637405 0.01061913
v -0.04483734 0.16460922 0.01238105
v -0.04479046 0.15228980 0.01238105
v -0.04467796 0.16285299 0.01414297
v -0.04429356 0.16285299 0.01571085
v -0.04413417 0.13820554 0.01532276
v -0.04362789 0.13820554 0.01620372
v -0.04283097 0.09067549 0.01582728
v 0.04488673 0.08903118 0.02397714
v -0.04111524 0.08903118 0.01695661
v -0.04100274 0.08903118 0.01697990
v -0.03949327 0.08903118 0.01727485
v -0.04205280 0.09067549 0.01670824
v -0.04227781 0.09828581 -0.00976716
v -0.04228719 0.09947385 -0.00990299
v -0.04150902 0.08903118 -0.01214227
v -0.04188404 0.08903118 -0.01050453
v -0.04190279 0.08903118 -0.01038034
v -0.04354352 0.16637405 -0.00698069
v -0.04419042 0.16637405 0.00005924
v -0.04434044 0.16637405 0.00182116
v -0.04444356 0.16637405 0.00358308
v -0.04472483 0.16637405 0.00886109
v -0.04484671 0.16460922 0.01061913
v -0.04487484 0.15228980 0.01061913
v -0.04441544 0.13996177 0.01414297
v -0.04395604 0.08903118 0.01074332
v -0.04386228 0.08903118 0.01238105
v -0.04359977 0.09067549 0.01414297
v -0.04355289 0.08903118 0.01414297
v -0.04279347 0.08903118 0.01578847
v -0.04198717 0.08903118 0.01666943
v -0.04273721 0.08903118 0.01585056
v -0.04207155 0.08903118 -0.00874261
v -0.04380603 0.08903118 0.00886109
v -0.04468733 0.15228980 0.00709917
v -0.04372165 0.15404603 -0.00346072
v -0.04406854 0.16460922 -0.00127190
v -0.04419042 0.16460922 0.00005924
v -0.04470608 0.15404603 0.00709917
v -0.04483734 0.15404603 0.00886109
v -0.04475296 0.16460922 0.00886109
v -0.04481859 0.15228980 0.00886109
v -0.04395604 0.08903118 0.01061913
v -0.04384353 0.08903118 0.01250136
v 0.05090220 0.08903118 -0.00345951
v 0.05082709 0.08903118 -0.00522163
v 0.05084587 0.08903118 -0.00170125
v 0.05105245 0.07759777 -0.00251662
v 0.05107122 0.07794903 -0.00345951
v 0.05107122 0.07796659 -0.00463812
v 0.05100550 0.07846713 -0.00522163
v 0.05099610 0.07657913 -0.00561579
v 0.05109940 0.06601507 -0.00624567
v 0.05043271 0.08362183 -0.00697989
v 0.05029187 0.08903118 -0.00697989
v 0.04984115 0.08903118 0.01590064
v 0.04985054 0.08890824 0.01590064
v 0.05079892 0.03257541 0.01238026
v 0.05100550 0.02377643 0.01078431
v 0.05187875 0.01496866 -0.00345951
v 0.05109000 0.07657913 -0.00345951
v 0.05187875 0.01496866 -0.00522163
v 0.05121207 0.06601507 -0.00522163
v 0.05157828 0.01496866 -0.00697989
v 0.05107122 0.03561379 -0.00789573
v 0.05024492 0.08903118 -0.00705718
v 0.04973786 0.08903118 0.01754297
v 0.05069563 0.03257541 0.01414239
v 0.05071441 0.03081034 0.01414239
v 0.05089282 0.02377643 0.01238026
v 0.05100550 0.02201136 0.01082295
v 0.05106183 0.02201136 0.00994189
v 0.05189753 0.01321237 -0.00345951
v 0.05188814 0.01144731 -0.00345951
v 0.05186936 0.01321237 -0.00522163
v 0.05158767 0.01321237 -0.00697989
v 0.05121207 0.01321237 -0.00805416
v 0.05114634 0.02553271 -0.00797688
v 0.04964397 0.08362183 -0.00812372
v 0.04962518 0.08538689 -0.00811213
v 0.04955945 0.08903118 -0.00806189
v 0.04972847 0.08903118 0.01766276
v 0.05054539 0.03257541 0.01590064
v 0.05056417 0.03081034 0.01590064
v 0.05075197 0.02201136 0.01414239
v 0.05089282 0.02201136 0.01238026
v 0.05108061 0.00861091 0.00651812
v 0.05179425 0.00969103 -0.00345951
v 0.05178485 0.00969103 -0.00522163
v 0.05183180 0.01144731 -0.00522163
v 0.05086465 0.02025507 0.01238026
v 0.05073319 0.02025507 0.01414239
v 0.05152194 0.00969103 -0.00697989
v 0.05119329 0.01144731 -0.00804644
v 0.05016980 0.00792596 -0.00850629
v 0.05016980 0.01144731 -0.00853720
v 0.05016980 0.01321237 -0.00854493
v 0.05016980 0.02553271 -0.00844060
v 0.04840450 0.00616967 -0.00914776
v 0.04840450 0.08903118 -0.00830534
v 0.04948434 0.08903118 -0.00808121
v 0.04955945 0.08890824 -0.00806576
v 0.04946556 0.08903118 0.01932441
v 0.05032942 0.03257541 0.01766276
v 0.05034820 0.03081034 0.01766276
v 0.05057356 0.02201136 0.01590064
v 0.05057356 0.02025507 0.01590064
v 0.05111817 0.00798743 0.00519266
v 0.05001017 0.00969103 0.01942489
v 0.04990688 0.00792596 0.01942489
v 0.05156889 0.00792596 -0.00345951
v 0.05163462 0.00792596 -0.00522163
v 0.05105245 0.00703025 0.00450868
v 0.05139987 0.00792596 -0.00697989
v 0.05111817 0.00792596 -0.00794983
v 0.05116512 0.00969103 -0.00801552
v 0.05106183 0.00701269 -0.00788027
v 0.05015102 0.00631896 -0.00831307
v 0.04664860 0.00616967 -0.00934098
v 0.04488330 0.01673372 -0.00946463
v 0.04955007 0.00497540 -0.00818169
v 0.04827305 0.00439582 -0.00837490
v 0.04664860 0.00440461 -0.00874588
v 0.04488330 0.00440461 -0.00899319
v 0.02493923 0.00348256 -0.01140065
v 0.03960620 0.01673372 -0.00996699
v -0.00151201 0.05835767 -0.01316664
v -0.03257368 0.08903118 -0.01457324
v 0.04925898 0.08903118 0.02019388
v 0.04925898 0.04665203 0.02194441
v 0.04951250 0.04313947 0.02102084
v 0.04999139 0.03081034 0.01942489
v 0.04975665 0.00969103 0.02118314
v 0.05005712 0.01849001 0.01942489
v 0.05035760 0.02025507 0.01766276
v 0.04957824 0.00780302 0.02133385
v 0.04945617 0.00674046 0.02084695
v 0.04955007 0.00648580 0.01942489
v 0.05124024 0.00654728 -0.00345951
v 0.05127780 0.00642433 -0.00522163
v 0.05117451 0.00670534 -0.00697989
v 0.05093038 0.00554619 -0.00522163
v 0.04922142 0.00376356 0.01238026
v 0.04925898 0.00359671 0.01062201
v 0.05075197 0.00582719 -0.00697989
v 0.02493923 0.00367575 -0.01140065
v 0.04986932 0.00473830 -0.00697989
v 0.04866742 0.00385138 -0.00697989
v 0.04759697 0.00349134 -0.00790732
v 0.03726812 0.00346499 -0.00966558
v 0.04312740 0.00302592 -0.00836717
v 0.03256380 0.00285908 -0.01005201
v 0.01847901 0.00187556 -0.01128472
v 0.01736161 0.00179652 -0.01135814
v 0.02023491 0.00292933 -0.01160159
v 0.01847901 0.00276248 -0.01169047
v 0.00197163 0.00350012 -0.01315891
v -0.00616000 0.02377643 -0.01379265
v -0.00792529 0.05721609 -0.01363808
v -0.03818882 0.08538689 -0.01509879
v -0.03838601 0.08903118 -0.01500991
v 0.04895850 0.08903118 0.02107881
v 0.04940922 0.01144731 0.02221491
v 0.04892095 0.08903118 0.02117155
v 0.04806647 0.08903118 0.02273659
v 0.04808525 0.08714318 0.02274432
v 0.05005712 0.01673372 0.01942489
v 0.04940922 0.00969103 0.02222264
v 0.04937166 0.00831234 0.02216854
v 0.04925898 0.00713563 0.02201783
v 0.04905240 0.00560766 0.01942489
v 0.04785989 0.00502809 0.02073875
v 0.04816975 0.00468561 0.01942489
v 0.04941861 0.00334205 0.00358125
v 0.04944678 0.00328936 0.00182299
v 0.04947495 0.00327180 0.00006087
v 0.04950312 0.00328936 -0.00170125
v 0.04943739 0.00337718 -0.00314650
v 0.05004773 0.00452754 -0.00522163
v 0.04908996 0.00408848 0.01414239
v 0.04798196 0.00319277 0.01590064
v 0.04820732 0.00306105 0.01414239
v 0.04834817 0.00299080 0.01238026
v 0.04926837 0.00353525 -0.00432125
v 0.04664860 0.00231462 -0.00345951
v 0.04664860 0.00264832 -0.00522163
v 0.04488330 0.00221803 -0.00522163
v 0.04312740 0.00229706 -0.00697989
v 0.04857352 0.00306105 -0.00362568
v 0.03684558 0.00177896 -0.00781458
v 0.03256380 0.00198093 -0.00927915
v 0.01847901 0.00139258 -0.01040366
v 0.01618788 0.00173506 -0.01140452
v 0.01495781 0.00167358 -0.01145861
v 0.00088240 0.00343865 -0.01319369
v -0.03153141 0.00349134 -0.01493262
v -0.02733414 0.00436948 -0.01483988
v -0.03609488 0.00616967 -0.01549681
v -0.03432959 0.00616967 -0.01539248
v -0.02905248 0.01673372 -0.01532678
v -0.03080839 0.01673372 -0.01542339
v -0.03930621 0.08538689 -0.01509879
v -0.03904330 0.08903118 -0.01500991
v 0.04694907 0.08903118 0.02361765
v 0.04840450 0.01144731 0.02282161
v 0.04840450 0.00969103 0.02280615
v 0.04856413 0.00780302 0.02253565
v 0.04808525 0.00659118 0.02236948
v 0.04708992 0.00541447 0.02191350
v 0.04774722 0.00335962 0.01725701
v 0.04655470 0.00487881 0.02126816
v 0.04710870 0.00357037 0.01842790
v 0.04840450 0.00256929 0.00182299
v 0.04840450 0.00256929 0.00006087
v 0.04840450 0.00269223 -0.00170125
v 0.04664860 0.00275370 0.01590064
v 0.04664860 0.00248148 0.01414239
v 0.04664860 0.00235853 0.01238026
v 0.04686457 0.00192824 0.00182299
v 0.04649836 0.00202484 -0.00158919
v 0.04581290 0.00175262 -0.00093226
v 0.04488330 0.00195459 -0.00345951
v 0.04306167 0.00191947 -0.00515207
v 0.04177526 0.00183165 -0.00568921
v 0.04060152 0.00175262 -0.00616452
v 0.04125882 0.00202484 -0.00684464
v 0.03960620 0.00168237 -0.00630750
v 0.03784091 0.00159455 -0.00666302
v 0.03431971 0.00163846 -0.00819714
v 0.03256380 0.00156821 -0.00839809
v 0.01675127 0.00141014 -0.01066257
v -0.00142750 -0.00003001 -0.00970422
v -0.00263880 0.00047931 -0.01061620
v -0.00263880 0.00135745 -0.01177549
v -0.00263880 0.00327180 -0.01329802
v -0.00088289 0.00335084 -0.01325165
v -0.02553128 0.00278004 -0.01393950
v -0.03194456 0.00349134 -0.01493262
v -0.03609488 0.00458023 -0.01526109
v -0.03432959 0.00448364 -0.01521858
v -0.03785079 0.00616967 -0.01532678
v -0.03785079 0.02025507 -0.01537315
v -0.03916537 0.04313947 -0.01515289
v -0.03913720 0.02201136 -0.01516448
v -0.04017947 0.08538689 -0.01469690
v -0.03910903 0.08903118 -0.01497899
v 0.04607582 0.08903118 0.02390361
v 0.04694907 0.08890824 0.02361765
v 0.04676128 0.02729777 0.02367562
v 0.04668616 0.02377643 0.02364857
v 0.04664860 0.01144731 0.02336261
v 0.04664860 0.00969103 0.02329692
v 0.04664860 0.00792596 0.02317712
v 0.04655470 0.00606429 0.02249701
v 0.04591619 0.00525640 0.02209898
v 0.04488330 0.00449242 0.02118314
v 0.04657348 0.00386894 0.01927418
v 0.04657348 0.00328058 0.01777096
v 0.04226353 0.00351768 0.02030981
v 0.04136210 0.00294689 0.01942489
v 0.03698643 0.00176140 0.01855155
v 0.03816016 0.00184921 0.01815739
v 0.04136210 0.00228828 0.01766276
v 0.04680823 0.00194581 0.00006087
v 0.03958742 0.00194581 0.01760480
v 0.04144661 0.00189312 0.01593929
v 0.04091139 0.00169115 0.01537510
v 0.03960620 0.00133989 0.01414239
v 0.04588802 0.00173506 0.00292045
v 0.03960620 0.00123451 0.01238026
v 0.04598192 0.00171749 0.00182299
v 0.04592558 0.00172627 0.00006087
v 0.04243255 0.00173506 -0.00451446
v 0.04488330 0.00158577 0.00006087
v 0.03960620 0.00085691 0.00182299
v 0.03960620 0.00116426 -0.00170125
v 0.04136210 0.00150674 -0.00345951
v 0.04125882 0.00168237 -0.00515207
v 0.03960620 0.00149796 -0.00522163
v 0.03784091 0.00134867 -0.00522163
v 0.03431971 0.00136624 -0.00697989
v -0.00263880 -0.00024955 -0.00874201
v -0.00263880 -0.00004758 -0.00973514
v -0.02553128 0.00190190 -0.01265268
v -0.03254551 0.00304349 -0.01416749
v -0.03432959 0.00360549 -0.01485920
v -0.03609488 0.00370209 -0.01465826
v -0.03785079 0.00498418 -0.01511038
v -0.03878038 0.00523884 -0.01494035
v -0.03885550 0.00616967 -0.01500218
v -0.03899635 0.01144731 -0.01511038
v -0.03911842 0.02025507 -0.01515675
v -0.04001984 0.02201136 -0.01439548
v -0.04072409 0.02201136 -0.01351829
v -0.04088371 0.08010048 -0.01377333
v -0.04086493 0.08538689 -0.01381584
v -0.04085554 0.08903118 -0.01369991
v -0.04005740 0.08714318 -0.01464280
v -0.03992595 0.08903118 -0.01458097
v 0.04488330 0.08903118 0.02398090
v 0.04587863 0.02729777 0.02384565
v 0.04581290 0.02377643 0.02383406
v 0.04579412 0.02277534 0.02383019
v 0.04648897 0.02211674 0.02366016
v 0.04482697 0.02211674 0.02385724
v 0.04488330 0.01144731 0.02345535
v 0.04488330 0.00792596 0.02328146
v 0.04488330 0.00616967 0.02279456
v 0.04488330 0.00515103 0.02220332
v 0.04295838 0.00407091 0.02101312
v 0.04136210 0.00344743 0.02042574
v 0.03608500 0.00169115 0.01868294
v 0.03960620 0.00263076 0.01942489
v 0.03608500 0.00146283 0.01766276
v 0.03768128 0.00165602 0.01760480
v 0.03958742 0.00159455 0.01593929
v 0.04016959 0.00181409 0.01654985
v 0.03784091 0.00134867 0.01590064
v 0.03784091 0.00112035 0.01414239
v 0.03784091 0.00100619 0.01238026
v 0.04488330 0.00153308 0.00182299
v 0.03960620 0.00114670 0.01062201
v 0.03960620 0.00088325 0.00533951
v 0.04312740 0.00128720 0.00182299
v 0.04136210 0.00106766 0.00182299
v 0.03960620 0.00081301 0.00358125
v 0.03784091 0.00066372 0.00358125
v 0.03784091 0.00073397 0.00182299
v 0.03784091 0.00087447 0.00006087
v 0.03784091 0.00102376 -0.00170125
v 0.03960620 0.00132233 -0.00345951
v 0.03784091 0.00118183 -0.00345951
v 0.03608500 0.00123451 -0.00522163
v -0.00263880 -0.00053055 -0.00697989
v -0.00440409 -0.00057446 -0.00697989
v -0.00373741 -0.00003001 -0.00969263
v -0.02728719 0.00193703 -0.01257154
v -0.03432959 0.00304349 -0.01397814
v -0.03609488 0.00321033 -0.01377720
v -0.03740007 0.00337718 -0.01340622
v -0.03793529 0.00402700 -0.01400519
v -0.03904330 0.00486124 -0.01402451
v -0.03940950 0.00616967 -0.01402451
v -0.03857380 0.00359671 -0.01288841
v -0.04052689 0.01539895 -0.01320914
v -0.04069592 0.02025507 -0.01347192
v -0.04000107 0.02025507 -0.01435298
v -0.03906208 0.01496866 -0.01512197
v -0.04122174 0.02201136 -0.01226239
v -0.04155978 0.06778014 -0.01226239
v -0.04090249 0.08903118 -0.01359944
v -0.04155978 0.07834419 -0.01226239
v -0.04155039 0.08010048 -0.01226239
v -0.04148467 0.08903118 -0.01226239
v -0.03999168 0.08903118 -0.01451914
v 0.04312740 0.08903118 0.02389588
v 0.04325886 0.02377643 0.02388429
v 0.04488330 0.02553271 0.02390361
v 0.04488330 0.02377643 0.02389588
v 0.04420723 0.02094002 0.02383792
v 0.04373774 0.02094002 0.02383792
v 0.04313679 0.02030776 0.02378382
v 0.04136210 0.01849001 0.02362538
v 0.04312740 0.00792596 0.02318099
v 0.04312740 0.00616967 0.02287957
v 0.04312740 0.00501053 0.02232311
v 0.03784091 0.00319277 0.02080058
v 0.03960620 0.00331571 0.02063055
v 0.03431971 0.00204240 0.01976494
v 0.03256380 0.00191947 0.01991952
v 0.03431971 0.00161211 0.01888388
v 0.03431971 0.00132233 0.01766276
v 0.03608500 0.00118183 0.01590064
v 0.03608500 0.00098863 0.01414239
v 0.03784091 0.00091838 0.01062201
v 0.03608500 0.00087447 0.01238026
v 0.03784091 0.00075153 0.00709776
v 0.03784091 0.00069006 0.00533951
v 0.03608500 0.00065494 0.00709776
v -0.00440409 -0.00067984 -0.00522163
v 0.03608500 0.00108523 -0.00345951
v -0.00435714 -0.00018807 -0.00881157
v -0.03080839 0.00119938 -0.00697989
v -0.03080839 0.00142770 -0.00874201
v -0.02916516 0.00161211 -0.01065098
v -0.02865811 0.00172627 -0.01152431
v -0.02728719 0.00169115 -0.01169047
v -0.03257368 0.00218290 -0.01226239
v -0.03432959 0.00235853 -0.01226239
v -0.03609488 0.00267467 -0.01226239
v -0.03793529 0.00321912 -0.01228558
v -0.03927804 0.00427289 -0.01228558
v -0.03993534 0.00616967 -0.01226239
v -0.04048934 0.01422224 -0.01310481
v -0.03883672 0.00345621 -0.01171366
v -0.04116541 0.02025507 -0.01226239
v -0.04164429 0.02201136 -0.01050413
v -0.04202927 0.06778014 -0.01050413
v -0.04188843 0.08903118 -0.01050413
v 0.00615012 0.08186554 0.02162367
v 0.00615012 0.08010048 0.02165845
v -0.00088289 0.08903118 0.02066146
v 0.04254523 0.02201136 0.02380701
v 0.04342788 0.02201136 0.02386110
v 0.00615012 0.07305777 0.02161595
v -0.01175635 0.05721609 0.02027503
v -0.01320239 0.05721609 0.02017456
v -0.03432959 0.01849001 0.01842790
v -0.03170982 0.01583802 0.01854383
v -0.02990696 0.01411686 0.01853996
v -0.03609488 0.00616967 0.01714495
v -0.03742824 0.00501053 0.01687445
v 0.04136210 0.00494027 0.02233084
v -0.00792529 0.00337718 0.01866748
v 0.03079851 0.00440461 0.02163913
v 0.03256380 0.00440461 0.02174347
v 0.03256380 0.00279761 0.02095128
v 0.03431971 0.00292933 0.02095515
v 0.03608500 0.00306983 0.02091264
v 0.03079851 0.00189312 0.01995816
v 0.03256380 0.00161211 0.01903846
v 0.03431971 0.00107645 0.01590064
v 0.03256380 0.00129598 0.01766276
v 0.03256380 0.00100619 0.01590064
v 0.03256380 0.00077788 0.01414239
v 0.03431971 0.00076032 0.01238026
v 0.03608500 0.00079544 0.01062201
v 0.03608500 0.00071641 0.00885988
v 0.03256380 0.00066372 0.01238026
v 0.03079851 0.00074275 0.01414239
v -0.00440409 -0.00052178 -0.00345951
v -0.03257368 0.00141014 0.01238026
v -0.03432959 0.00145405 0.01238026
v -0.03609488 0.00154186 0.01238026
v -0.03080839 0.00113792 -0.00522163
v -0.03257368 0.00127842 -0.00522163
v -0.03257368 0.00134867 -0.00697989
v -0.03349389 0.00175262 -0.00966944
v -0.02983184 0.00177018 -0.01133496
v -0.03417935 0.00198971 -0.01035343
v -0.03609488 0.00235853 -0.01050413
v -0.03785079 0.00285908 -0.01050413
v -0.04049873 0.00351768 -0.00613747
v -0.04142832 0.01849001 -0.01050413
v -0.04157856 0.02025507 -0.01050413
v -0.03928744 0.00319277 -0.00874201
v -0.04189782 0.02201136 -0.00874201
v -0.04193537 0.02377643 -0.00874201
v -0.04216073 0.05545102 -0.00874201
v -0.04220768 0.06778014 -0.00882316
v -0.04219829 0.06953642 -0.00883089
v -0.04401992 0.08647579 0.00970617
v -0.04206684 0.08903118 -0.00874201
v -0.03609488 0.08186554 0.01803374
v -0.03609488 0.08010048 0.01807625
v -0.03785079 0.08903118 0.01744250
v -0.03193517 0.01673372 0.01855155
v -0.01496769 0.05721609 0.02002385
v -0.03785079 0.08010048 0.01789849
v -0.03609488 0.01849001 0.01821536
v -0.03432959 0.01673372 0.01834675
v -0.03280843 0.01673372 0.01848972
v -0.03795407 0.00612577 0.01694787
v -0.03860198 0.00551106 0.01675079
v -0.03795407 0.00441339 0.01648802
v -0.03609488 0.00398310 0.01654985
v -0.03609488 0.00486124 0.01692855
v 0.03079851 0.00278004 0.02088946
v -0.03785079 0.00305226 0.01555672
v -0.00616000 0.00327180 0.01872931
v 0.03079851 0.00162089 0.01907710
v -0.03257368 0.00198971 0.01454041
v -0.03432959 0.00162968 0.01357047
v 0.03079851 0.00130476 0.01766276
v 0.03079851 0.00098863 0.01590064
v 0.02904260 0.00099742 0.01590064
v -0.03609488 0.00165602 0.01347000
v -0.03785079 0.00171749 0.01336566
v -0.03875221 0.00175262 0.01328065
v -0.03875221 0.00175262 0.01317631
v -0.03432959 0.00152430 -0.00522163
v -0.03439532 0.00162968 -0.00688328
v -0.03378497 0.00169993 -0.00874201
v -0.03609488 0.00215657 -0.00874201
v -0.03785079 0.00260441 -0.00874201
v -0.04054568 0.00346499 -0.00522163
v -0.04215134 0.00584476 0.01238026
v -0.04232036 0.00672290 0.01238026
v -0.04247999 0.00792596 0.01238026
v -0.04256450 0.00969103 0.01062201
v -0.04276169 0.01144731 0.01062201
v -0.04164429 0.01849001 -0.00874201
v -0.03971937 0.00315764 -0.00682918
v -0.03961608 0.00293811 -0.00522163
v -0.04180392 0.02025507 -0.00874201
v -0.03785079 0.00240244 -0.00697989
v -0.04204805 0.02201136 -0.00697989
v -0.04213257 0.02377643 -0.00697989
v -0.04401992 0.08447362 0.00972935
v -0.04401992 0.08538689 0.00970617
v -0.04402932 0.08534299 0.01060268
v -0.04401992 0.08647579 0.01000372
v -0.04395420 0.08903118 0.01062201
v -0.04382274 0.08903118 0.00897968
v -0.03949401 0.08903118 0.01727634
v -0.03785079 0.08186554 0.01785598
v -0.03961608 0.08362183 0.01743863
v -0.03961608 0.08186554 0.01747728
v -0.03961608 0.08010048 0.01748501
v -0.03961608 0.07130149 0.01747728
v -0.03609488 0.01673372 0.01808011
v -0.03785079 0.02025507 0.01780574
v -0.03785079 0.01849001 0.01779029
v -0.03891184 0.00667900 0.01682808
v -0.03954096 0.00612577 0.01649961
v -0.03967242 0.00435192 0.01568038
v -0.03912781 0.00324546 0.01529781
v -0.03785079 0.00217412 0.01424672
v 0.02904260 0.00132233 0.01766276
v -0.03952218 0.00270979 0.01402259
v -0.04067714 0.00335084 0.01358593
v -0.04073347 0.00329815 0.01238026
v -0.04071469 0.00327180 0.00006087
v -0.03961608 0.00268344 -0.00170125
v -0.03785079 0.00215657 -0.00345951
v -0.03628268 0.00190190 -0.00522163
v -0.03540942 0.00172627 -0.00522163
v -0.04069592 0.00329815 -0.00170125
v -0.03525918 0.00175262 -0.00622635
v -0.03502444 0.00180530 -0.00740110
v -0.03594464 0.00195459 -0.00688328
v -0.03961608 0.00278882 -0.00345951
v -0.04063019 0.00336840 -0.00345951
v -0.04151283 0.00440461 0.01238026
v -0.04233914 0.00664387 0.01356274
v -0.04266779 0.00969103 0.01238026
v -0.04279924 0.01144731 0.01238026
v -0.04284619 0.01321237 0.01062201
v -0.04304338 0.02201136 0.00709776
v -0.03785079 0.00226194 -0.00522163
v -0.04312789 0.02377643 0.00709776
v -0.04319362 0.02553271 0.00709776
v -0.04324057 0.02729777 0.00709776
v -0.04326874 0.02905406 0.00709776
v -0.04341897 0.03081034 0.00885988
v -0.04340020 0.02905406 0.00885988
v -0.04345654 0.03081034 0.01062201
v -0.04401992 0.08436825 0.01062201
v -0.04401992 0.08435069 0.01153012
v -0.04401992 0.08472829 0.01153012
v -0.04401054 0.08590500 0.01117460
v -0.04395420 0.08903118 0.01074180
v -0.03961608 0.08903118 0.01726088
v -0.04110907 0.08903118 0.01695946
v -0.04114663 0.08538689 0.01701356
v -0.04114663 0.08362183 0.01702516
v -0.04098700 0.07130149 0.01702516
v -0.03959730 0.02025507 0.01716813
v -0.03955035 0.01849001 0.01715654
v -0.03993534 0.00792596 0.01661554
v -0.03905269 0.00792596 0.01686285
v -0.04107151 0.00616967 0.01557218
v -0.04076164 0.00490515 0.01529008
v -0.04030154 0.00372844 0.01476067
v -0.04109029 0.00435192 0.01416171
v -0.04198232 0.00609942 0.01414625
v -0.04213257 0.00792596 0.01464474
v -0.04238609 0.00792596 0.01376368
v -0.04244243 0.00969103 0.01386416
v -0.04249877 0.01144731 0.01395690
v -0.04321240 0.02905406 0.01238026
v -0.04342837 0.02905406 0.01062201
v -0.04336264 0.02729777 0.00885988
v -0.04329691 0.02553271 0.00885988
v -0.04322179 0.02377643 0.00885988
v -0.04335325 0.03609677 0.01238026
v -0.04356921 0.05369474 0.01238026
v -0.04382274 0.07482284 0.01238026
v -0.04384152 0.07657913 0.01238026
v -0.04389786 0.08534299 0.01222183
v -0.04384152 0.08903118 0.01250392
v -0.04386030 0.08903118 0.01238026
v -0.04199172 0.08903118 0.01666964
v -0.04202927 0.08538689 0.01665805
v -0.04047995 0.02025507 0.01677397
v -0.04031093 0.01496866 0.01671214
v -0.04124992 0.00792596 0.01573834
v -0.04217952 0.01144731 0.01483796
v -0.04295887 0.03785305 0.01414239
v -0.04324996 0.03081034 0.01238026
v -0.04220768 0.01321237 0.01491138
v -0.04312789 0.05017339 0.01414239
v -0.04342837 0.07482284 0.01414239
v -0.04344714 0.07657913 0.01414239
v -0.04355043 0.08890824 0.01414239
v -0.04355043 0.08903118 0.01414239
v -0.04274290 0.08903118 0.01585041
v -0.04201989 0.08362183 0.01663872
v -0.04276169 0.08538689 0.01578085
v -0.04247999 0.03961811 0.01532486
v -0.04135320 0.01496866 0.01583109
v -0.04037666 0.01673372 0.01672760
v -0.04225463 0.01762065 0.01501958
v -0.04278985 0.08903118 0.01578858
v -0.04246121 0.03785305 0.01530168
f 1 2 3
f 1 3 4
f 1 4 5
f 1 5 6
f 1 6 7
f 1 7 8
f 1 8 2
f 2 9 3
f 2 8 9
f 3 9 10
f 3 10 11
f 3 11 12
f 3 12 4
f 4 12 13
f 4 13 14
f 4 14 15
f 4 15 5
f 5 16 17
f 5 17 6
f 5 15 18
f 5 18 16
f 6 17 19
f 6 19 20
f 6 20 7
f 7 20 8
f 8 21 9
f 8 20 22
f 8 22 21
f 9 21 23
f 9 23 24
f 9 24 10
f 10 24 25
f 10 25 11
f 11 13 12
f 11 25 26
f 11 26 27
f 11 27 28
f 11 28 13
f 13 28 15
f 13 15 14
f 15 28 29
f 15 29 30
f 15 30 18
f 16 31 32
f 16 32 17
f 16 18 30
f 16 30 33
f 16 33 34
f 16 34 31
f 17 32 35
f 17 35 36
f 17 36 19
f 19 36 37
f 19 37 38
f 19 38 20
f 20 38 41
f 20 41 22
f 21 39 23
f 21 22 40
f 21 40 39
f 22 41 73
f 22 73 40
f 23 39 70
f 23 70 42
f 23 42 43
f 23 43 44
f 23 44 24
f 24 44 45
f 24 45 25
f 25 45 26
f 26 45 46
f 26 46 47
f 26 47 48
f 26 48 27
f 27 48 49
f 27 49 50
f 27 50 51
f 27 51 52
f 27 52 53
f 27 53 28
f 28 53 29
f 29 54 30
f 29 53 55
f 29 55 54
f 30 54 56
f 30 56 57
f 30 57 33
f 31 58 59
f 31 59 60
f 31 60 32
f 31 34 61
f 31 61 58
f 32 60 62
f 32 62 35
f 33 57 34
f 34 57 63
f 34 63 61
f 35 62 64
f 35 64 65
f 35 65 36
f 36 65 66
f 36 66 37
f 37 66 118
f 37 118 67
f 37 67 38
f 38 67 68
f 38 68 69
f 38 69 41
f 39 40 71
f 39 71 72
f 39 72 70
f 40 73 74
f 40 74 71
f 41 69 75
f 41 75 76
f 41 76 73
f 42 70 77
f 42 77 78
f 42 78 79
f 42 79 43
f 43 80 81
f 43 81 82
f 43 82 44
f 43 79 78
f 43 78 83
f 43 83 80
f 44 82 45
f 45 82 84
f 45 84 46
f 46 84 47
f 47 85 86
f 47 86 87
f 47 87 49
f 47 49 48
f 47 84 85
f 49 87 50
f 50 88 89
f 50 89 90
f 50 90 91
f 50 91 51
f 50 87 88
f 51 91 52
f 52 91 92
f 52 92 93
f 52 93 94
f 52 94 55
f 52 55 53
f 54 55 95
f 54 95 96
f 54 96 97
f 54 97 56
f 55 94 98
f 55 98 95
f 56 99 63
f 56 63 57
f 56 97 100
f 56 100 99
f 58 61 101
f 58 101 59
f 59 102 60
f 59 101 103
f 59 103 104
f 59 104 105
f 59 105 102
f 60 106 107
f 60 107 62
f 60 102 106
f 61 63 108
f 61 108 109
f 61 109 101
f 62 107 110
f 62 110 64
f 63 99 111
f 63 111 112
f 63 112 109
f 63 109 108
f 64 110 113
f 64 113 114
f 64 114 115
f 64 115 65
f 65 115 116
f 65 116 117
f 65 117 118
f 65 118 66
f 67 118 119
f 67 119 120
f 67 120 68
f 68 120 121
f 68 121 122
f 68 122 69
f 69 122 75
f 70 72 123
f 70 123 124
f 70 124 125
f 70 125 77
f 71 74 76
f 71 76 126
f 71 126 72
f 72 126 127
f 72 127 123
f 73 76 74
f 75 122 76
f 76 122 128
f 76 128 129
f 76 129 130
f 76 130 131
f 76 131 124
f 76 124 127
f 76 127 126
f 77 132 133
f 77 133 78
f 77 125 132
f 78 133 83
f 80 134 81
f 80 83 135
f 80 135 132
f 80 132 136
f 80 136 137
f 80 137 138
f 80 138 134
f 81 134 139
f 81 139 140
f 81 140 82
f 82 140 84
f 83 133 132
f 83 132 135
f 84 140 141
f 84 141 85
f 85 141 142
f 85 142 86
f 86 142 143
f 86 143 144
f 86 144 88
f 86 88 87
f 88 144 145
f 88 145 89
f 89 146 90
f 89 145 147
f 89 147 148
f 89 148 146
f 90 146 91
f 91 146 149
f 91 149 150
f 91 150 92
f 92 150 151
f 92 151 93
f 93 98 94
f 93 151 98
f 95 98 100
f 95 100 97
f 95 97 96
f 98 151 152
f 98 152 153
f 98 153 100
f 99 100 111
f 100 153 154
f 100 154 111
f 101 109 103
f 102 155 156
f 102 156 106
f 102 105 157
f 102 157 155
f 103 109 158
f 103 158 159
f 103 159 104
f 104 159 105
f 105 159 160
f 105 160 161
f 105 161 157
f 106 156 155
f 106 155 162
f 106 162 163
f 106 163 107
f 107 163 164
f 107 164 113
f 107 113 110
f 109 112 111
f 109 111 165
f 109 165 158
f 111 154 166
f 111 166 165
f 113 164 167
f 113 167 168
f 113 168 169
f 113 169 170
f 113 170 114
f 114 170 171
f 114 171 117
f 114 117 116
f 114 116 115
f 117 171 118
f 118 171 170
f 118 170 119
f 119 170 120
f 120 170 172
f 120 172 121
f 121 172 173
f 121 173 122
f 122 173 128
f 123 127 124
f 124 131 174
f 124 174 125
f 125 174 136
f 125 136 132
f 128 173 175
f 128 175 176
f 128 176 177
f 128 177 129
f 129 178 179
f 129 179 180
f 129 180 181
f 129 181 182
f 129 182 183
f 129 183 130
f 129 177 184
f 129 184 178
f 130 183 182
f 130 182 174
f 130 174 131
f 134 185 186
f 134 186 139
f 134 138 187
f 134 187 185
f 136 174 188
f 136 188 189
f 136 189 138
f 136 138 137
f 138 189 187
f 139 186 190
f 139 190 191
f 139 191 192
f 139 192 193
f 139 193 140
f 140 193 141
f 141 193 194
f 141 194 142
f 142 194 195
f 142 195 196
f 142 196 197
f 142 197 143
f 143 197 198
f 143 198 199
f 143 199 144
f 144 199 145
f 145 199 200
f 145 200 147
f 146 148 201
f 146 201 202
f 146 202 149
f 147 200 203
f 147 203 148
f 148 203 204
f 148 204 205
f 148 205 201
f 149 202 206
f 149 206 207
f 149 207 150
f 150 207 151
f 151 207 152
f 152 207 208
f 152 208 209
f 152 209 154
f 152 154 153
f 154 209 166
f 155 210 211
f 155 211 162
f 155 157 212
f 155 212 213
f 155 213 210
f 157 161 212
f 158 165 214
f 158 214 215
f 158 215 216
f 158 216 159
f 159 216 217
f 159 217 160
f 160 217 161
f 161 217 218
f 161 218 212
f 162 211 219
f 162 219 163
f 163 219 220
f 163 220 164
f 164 220 221
f 164 221 222
f 164 222 223
f 164 223 167
f 165 166 224
f 165 224 214
f 166 209 267
f 166 267 225
f 166 225 224
f 167 223 226
f 167 226 168
f 168 226 227
f 168 227 169
f 169 227 228
f 169 228 229
f 169 229 230
f 169 230 170
f 170 230 231
f 170 231 172
f 172 232 233
f 172 233 234
f 172 234 235
f 172 235 173
f 172 231 232
f 173 235 236
f 173 236 175
f 174 182 188
f 175 236 237
f 175 237 238
f 175 238 176
f 176 184 177
f 176 238 239
f 176 239 184
f 178 184 240
f 178 240 179
f 179 241 180
f 179 240 242
f 179 242 243
f 179 243 241
f 180 244 189
f 180 189 188
f 180 188 182
f 180 182 245
f 180 245 181
f 180 241 246
f 180 246 187
f 180 187 244
f 181 245 182
f 184 247 248
f 184 248 249
f 184 249 240
f 184 239 250
f 184 250 251
f 184 251 252
f 184 252 247
f 185 187 253
f 185 253 254
f 185 254 186
f 186 254 255
f 186 255 190
f 187 243 256
f 187 256 253
f 187 189 244
f 187 246 243
f 190 255 191
f 191 255 192
f 192 255 257
f 192 257 193
f 193 257 194
f 194 257 195
f 195 257 197
f 195 197 196
f 197 257 258
f 197 258 259
f 197 259 260
f 197 260 198
f 198 260 199
f 199 260 200
f 200 260 203
f 201 205 202
f 202 205 261
f 202 261 206
f 203 260 259
f 203 259 262
f 203 262 263
f 203 263 204
f 204 263 205
f 205 263 264
f 205 264 265
f 205 265 261
f 206 261 208
f 206 208 207
f 208 261 266
f 208 266 267
f 208 267 209
f 210 268 269
f 210 269 211
f 210 213 270
f 210 270 268
f 211 269 219
f 212 218 270
f 212 270 213
f 214 224 271
f 214 271 272
f 214 272 215
f 215 272 216
f 216 272 273
f 216 273 274
f 216 274 217
f 217 274 218
f 218 275 270
f 218 274 275
f 219 269 220
f 220 269 221
f 221 276 277
f 221 277 222
f 221 269 276
f 222 278 223
f 222 277 278
f 223 278 279
f 223 279 280
f 223 280 226
f 224 225 282
f 224 282 281
f 224 281 271
f 225 267 282
f 226 283 284
f 226 284 285
f 226 285 227
f 226 280 283
f 227 285 286
f 227 286 287
f 227 287 228
f 228 287 288
f 228 288 229
f 229 288 289
f 229 289 232
f 229 232 230
f 230 232 231
f 232 290 234
f 232 234 233
f 232 289 291
f 232 291 290
f 234 290 292
f 234 292 235
f 235 292 236
f 236 292 293
f 236 293 237
f 237 294 295
f 237 295 238
f 237 293 294
f 238 295 239
f 239 295 296
f 239 296 250
f 240 249 297
f 240 297 298
f 240 298 242
f 241 243 246
f 242 298 299
f 242 299 300
f 242 300 243
f 243 300 301
f 243 301 256
f 247 252 248
f 248 252 302
f 248 302 249
f 249 302 297
f 250 303 251
f 250 296 303
f 251 303 304
f 251 304 305
f 251 305 306
f 251 306 307
f 251 307 252
f 252 308 309
f 252 309 310
f 252 310 311
f 252 311 312
f 252 312 313
f 252 313 314
f 252 314 315
f 252 315 302
f 252 307 308
f 253 256 254
f 254 256 316
f 254 316 255
f 255 316 257
f 256 301 297
f 256 297 317
f 256 317 318
f 256 318 316
f 257 316 258
f 258 319 320
f 258 320 321
f 258 321 259
f 258 316 319
f 259 321 262
f 261 265 322
f 261 322 266
f 262 321 263
f 263 321 323
f 263 323 264
f 264 323 324
f 264 324 325
f 264 325 265
f 265 325 326
f 265 326 327
f 265 327 322
f 266 322 328
f 266 328 267
f 267 328 282
f 268 329 330
f 268 330 269
f 268 270 331
f 268 331 329
f 269 330 276
f 270 275 332
f 270 332 331
f 271 281 272
f 272 281 333
f 272 333 334
f 272 334 273
f 273 335 336
f 273 336 274
f 273 334 337
f 273 337 335
f 274 336 338
f 274 338 275
f 275 339 332
f 275 338 340
f 275 340 339
f 276 341 342
f 276 342 277
f 276 330 329
f 276 329 343
f 276 343 344
f 276 344 341
f 277 342 341
f 277 341 345
f 277 345 346
f 277 346 278
f 278 347 279
f 278 346 347
f 279 348 349
f 279 349 280
f 279 347 348
f 280 349 283
f 281 282 337
f 281 337 333
f 282 328 350
f 282 350 337
f 283 351 352
f 283 352 353
f 283 353 354
f 283 354 284
f 283 349 351
f 284 354 285
f 285 354 286
f 286 355 356
f 286 356 357
f 286 357 358
f 286 358 294
f 286 294 359
f 286 359 360
f 286 360 288
f 286 288 287
f 286 354 355
f 288 360 289
f 289 360 359
f 289 359 291
f 290 291 361
f 290 361 292
f 291 359 361
f 292 359 293
f 292 361 359
f 293 359 294
f 294 362 363
f 294 363 364
f 294 364 295
f 294 358 365
f 294 365 366
f 294 366 367
f 294 367 362
f 295 364 368
f 295 368 296
f 296 368 369
f 296 369 370
f 296 370 306
f 296 306 305
f 296 305 304
f 296 304 303
f 297 302 317
f 297 301 300
f 297 300 299
f 297 299 298
f 302 315 371
f 302 371 372
f 302 372 373
f 302 373 317
f 306 370 369
f 306 369 374
f 306 374 375
f 306 375 376
f 306 376 307
f 307 376 377
f 307 377 378
f 307 378 308
f 308 379 380
f 308 380 445
f 308 445 381
f 308 381 382
f 308 382 310
f 308 310 309
f 308 378 379
f 310 382 383
f 310 383 311
f 311 383 384
f 311 384 312
f 312 384 385
f 312 385 313
f 313 385 315
f 313 315 314
f 315 385 384
f 315 384 383
f 315 383 382
f 315 382 386
f 315 386 371
f 316 318 319
f 317 373 387
f 317 387 318
f 318 387 319
f 319 387 320
f 320 388 323
f 320 323 321
f 320 387 389
f 320 389 390
f 320 390 388
f 322 327 328
f 323 388 324
f 324 388 391
f 324 391 325
f 325 391 326
f 326 391 392
f 326 392 393
f 326 393 327
f 327 393 394
f 327 394 395
f 327 395 350
f 327 350 328
f 329 331 343
f 331 332 343
f 332 339 396
f 332 396 344
f 332 344 343
f 333 337 334
f 335 397 336
f 335 337 398
f 335 398 395
f 335 395 397
f 336 397 399
f 336 399 400
f 336 400 401
f 336 401 402
f 336 402 338
f 337 350 395
f 337 395 398
f 338 402 340
f 339 340 396
f 340 402 403
f 340 403 404
f 340 404 405
f 340 405 396
f 341 406 407
f 341 407 345
f 341 344 406
f 344 408 409
f 344 409 410
f 344 410 407
f 344 407 406
f 344 396 405
f 344 405 411
f 344 411 412
f 344 412 408
f 345 413 346
f 345 407 414
f 345 414 413
f 346 413 415
f 346 415 347
f 347 415 348
f 348 415 416
f 348 416 417
f 348 417 418
f 348 418 419
f 348 419 420
f 348 420 349
f 349 420 421
f 349 421 422
f 349 422 351
f 351 422 421
f 351 421 423
f 351 423 352
f 352 423 488
f 352 488 424
f 352 424 353
f 353 424 354
f 354 424 425
f 354 425 426
f 354 426 355
f 355 426 356
f 356 426 425
f 356 425 427
f 356 427 428
f 356 428 365
f 356 365 357
f 357 365 358
f 362 429 363
f 362 367 430
f 362 430 431
f 362 431 429
f 363 429 432
f 363 432 433
f 363 433 364
f 364 433 368
f 365 428 434
f 365 434 366
f 366 434 367
f 367 431 430
f 367 434 435
f 367 435 436
f 367 436 431
f 368 433 369
f 369 433 374
f 371 437 438
f 371 438 372
f 371 386 439
f 371 439 437
f 372 438 440
f 372 440 373
f 373 440 441
f 373 441 387
f 374 433 375
f 375 433 442
f 375 442 376
f 376 442 377
f 377 442 443
f 377 443 494
f 377 494 432
f 377 432 429
f 377 429 491
f 377 491 492
f 377 492 541
f 377 541 578
f 377 578 576
f 377 576 538
f 377 538 537
f 377 537 575
f 377 575 574
f 377 574 573
f 377 573 600
f 377 600 567
f 377 567 524
f 377 524 568
f 377 568 603
f 377 603 565
f 377 565 602
f 377 602 601
f 377 601 623
f 377 623 624
f 377 624 622
f 377 622 621
f 377 621 636
f 377 636 619
f 377 619 618
f 377 618 635
f 377 635 626
f 377 626 625
f 377 625 609
f 377 609 608
f 377 608 607
f 377 607 587
f 377 587 550
f 377 550 506
f 377 506 505
f 377 505 504
f 377 504 503
f 377 503 445
f 377 445 380
f 377 380 379
f 377 379 444
f 377 444 378
f 378 444 379
f 381 446 382
f 381 445 447
f 381 447 439
f 381 439 446
f 382 446 439
f 382 439 386
f 387 441 389
f 388 390 391
f 389 441 448
f 389 448 390
f 390 449 391
f 390 448 450
f 390 450 451
f 390 451 452
f 390 452 449
f 391 449 453
f 391 453 392
f 392 453 454
f 392 454 455
f 392 455 393
f 393 455 394
f 394 455 397
f 394 397 395
f 397 455 399
f 399 456 457
f 399 457 458
f 399 458 400
f 399 455 459
f 399 459 460
f 399 460 456
f 400 458 461
f 400 461 462
f 400 462 463
f 400 463 402
f 400 402 401
f 402 463 464
f 402 464 403
f 403 464 465
f 403 465 466
f 403 466 404
f 404 466 411
f 404 411 405
f 407 410 409
f 407 409 414
f 408 467 468
f 408 468 409
f 408 412 469
f 408 469 467
f 409 470 414
f 409 468 470
f 411 466 471
f 411 471 472
f 411 472 412
f 412 472 473
f 412 473 474
f 412 474 475
f 412 475 469
f 413 470 476
f 413 476 415
f 413 414 470
f 415 476 477
f 415 477 416
f 416 477 478
f 416 478 479
f 416 479 480
f 416 480 481
f 416 481 417
f 417 482 418
f 417 481 483
f 417 483 484
f 417 484 482
f 418 482 419
f 419 482 421
f 419 421 420
f 421 482 423
f 423 482 485
f 423 485 486
f 423 486 487
f 423 487 488
f 424 488 489
f 424 489 428
f 424 428 425
f 425 428 427
f 428 489 490
f 428 490 434
f 429 431 491
f 431 492 491
f 431 436 493
f 431 493 492
f 432 494 433
f 433 494 443
f 433 443 442
f 434 490 435
f 435 490 489
f 435 489 495
f 435 495 436
f 436 495 493
f 437 439 438
f 438 496 497
f 438 497 498
f 438 498 440
f 438 439 499
f 438 499 496
f 439 447 500
f 439 500 499
f 440 498 501
f 440 501 502
f 440 502 441
f 441 502 448
f 445 503 447
f 447 504 505
f 447 505 506
f 447 506 507
f 447 507 500
f 447 503 504
f 448 502 508
f 448 508 510
f 448 510 450
f 449 452 509
f 449 509 453
f 450 510 511
f 450 511 512
f 450 512 513
f 450 513 452
f 450 452 451
f 452 513 509
f 453 509 460
f 453 460 454
f 454 460 459
f 454 459 455
f 456 460 509
f 456 509 457
f 457 514 515
f 457 515 516
f 457 516 458
f 457 509 514
f 458 516 461
f 461 516 517
f 461 517 518
f 461 518 462
f 462 518 519
f 462 519 463
f 463 519 520
f 463 520 464
f 464 520 521
f 464 521 465
f 465 521 473
f 465 473 472
f 465 472 471
f 465 471 466
f 467 522 470
f 467 470 468
f 467 469 523
f 467 523 524
f 467 524 522
f 469 475 525
f 469 525 523
f 470 522 476
f 473 521 526
f 473 526 474
f 474 526 527
f 474 527 528
f 474 528 529
f 474 529 525
f 474 525 475
f 476 530 531
f 476 531 532
f 476 532 477
f 476 522 530
f 477 532 533
f 477 533 534
f 477 534 478
f 478 534 479
f 479 534 535
f 479 535 483
f 479 483 480
f 480 483 481
f 482 484 536
f 482 536 485
f 483 535 485
f 483 485 484
f 484 485 536
f 485 535 537
f 485 537 538
f 485 538 539
f 485 539 540
f 485 540 486
f 486 495 487
f 486 540 493
f 486 493 495
f 487 495 488
f 488 495 489
f 492 493 541
f 493 540 542
f 493 542 541
f 496 543 497
f 496 499 500
f 496 500 543
f 497 543 544
f 497 544 498
f 498 544 545
f 498 545 501
f 500 507 506
f 500 506 546
f 500 546 543
f 501 545 547
f 501 547 502
f 502 547 548
f 502 548 549
f 502 549 508
f 506 550 543
f 506 543 546
f 508 549 551
f 508 551 552
f 508 552 553
f 508 553 510
f 509 513 514
f 510 553 511
f 511 553 512
f 512 553 513
f 513 553 514
f 514 553 551
f 514 551 554
f 514 554 515
f 515 554 555
f 515 555 516
f 516 555 517
f 517 555 592
f 517 592 556
f 517 556 518
f 518 556 557
f 518 557 519
f 519 557 558
f 519 558 559
f 519 559 520
f 520 559 560
f 520 560 521
f 521 560 561
f 521 561 526
f 522 562 563
f 522 563 530
f 522 524 562
f 523 525 564
f 523 564 565
f 523 565 566
f 523 566 524
f 524 567 562
f 524 566 568
f 525 529 564
f 526 561 527
f 527 561 528
f 528 561 569
f 528 569 529
f 529 569 570
f 529 570 571
f 529 571 572
f 529 572 564
f 530 563 573
f 530 573 531
f 531 573 574
f 531 574 533
f 531 533 532
f 533 574 575
f 533 575 537
f 533 537 535
f 533 535 534
f 538 576 539
f 539 576 540
f 540 577 541
f 540 541 542
f 540 576 577
f 541 577 578
f 543 579 580
f 543 580 581
f 543 581 544
f 543 550 579
f 544 581 582
f 544 582 583
f 544 583 584
f 544 584 545
f 545 584 585
f 545 585 547
f 547 585 548
f 548 585 586
f 548 586 551
f 548 551 549
f 550 587 579
f 551 588 589
f 551 589 590
f 551 590 591
f 551 591 554
f 551 553 552
f 551 586 588
f 554 591 555
f 555 591 592
f 556 592 593
f 556 593 558
f 556 558 557
f 558 593 594
f 558 594 595
f 558 595 559
f 559 595 596
f 559 596 561
f 559 561 560
f 561 596 597
f 561 597 598
f 561 598 599
f 561 599 570
f 561 570 569
f 562 567 600
f 562 600 563
f 563 600 573
f 564 572 601
f 564 601 602
f 564 602 565
f 565 603 566
f 566 603 568
f 570 599 571
f 571 604 572
f 571 599 604
f 572 604 601
f 576 578 577
f 579 587 580
f 580 605 606
f 580 606 581
f 580 587 607
f 580 607 608
f 580 608 609
f 580 609 605
f 581 606 610
f 581 610 583
f 581 583 582
f 583 610 584
f 584 610 585
f 585 610 586
f 586 610 589
f 586 589 588
f 589 611 612
f 589 612 590
f 589 610 611
f 590 612 613
f 590 613 614
f 590 614 591
f 591 614 592
f 592 615 593
f 592 614 615
f 593 615 616
f 593 616 594
f 594 617 595
f 594 616 618
f 594 618 619
f 594 619 617
f 595 617 597
f 595 597 596
f 597 617 620
f 597 620 599
f 597 599 598
f 599 620 621
f 599 621 622
f 599 622 604
f 601 604 623
f 604 622 624
f 604 624 623
f 605 609 625
f 605 625 626
f 605 626 606
f 606 626 627
f 606 627 628
f 606 628 610
f 610 628 629
f 610 629 611
f 611 629 630
f 611 630 612
f 612 630 631
f 612 631 632
f 612 632 613
f 613 632 633
f 613 633 615
f 613 615 614
f 615 632 616
f 615 633 632
f 616 632 634
f 616 634 635
f 616 635 618
f 617 619 636
f 617 636 620
f 620 636 621
f 626 635 627
f 627 635 634
f 627 634 632
f 627 632 631
f 627 631 630
f 627 630 629
f 627 629 628
f 637 638 647
f 637 647 658
f 637 658 673
f 637 673 693
f 637 693 692
f 637 692 720
f 637 720 753
f 637 753 795
f 637 795 838
f 637 838 891
f 637 891 947
f 637 947 889
f 637 889 943
f 637 943 946
f 637 946 991
f 637 991 1045
f 637 1045 1096
f 637 1096 1095
f 637 1095 1144
f 637 1144 1174
f 637 1174 1173
f 637 1173 1188
f 637 1188 1196
f 637 1196 1189
f 637 1189 1175
f 637 1175 1146
f 637 1146 1145
f 637 1145 1097
f 637 1097 1048
f 637 1048 994
f 637 994 948
f 637 948 892
f 637 892 839
f 637 839 796
f 637 796 757
f 637 757 756
f 637 756 754
f 637 754 721
f 637 721 695
f 637 695 674
f 637 674 659
f 637 659 648
f 637 648 639
f 637 639 640
f 637 640 641
f 637 641 642
f 637 642 638
f 638 642 643
f 638 643 644
f 638 644 645
f 638 645 646
f 638 646 647
f 639 648 649
f 639 649 640
f 640 650 651
f 640 651 652
f 640 652 653
f 640 653 641
f 640 649 650
f 641 653 642
f 642 653 654
f 642 654 655
f 642 655 643
f 643 655 644
f 644 655 645
f 645 655 654
f 645 654 656
f 645 656 657
f 645 657 646
f 646 658 647
f 646 657 658
f 648 659 649
f 649 659 660
f 649 660 650
f 650 660 651
f 651 660 661
f 651 661 662
f 651 662 663
f 651 663 664
f 651 664 665
f 651 665 652
f 652 665 654
f 652 654 653
f 654 665 666
f 654 666 667
f 654 667 668
f 654 668 656
f 656 668 669
f 656 669 670
f 656 670 657
f 657 670 671
f 657 671 672
f 657 672 658
f 658 672 673
f 659 674 660
f 660 675 676
f 660 676 661
f 660 674 675
f 661 676 677
f 661 677 662
f 662 678 663
f 662 677 678
f 663 678 666
f 663 666 665
f 663 665 664
f 666 679 680
f 666 680 681
f 666 681 682
f 666 682 667
f 666 678 683
f 666 683 684
f 666 684 679
f 667 682 685
f 667 685 668
f 668 685 686
f 668 686 669
f 669 686 687
f 669 687 688
f 669 688 689
f 669 689 690
f 669 690 670
f 670 690 671
f 671 690 689
f 671 689 691
f 671 691 672
f 672 691 692
f 672 692 693
f 672 693 694
f 672 694 673
f 673 694 693
f 674 695 696
f 674 696 675
f 675 696 697
f 675 697 676
f 676 697 698
f 676 698 677
f 677 698 699
f 677 699 684
f 677 684 678
f 678 684 683
f 679 700 680
f 679 684 701
f 679 701 702
f 679 702 700
f 680 703 704
f 680 704 681
f 680 700 705
f 680 705 703
f 681 704 706
f 681 706 685
f 681 685 682
f 684 699 701
f 685 706 707
f 685 707 708
f 685 708 686
f 686 708 687
f 687 708 707
f 687 707 709
f 687 709 710
f 687 710 691
f 687 691 688
f 688 691 689
f 691 711 712
f 691 712 692
f 691 710 713
f 691 713 714
f 691 714 715
f 691 715 716
f 691 716 717
f 691 717 711
f 692 712 718
f 692 718 719
f 692 719 720
f 695 721 722
f 695 722 723
f 695 723 724
f 695 724 697
f 695 697 696
f 697 724 725
f 697 725 726
f 697 726 727
f 697 727 698
f 698 727 699
f 699 727 701
f 700 702 705
f 701 727 725
f 701 725 702
f 702 725 728
f 702 728 729
f 702 729 730
f 702 730 705
f 703 731 732
f 703 732 704
f 703 705 731
f 704 732 733
f 704 733 706
f 705 734 732
f 705 732 731
f 705 730 735
f 705 735 736
f 705 736 734
f 706 733 709
f 706 709 707
f 709 733 737
f 709 737 713
f 709 713 710
f 711 718 712
f 711 717 738
f 711 738 718
f 713 737 739
f 713 739 740
f 713 740 741
f 713 741 714
f 714 741 715
f 715 742 717
f 715 717 716
f 715 741 743
f 715 743 744
f 715 744 742
f 717 742 744
f 717 744 745
f 717 745 746
f 717 746 747
f 717 747 748
f 717 748 749
f 717 749 750
f 717 750 738
f 718 738 719
f 719 750 751
f 719 751 752
f 719 752 753
f 719 753 720
f 719 738 750
f 721 754 722
f 722 755 725
f 722 725 723
f 722 754 756
f 722 756 757
f 722 757 758
f 722 758 755
f 723 725 724
f 725 727 759
f 725 759 726
f 725 755 760
f 725 760 761
f 725 761 728
f 726 759 727
f 728 761 762
f 728 762 729
f 729 763 735
f 729 735 730
f 729 762 764
f 729 764 765
f 729 765 763
f 732 734 733
f 733 734 737
f 734 736 766
f 734 766 767
f 734 767 768
f 734 768 769
f 734 769 770
f 734 770 771
f 734 771 739
f 734 739 737
f 735 763 772
f 735 772 773
f 735 773 774
f 735 774 736
f 736 774 775
f 736 775 766
f 739 771 770
f 739 770 776
f 739 776 740
f 740 776 741
f 741 777 778
f 741 778 779
f 741 779 780
f 741 780 743
f 741 776 781
f 741 781 777
f 743 780 782
f 743 782 783
f 743 783 744
f 744 783 745
f 745 783 746
f 746 748 747
f 746 783 784
f 746 784 785
f 746 785 786
f 746 786 749
f 746 749 748
f 749 787 788
f 749 788 789
f 749 789 790
f 749 790 791
f 749 791 792
f 749 792 750
f 749 786 787
f 750 792 751
f 751 792 752
f 752 792 793
f 752 793 790
f 752 790 794
f 752 794 795
f 752 795 753
f 755 758 796
f 755 796 760
f 757 796 758
f 760 796 797
f 760 797 798
f 760 798 761
f 761 799 762
f 761 798 799
f 762 799 800
f 762 800 801
f 762 801 764
f 763 765 802
f 763 802 773
f 763 773 772
f 764 801 803
f 764 803 804
f 764 804 802
f 764 802 765
f 766 775 805
f 766 805 767
f 767 805 768
f 768 805 769
f 769 805 806
f 769 806 807
f 769 807 770
f 770 807 781
f 770 781 776
f 773 802 808
f 773 808 809
f 773 809 774
f 774 809 810
f 774 810 775
f 775 810 811
f 775 811 805
f 777 807 812
f 777 812 813
f 777 813 779
f 777 779 778
f 777 781 807
f 779 814 815
f 779 815 780
f 779 813 814
f 780 815 816
f 780 816 817
f 780 817 818
f 780 818 782
f 782 818 817
f 782 817 819
f 782 819 820
f 782 820 821
f 782 821 783
f 783 822 784
f 783 821 822
f 784 823 786
f 784 786 785
f 784 822 824
f 784 824 823
f 786 823 824
f 786 824 825
f 786 825 826
f 786 826 788
f 786 788 827
f 786 827 828
f 786 828 787
f 787 828 788
f 788 826 829
f 788 829 830
f 788 830 831
f 788 831 832
f 788 832 789
f 788 828 827
f 789 832 790
f 790 832 831
f 790 831 833
f 790 833 834
f 790 834 794
f 790 793 792
f 790 792 791
f 794 834 835
f 794 835 836
f 794 836 837
f 794 837 795
f 795 837 838
f 796 839 840
f 796 840 797
f 797 840 841
f 797 841 798
f 798 841 842
f 798 842 843
f 798 843 844
f 798 844 845
f 798 845 799
f 799 845 800
f 800 845 846
f 800 846 801
f 801 846 847
f 801 847 803
f 802 804 808
f 803 847 848
f 803 848 849
f 803 849 804
f 804 850 808
f 804 849 851
f 804 851 852
f 804 852 853
f 804 853 854
f 804 854 855
f 804 855 850
f 805 811 806
f 806 811 856
f 806 856 807
f 807 856 812
f 808 850 855
f 808 855 857
f 808 857 858
f 808 858 859
f 808 859 809
f 809 859 860
f 809 860 810
f 810 861 811
f 810 860 862
f 810 862 861
f 811 861 863
f 811 863 864
f 811 864 856
f 812 856 813
f 813 865 814
f 813 856 864
f 813 864 866
f 813 866 867
f 813 867 868
f 813 868 869
f 813 869 865
f 814 865 815
f 815 865 816
f 816 865 817
f 817 865 870
f 817 870 871
f 817 871 819
f 819 871 872
f 819 872 820
f 820 872 873
f 820 873 821
f 821 873 822
f 822 873 824
f 824 874 875
f 824 875 825
f 824 873 874
f 825 875 876
f 825 876 829
f 825 829 826
f 829 876 830
f 830 876 877
f 830 877 878
f 830 878 831
f 831 878 879
f 831 879 880
f 831 880 833
f 833 880 881
f 833 881 882
f 833 882 883
f 833 883 884
f 833 884 836
f 833 836 834
f 834 836 835
f 836 884 885
f 836 885 837
f 837 885 886
f 837 886 887
f 837 887 888
f 837 888 889
f 837 889 890
f 837 890 838
f 838 890 891
f 839 892 893
f 839 893 841
f 839 841 840
f 841 893 894
f 841 894 895
f 841 895 842
f 842 895 896
f 842 896 843
f 843 896 895
f 843 895 897
f 843 897 898
f 843 898 844
f 844 898 899
f 844 899 845
f 845 899 900
f 845 900 846
f 846 900 901
f 846 901 847
f 847 901 848
f 848 901 902
f 848 902 851
f 848 851 849
f 851 902 903
f 851 903 904
f 851 904 905
f 851 905 852
f 852 905 853
f 853 905 904
f 853 904 906
f 853 906 907
f 853 907 854
f 854 857 855
f 854 907 857
f 857 907 908
f 857 908 909
f 857 909 858
f 858 909 908
f 858 908 859
f 859 908 910
f 859 910 860
f 860 910 911
f 860 911 912
f 860 912 862
f 861 913 863
f 861 862 914
f 861 914 915
f 861 915 913
f 862 912 967
f 862 967 914
f 863 913 864
f 864 913 916
f 864 916 866
f 865 869 871
f 865 871 870
f 866 916 917
f 866 917 867
f 867 917 918
f 867 918 919
f 867 919 920
f 867 920 921
f 867 921 922
f 867 922 868
f 868 923 869
f 868 922 924
f 868 924 923
f 869 923 871
f 871 923 872
f 872 923 924
f 872 924 925
f 872 925 873
f 873 925 926
f 873 926 874
f 874 926 927
f 874 927 875
f 875 927 928
f 875 928 876
f 876 929 877
f 876 928 929
f 877 929 930
f 877 930 878
f 878 930 879
f 879 930 931
f 879 931 932
f 879 932 933
f 879 933 881
f 879 881 880
f 881 934 935
f 881 935 882
f 881 933 936
f 881 936 934
f 882 935 937
f 882 937 938
f 882 938 939
f 882 939 883
f 883 940 884
f 883 939 885
f 883 885 940
f 884 940 885
f 885 939 886
f 886 939 938
f 886 938 941
f 886 941 942
f 886 942 887
f 887 942 888
f 888 943 889
f 888 942 944
f 888 944 945
f 888 945 946
f 888 946 943
f 889 947 890
f 890 947 891
f 892 948 949
f 892 949 950
f 892 950 893
f 893 950 951
f 893 951 894
f 894 951 895
f 895 951 897
f 897 952 898
f 897 951 952
f 898 952 953
f 898 953 954
f 898 954 955
f 898 955 899
f 899 955 956
f 899 956 957
f 899 957 900
f 900 957 958
f 900 958 901
f 901 958 959
f 901 959 960
f 901 960 902
f 902 960 903
f 903 960 961
f 903 961 904
f 904 961 962
f 904 962 963
f 904 963 964
f 904 964 906
f 906 964 965
f 906 965 910
f 906 910 907
f 907 910 908
f 910 965 911
f 911 965 966
f 911 966 968
f 911 968 912
f 912 968 967
f 913 915 918
f 913 918 916
f 914 967 915
f 915 967 969
f 915 969 918
f 916 918 917
f 918 969 970
f 918 970 919
f 919 970 971
f 919 971 972
f 919 972 920
f 920 972 926
f 920 926 921
f 921 973 925
f 921 925 922
f 921 926 973
f 922 925 924
f 925 973 926
f 926 972 927
f 927 974 928
f 927 972 975
f 927 975 976
f 927 976 977
f 927 977 978
f 927 978 974
f 928 974 978
f 928 978 979
f 928 979 929
f 929 979 978
f 929 978 980
f 929 980 930
f 930 981 931
f 930 980 981
f 931 981 982
f 931 982 932
f 932 983 936
f 932 936 933
f 932 982 983
f 934 984 985
f 934 985 935
f 934 936 984
f 935 985 986
f 935 986 937
f 936 983 987
f 936 987 984
f 937 986 988
f 937 988 938
f 938 988 941
f 941 988 989
f 941 989 990
f 941 990 942
f 942 990 944
f 944 990 945
f 945 991 946
f 945 990 991
f 948 992 993
f 948 993 949
f 948 994 992
f 949 995 996
f 949 996 951
f 949 951 950
f 949 993 997
f 949 997 998
f 949 998 999
f 949 999 1000
f 949 1000 995
f 951 996 952
f 952 996 953
f 953 996 954
f 954 996 955
f 955 996 995
f 955 995 1001
f 955 1001 956
f 956 1001 1002
f 956 1002 1003
f 956 1003 1004
f 956 1004 957
f 957 1005 958
f 957 1004 1006
f 957 1006 1007
f 957 1007 1008
f 957 1008 1005
f 958 1005 1009
f 958 1009 1010
f 958 1010 1011
f 958 1011 959
f 959 1011 962
f 959 962 961
f 959 961 960
f 962 1009 1012
f 962 1012 1013
f 962 1013 963
f 962 1011 1010
f 962 1010 1009
f 963 1013 964
f 964 1014 965
f 964 1013 1015
f 964 1015 1016
f 964 1016 1014
f 965 1014 1017
f 965 1017 966
f 966 1018 968
f 966 1017 1018
f 967 968 969
f 968 1018 1019
f 968 1019 969
f 969 1019 1020
f 969 1020 970
f 970 1020 971
f 971 1020 1021
f 971 1021 972
f 972 1021 1022
f 972 1022 1023
f 972 1023 1024
f 972 1024 1025
f 972 1025 1026
f 972 1026 1027
f 972 1027 975
f 975 1027 1028
f 975 1028 1029
f 975 1029 1030
f 975 1030 976
f 976 1030 977
f 977 1030 1031
f 977 1031 978
f 978 1031 980
f 980 1031 1030
f 980 1030 981
f 981 1030 1032
f 981 1032 1033
f 981 1033 982
f 982 1033 1034
f 982 1034 983
f 983 1034 987
f 984 987 1035
f 984 1035 985
f 985 1035 1036
f 985 1036 986
f 986 1036 1037
f 986 1037 988
f 987 1034 1038
f 987 1038 1035
f 988 1037 989
f 989 1037 1039
f 989 1039 1040
f 989 1040 990
f 990 1041 1042
f 990 1042 1043
f 990 1043 991
f 990 1040 1041
f 991 1043 1044
f 991 1044 1045
f 992 994 1046
f 992 1046 1047
f 992 1047 993
f 993 1047 999
f 993 999 997
f 994 1048 1046
f 995 1000 1049
f 995 1049 1001
f 997 999 998
f 999 1047 1050
f 999 1050 1000
f 1000 1050 1047
f 1000 1047 1051
f 1000 1051 1052
f 1000 1052 1053
f 1000 1053 1054
f 1000 1054 1049
f 1001 1049 1054
f 1001 1054 1053
f 1001 1053 1055
f 1001 1055 1003
f 1001 1003 1002
f 1003 1055 1004
f 1004 1055 1056
f 1004 1056 1057
f 1004 1057 1058
f 1004 1058 1059
f 1004 1059 1006
f 1005 1008 1060
f 1005 1060 1009
f 1006 1059 1058
f 1006 1058 1061
f 1006 1061 1062
f 1006 1062 1060
f 1006 1060 1007
f 1007 1060 1008
f 1009 1060 1012
f 1012 1063 1013
f 1012 1060 1062
f 1012 1062 1064
f 1012 1064 1065
f 1012 1065 1063
f 1013 1063 1015
f 1014 1016 1017
f 1015 1063 1066
f 1015 1066 1067
f 1015 1067 1016
f 1016 1067 1022
f 1016 1022 1017
f 1017 1022 1021
f 1017 1021 1018
f 1018 1020 1019
f 1018 1021 1020
f 1022 1067 1068
f 1022 1068 1024
f 1022 1024 1023
f 1024 1065 1069
f 1024 1069 1025
f 1024 1068 1065
f 1025 1069 1070
f 1025 1070 1071
f 1025 1071 1026
f 1026 1071 1072
f 1026 1072 1028
f 1026 1028 1027
f 1028 1072 1073
f 1028 1073 1029
f 1029 1073 1074
f 1029 1074 1075
f 1029 1075 1030
f 1030 1075 1033
f 1030 1033 1032
f 1033 1075 1076
f 1033 1076 1088
f 1033 1088 1077
f 1033 1077 1034
f 1034 1077 1038
f 1035 1078 1079
f 1035 1079 1080
f 1035 1080 1081
f 1035 1081 1082
f 1035 1082 1083
f 1035 1083 1084
f 1035 1084 1036
f 1035 1038 1085
f 1035 1085 1086
f 1035 1086 1078
f 1036 1084 1087
f 1036 1087 1037
f 1037 1087 1039
f 1038 1077 1088
f 1038 1088 1085
f 1039 1087 1089
f 1039 1089 1090
f 1039 1090 1040
f 1040 1090 1041
f 1041 1090 1091
f 1041 1091 1042
f 1042 1091 1092
f 1042 1092 1044
f 1042 1044 1043
f 1044 1092 1093
f 1044 1093 1094
f 1044 1094 1144
f 1044 1144 1095
f 1044 1095 1096
f 1044 1096 1045
f 1046 1048 1097
f 1046 1097 1098
f 1046 1098 1051
f 1046 1051 1047
f 1051 1098 1099
f 1051 1099 1100
f 1051 1100 1101
f 1051 1101 1102
f 1051 1102 1052
f 1052 1103 1053
f 1052 1102 1104
f 1052 1104 1105
f 1052 1105 1106
f 1052 1106 1103
f 1053 1103 1055
f 1055 1106 1056
f 1055 1103 1106
f 1056 1106 1107
f 1056 1107 1108
f 1056 1108 1057
f 1057 1061 1058
f 1057 1108 1109
f 1057 1109 1061
f 1061 1109 1071
f 1061 1071 1110
f 1061 1110 1064
f 1061 1064 1062
f 1063 1111 1066
f 1063 1065 1111
f 1064 1110 1069
f 1064 1069 1065
f 1065 1068 1111
f 1066 1111 1068
f 1066 1068 1067
f 1069 1110 1070
f 1070 1110 1071
f 1071 1109 1112
f 1071 1112 1113
f 1071 1113 1114
f 1071 1114 1115
f 1071 1115 1072
f 1072 1116 1117
f 1072 1117 1118
f 1072 1118 1119
f 1072 1119 1073
f 1072 1115 1120
f 1072 1120 1116
f 1073 1119 1121
f 1073 1121 1074
f 1074 1121 1122
f 1074 1122 1075
f 1075 1122 1076
f 1076 1122 1123
f 1076 1123 1088
f 1078 1086 1124
f 1078 1124 1125
f 1078 1125 1079
f 1079 1125 1120
f 1079 1120 1126
f 1079 1126 1127
f 1079 1127 1080
f 1080 1127 1081
f 1081 1127 1128
f 1081 1128 1083
f 1081 1083 1082
f 1083 1128 1129
f 1083 1129 1130
f 1083 1130 1133
f 1083 1133 1131
f 1083 1131 1089
f 1083 1089 1087
f 1083 1087 1084
f 1085 1088 1086
f 1086 1088 1124
f 1088 1132 1124
f 1088 1123 1132
f 1089 1131 1133
f 1089 1133 1090
f 1090 1133 1134
f 1090 1134 1135
f 1090 1135 1136
f 1090 1136 1091
f 1091 1136 1137
f 1091 1137 1138
f 1091 1138 1139
f 1091 1139 1140
f 1091 1140 1093
f 1091 1093 1092
f 1093 1141 1142
f 1093 1142 1143
f 1093 1143 1094
f 1093 1140 1141
f 1094 1143 1144
f 1097 1145 1098
f 1098 1145 1146
f 1098 1146 1099
f 1099 1146 1100
f 1100 1146 1147
f 1100 1147 1148
f 1100 1148 1101
f 1101 1148 1102
f 1102 1148 1149
f 1102 1149 1104
f 1104 1149 1150
f 1104 1150 1105
f 1105 1150 1151
f 1105 1151 1152
f 1105 1152 1153
f 1105 1153 1106
f 1106 1153 1152
f 1106 1152 1107
f 1107 1152 1154
f 1107 1154 1155
f 1107 1155 1108
f 1108 1155 1109
f 1109 1155 1156
f 1109 1156 1112
f 1112 1156 1113
f 1113 1156 1157
f 1113 1157 1126
f 1113 1126 1114
f 1114 1126 1115
f 1115 1126 1120
f 1116 1124 1132
f 1116 1132 1117
f 1116 1120 1124
f 1117 1132 1118
f 1118 1123 1121
f 1118 1121 1119
f 1118 1132 1123
f 1120 1125 1124
f 1121 1123 1122
f 1126 1157 1158
f 1126 1158 1127
f 1127 1158 1159
f 1127 1159 1160
f 1127 1160 1129
f 1127 1129 1128
f 1129 1160 1161
f 1129 1161 1162
f 1129 1162 1163
f 1129 1163 1164
f 1129 1164 1165
f 1129 1165 1166
f 1129 1166 1130
f 1130 1166 1167
f 1130 1167 1133
f 1133 1167 1166
f 1133 1166 1134
f 1134 1166 1165
f 1134 1165 1135
f 1135 1165 1138
f 1135 1138 1136
f 1136 1138 1137
f 1138 1164 1139
f 1138 1165 1164
f 1139 1164 1168
f 1139 1168 1169
f 1139 1169 1141
f 1139 1141 1140
f 1141 1169 1170
f 1141 1170 1171
f 1141 1171 1172
f 1141 1172 1142
f 1142 1172 1173
f 1142 1173 1174
f 1142 1174 1143
f 1143 1174 1144
f 1146 1175 1147
f 1147 1175 1148
f 1148 1175 1176
f 1148 1176 1149
f 1149 1176 1177
f 1149 1177 1150
f 1150 1177 1151
f 1151 1177 1178
f 1151 1178 1152
f 1152 1178 1179
f 1152 1179 1154
f 1154 1179 1159
f 1154 1159 1158
f 1154 1158 1155
f 1155 1158 1157
f 1155 1157 1156
f 1159 1179 1180
f 1159 1180 1162
f 1159 1162 1161
f 1159 1161 1160
f 1162 1181 1168
f 1162 1168 1182
f 1162 1182 1163
f 1162 1180 1183
f 1162 1183 1181
f 1163 1182 1164
f 1164 1182 1168
f 1168 1181 1184
f 1168 1184 1169
f 1169 1184 1185
f 1169 1185 1170
f 1170 1185 1186
f 1170 1186 1171
f 1171 1186 1187
f 1171 1187 1172
f 1172 1187 1188
f 1172 1188 1173
f 1175 1189 1176
f 1176 1190 1177
f 1176 1189 1191
f 1176 1191 1190
f 1177 1190 1192
f 1177 1192 1193
f 1177 1193 1179
f 1177 1179 1194
f 1177 1194 1178
f 1178 1194 1179
f 1179 1193 1195
f 1179 1195 1183
f 1179 1183 1180
f 1181 1195 1192
f 1181 1192 1184
f 1181 1183 1195
f 1184 1192 1185
f 1185 1192 1191
f 1185 1191 1186
f 1186 1191 1196
f 1186 1196 1187
f 1187 1196 1188
f 1189 1196 1191
f 1190 1191 1192
f 1192 1195 1197
f 1192 1197 1193
f 1193 1197 1195

