# https://github.com/mikedh/trimesh
v -0.12863500 -0.01500000 0.12600000
v -0.12863500 -0.01500000 0.00200000
v -0.12863500 0.00000000 0.12600000
v -0.12863500 0.00000000 0.00200000
v -0.13063500 -0.01500000 0.12600000
v -0.13063500 0.00000000 0.12600000
v -0.13063500 -0.01500000 0.00200000
v -0.13063500 0.00000000 0.00200000
v 0.18236500 -0.01500000 0.12600000
v 0.18236500 0.00000000 0.12600000
v 0.18236500 -0.01500000 0.00200000
v 0.18236500 0.00000000 0.00200000
v 0.18436500 -0.01500000 0.00200000
v 0.18436500 0.00000000 0.00200000
v 0.18436500 -0.01500000 0.12800000
v 0.18436500 0.00000000 0.12800000
v -0.12863500 -0.01500000 0.12800000
v -0.12863500 0.00000000 0.12800000
v 0.18236500 -0.01500000 0.00000000
v 0.18236500 0.00000000 0.00000000
v -0.12863500 -0.01500000 0.00000000
v -0.12863500 0.00000000 0.00000000
v -0.12863500 -0.00200000 0.12600000
v 0.18236500 -0.00200000 0.12600000
v -0.12863500 -0.00200000 0.00300000
v -0.12863500 -0.00100000 0.00200000
v -0.12863500 -0.00115600 0.00201200
v -0.12863500 -0.00130900 0.00204900
v -0.12863500 -0.00145400 0.00210900
v -0.12863500 -0.00158800 0.00219100
v -0.12863500 -0.00170700 0.00229300
v -0.12863500 -0.00180900 0.00241200
v -0.12863500 -0.00189100 0.00254600
v -0.12863500 -0.00195100 0.00269100
v -0.12863500 -0.00198800 0.00284400
v 0.18236500 -0.00100000 0.00200000
v 0.18236500 -0.00200000 0.00300000
v 0.18236500 -0.00115600 0.00201200
v 0.18236500 -0.00158800 0.00219100
v 0.18236500 -0.00145400 0.00210900
v 0.18236500 -0.00130900 0.00204900
v 0.18236500 -0.00170700 0.00229300
v 0.18236500 -0.00198800 0.00284400
v 0.18236500 -0.00180900 0.00241200
v 0.18236500 -0.00195100 0.00269100
v 0.18236500 -0.00189100 0.00254600
f 1 2 3
f 3 2 4
f 5 1 6
f 6 1 3
f 7 5 8
f 8 5 6
f 2 7 4
f 4 7 8
f 5 7 1
f 1 7 2
f 8 6 4
f 4 6 3
f 9 1 10
f 10 1 3
f 11 9 12
f 12 9 10
f 13 11 14
f 14 11 12
f 15 13 16
f 16 13 14
f 17 15 18
f 18 15 16
f 1 17 3
f 3 17 18
f 11 13 9
f 9 13 15
f 9 15 1
f 1 15 17
f 3 18 10
f 10 18 16
f 10 16 12
f 12 16 14
f 11 19 12
f 12 19 20
f 2 11 4
f 4 11 12
f 21 2 22
f 22 2 4
f 19 21 20
f 20 21 22
f 2 21 11
f 11 21 19
f 22 4 20
f 20 4 12
f 23 24 3
f 3 24 10
f 23 3 25
f 25 3 4
f 25 4 26
f 26 27 25
f 25 27 28
f 25 28 29
f 29 30 25
f 25 30 31
f 25 31 32
f 33 34 32
f 32 34 35
f 32 35 25
f 26 4 36
f 36 4 12
f 10 24 12
f 12 24 37
f 12 37 36
f 36 37 38
f 39 40 37
f 37 40 41
f 37 41 38
f 39 37 42
f 42 37 43
f 42 43 44
f 44 43 45
f 44 45 46
f 37 24 25
f 25 24 23
f 12 4 10
f 10 4 3
f 37 25 35
f 37 35 43
f 43 35 34
f 43 34 45
f 45 34 33
f 45 33 46
f 46 33 32
f 46 32 44
f 44 32 31
f 44 31 42
f 42 31 30
f 42 30 39
f 39 30 29
f 39 29 40
f 40 29 28
f 40 28 41
f 41 28 27
f 41 27 38
f 38 27 26
f 38 26 36

