# Blender 4.3.0
# www.blender.org
o ARK_IKEA_KNAGGLIG.010
v -0.438254 -0.296890 0.016002
v -0.438254 -0.296890 0.148002
v -0.438254 0.314717 0.016002
v -0.438504 -0.296890 0.014252
v -0.438504 -0.297656 0.014361
v -0.438504 -0.298640 0.016002
v -0.438504 -0.298531 0.015236
v -0.438504 -0.298203 0.014690
v -0.439254 -0.299140 0.013752
v -0.439254 -0.299703 0.014690
v -0.440504 -0.299703 0.013190
v -0.439254 -0.298203 0.013190
v -0.440504 -0.298531 0.012486
v -0.439254 -0.296890 0.013002
v -0.440504 -0.296890 0.012252
v -0.439254 0.314717 0.013002
v -0.439441 0.316029 0.013002
v -0.438504 0.314717 0.014252
v -0.440504 0.314717 0.012252
v -0.442254 0.314717 0.012002
v -0.440613 0.315482 0.012252
v -0.440941 0.316029 0.012252
v -0.441488 0.316357 0.012252
v -0.440004 0.316967 0.013002
v -0.440941 0.317529 0.013002
v -0.439441 0.317529 0.014252
v -0.440613 0.318232 0.014252
v -0.438738 0.316357 0.014252
v -0.439254 0.317717 0.016002
v -0.438504 0.316467 0.016002
v -0.440504 0.318467 0.016002
v -0.439253 0.317717 0.148002
v -0.440503 0.318467 0.148002
v -0.439441 0.317717 0.149315
v -0.438504 0.316467 0.148002
v -0.438738 0.316467 0.149643
v -0.438253 0.314717 0.148002
v -0.438504 0.314717 0.149752
v -0.438504 -0.296890 0.149752
v -0.439253 0.314717 0.151002
v -0.439254 -0.296890 0.151002
v -0.440503 0.314717 0.151752
v -0.439441 0.316467 0.150815
v -0.440613 0.316467 0.151518
v -0.440003 0.317717 0.150252
v -0.440941 0.317717 0.150815
v -0.440941 0.318467 0.149315
v -0.440613 0.318467 0.148768
v -0.442254 0.318717 0.148002
v -0.441488 0.318467 0.149643
v -0.442254 0.318467 0.149752
v -0.442254 0.317717 0.151002
v -0.454254 0.318467 0.149752
v -0.455020 0.318467 0.149643
v -0.454254 0.317717 0.151002
v -0.454254 0.318717 0.148002
v -0.454254 0.318717 0.016002
v -0.455895 0.318467 0.148768
v -0.456004 0.318467 0.148002
v -0.455567 0.318467 0.149315
v -0.456504 0.317717 0.150252
v -0.457067 0.317717 0.149315
v -0.457067 0.316467 0.150815
v -0.455567 0.317717 0.150815
v -0.455895 0.316467 0.151518
v -0.456004 0.314717 0.151752
v -0.454254 0.316467 0.151752
v -0.442254 0.316467 0.151752
v -0.454254 0.314717 0.152002
v -0.442254 0.314717 0.152002
v -0.454255 -0.296890 0.152002
v -0.442254 -0.296890 0.152002
v -0.454255 -0.298640 0.151752
v -0.455020 -0.298531 0.151752
v -0.455895 -0.297656 0.151752
v -0.456005 -0.296890 0.151752
v -0.455567 -0.298203 0.151752
v -0.456505 -0.299140 0.151002
v -0.457067 -0.299703 0.149752
v -0.455567 -0.299703 0.151002
v -0.457067 -0.298203 0.151002
v -0.457770 -0.298531 0.149752
v -0.457255 -0.296890 0.151002
v -0.458005 -0.296890 0.149752
v -0.457254 0.314717 0.151002
v -0.458004 0.314717 0.149752
v -0.457770 0.316467 0.149643
v -0.458254 0.314717 0.148002
v -0.458254 0.314717 0.016002
v -0.458255 -0.296890 0.148002
v -0.458004 0.316467 0.148002
v -0.458004 0.316467 0.016002
v -0.457254 0.317717 0.148002
v -0.457254 0.317717 0.016002
v -0.456004 0.318467 0.016002
v -0.457067 0.317529 0.014252
v -0.456504 0.316967 0.013002
v -0.455895 0.318232 0.014252
v -0.457770 0.316357 0.014252
v -0.458004 0.314717 0.014252
v -0.457067 0.316029 0.013002
v -0.457254 0.314717 0.013002
v -0.455895 0.315482 0.012252
v -0.454254 0.314717 0.012002
v -0.456004 0.314717 0.012252
v -0.455567 0.316029 0.012252
v -0.455020 0.316357 0.012252
v -0.454254 0.316467 0.012252
v -0.455567 0.317529 0.013002
v -0.454254 0.317717 0.013002
v -0.442254 0.317717 0.013002
v -0.454254 0.318467 0.014252
v -0.442254 0.318467 0.014252
v -0.442254 0.318717 0.016002
v -0.442254 0.316467 0.012252
v -0.456005 -0.296890 0.012252
v -0.454255 -0.296890 0.012002
v -0.457255 -0.296890 0.013002
v -0.455895 -0.298640 0.012487
v -0.455567 -0.299890 0.013190
v -0.454255 -0.298640 0.012252
v -0.457067 -0.298640 0.013190
v -0.457770 -0.298640 0.014362
v -0.456505 -0.299890 0.013752
v -0.455567 -0.300640 0.014690
v -0.457067 -0.299890 0.014690
v -0.457255 -0.299890 0.016002
v -0.455895 -0.300640 0.015237
v -0.454255 -0.300890 0.016002
v -0.456005 -0.300640 0.016002
v -0.456005 -0.300640 0.148002
v -0.457254 -0.299890 0.148002
v -0.455895 -0.300406 0.149752
v -0.454255 -0.300890 0.148002
v -0.442254 -0.300890 0.148002
v -0.454255 -0.300640 0.149752
v -0.454255 -0.299890 0.151002
v -0.442254 -0.300640 0.149752
v -0.442254 -0.299890 0.151002
v -0.440504 -0.300406 0.149643
v -0.439254 -0.299703 0.149315
v -0.440504 -0.300640 0.148002
v -0.440504 -0.299703 0.150815
v -0.440504 -0.298531 0.151518
v -0.439254 -0.299140 0.150252
v -0.439254 -0.298203 0.150815
v -0.438504 -0.298203 0.149315
v -0.438504 -0.297656 0.149643
v -0.438504 -0.298531 0.148768
v -0.438504 -0.298640 0.148002
v -0.439254 -0.299890 0.148002
v -0.439254 -0.299890 0.016002
v -0.440504 -0.300640 0.016002
v -0.440504 -0.300406 0.014361
v -0.442254 -0.300890 0.016002
v -0.442254 -0.300640 0.014252
v -0.442254 -0.299890 0.013002
v -0.454255 -0.300640 0.014252
v -0.455020 -0.300640 0.014362
v -0.454255 -0.299890 0.013002
v -0.442254 -0.298640 0.012252
v -0.442254 -0.296890 0.012002
v -0.440504 -0.296890 0.151752
v -0.442254 -0.298640 0.151752
v -0.458005 -0.298640 0.148002
v -0.458005 -0.298640 0.016002
v -0.458255 -0.296890 0.016002
v -0.458005 -0.296890 0.014252
s 1
f 6 1 2 150
f 1 3 37 2
f 18 3 1 4
f 1 5 4
f 1 8 5
f 1 6 7
f 1 7 8
f 9 8 7 10
f 12 5 8 9
f 11 9 10 154
f 13 12 9 11
f 15 14 12 13
f 14 4 5 12
f 16 18 4 14
f 19 16 14 15
f 18 16 17 28
f 16 19 21 17
f 20 19 15 162
f 20 21 19
f 17 21 22 24
f 20 22 21
f 20 23 22
f 24 22 23 25
f 26 24 25 27
f 28 17 24 26
f 29 26 27 31
f 30 28 26 29
f 32 35 30 29
f 33 32 29 31
f 32 33 48 34
f 35 32 34 36
f 37 35 36 38
f 35 37 3 30
f 39 2 37 38
f 41 39 38 40
f 38 36 43 40
f 163 41 40 42
f 40 43 44 42
f 43 45 46 44
f 36 34 45 43
f 45 47 50 46
f 34 48 47 45
f 49 47 48
f 49 50 47
f 49 51 50
f 46 50 51 52
f 51 49 56 53
f 52 51 53 55
f 55 53 54 64
f 56 54 53
f 114 57 56 49
f 57 95 59 56
f 56 60 54
f 56 58 60
f 56 59 58
f 61 60 58 62
f 64 54 60 61
f 63 61 62 87
f 65 64 61 63
f 67 55 64 65
f 66 65 63 85
f 69 67 65 66
f 70 68 67 69
f 68 52 55 67
f 70 69 71 72
f 69 66 76 71
f 164 72 71 73
f 71 74 73
f 71 77 74
f 71 75 77
f 71 76 75
f 78 77 75 81
f 80 74 77 78
f 133 80 78 79
f 79 78 81 82
f 82 81 83 84
f 81 75 76 83
f 85 86 84 83
f 66 85 83 76
f 85 63 87 86
f 86 87 91 88
f 86 88 90 84
f 92 89 88 91
f 167 90 88 89
f 94 92 91 93
f 87 62 93 91
f 62 58 59 93
f 95 94 93 59
f 95 98 96 94
f 94 96 99 92
f 98 109 97 96
f 96 97 101 99
f 92 99 100 89
f 99 101 102 100
f 101 103 105 102
f 97 106 103 101
f 104 103 106
f 104 105 103
f 109 107 106 97
f 104 106 107
f 110 108 107 109
f 104 107 108
f 112 110 109 98
f 113 111 110 112
f 111 115 108 110
f 114 113 112 57
f 57 112 98 95
f 31 27 113 114
f 27 25 111 113
f 49 33 31 114
f 25 23 115 111
f 20 115 23
f 115 20 104 108
f 117 116 105 104
f 116 118 102 105
f 117 121 119 116
f 116 119 122 118
f 121 160 120 119
f 119 120 124 122
f 118 122 123 168
f 122 124 126 123
f 120 159 125 124
f 124 125 128 126
f 123 126 127 166
f 126 128 130 127
f 129 128 125
f 129 130 128
f 134 131 130 129
f 131 132 127 130
f 131 133 79 132
f 134 136 133 131
f 135 134 129 155
f 135 138 136 134
f 138 139 137 136
f 136 137 80 133
f 138 140 143 139
f 135 142 140 138
f 142 151 141 140
f 140 141 145 143
f 139 143 144 164
f 143 145 146 144
f 145 147 148 146
f 141 149 147 145
f 2 147 149
f 2 148 147
f 151 150 149 141
f 2 149 150
f 152 6 150 151
f 153 152 151 142
f 154 10 152 153
f 10 7 6 152
f 156 154 153 155
f 155 153 142 135
f 129 158 156 155
f 158 160 157 156
f 157 11 154 156
f 160 158 159 120
f 129 159 158
f 160 121 161 157
f 129 125 159
f 161 13 11 157
f 162 15 13 161
f 121 117 162 161
f 162 117 104 20
f 2 39 148
f 146 148 39 41
f 144 146 41 163
f 164 144 163 72
f 139 164 73 137
f 72 163 42 70
f 137 73 74 80
f 132 165 166 127
f 132 79 82 165
f 165 82 84 90
f 165 90 167 166
f 168 123 166 167
f 168 167 89 100
f 118 168 100 102
f 42 44 68 70
f 44 46 52 68
f 49 48 33
f 3 18 28 30
