# Blender 4.3.0
# www.blender.org
o FlisatChair
v -0.139490 0.500000 0.230426
v 0.140510 0.500000 0.230426
v -0.239490 0.504000 -0.149574
v 0.236510 0.500000 -0.149470
v -0.139490 0.556000 0.230426
v 0.240510 0.556000 0.130426
v -0.239490 0.556000 -0.149574
v 0.140510 0.560000 -0.249574
v -0.235490 0.500000 0.130320
v 0.240510 0.504000 0.130426
v -0.139384 0.500000 -0.245574
v 0.140510 0.504000 -0.249574
v -0.239490 0.556000 0.130426
v 0.140510 0.556000 0.230426
v -0.139490 0.560000 -0.249574
v 0.240510 0.556000 -0.149574
v -0.158490 0.500000 0.229426
v -0.175490 0.500000 0.226426
v -0.190490 0.500000 0.221426
v -0.203490 0.500000 0.214426
v -0.214490 0.500000 0.205426
v -0.223490 0.500000 0.194426
v -0.228594 0.500000 0.184948
v -0.235490 0.504000 0.166426
v -0.234508 0.500000 0.148970
v 0.239510 0.504000 0.149426
v 0.236510 0.504000 0.166426
v 0.231510 0.504000 0.181426
v 0.224510 0.500000 0.194426
v 0.215510 0.500000 0.205426
v 0.204510 0.500000 0.214426
v 0.191510 0.500000 0.221426
v 0.176510 0.500000 0.226426
v 0.159510 0.500000 0.229426
v -0.238490 0.504000 -0.168574
v -0.235490 0.504000 -0.185574
v -0.230490 0.504000 -0.200574
v -0.223490 0.504000 -0.213574
v -0.214490 0.504000 -0.224574
v -0.203490 0.504000 -0.233574
v -0.190490 0.504000 -0.240574
v -0.175490 0.504000 -0.245574
v -0.158036 0.500000 -0.244594
v 0.159510 0.504000 -0.248574
v 0.176510 0.504000 -0.245574
v 0.191510 0.504000 -0.240574
v 0.204510 0.504000 -0.233574
v 0.215510 0.504000 -0.224574
v 0.224510 0.504000 -0.213574
v 0.231510 0.504000 -0.200574
v 0.236510 0.504000 -0.185574
v 0.235528 0.500000 -0.168120
v -0.238490 0.556000 0.149426
v -0.235490 0.556000 0.166426
v -0.230490 0.556000 0.181426
v -0.223490 0.556000 0.194426
v -0.214490 0.556000 0.205426
v -0.203490 0.556000 0.214426
v -0.190490 0.556000 0.221426
v -0.175490 0.556000 0.226426
v -0.158036 0.560000 0.225444
v 0.159510 0.556000 0.229426
v 0.176510 0.556000 0.226426
v 0.191510 0.556000 0.221426
v 0.204510 0.556000 0.214426
v 0.215510 0.556000 0.205426
v 0.224510 0.556000 0.194426
v 0.231510 0.556000 0.181426
v 0.236510 0.556000 0.166426
v 0.235528 0.560000 0.148970
v -0.158490 0.560000 -0.248574
v -0.175490 0.560000 -0.245574
v -0.190490 0.560000 -0.240574
v -0.203490 0.560000 -0.233574
v -0.214490 0.560000 -0.224574
v -0.223490 0.560000 -0.213574
v -0.230490 0.556000 -0.200574
v -0.235490 0.556000 -0.185574
v -0.234508 0.560000 -0.168120
v 0.239510 0.556000 -0.168574
v 0.236510 0.556000 -0.185574
v 0.231510 0.556000 -0.200574
v 0.224510 0.560000 -0.213574
v 0.215510 0.560000 -0.224574
v 0.204510 0.560000 -0.233574
v 0.191510 0.560000 -0.240574
v 0.176510 0.560000 -0.245574
v 0.159510 0.560000 -0.248574
v -0.235490 0.500000 -0.149470
v 0.240510 0.504000 -0.149574
v -0.139384 0.560000 0.226426
v 0.236510 0.560000 0.130320
v -0.235490 0.560000 -0.149470
v -0.239490 0.504000 0.130426
v 0.236510 0.500000 0.130320
v -0.139490 0.504000 -0.249574
v 0.140406 0.500000 -0.245574
v -0.235490 0.560000 0.130320
v 0.140406 0.560000 0.226426
v 0.236510 0.560000 -0.149470
v -0.230490 0.504000 0.181426
v -0.231602 0.500000 0.165440
v -0.238490 0.504000 0.149426
v 0.235528 0.500000 0.148970
v 0.232622 0.500000 0.165440
v 0.229614 0.500000 0.184948
v -0.234508 0.500000 -0.168120
v -0.231602 0.500000 -0.184590
v -0.226804 0.500000 -0.198982
v -0.220150 0.500000 -0.211340
v -0.211648 0.500000 -0.221732
v -0.201254 0.500000 -0.230236
v -0.188898 0.500000 -0.236890
v -0.174504 0.500000 -0.241686
v -0.158490 0.504000 -0.248574
v 0.159056 0.500000 -0.244594
v 0.175524 0.500000 -0.241686
v 0.189918 0.500000 -0.236890
v 0.202276 0.500000 -0.230236
v 0.212668 0.500000 -0.221732
v 0.221170 0.500000 -0.211340
v 0.227824 0.500000 -0.198982
v 0.232622 0.500000 -0.184590
v 0.239510 0.504000 -0.168574
v -0.234508 0.560000 0.148970
v -0.231602 0.560000 0.165440
v -0.226804 0.560000 0.179832
v -0.220150 0.560000 0.192190
v -0.211648 0.560000 0.202582
v -0.201254 0.560000 0.211086
v -0.188898 0.560000 0.217740
v -0.174504 0.560000 0.222538
v -0.158490 0.556000 0.229426
v 0.159056 0.560000 0.225444
v 0.175524 0.560000 0.222538
v 0.189918 0.560000 0.217740
v 0.202276 0.560000 0.211086
v 0.212668 0.560000 0.202582
v 0.221170 0.560000 0.192190
v 0.227824 0.560000 0.179832
v 0.232622 0.560000 0.165440
v 0.239510 0.556000 0.149426
v -0.228594 0.560000 -0.204096
v -0.231602 0.560000 -0.184590
v -0.238490 0.556000 -0.168574
v 0.235528 0.560000 -0.168120
v 0.232622 0.560000 -0.184590
v 0.229614 0.560000 -0.204096
v -0.239046 0.501778 -0.149564
v -0.237712 0.500444 -0.149528
v 0.238732 0.500444 -0.149528
v 0.240066 0.501778 -0.149564
v -0.139478 0.558222 0.229980
v -0.139442 0.559556 0.228648
v 0.240066 0.558222 0.130414
v 0.238732 0.559556 0.130378
v -0.239046 0.558222 -0.149564
v -0.237712 0.559556 -0.149528
v -0.237712 0.500444 0.130378
v -0.239046 0.501778 0.130414
v 0.240066 0.501778 0.130414
v 0.238732 0.500444 0.130378
v -0.139442 0.500444 -0.247798
v -0.139478 0.501778 -0.249130
v 0.140498 0.501778 -0.249130
v 0.140464 0.500444 -0.247798
v -0.239046 0.558222 0.130414
v -0.237712 0.559556 0.130378
v 0.140498 0.558222 0.229980
v 0.140464 0.559556 0.228648
v 0.240066 0.558222 -0.149564
v 0.238732 0.559556 -0.149528
v -0.230278 0.501778 0.181816
v -0.229646 0.500444 0.182990
v -0.235058 0.501778 0.166316
v -0.233762 0.500444 0.165988
v -0.236720 0.500444 0.149224
v -0.238048 0.501778 0.149374
v 0.239068 0.501778 0.149374
v 0.237740 0.500444 0.149224
v 0.236078 0.501778 0.166316
v 0.234782 0.500444 0.165988
v 0.230668 0.500444 0.182990
v 0.231300 0.501778 0.181816
v -0.238048 0.501778 -0.168524
v -0.236720 0.500444 -0.168372
v -0.235058 0.501778 -0.185466
v -0.233762 0.500444 -0.185136
v -0.230080 0.501778 -0.200398
v -0.228852 0.500444 -0.199868
v -0.223118 0.501778 -0.213326
v -0.222006 0.500444 -0.212582
v -0.214174 0.501778 -0.224260
v -0.213226 0.500444 -0.223312
v -0.203242 0.501778 -0.233204
v -0.202496 0.500444 -0.232090
v -0.190312 0.501778 -0.240166
v -0.189782 0.500444 -0.238936
v -0.175380 0.501778 -0.245142
v -0.175052 0.500444 -0.243846
v -0.158288 0.500444 -0.246806
v -0.158440 0.501778 -0.248132
v 0.159460 0.501778 -0.248132
v 0.159308 0.500444 -0.246806
v 0.176400 0.501778 -0.245142
v 0.176072 0.500444 -0.243846
v 0.191334 0.501778 -0.240166
v 0.190802 0.500444 -0.238936
v 0.204262 0.501778 -0.233204
v 0.203516 0.500444 -0.232090
v 0.215194 0.501778 -0.224260
v 0.214246 0.500444 -0.223312
v 0.224140 0.501778 -0.213326
v 0.223026 0.500444 -0.212582
v 0.231100 0.501778 -0.200398
v 0.229872 0.500444 -0.199868
v 0.236078 0.501778 -0.185466
v 0.234782 0.500444 -0.185136
v 0.237740 0.500444 -0.168372
v 0.239068 0.501778 -0.168524
v -0.238048 0.558222 0.149374
v -0.236720 0.559556 0.149224
v -0.235058 0.558222 0.166316
v -0.233762 0.559556 0.165988
v -0.230080 0.558222 0.181248
v -0.228852 0.559556 0.180718
v -0.223118 0.558222 0.194176
v -0.222006 0.559556 0.193432
v -0.214174 0.558222 0.205110
v -0.213226 0.559556 0.204162
v -0.203242 0.558222 0.214054
v -0.202496 0.559556 0.212940
v -0.190312 0.558222 0.221016
v -0.189782 0.559556 0.219788
v -0.175380 0.558222 0.225994
v -0.175052 0.559556 0.224698
v -0.158288 0.559556 0.227656
v -0.158440 0.558222 0.228982
v 0.159460 0.558222 0.228982
v 0.159308 0.559556 0.227656
v 0.176400 0.558222 0.225994
v 0.176072 0.559556 0.224698
v 0.191334 0.558222 0.221016
v 0.190802 0.559556 0.219788
v 0.204262 0.558222 0.214054
v 0.203516 0.559556 0.212940
v 0.215194 0.558222 0.205110
v 0.214246 0.559556 0.204162
v 0.224140 0.558222 0.194176
v 0.223026 0.559556 0.193432
v 0.231100 0.558222 0.181248
v 0.229872 0.559556 0.180718
v 0.236078 0.558222 0.166316
v 0.234782 0.559556 0.165988
v 0.237740 0.559556 0.149224
v 0.239068 0.558222 0.149374
v -0.230278 0.558222 -0.200966
v -0.229646 0.559556 -0.202140
v -0.235058 0.558222 -0.185466
v -0.233762 0.559556 -0.185136
v -0.236720 0.559556 -0.168372
v -0.238048 0.558222 -0.168524
v 0.239068 0.558222 -0.168524
v 0.237740 0.559556 -0.168372
v 0.236078 0.558222 -0.185466
v 0.234782 0.559556 -0.185136
v 0.230668 0.559556 -0.202140
v 0.231300 0.558222 -0.200966
s 1
f 9 89 107 108
f 9 108 109 110
f 9 110 111 112
f 9 112 113 114
f 9 114 43 11
f 11 97 116 117
f 11 117 118 119
f 11 119 120 121
f 11 121 122 123
f 11 123 52 4
f 9 11 4 2
f 4 95 104 105
f 4 105 106 29
f 4 29 30 31
f 4 31 32 33
f 4 33 34 2
f 25 9 2 102
f 23 102 2 22
f 21 22 2 20
f 19 20 2 18
f 17 18 2 1
f 91 99 134 135
f 91 135 136 137
f 91 137 138 139
f 91 139 140 141
f 91 141 70 92
f 92 100 146 147
f 92 147 148 83
f 92 83 84 85
f 92 85 86 87
f 92 87 88 8
f 91 92 8 93
f 8 15 71 72
f 8 72 73 74
f 8 74 75 76
f 8 76 143 144
f 8 144 79 93
f 61 91 93 132
f 131 132 93 130
f 129 130 93 128
f 127 128 93 126
f 125 126 93 98
f 1 2 14 5
f 10 90 16 6
f 12 96 15 8
f 3 94 13 7
f 62 14 2 34
f 17 1 5 133
f 80 16 90 124
f 71 15 96 115
f 63 62 34 33
f 64 63 33 32
f 65 64 32 31
f 66 65 31 30
f 67 66 30 29
f 29 106 183 184
f 29 184 28 68
f 29 68 67
f 69 68 28 27
f 142 69 27 26
f 6 142 26 10
f 18 17 133 60
f 19 18 60 59
f 20 19 59 58
f 21 20 58 57
f 22 21 57 56
f 55 101 173 174
f 55 174 23 56
f 56 23 22
f 24 101 55 54
f 103 24 54 53
f 94 103 53 13
f 81 80 124 51
f 82 81 51 50
f 50 49 83 82
f 83 148 267 268
f 83 268 82
f 84 83 49 48
f 85 84 48 47
f 86 85 47 46
f 87 86 46 45
f 88 87 45 44
f 8 88 44 12
f 72 71 115 42
f 73 72 42 41
f 74 73 41 40
f 75 74 40 39
f 76 75 39 38
f 37 77 257 258
f 37 258 143 38
f 38 143 76
f 78 77 37 36
f 145 78 36 35
f 7 145 35 3
f 150 89 9 159
f 166 97 11 163
f 162 95 4 151
f 170 99 91 154
f 172 100 92 156
f 168 98 93 158
f 178 103 94 160
f 202 115 96 164
f 220 124 90 152
f 238 133 5 153
f 256 142 6 155
f 262 145 7 157
f 173 101 24 175
f 175 24 103 178
f 161 10 26 179
f 179 26 27 181
f 181 27 28 184
f 149 3 35 185
f 185 35 36 187
f 187 36 37 189
f 189 37 38 191
f 191 38 39 193
f 193 39 40 195
f 195 40 41 197
f 197 41 42 199
f 199 42 115 202
f 165 12 44 203
f 203 44 45 205
f 205 45 46 207
f 207 46 47 209
f 209 47 48 211
f 211 48 49 213
f 213 49 50 215
f 215 50 51 217
f 217 51 124 220
f 167 13 53 221
f 221 53 54 223
f 223 54 55 225
f 225 55 56 227
f 227 56 57 229
f 229 57 58 231
f 231 58 59 233
f 233 59 60 235
f 235 60 133 238
f 169 14 62 239
f 239 62 63 241
f 241 63 64 243
f 243 64 65 245
f 245 65 66 247
f 247 66 67 249
f 249 67 68 251
f 251 68 69 253
f 253 69 142 256
f 257 77 78 259
f 259 78 145 262
f 171 16 80 263
f 263 80 81 265
f 265 81 82 268
f 149 150 159 160
f 3 149 160 94
f 165 166 163 164
f 12 165 164 96
f 161 162 151 152
f 10 161 152 90
f 169 170 154 153
f 14 169 153 5
f 171 172 156 155
f 16 171 155 6
f 167 168 158 157
f 13 167 157 7
f 177 178 160 159
f 25 177 159 9
f 201 202 164 163
f 43 201 163 11
f 219 220 152 151
f 52 219 151 4
f 237 238 153 154
f 61 237 154 91
f 255 256 155 156
f 70 255 156 92
f 261 262 157 158
f 79 261 158 93
f 174 173 175 176
f 23 174 176 102
f 176 175 178 177
f 102 176 177 25
f 162 161 179 180
f 95 162 180 104
f 180 179 181 182
f 104 180 182 105
f 182 181 184 183
f 105 182 183 106
f 150 149 185 186
f 89 150 186 107
f 186 185 187 188
f 107 186 188 108
f 188 187 189 190
f 108 188 190 109
f 190 189 191 192
f 109 190 192 110
f 192 191 193 194
f 110 192 194 111
f 194 193 195 196
f 111 194 196 112
f 196 195 197 198
f 112 196 198 113
f 198 197 199 200
f 113 198 200 114
f 200 199 202 201
f 114 200 201 43
f 166 165 203 204
f 97 166 204 116
f 204 203 205 206
f 116 204 206 117
f 206 205 207 208
f 117 206 208 118
f 208 207 209 210
f 118 208 210 119
f 210 209 211 212
f 119 210 212 120
f 212 211 213 214
f 120 212 214 121
f 214 213 215 216
f 121 214 216 122
f 216 215 217 218
f 122 216 218 123
f 218 217 220 219
f 123 218 219 52
f 168 167 221 222
f 98 168 222 125
f 222 221 223 224
f 125 222 224 126
f 224 223 225 226
f 126 224 226 127
f 226 225 227 228
f 127 226 228 128
f 228 227 229 230
f 128 228 230 129
f 230 229 231 232
f 129 230 232 130
f 232 231 233 234
f 130 232 234 131
f 234 233 235 236
f 131 234 236 132
f 236 235 238 237
f 132 236 237 61
f 170 169 239 240
f 99 170 240 134
f 240 239 241 242
f 134 240 242 135
f 242 241 243 244
f 135 242 244 136
f 244 243 245 246
f 136 244 246 137
f 246 245 247 248
f 137 246 248 138
f 248 247 249 250
f 138 248 250 139
f 250 249 251 252
f 139 250 252 140
f 252 251 253 254
f 140 252 254 141
f 254 253 256 255
f 141 254 255 70
f 258 257 259 260
f 143 258 260 144
f 260 259 262 261
f 144 260 261 79
f 172 171 263 264
f 100 172 264 146
f 264 263 265 266
f 146 264 266 147
f 266 265 268 267
f 147 266 267 148
