# https://github.com/mikedh/trimesh
v 0.00454839 0.09886216 -0.04217119
v 0.00454839 0.10019731 -0.04216396
v 0.05082569 0.13901530 -0.04071038
v 0.05088136 0.13811243 -0.04071038
v 0.03962965 0.09886216 -0.04094180
v 0.00454839 0.09886216 0.03016052
v 0.00454839 0.15045714 -0.04136847
v 0.05165072 0.13811243 -0.04065976
v 0.05284523 0.14891405 -0.04018970
v 0.04204399 0.09886216 -0.04084055
v 0.04050023 0.09886216 -0.04090564
v 0.05130653 0.09886216 -0.04034156
v 0.00480653 0.09886216 0.03018944
v 0.00454839 0.10103999 0.03024006
v 0.00454839 0.15197834 -0.04100688
v 0.00501405 0.15190173 -0.04101411
v 0.05284523 0.15045714 -0.03994382
v 0.05438898 0.14891405 -0.03990766
v 0.05284523 0.13811243 -0.04041388
v 0.05284523 0.09886216 -0.04016077
v 0.05438898 0.15045714 -0.03984257
v 0.00500393 0.09886216 0.03020391
v 0.00454839 0.10262138 0.03027622
v 0.00655781 0.10262138 0.03042086
v 0.00525700 0.10262138 0.03033408
v 0.00454839 0.15231760 -0.04082609
v 0.05438898 0.15148039 -0.03940144
v 0.05534561 0.15045714 -0.03933635
v 0.05538104 0.14891405 -0.03936528
v 0.05519883 0.10445448 -0.03918449
v 0.05454083 0.10403315 -0.03953161
v 0.05434343 0.09886216 -0.03958946
v 0.05520894 0.15127793 -0.03919895
v 0.00744863 0.09886216 0.03036301
v 0.00454839 0.10949962 0.03029792
v 0.00897214 0.09886216 0.03044978
v 0.00964532 0.09886216 0.03048595
v 0.01427153 0.09886216 0.03071013
v 0.01118908 0.10416447 0.03065951
v 0.01735905 0.14891405 0.03144053
v 0.00454839 0.15271158 -0.04055128
v 0.02459193 0.15281008 -0.03920618
v 0.05284523 0.15215892 -0.03837454
v 0.05438898 0.15187437 -0.03837454
v 0.05565436 0.15045714 -0.03837454
v 0.05585682 0.14891405 -0.03837454
v 0.05534561 0.09886216 -0.03827329
v 0.05521907 0.09886216 -0.03871442
v 0.05511784 0.09886216 -0.03904708
v 0.05625668 0.14737096 -0.03682694
v 0.05528487 0.15135454 -0.03837454
v 0.00454839 0.10963095 0.03029792
v 0.01890281 0.09886216 0.03087645
v 0.02044656 0.10416447 0.03107894
v 0.02199032 0.10570756 0.03113680
v 0.03587402 0.09886216 0.03141884
v 0.04513150 0.10416447 0.03169364
v 0.04513150 0.10570756 0.03170810
v 0.03278650 0.14891405 0.03149839
v 0.01735905 0.15045714 0.03124528
v 0.01581529 0.14891405 0.03125250
v 0.00454839 0.12122053 0.03022560
v 0.02044656 0.15286480 -0.03930743
v 0.00454839 0.15397013 -0.03682694
v 0.04173524 0.15281555 -0.03768029
v 0.05130653 0.15268422 -0.03712345
v 0.05278955 0.15261856 -0.03678355
v 0.05320965 0.15267875 -0.03528659
v 0.05438898 0.15197287 -0.03682694
v 0.05569486 0.15045714 -0.03682694
v 0.05614026 0.14891405 -0.03682694
v 0.05546709 0.09886216 -0.03682694
v 0.05589731 0.11805227 -0.03682694
v 0.05595299 0.11805227 -0.03528659
v 0.05624655 0.14737096 -0.03528659
v 0.05526969 0.15134360 -0.03682694
v 0.01977338 0.09886216 0.03090538
v 0.04513150 0.09886216 0.03153454
v 0.04667526 0.09886216 0.03154178
v 0.04667526 0.10416447 0.03166471
v 0.04667526 0.10570756 0.03168641
v 0.03587402 0.14891405 0.03149115
v 0.03433026 0.14891405 0.03149839
v 0.03124274 0.15045714 0.03126697
v 0.04667526 0.15300160 0.03044978
v 0.04513150 0.15299612 0.03042809
v 0.01735905 0.15143662 0.03060165
v 0.00454839 0.15134906 0.02886604
v 0.00454839 0.15045714 0.02939395
v 0.00454839 0.14891405 0.02986401
v 0.00454839 0.15405221 -0.03647982
v 0.02816029 0.15364182 -0.03528659
v 0.05130653 0.15282102 -0.03634965
v 0.05223279 0.15280461 -0.03624118
v 0.05243525 0.15284291 -0.03528659
v 0.05248586 0.15285933 -0.03374623
v 0.05326027 0.15267328 -0.03374623
v 0.05321978 0.15260214 -0.02602998
v 0.05229858 0.15290857 -0.00750953
v 0.05586694 0.14891405 -0.02911070
v 0.05593274 0.14891405 -0.03065828
v 0.05610990 0.14891405 -0.03528659
v 0.05509253 0.14946672 -0.01522578
v 0.05591756 0.11805227 -0.03374623
v 0.05587200 0.11805227 -0.03219864
v 0.05525956 0.11805227 -0.01831373
v 0.05387271 0.09886216 -0.00750953
v 0.05591756 0.14737096 -0.02602998
v 0.05217205 0.15283744 -0.00134087
v 0.05211131 0.15279913 0.00125531
v 0.05068397 0.15290857 0.02951689
v 0.05375630 0.14989900 0.00636814
v 0.04821901 0.09886216 0.03135375
v 0.04821901 0.10416447 0.03147669
v 0.04821901 0.10570756 0.03149115
v 0.04821901 0.12731081 0.03144053
v 0.04667526 0.12731081 0.03151285
v 0.03741777 0.14891405 0.03146946
v 0.04667526 0.15045714 0.03112234
v 0.03741777 0.15045714 0.03123081
v 0.03278650 0.15045714 0.03125974
v 0.04667526 0.15200023 0.03077521
v 0.04821901 0.15296329 0.03043532
v 0.04513150 0.15359803 0.02951689
v 0.00454839 0.15296329 0.02737630
v 0.00454839 0.15426014 -0.03533721
v 0.05130653 0.15293046 -0.03528659
v 0.00454839 0.15467054 -0.03065828
v 0.02122603 0.15431486 -0.02834413
v 0.05130653 0.15299066 -0.03374623
v 0.05245043 0.15288669 -0.02602998
v 0.05130653 0.15315481 -0.00904989
v 0.05235426 0.15290857 -0.01368543
v 0.05231883 0.15291405 -0.00904989
v 0.04976278 0.15325330 0.02797653
v 0.04976278 0.15323689 0.02951689
v 0.05225810 0.15289763 -0.00596918
v 0.05530512 0.14869517 -0.01522578
v 0.05526462 0.14855290 -0.01368543
v 0.05505710 0.14932445 -0.01368543
v 0.05503686 0.14428479 -0.00596918
v 0.05468255 0.14119861 0.00019948
v 0.05351334 0.12113845 0.01408440
v 0.05438898 0.11805227 -0.00288846
v 0.05339693 0.11033683 0.00945609
v 0.05246055 0.09886216 0.01784489
v 0.05544684 0.14737096 -0.01522578
v 0.05059792 0.15283744 0.03034131
v 0.05233402 0.15018354 0.02797653
v 0.05192909 0.15095509 0.02797653
v 0.05239982 0.15026015 0.02642895
v 0.05342730 0.14904538 0.01717234
v 0.05407517 0.14891405 0.00636814
v 0.04905416 0.09886216 0.03100663
v 0.04968685 0.09886216 0.03073906
v 0.04976278 0.13194007 0.03098493
v 0.04976278 0.14891405 0.03088369
v 0.04821901 0.14891405 0.03125974
v 0.04667526 0.14891405 0.03131036
v 0.04821901 0.15045714 0.03107894
v 0.04821901 0.15200023 0.03073182
v 0.04976278 0.15291405 0.03039916
v 0.04667526 0.15353785 0.02951689
v 0.04667526 0.15366917 0.02797653
v 0.04513150 0.15372389 0.02797653
v 0.00810156 0.15390994 0.02488859
v 0.00964532 0.15360351 0.02642895
v 0.00454839 0.15347766 0.02642895
v 0.02146393 0.15433675 -0.02757034
v 0.00454839 0.15476357 -0.02911070
v 0.04358774 0.15389899 -0.00442882
v 0.04821901 0.15353237 0.02797653
v 0.04821901 0.15343388 0.02951689
v 0.05537598 0.14737096 -0.01368543
v 0.05365507 0.14827383 0.01717234
v 0.05362470 0.14817534 0.01801845
v 0.05482428 0.14737096 -0.00288846
v 0.05494069 0.14582787 -0.00442882
v 0.05451552 0.14582787 0.00328743
v 0.05469774 0.14274170 0.00019948
v 0.05378667 0.14737096 0.01563198
v 0.05367531 0.14723964 0.01732420
v 0.05361963 0.14663772 0.01793890
v 0.05297177 0.14737096 0.02642895
v 0.05214168 0.10725065 0.02631324
v 0.05192403 0.09886216 0.02642895
v 0.04976278 0.15045714 0.03081860
v 0.05064854 0.15200023 0.03038470
v 0.05078014 0.15045714 0.03044978
v 0.05235426 0.14891405 0.02912638
v 0.05222266 0.14996467 0.02898897
v 0.05272881 0.14891405 0.02797653
v 0.05286041 0.14891405 0.02642895
v 0.05012214 0.09886216 0.03044978
v 0.05071940 0.13194007 0.03045702
v 0.00964532 0.15390994 0.02488859
v 0.00454839 0.15475809 -0.02864787
v 0.00454839 0.15474167 -0.02757034
v 0.00454839 0.15440242 -0.00704670
v 0.00454839 0.15369106 0.02488859
v 0.00454839 0.15363634 0.02535142
v 0.02044656 0.15436412 -0.02757034
v 0.02153985 0.15434770 -0.02642772
v 0.05362470 0.14766645 0.01801845
v 0.05449527 0.14737096 0.00328743
v 0.05282498 0.14737096 0.02797653
v 0.05206576 0.10725065 0.02708703
v 0.05168615 0.09886216 0.02797653
v 0.05153936 0.14891405 0.02989294
v 0.05238969 0.14737096 0.02911915
v 0.05045620 0.09886216 0.03021837
v 0.05047138 0.09953521 0.03022560
v 0.05101296 0.09886216 0.02944457
v 0.00454839 0.04243601 0.03013327
v 0.00454839 0.04089360 0.03011852
v 0.00454839 0.04860568 0.03011115
v -0.04436894 0.02545958 0.02817173
v -0.00270586 0.03626142 0.02982355
v 0.00454839 0.02700199 0.02996366
v 0.00454839 0.04962081 0.03009640
v -0.04436894 0.02700199 0.02814961
v -0.02116185 0.01005512 0.02881328
v -0.04591101 0.02700199 0.02794313
v -0.04591101 0.01620508 0.02780302
v -0.04436894 0.01620508 0.02795788
v 0.00454839 0.02545958 0.02994154
v 0.00346786 0.04962081 0.03003740
v 0.00454839 0.04962081 -0.04318852
v -0.00786963 0.04962081 0.02938110
v -0.02430572 0.04962081 0.02838558
v -0.02483784 0.04962081 0.02834871
v -0.03665315 0.04706326 0.02763341
v -0.04591101 0.04962081 0.02677800
v -0.01967950 0.00891186 0.02879853
v -0.01196372 0.00694565 0.02900501
v 0.00192036 0.00540323 0.02944747
v 0.00454839 0.01003541 0.02966869
v -0.04127936 0.00430925 0.02730895
v -0.02893736 0.00386082 0.02793575
v -0.04644313 0.04962081 0.02668214
v -0.04745308 0.04860568 0.02651990
v -0.04745308 0.04706326 0.02658627
v -0.04709471 0.02854441 0.02746380
v -0.04707299 0.02700199 0.02746380
v -0.04700240 0.01620508 0.02741956
v -0.04692096 0.01466266 0.02736056
v -0.04745308 0.00694565 0.02649041
v -0.04591101 0.01466266 0.02765553
v -0.04219158 0.00449158 0.02723520
v 0.00454839 0.01003541 -0.04276819
v 0.00346786 0.01003541 -0.04285668
v 0.00192036 0.01003541 -0.04297467
v 0.00383709 0.04962081 -0.04324014
v 0.00180090 0.00371791 0.02910088
v 0.00346786 0.00386082 0.02917462
v 0.00454839 0.00494002 0.02938847
v 0.00454839 0.00540323 0.02946959
v -0.03973729 0.00414663 0.02737531
v -0.04275085 0.00392981 0.02697711
v -0.04127936 0.00354051 0.02704347
v -0.03047943 0.00270278 0.02748593
v -0.02893736 0.00268799 0.02754492
v -0.04745308 0.04962081 0.02646828
v -0.04788746 0.04962081 0.02628393
v -0.04868565 0.04962081 0.02594471
v -0.04871823 0.04860568 0.02598159
v -0.04872366 0.04706326 0.02605533
v -0.04872909 0.04552084 0.02609220
v -0.04786574 0.02854441 0.02687387
v -0.04876166 0.00848807 0.02601846
v -0.04865307 0.00694565 0.02595946
v -0.04745308 0.00540323 0.02625443
v -0.04591101 0.00540323 0.02662314
v -0.04436894 0.00386082 0.02666739
v 0.00454839 0.00540323 -0.04271657
v 0.00346786 0.04962081 -0.04326226
v 0.00454839 0.00432403 -0.04270182
v -0.01380443 0.00914840 -0.04379321
v -0.01287593 0.01003541 -0.04376371
v 0.00223529 0.00299352 0.02884278
v 0.00454839 0.00386082 0.02916725
v 0.00454839 0.00297381 0.02882803
v -0.04436894 0.00267814 0.02610695
v -0.04282144 0.00250073 0.02621756
v -0.03973729 0.00337296 0.02708035
v -0.04113276 0.00220506 0.02614382
v -0.03819522 0.00142646 0.02578986
v -0.03665315 0.00135254 0.02585623
v -0.03510565 0.00131312 0.02591522
v -0.03047943 0.00193403 0.02671901
v -0.04945668 0.04962081 0.02533266
v -0.04948926 0.04860568 0.02534741
v -0.04951641 0.04397843 0.02535478
v -0.04874537 0.04397843 0.02608483
v -0.04877795 0.01003541 0.02601846
v -0.04953270 0.00848807 0.02525891
v -0.04942410 0.00694565 0.02514830
v -0.04922863 0.00540323 0.02505981
v -0.04845760 0.00540323 0.02580461
v -0.04830013 0.00455565 0.02570137
v -0.04591101 0.00386082 0.02630605
v -0.04591101 0.00291467 0.02586360
v 0.00192036 0.04962081 -0.04333601
v -0.03047943 0.01312024 -0.04464861
v 0.00454839 0.00386082 -0.04268707
v -0.03665315 0.00540323 -0.04453063
v -0.01364696 0.01003541 -0.04380058
v -0.03356358 0.00131312 0.02596684
v 0.00454839 0.00227405 0.02797262
v -0.04282144 0.00173199 0.02522204
v -0.04154542 0.00161372 0.02553913
v -0.04051919 0.00154473 0.02566450
v -0.03973729 0.00150530 0.02570874
v -0.03819522 0.00097310 0.02489020
v -0.03665315 0.00086469 0.02489020
v -0.05002139 0.04962081 0.02456574
v -0.05005396 0.04397843 0.02458049
v -0.04954899 0.01003541 0.02525154
v -0.04989650 0.00848807 0.02448462
v -0.04984220 0.00540323 0.02428552
v -0.04980962 0.00455072 0.02420440
v -0.04671462 0.00307236 0.02567925
v -0.04731733 0.00396923 0.02584885
v -0.04879424 0.00403822 0.02469110
v -0.04774629 0.00353065 0.02517780
v -0.04591101 0.00244160 0.02489020
v -0.03819522 0.04706326 -0.04517218
v -0.00797822 0.04953211 -0.04378583
v -0.00788592 0.04962081 -0.04377846
v -0.03819522 0.00694565 -0.04465599
v -0.03202150 0.01312024 -0.04470023
v 0.00454839 0.00278655 -0.04241423
v -0.03202150 0.00386082 -0.04400706
v -0.03819522 0.00540323 -0.04456750
v -0.03510565 0.00085976 0.02489020
v 0.00454839 0.00161865 0.02696973
v -0.04424405 0.00191432 0.02476484
v -0.04282144 0.00141168 0.02445513
v -0.04127936 0.00069221 0.02334899
v -0.04113276 0.00131312 0.02497132
v -0.03973729 0.00112586 0.02489020
v -0.03973729 0.00049017 0.02334899
v -0.03819522 0.00036205 0.02334899
v -0.03665315 0.00034233 0.02334899
v -0.05016799 0.04962081 0.02413803
v -0.05055894 0.04552084 0.02334899
v -0.05060238 0.04397843 0.02334899
v -0.05060238 0.04243601 0.02334899
v -0.05091188 0.04089360 0.02180041
v -0.05010827 0.00848807 0.02334899
v -0.04998881 0.00540323 0.02334899
v -0.04825670 0.00307236 0.02415278
v -0.04987478 0.00430432 0.02334899
v -0.04967931 0.00325470 0.02222811
v -0.04933723 0.00353558 0.02334899
v -0.04731733 0.00291960 0.02475747
v -0.04745308 0.00236275 0.02334899
v -0.04631824 0.00162850 0.02230923
v -0.04127936 0.02237967 -0.04501733
v -0.03973729 0.04706326 -0.04520168
v -0.03973729 0.04860568 -0.04517956
v -0.03819522 0.04860568 -0.04512794
v -0.03920517 0.04962081 -0.04509107
v -0.03973729 0.00694565 -0.04469286
v -0.03973729 0.01620508 -0.04488459
v -0.04127936 0.02083726 -0.04500258
v 0.00454839 0.00201781 -0.04172843
v -0.01396732 0.00149052 -0.04228887
v -0.03123418 0.00308715 -0.04377846
v -0.03342783 0.00374748 -0.04400706
v -0.03819522 0.00398401 -0.04410292
v -0.04127936 0.00392981 -0.04409555
v -0.03973729 0.00540323 -0.04455275
v 0.00454839 0.00137226 0.02619544
v -0.04365220 0.00152995 0.02416753
v -0.04282144 0.00103223 0.02334899
v -0.04089384 -0.00010117 0.02130634
v -0.03973729 0.00009594 0.02231660
v -0.03973729 -0.00018001 0.02154231
v -0.03819522 0.00005159 0.02242722
v -0.03819522 -0.00018987 0.02165292
v -0.05042320 0.04962081 0.02334899
v -0.05088473 0.04397843 0.02180041
v -0.05092274 0.04243601 0.02180041
v -0.05088473 0.04243601 0.02025920
v -0.05086844 0.04089360 0.02025920
v -0.05014085 0.00848807 0.02025920
v -0.05032003 0.01466266 0.02180041
v -0.05017885 0.00848807 0.02180041
v -0.04983134 0.00422055 0.01562819
v -0.04979876 0.00305265 0.02025920
v -0.04979333 0.00305758 0.02120310
v -0.04856619 0.00287525 0.02334899
v -0.04909831 0.00268799 0.02174879
v -0.04740964 0.00182561 0.02180041
v -0.04686666 0.00147081 0.02128421
v -0.04192551 0.00003681 0.02087126
v -0.04282144 0.00055423 0.02180041
v -0.04127936 0.04706326 -0.04517956
v -0.04282144 0.02237967 -0.04495096
v -0.04127936 0.04860568 -0.04517218
v -0.04074724 0.04962081 -0.04512057
v -0.03973729 0.04962081 -0.04510582
v -0.04127936 0.00540323 -0.04451588
v -0.04127936 0.00694565 -0.04464124
v -0.04282144 0.02083726 -0.04493621
v 0.00454839 0.00156444 -0.04118274
v 0.00454839 0.00139197 -0.04095413
v -0.02893736 0.00084990 -0.04146295
v -0.02893736 0.00131805 -0.04248797
v -0.03202150 0.00308222 -0.04377846
v -0.03282512 0.00308715 -0.04377846
v -0.04282144 0.00315121 -0.04373421
v -0.04282144 0.00392488 -0.04407343
v 0.00454839 0.00100267 0.02489020
v -0.04135538 -0.00021452 0.02031819
v -0.03973729 -0.00051018 0.02025920
v -0.03819522 -0.00056439 0.02025920
v -0.05047749 0.04962081 0.02281068
v -0.05079785 0.04552084 0.02180041
v -0.05081957 0.04397843 0.02025920
v -0.04749652 0.04962081 -0.02602873
v -0.04776801 0.01620508 -0.03528337
v -0.04981505 0.00448173 0.01408698
v -0.04788746 0.01466266 -0.03220094
v -0.04978247 0.00306743 0.01909407
v -0.04899515 0.00248102 0.02025920
v -0.04794719 0.00186504 0.00020134
v -0.04774086 0.00174677 0.02025920
v -0.04287030 0.00015015 0.02031819
v -0.04696982 0.00142646 0.02025920
v -0.04591101 0.00104702 0.02025920
v -0.04436894 0.00054930 0.02025920
v -0.04238705 -0.00007161 0.01984624
v -0.04282144 0.04397843 -0.04495833
v -0.04282144 0.04860568 -0.04495096
v -0.04436894 0.02237967 -0.04448638
v -0.04127936 0.04962081 -0.04511319
v -0.04228931 0.04962081 -0.04500995
v -0.04282144 0.00540323 -0.04439789
v -0.04436894 0.02083726 -0.04444951
v -0.04452097 0.00551657 -0.04399231
v -0.04515083 0.00460985 -0.04378583
v 0.00454839 0.00118500 -0.04023146
v -0.02893736 0.00045075 -0.03991437
v -0.03819522 0.00165314 -0.04181692
v -0.04282144 0.00261407 -0.04295992
v -0.04436894 0.00425505 -0.04391857
v -0.04436894 0.00280133 -0.04269445
v -0.04436894 0.00348138 -0.04346874
v 0.00454839 0.00091890 0.02442563
v -0.03973729 -0.00057917 0.01871799
v -0.03819522 -0.00070237 0.01871799
v -0.03665315 -0.00071715 0.01871799
v 0.00454839 0.00075135 0.02334899
v -0.05054808 0.04962081 0.02180041
v -0.04733905 0.04962081 -0.02810088
v -0.04643227 0.04962081 -0.03991437
v -0.04759425 0.01774749 -0.03683195
v -0.04759968 0.01620508 -0.03683195
v -0.04765398 0.01466266 -0.03528337
v -0.04780602 0.01466266 -0.03374216
v -0.04802321 0.01157783 -0.02756994
v -0.04803950 0.01003541 -0.02602873
v -0.04800692 0.00848807 -0.02448752
v -0.04865850 0.00540323 -0.00751946
v -0.04856619 0.00540323 -0.00905329
v -0.04836529 0.00416142 -0.00905329
v -0.04833814 0.00271756 -0.00134724
v -0.04790375 0.00194881 -0.00134724
v -0.04818067 0.00321527 -0.00751946
v -0.04778430 0.00173199 0.01717678
v -0.04776258 0.00173199 0.01871799
v -0.04717073 0.00135747 0.00020134
v -0.04713272 0.00137719 -0.00134724
v -0.04527029 0.00144617 -0.02756994
v -0.04534087 0.00139197 -0.02602873
v -0.04591101 0.00096817 0.01871799
v -0.04436894 0.00043104 0.01871799
v -0.04312550 0.00010580 0.01871799
v -0.04235447 -0.00006668 0.01871799
v -0.04127936 -0.00030321 0.01871799
v -0.04436894 0.04397843 -0.04436840
v -0.04383681 0.04962081 -0.04451588
v -0.04282144 0.04962081 -0.04492884
v -0.04529743 0.02237967 -0.04394069
v -0.04529200 0.01312024 -0.04388170
v -0.04530829 0.01466266 -0.04388907
v -0.04521055 0.00301816 -0.04236261
v -0.04536802 0.00399880 -0.04292305
v -0.04620965 0.00540323 -0.04146295
v -0.04551463 0.00551657 -0.04315903
v -0.04588386 0.01466266 -0.04300417
v 0.00454839 0.00110615 -0.03991437
v -0.03930290 0.00150530 -0.04090252
v 0.00454839 0.00090904 -0.03883774
v -0.02893736 0.00020436 -0.03837316
v -0.03047943 0.00025856 -0.03837316
v -0.03978616 0.00169750 -0.04143346
v -0.04282144 0.00202273 -0.04146295
v -0.04436894 0.00242189 -0.04146295
v -0.04282144 0.00071192 -0.02756994
v -0.04127936 0.00052959 -0.02756994
v -0.03047943 0.00015508 -0.03683195
v -0.02893736 0.00013537 -0.03683195
v 0.00454839 0.00037190 -0.00442966
v 0.00454839 0.00053452 0.01516362
v 0.00454839 0.00053945 0.01562819
v 0.00454839 0.00055916 0.01671220
v 0.00454839 0.00058873 0.01825341
v 0.00454839 0.00059859 0.01871799
v 0.00454839 0.00063308 0.02025920
v 0.00454839 0.00065772 0.02133583
v 0.00454839 0.00071685 0.02288442
v 0.00454839 0.00027828 -0.03220094
v 0.00454839 0.00027335 -0.03112431
v 0.00454839 0.00027335 -0.03065974
v 0.00454839 0.00028813 -0.02649330
v 0.00454839 0.00031770 -0.01831530
v 0.00454839 0.00035712 -0.00751946
v 0.00454839 0.00036205 -0.00643545
v -0.04637797 0.04962081 -0.04044531
v -0.04626394 0.04962081 -0.04146295
v -0.04742050 0.01774749 -0.03837316
v -0.04790918 0.00848807 -0.02602873
v -0.04773543 0.00694565 -0.02602873
v -0.04782774 0.00694565 -0.02448752
v -0.04747479 0.00540323 -0.02602873
v -0.04612277 0.00386082 -0.03991437
v -0.04671462 0.00303787 -0.02717173
v -0.04559608 0.00274712 -0.03837316
v -0.04701326 0.00141168 0.01717678
v -0.04436894 0.00103223 -0.02602873
v -0.04549834 0.00282104 -0.03991437
v -0.04519427 0.00150530 -0.02877194
v -0.04436894 0.00112093 -0.02756994
v -0.04441780 0.04962081 -0.04424303
v -0.04519427 0.04397843 -0.04383008
v -0.04515083 0.04962081 -0.04378583
v -0.04492278 0.04962081 -0.04393332
v -0.04586757 0.01928991 -0.04300417
v -0.04533544 0.00291960 -0.04146295
v -0.04588386 0.00386082 -0.04146295
v -0.04712186 0.01774749 -0.03991437
v -0.04681236 0.01774749 -0.04106475
v -0.04654629 0.01774749 -0.04183904
v -0.04127936 0.00147081 -0.03953829
v 0.00454839 0.00083512 -0.03837316
v 0.00454839 0.00066757 -0.03729653
v 0.00454839 0.00059859 -0.03683195
v 0.00454839 0.00042611 -0.03528337
v 0.00454839 0.00032262 -0.03374216
v -0.04127936 0.00063308 -0.02911115
v -0.04127936 0.00119485 -0.03683195
v -0.04127936 0.00131805 -0.03837316
v -0.04214271 0.00152009 -0.03927281
v -0.04231103 0.00146096 -0.03837316
v -0.04254994 0.00138704 -0.03683195
v -0.04348930 0.00157923 -0.03568895
v -0.04511282 0.00155459 -0.02979695
v -0.04282144 0.00083019 -0.02911115
v 0.00454839 0.00028813 -0.03266552
v -0.04710557 0.01928991 -0.03991437
v -0.04560151 0.04962081 -0.04305578
v -0.04363591 0.00152995 -0.03466393
v -0.04282144 0.00108151 -0.03220094
v 0.04358679 0.04707120 0.03164781
v 0.04513415 0.04243988 0.03164046
v 0.04513415 0.04552418 0.03164046
v 0.04667652 0.09886216 0.03153761
v 0.04600267 0.09886216 0.03153761
v 0.02816311 0.09027087 0.03147149
v 0.03432759 0.01312442 0.03139069
v 0.04667652 0.04243988 0.03155230
v 0.04667652 0.04398689 0.03155965
v 0.04513415 0.01775574 0.03147884
v 0.04667652 0.03472426 0.03151557
v 0.04667652 0.08100824 0.03155965
v 0.04821889 0.09886216 0.03135395
v 0.04513415 0.09886216 0.03153027
v 0.03587495 0.09886216 0.03141272
v 0.03278522 0.09886216 0.03131722
v 0.01977242 0.09886216 0.03090582
v 0.01890390 0.09886216 0.03087644
v 0.01427180 0.09886216 0.03070747
v 0.01272944 0.08872386 0.03094256
v 0.02353101 0.07792394 0.03133192
v 0.01581417 0.02855566 0.03064136
v 0.02507338 0.01157741 0.03086175
v 0.02662074 0.01157741 0.03094256
v 0.02816311 0.01157741 0.03101602
v 0.03278522 0.01157741 0.03119968
v 0.04358679 0.00694609 0.03097929
v 0.04513415 0.00694609 0.03100868
v 0.03587495 0.01312442 0.03139069
v 0.04513415 0.01620872 0.03146415
v 0.00964470 0.08718657 0.03079563
v 0.04821889 0.04552418 0.03130987
v 0.04821889 0.04707120 0.03131722
v 0.04821889 0.08255525 0.03136130
v 0.04667652 0.02084004 0.03139803
v 0.04821889 0.03318698 0.03124376
v 0.04968639 0.09886216 0.03073686
v 0.00964470 0.09886216 0.03048709
v 0.00964470 0.08872386 0.03079563
v 0.00964470 0.03935558 0.03039158
v 0.00454839 0.04090259 0.03011976
v 0.00501260 0.02547136 0.02998019
v 0.00810233 0.08718657 0.03072217
v 0.00454839 0.01004013 0.02966429
v 0.00454839 0.00540881 0.02946594
v 0.02662074 0.01004013 0.03081032
v 0.03172703 0.00452341 0.03031812
v 0.03278522 0.00445530 0.03034016
v 0.04050205 0.00540881 0.03067074
v 0.04204442 0.00540881 0.03070013
v 0.04358679 0.00540881 0.03070013
v 0.04513415 0.00540881 0.03068544
v 0.04667652 0.00540881 0.03066340
v 0.04667652 0.00694609 0.03094256
v 0.04667652 0.01620872 0.03131722
v 0.04667652 0.01775574 0.03136864
v 0.04667652 0.01929303 0.03138334
v 0.04949172 0.03163996 0.03067809
v 0.04952167 0.04552418 0.03071482
v 0.04969637 0.08410227 0.03072217
v 0.04821889 0.02237733 0.03110418
v 0.05014560 0.01004013 0.03011976
v 0.05046007 0.09886216 0.03021527
v 0.05046506 0.08410227 0.03022262
v 0.00897085 0.09886216 0.03045035
v 0.00548679 0.09756811 0.03032546
v 0.00810233 0.08872386 0.03071482
v 0.00454839 0.02547136 0.02994345
v 0.00655996 0.08718657 0.03061197
v 0.00501260 0.08718657 0.03047239
v 0.00454839 0.08718657 0.03042097
v 0.00454839 0.00494178 0.02938513
v 0.01118707 0.00386179 0.02943656
v 0.01118707 0.00268450 0.02903985
v 0.03278522 0.00368666 0.03002426
v 0.03895969 0.00434827 0.03040627
v 0.04050205 0.00430935 0.03040627
v 0.04667652 0.00437747 0.03038423
v 0.04821889 0.00444557 0.03036220
v 0.04910238 0.00456233 0.03031077
v 0.04821889 0.00694609 0.03068544
v 0.04821889 0.00849311 0.03077359
v 0.04936693 0.00849311 0.03042832
v 0.04995093 0.00540881 0.03013446
v 0.05013562 0.00849311 0.03009038
v 0.05112892 0.00540881 0.02936309
v 0.05101412 0.09886216 0.02944390
v 0.00745344 0.09886216 0.03036220
v 0.00500262 0.09886216 0.03020058
v 0.00480795 0.09886216 0.03018588
v 0.00454839 0.09886216 0.03016385
v 0.00454839 0.09643948 0.03025935
v 0.00655996 0.08872386 0.03060463
v 0.00454839 0.08872386 0.03041362
v 0.00454839 0.00386179 0.02916474
v 0.00964470 0.00271369 0.02898108
v 0.02406011 0.00150722 0.02878273
v 0.02507338 0.00148775 0.02880477
v 0.02507338 0.00231477 0.02921616
v 0.04050205 0.00354072 0.03003161
v 0.04204442 0.00356017 0.03004630
v 0.04667652 0.00360882 0.02998753
v 0.04821889 0.00367693 0.02996549
v 0.04967640 0.00397855 0.02980387
v 0.05084940 0.00386179 0.02909128
v 0.05183772 0.00540881 0.02797464
v 0.05168797 0.09798649 0.02797464
v 0.05168298 0.09886216 0.02797464
v 0.00454839 0.09886216 -0.04216827
v 0.00454839 0.00297639 0.02882681
v 0.00964470 0.00194505 0.02819502
v 0.00810233 0.00147802 0.02735754
v 0.02198864 0.00116667 0.02788648
v 0.02354099 0.00120560 0.02809952
v 0.02607167 0.00149749 0.02879008
v 0.02507338 0.00110830 0.02797464
v 0.04821889 0.00277207 0.02919413
v 0.04976126 0.00293748 0.02897374
v 0.05055990 0.00307369 0.02878273
v 0.05137351 0.00386179 0.02797464
v 0.05159812 0.00386179 0.02643190
v 0.05208729 0.00457206 0.02145842
v 0.05423363 0.00386179 -0.01677196
v 0.05243669 0.00849311 0.02180370
v 0.05233686 0.00849311 0.02334644
v 0.05217713 0.03627128 0.02488917
v 0.05208729 0.03627128 0.02570461
v 0.05195751 0.09643948 0.02643190
v 0.05194753 0.09798649 0.02643190
v 0.05192257 0.09886216 0.02643190
v 0.00568645 0.09886216 -0.04213154
v 0.00454839 0.08919088 -0.04271925
v 0.00454839 0.00227586 0.02797464
v 0.00810233 0.00204235 0.02812891
v 0.00712899 0.00151694 0.02726938
v 0.00810233 0.00118613 0.02643190
v 0.02198864 0.00065101 0.02643190
v 0.04667652 0.00162397 0.02691676
v 0.04667652 0.00207153 0.02797464
v 0.02353101 0.00063154 0.02643190
v 0.02507338 0.00064127 0.02643190
v 0.02662074 0.00069965 0.02643190
v 0.04821889 0.00216883 0.02797464
v 0.04976126 0.00255801 0.02797464
v 0.04976126 0.00218829 0.02643190
v 0.05071962 0.00294721 0.02797464
v 0.05090431 0.00277207 0.02643190
v 0.05096421 0.00264559 0.02488917
v 0.05241174 0.00255801 0.00636903
v 0.05193755 0.00363801 0.02026097
v 0.05212722 0.00440665 0.02026097
v 0.05430850 0.00386179 -0.01831469
v 0.05457305 0.00540881 -0.02294289
v 0.05296579 0.01004013 0.01254731
v 0.05294083 0.00386179 0.00482630
v 0.05379438 0.00286936 -0.01522923
v 0.05391417 0.00270396 -0.01831469
v 0.05288094 0.01004013 0.01409004
v 0.05339506 0.03163996 0.00636903
v 0.05362467 0.04943550 0.00264443
v 0.05211724 0.09737352 0.02450716
v 0.05246165 0.09886216 0.01784402
v 0.05217713 0.09768487 0.02334644
v 0.03963354 0.09886216 -0.04094143
v 0.00810233 0.08718657 -0.04271191
v 0.00454839 0.08764387 -0.04280006
v 0.00454839 0.00162397 0.02696818
v 0.00501260 0.00160451 0.02702695
v 0.00501260 0.00135154 0.02625559
v 0.00501260 0.00095263 0.02488917
v 0.00655996 0.00086506 0.02488917
v 0.02353101 0.00040776 0.02488917
v 0.02507338 0.00036885 0.02488917
v 0.04667652 0.00142938 0.02614539
v 0.04769478 0.00147802 0.02597643
v 0.02662074 0.00039803 0.02488917
v 0.04821390 0.00173100 0.02646863
v 0.04910238 0.00150722 0.02427942
v 0.05007572 0.00174073 0.02334644
v 0.05099914 0.00251910 0.02334644
v 0.05181775 0.00177964 0.00636903
v 0.05374946 0.00143911 -0.03219928
v 0.05440833 0.00231477 -0.03219928
v 0.05493243 0.00386179 -0.03219928
v 0.05471281 0.00540881 -0.02602835
v 0.05518201 0.06316405 -0.02972357
v 0.05519698 0.07079210 -0.02948113
v 0.05362467 0.04925064 0.00264443
v 0.05517202 0.09420165 -0.02825429
v 0.05243669 0.09798649 0.01871824
v 0.05387424 0.09886216 -0.00750822
v 0.04050205 0.09886216 -0.04090470
v 0.04050205 0.09798649 -0.04095613
v 0.04050205 0.09643948 -0.04104429
v 0.01581417 0.06866131 -0.04334369
v 0.00454839 0.07792394 -0.04323350
v 0.00454839 0.00137100 0.02619682
v 0.00454839 0.00100127 0.02488917
v 0.00454839 0.00092343 0.02442635
v 0.00454839 0.00075803 0.02334644
v 0.00501260 0.00071911 0.02334644
v 0.00655996 0.00067046 0.02334644
v 0.02507338 0.00018398 0.02334644
v 0.02662074 0.00015479 0.02334644
v 0.04667652 0.00126397 0.02488917
v 0.02816311 0.00022289 0.02334644
v 0.04821390 0.00141964 0.02483040
v 0.04821889 0.00128343 0.02334644
v 0.04930703 0.00145857 0.02334644
v 0.05085439 0.00131262 0.01254731
v 0.05075456 0.00138073 0.01409004
v 0.05091928 0.00127370 0.01099723
v 0.05369454 0.00148775 -0.03374202
v 0.05284599 0.00104019 -0.03219928
v 0.05284599 0.00104992 -0.03374202
v 0.05431349 0.00231477 -0.03374202
v 0.05488751 0.00386179 -0.03528475
v 0.05493243 0.00386179 -0.03374202
v 0.05477770 0.00540881 -0.02757109
v 0.05548649 0.07792394 -0.03682748
v 0.05546652 0.07792394 -0.03528475
v 0.05550146 0.09335517 -0.03528475
v 0.05490249 0.07792394 -0.02294289
v 0.05517202 0.09388058 -0.02825429
v 0.05546652 0.09886216 -0.03682748
v 0.04204442 0.09886216 -0.04083859
v 0.04204442 0.09798649 -0.04089001
v 0.04204442 0.09643948 -0.04097082
v 0.00454839 0.06249270 -0.04340246
v 0.00454839 0.07530666 -0.04327023
v 0.04204442 0.09490219 -0.04102225
v 0.05130363 0.09886216 -0.04033904
v 0.04513415 0.08100824 -0.04109571
v 0.04667652 0.01775574 -0.04184503
v 0.04513415 0.01929303 -0.04192585
v 0.04513415 0.01775574 -0.04191850
v 0.02044627 0.00694609 -0.04283679
v 0.00454839 0.00071911 0.02288361
v 0.00501260 0.00066074 0.02180370
v 0.02507338 0.00012560 0.02180370
v 0.02662074 0.00008668 0.02180370
v 0.02816311 0.00010614 0.02180370
v 0.04667652 0.00117640 0.02334644
v 0.04821889 0.00120560 0.02180370
v 0.04976126 0.00097208 0.01254731
v 0.04976126 0.00089425 0.01099723
v 0.05359472 0.00156559 -0.03565941
v 0.05130363 0.00051479 -0.03374202
v 0.05130363 0.00050506 -0.03528475
v 0.05298576 0.00122505 -0.03520394
v 0.05407889 0.00217856 -0.03520394
v 0.05404395 0.00249964 -0.03682748
v 0.05469784 0.00386179 -0.03682748
v 0.05484259 0.00540881 -0.03682748
v 0.05529681 0.07792394 -0.03796616
v 0.05530679 0.07947095 -0.03798820
v 0.05534673 0.09798649 -0.03826737
v 0.05554140 0.09335517 -0.03682748
v 0.05534673 0.09886216 -0.03827471
v 0.00454839 0.05369709 -0.04329961
v 0.05284599 0.09886216 -0.04016272
v 0.05130363 0.09643948 -0.04038311
v 0.05130363 0.09335517 -0.04043454
v 0.05130363 0.09181789 -0.04045658
v 0.04821889 0.01775574 -0.04173484
v 0.04821889 0.01620872 -0.04172749
v 0.04922218 0.00585637 -0.04072105
v 0.04854833 0.00482503 -0.04066962
v 0.02044627 0.00540881 -0.04266048
v 0.01890390 0.00540881 -0.04269721
v 0.00454839 0.00386179 -0.04268252
v 0.00454839 0.00432882 -0.04270456
v 0.00454839 0.00066074 0.02134088
v 0.00501260 0.00055371 0.01717550
v 0.00501260 0.00062181 0.02026097
v 0.01118707 0.00019371 -0.01367915
v 0.01272944 0.00015479 -0.01522923
v 0.04204442 -0.00050683 -0.03219928
v 0.04358679 -0.00053601 -0.03219928
v 0.00454839 0.00053425 0.01516995
v 0.00454839 0.00038830 -0.00288736
v 0.00501260 0.00036885 -0.00443010
v 0.00501260 0.00035912 -0.00596548
v 0.00501260 0.00034939 -0.00750822
v 0.04667652 0.00062181 0.01099723
v 0.04667652 0.00068019 0.01254731
v 0.04667652 0.00073857 0.01409004
v 0.04667652 0.00080668 0.01563277
v 0.04667652 0.00102073 0.02026097
v 0.04821889 0.00077749 0.01254731
v 0.04821889 0.00070938 0.01099723
v 0.04836863 -0.00017601 -0.03513782
v 0.04923216 -0.00006899 -0.03554922
v 0.05341503 0.00173100 -0.03682748
v 0.05264633 0.00124451 -0.03682748
v 0.04923216 -0.00006899 -0.03634997
v 0.05130363 0.00065101 -0.03682748
v 0.05382932 0.00280125 -0.03793678
v 0.05401899 0.00393963 -0.03842164
v 0.05426857 0.00540881 -0.03837021
v 0.05462795 0.03472426 -0.03837021
v 0.05511213 0.09798649 -0.03903873
v 0.05511712 0.09886216 -0.03904608
v 0.05434344 0.09886216 -0.03958971
v 0.05284599 0.09335517 -0.04022149
v 0.04976126 0.01775574 -0.04149241
v 0.04976126 0.01620872 -0.04146303
v 0.04974628 0.00536989 -0.04062554
v 0.04751509 0.00462071 -0.04069166
v 0.04976126 0.00386179 -0.04034638
v 0.04810409 0.00400773 -0.04050065
v 0.02044627 0.00421206 -0.04238867
v 0.01890390 0.00404665 -0.04241071
v 0.00501260 0.00386179 -0.04267517
v 0.00655996 0.00281098 -0.04239601
v 0.00454839 0.00312234 -0.04249886
v 0.00454839 0.00060236 0.01871824
v 0.00454839 0.00059263 0.01825542
v 0.00454839 0.00035912 -0.00750822
v 0.00454839 0.00033965 -0.01259923
v 0.00454839 0.00031047 -0.02032024
v 0.01118707 0.00016452 -0.02140016
v 0.01913850 -0.00001061 -0.02294289
v 0.04358679 -0.00050683 -0.03374202
v 0.02198864 -0.00008845 -0.02757109
v 0.01581417 0.00003803 -0.02911382
v 0.00964470 0.00016452 -0.03065655
v 0.00454839 0.00028127 -0.03219928
v 0.04513415 -0.00043872 -0.03528475
v 0.04513415 -0.00045818 -0.03374202
v 0.04513415 -0.00031223 -0.02602835
v 0.00454839 0.00036885 -0.00596548
v 0.04667652 -0.00012736 -0.02294289
v 0.04667652 -0.00038034 -0.03528475
v 0.05234685 0.00138073 -0.03782658
v 0.04667652 -0.00026359 -0.03682748
v 0.04811906 -0.00012736 -0.03684952
v 0.04856829 0.00006723 -0.03737846
v 0.04975127 0.00018398 -0.03684952
v 0.05130363 0.00114722 -0.03811309
v 0.05286596 0.00233424 -0.03839226
v 0.05339006 0.00347260 -0.03896527
v 0.05366459 0.00450395 -0.03917831
v 0.05368956 0.00540881 -0.03920035
v 0.05370453 0.00694609 -0.03921504
v 0.05394412 0.03472426 -0.03942074
v 0.05420368 0.07329262 -0.03959705
v 0.05434344 0.09798649 -0.03958971
v 0.05284599 0.09181789 -0.04022884
v 0.05208729 0.01718169 -0.04069901
v 0.05143840 0.01771682 -0.04094143
v 0.05208729 0.01690926 -0.04069901
v 0.05137850 0.01632548 -0.04091940
v 0.05130363 0.00540881 -0.04033169
v 0.04147539 0.00302504 -0.04071370
v 0.03432759 0.00259694 -0.04109571
v 0.05130363 0.00386179 -0.04004518
v 0.04980119 0.00220774 -0.03957501
v 0.04821889 0.00231477 -0.03983948
v 0.03278522 0.00248991 -0.04115448
v 0.01890390 0.00327801 -0.04215358
v 0.00810233 0.00209099 -0.04189646
v 0.00454839 0.00279153 -0.04241071
v 0.00454839 0.00029101 -0.02602835
v 0.00501260 0.00029101 -0.02294289
v 0.01807032 -0.00000088 -0.02644709
v 0.04358679 -0.00041926 -0.03528475
v 0.00454839 0.00029101 -0.03266210
v 0.00454839 0.00032020 -0.03374202
v 0.00454839 0.00028127 -0.02911382
v 0.00655996 0.00023263 -0.03065655
v 0.04513415 -0.00034142 -0.03682748
v 0.05130363 0.00183802 -0.03888446
v 0.05236182 0.00289856 -0.03928116
v 0.04513415 -0.00013710 -0.03783393
v 0.04667652 -0.00006899 -0.03771639
v 0.04754005 -0.00001061 -0.03762823
v 0.04980119 0.00100127 -0.03849510
v 0.05034526 0.00162397 -0.03909016
v 0.05286596 0.00393963 -0.03943544
v 0.05284599 0.00540881 -0.03967787
v 0.04821889 0.00136127 -0.03929586
v 0.05130363 0.00261639 -0.03945747
v 0.04931701 0.00144884 -0.03922239
v 0.04204442 0.00109857 -0.03953828
v 0.01581417 0.00129316 -0.04096347
v 0.00454839 0.00202288 -0.04172749
v 0.00964470 0.00122505 -0.04114713
v 0.04358679 -0.00031223 -0.03682748
v 0.00501260 0.00040776 -0.03528475
v 0.00454839 0.00042722 -0.03528475
v 0.04358679 -0.00012736 -0.03784862
v 0.00964470 0.00075803 -0.03991295
v 0.04358679 0.00039803 -0.03861999
v 0.04513415 0.00050506 -0.03860530
v 0.04667652 0.00054398 -0.03848776
v 0.04811906 0.00050506 -0.03823063
v 0.00810233 0.00127370 -0.04112509
v 0.00454839 0.00156559 -0.04118387
v 0.00810233 0.00058289 -0.03837021
v 0.00454839 0.00060236 -0.03682748
v 0.00501260 0.00056344 -0.03682748
v 0.00810233 0.00082613 -0.03991295
v 0.00454839 0.00140019 -0.04095613
v 0.00655996 0.00066074 -0.03837021
v 0.00454839 0.00067046 -0.03729030
v 0.00454839 0.00110830 -0.03991295
v 0.00454839 0.00118613 -0.04023619
v 0.00454839 0.00083587 -0.03837021
v 0.00454839 0.00091371 -0.03883303
v 0.00454300 0.08719150 0.03042257
v 0.00454300 0.08873974 0.03041518
v 0.00406819 0.10962037 0.03029686
v -0.00888117 0.10724640 0.02963134
v -0.00733803 0.07330893 0.02976445
v 0.00037762 0.07484685 0.03019333
v 0.00454300 0.05479195 0.03019333
v 0.00454300 0.10962037 0.03029686
v 0.00454300 0.12121155 0.03022292
v 0.00346388 0.12112898 0.03018594
v -0.03202274 0.09491207 0.02814503
v -0.02585021 0.08101917 0.02856652
v -0.01196743 0.06558836 0.02949085
v -0.01968308 0.12730131 0.02889189
v -0.03973839 0.12730131 0.02759043
v -0.00888117 0.06713660 0.02966832
v -0.00733803 0.06713660 0.02974966
v 0.00454300 0.04962081 0.03009721
v 0.00454300 0.14891477 0.02986797
v -0.01505369 0.14891477 0.02890667
v -0.03973839 0.07948125 0.02764959
v -0.01505369 0.06405044 0.02927640
v -0.02430708 0.05170578 0.02847778
v -0.00786680 0.04962081 0.02938732
v 0.00346388 0.04962081 0.03003805
v -0.01659682 0.14999854 0.02881054
v -0.02893648 0.14891477 0.02810066
v -0.03973839 0.14891477 0.02743514
v -0.04370413 0.13771582 0.02722070
v 0.00454300 0.04962081 -0.04319084
v 0.00454300 0.15045269 0.02939472
v -0.01659682 0.15077266 0.02858131
v -0.04128153 0.07948125 0.02750909
v -0.03973839 0.07793301 0.02764219
v -0.04591092 0.04962081 0.02677702
v -0.02585021 0.04962081 0.02827074
v -0.02483585 0.04962081 0.02834468
v -0.02430708 0.04962081 0.02838165
v -0.03973839 0.15007079 0.02734641
v -0.04128153 0.14988500 0.02727246
v -0.04213942 0.14973018 0.02722070
v -0.04591092 0.14891477 0.02678442
v -0.04428146 0.13818029 0.02713936
v -0.04591092 0.13810804 0.02691752
v -0.04591092 0.08873974 0.02701365
v -0.04463217 0.08873974 0.02715415
v 0.00383618 0.04962081 -0.04324260
v 0.00346388 0.05015754 -0.04330176
v 0.00454300 0.05015754 -0.04322042
v 0.00454300 0.15134035 0.02886230
v 0.00346388 0.15134035 0.02885491
v -0.01659682 0.15159839 0.02781227
v -0.04282465 0.15272345 0.02560867
v -0.03467196 0.15124745 0.02722809
v -0.04591092 0.07176068 0.02692492
v -0.04591092 0.05941603 0.02685836
v -0.04643969 0.04962081 0.02668089
v -0.03570251 0.15118552 0.02718373
v -0.03973839 0.15084491 0.02702104
v -0.04745405 0.15171193 0.02603017
v -0.04591092 0.15045269 0.02665871
v -0.04745405 0.15045269 0.02647384
v -0.04745405 0.14891477 0.02650342
v -0.04591092 0.13965628 0.02690273
v -0.04745405 0.13965628 0.02659955
v -0.04745405 0.08873974 0.02664392
v -0.04745405 0.05787811 0.02653300
v 0.00346388 0.04962081 -0.04326478
v -0.00788838 0.04962081 -0.04377501
v -0.00486147 0.05235604 -0.04378980
v 0.00037762 0.05479195 -0.04354578
v 0.00454300 0.05370818 -0.04330176
v 0.00454300 0.05170578 -0.04326478
v 0.00454300 0.15188739 0.02836686
v 0.00454300 0.15271312 0.02760522
v 0.00454300 0.15296084 0.02737598
v 0.00346388 0.15295052 0.02735380
v -0.04436779 0.15266152 0.02554951
v -0.04591092 0.15181514 0.02610411
v -0.04591092 0.15323953 0.02469913
v -0.04745405 0.04962081 0.02647384
v -0.04591092 0.15258926 0.02546818
v -0.04745405 0.15248605 0.02532028
v -0.04853856 0.15147453 0.02586009
v -0.04902956 0.15030819 0.02593404
v -0.04907811 0.14903863 0.02593404
v -0.04977414 0.14970953 0.02566783
v -0.04895402 0.08256742 0.02603756
v -0.04894322 0.08101917 0.02603756
v -0.04868424 0.04962081 0.02594883
v -0.03920423 0.04962081 -0.04509125
v -0.00116551 0.05479195 -0.04362712
v -0.00579490 0.05663952 -0.04383417
v -0.00481831 0.05692852 -0.04379720
v 0.00454300 0.06250219 -0.04339789
v 0.00454300 0.15347692 0.02642948
v 0.00192075 0.15346660 0.02642948
v -0.04745405 0.15312599 0.02454385
v -0.04591092 0.15376593 0.02334592
v -0.04839827 0.15292988 0.02429983
v -0.04898099 0.15195965 0.02484703
v -0.04988205 0.15140228 0.02436638
v -0.04956372 0.15073137 0.02539423
v -0.04997378 0.14903863 0.02495055
v -0.05009248 0.11495665 0.02472132
v -0.04977414 0.14963728 0.02566783
v -0.04995220 0.15030819 0.02488400
v -0.04972558 0.08256742 0.02555691
v -0.04945580 0.04962081 0.02533507
v -0.00579490 0.05759943 -0.04383417
v -0.03973839 0.04962081 -0.04510604
v -0.04128153 0.13347363 -0.04458103
v -0.03819526 0.07330893 -0.04489900
v -0.02430708 0.07484685 -0.04446271
v -0.01505369 0.07330893 -0.04413735
v -0.00481831 0.05732074 -0.04379720
v -0.00624274 0.07116203 -0.04378980
v -0.00653949 0.07563129 -0.04377501
v 0.00346388 0.07639509 -0.04331655
v 0.00346388 0.07793301 -0.04330176
v 0.00454300 0.07531132 -0.04326478
v 0.00454300 0.15363175 0.02534986
v 0.00037762 0.15372464 0.02489139
v -0.04745405 0.15352853 0.02334592
v -0.03047961 0.15483938 -0.01214084
v -0.04436779 0.15441619 0.00173885
v -0.04548467 0.15436458 0.00298115
v -0.04568431 0.15438523 0.00173885
v -0.04670946 0.15433362 -0.00031685
v -0.04847381 0.15301245 0.02334592
v -0.04988205 0.15140228 0.02360473
v -0.05006011 0.15060751 0.02319063
v -0.05028672 0.14891477 0.02334592
v -0.05044859 0.11495665 0.02334592
v -0.05045398 0.11341873 0.02334592
v -0.05042700 0.04962081 0.02334592
v -0.05016802 0.04962081 0.02413715
v -0.05002234 0.04962081 0.02456603
v -0.04074736 0.04962081 -0.04512083
v -0.04282465 0.15045269 -0.04448490
v -0.00778587 0.07948125 -0.04378980
v 0.00454300 0.07793301 -0.04322781
v -0.00646935 0.14979211 -0.04223693
v 0.00454300 0.15369368 0.02489139
v -0.00270864 0.15445748 -0.00442826
v -0.02585021 0.15506645 -0.02448246
v -0.03202274 0.15482905 -0.01214084
v -0.04436779 0.15459166 -0.00751181
v -0.04598106 0.15438523 0.00020077
v -0.04436779 0.15461230 -0.00904989
v -0.04571128 0.15446780 -0.00904989
v -0.04671486 0.15433362 -0.00134470
v -0.04541453 0.15324985 -0.03220244
v -0.04551704 0.15180482 -0.04146050
v -0.04609437 0.15045269 -0.04146050
v -0.04996298 0.15022561 0.01871689
v -0.05001155 0.15030819 0.02026236
v -0.04669328 0.15432330 -0.00252784
v -0.04665011 0.15430265 -0.00355569
v -0.04648285 0.15408590 -0.00904989
v -0.05025435 0.14891477 0.02026236
v -0.05029752 0.14891477 0.02180045
v -0.05045398 0.11341873 0.02180045
v -0.05057269 0.07176068 0.02180045
v -0.05047556 0.04962081 0.02281351
v -0.04128153 0.04962081 -0.04511344
v -0.04451347 0.15031851 -0.04415954
v -0.04526345 0.15141260 -0.04388593
v -0.04424369 0.15194932 -0.04402643
v -0.04288401 0.15209383 -0.04408559
v -0.01071566 0.15135067 -0.04228130
v -0.00733803 0.15075202 -0.04219257
v -0.00589202 0.15037012 -0.04214080
v -0.04229050 0.04962081 -0.04500992
v -0.04282465 0.04962081 -0.04492857
v 0.00454300 0.15045269 -0.04136437
v 0.00454300 0.15437490 -0.00597373
v 0.00346388 0.15480841 -0.02757341
v 0.00346388 0.15481873 -0.02911149
v -0.01505369 0.15496324 -0.03065696
v -0.02585021 0.15505613 -0.02602793
v -0.02739334 0.15501484 -0.02602793
v -0.04282465 0.15443683 -0.03065696
v -0.04410880 0.15439555 -0.02757341
v -0.04445412 0.15438523 -0.02594659
v -0.04514475 0.15431297 -0.02537721
v -0.04536057 0.15314663 -0.03374052
v -0.04508000 0.15267184 -0.03991502
v -0.04496670 0.15257894 -0.04146050
v -0.04542532 0.15161903 -0.04300598
v -0.04626703 0.14891477 -0.04146050
v -0.04654760 0.14891477 -0.03991502
v -0.04707636 0.14891477 -0.03220244
v -0.04681198 0.14998822 -0.03220244
v -0.04986047 0.14991597 0.01563334
v -0.04990903 0.15008111 0.01717142
v -0.05017342 0.14891477 0.01871689
v -0.05000076 0.14274244 0.01254239
v -0.05007629 0.14274244 0.01408786
v -0.05008708 0.14119420 0.01408786
v -0.05042161 0.06558836 0.01563334
v -0.05053491 0.06250219 0.02026236
v -0.05055650 0.05787811 0.02180045
v -0.05054571 0.04962081 0.02180045
v -0.04557100 0.15031851 -0.04315387
v -0.04465376 0.15239315 -0.04300598
v -0.04364478 0.15279570 -0.04379720
v -0.04436779 0.09336383 -0.04430003
v -0.04527964 0.09336383 -0.04390812
v -0.04576524 0.09336383 -0.04300598
v -0.04343975 0.15279570 -0.04379720
v 0.00192075 0.15286795 -0.04078759
v -0.01196743 0.15147453 -0.04231827
v 0.00454300 0.15196997 -0.04100203
v -0.04383363 0.04962081 -0.04451448
v 0.00454300 0.15439555 -0.00705335
v 0.00454300 0.15475680 -0.02865302
v -0.01351056 0.15488066 -0.03220244
v 0.00454300 0.15475680 -0.02911149
v 0.00454300 0.15469487 -0.03019110
v 0.00346388 0.15472584 -0.03065696
v -0.01505369 0.15487034 -0.03220244
v -0.04282465 0.15418911 -0.03836955
v -0.03047961 0.15468455 -0.03220244
v -0.03202274 0.15466391 -0.03220244
v -0.04292718 0.15436458 -0.03385883
v -0.04282465 0.15441619 -0.03220244
v -0.04376888 0.15435426 -0.03220244
v -0.04368795 0.15433362 -0.03342995
v -0.04503144 0.15428201 -0.02640506
v -0.04454045 0.15402397 -0.03220244
v -0.04430844 0.15337371 -0.03991502
v -0.04419513 0.15321888 -0.04146050
v -0.04673104 0.14582861 -0.03936043
v -0.04672026 0.14707752 -0.03930866
v -0.04643429 0.06867452 -0.04146050
v -0.04666090 0.06867452 -0.04054357
v -0.04667709 0.14810968 -0.03906464
v -0.04727060 0.14736653 -0.03220244
v -0.04774002 0.14891477 -0.02139890
v -0.04981191 0.14979211 0.01443541
v -0.04737312 0.14736653 -0.03065696
v -0.04976875 0.14350624 0.00868240
v -0.04905113 0.14119420 -0.00442826
v -0.04947739 0.12267722 -0.00134470
v -0.05037305 0.06405044 0.01408786
v -0.04796663 0.05170578 -0.01985343
v -0.04751340 0.05015754 -0.02602793
v -0.04749182 0.04962081 -0.02602793
v -0.04972019 0.06558836 0.00020077
v -0.04964465 0.06558836 -0.00134470
v -0.04388219 0.15296084 -0.04300598
v -0.04282465 0.15355950 -0.04146050
v -0.04436779 0.05170578 -0.04429264
v -0.04520950 0.05170578 -0.04384157
v -0.04573286 0.05170578 -0.04300598
v -0.04574905 0.05941603 -0.04300598
v -0.02585021 0.15295052 -0.04242919
v 0.00037762 0.15290923 -0.04082456
v 0.00405740 0.15274409 -0.04063230
v 0.00454300 0.15231058 -0.04082456
v 0.00037762 0.15322920 -0.03991502
v 0.00037762 0.15374529 -0.03836955
v 0.00454300 0.15396204 -0.03683147
v -0.04441635 0.04962081 -0.04424087
v -0.04436779 0.05015754 -0.04428524
v -0.00579490 0.15475680 -0.03220244
v -0.00425177 0.15448844 -0.03528599
v -0.00425177 0.15438523 -0.03633603
v -0.01712559 0.15433362 -0.03765966
v -0.01750328 0.15433362 -0.03765966
v 0.00454300 0.15466391 -0.03065696
v 0.00454300 0.15427169 -0.03514550
v 0.00346388 0.15428201 -0.03567051
v -0.04282465 0.15396204 -0.03991502
v -0.04729219 0.14582861 -0.03220244
v -0.04677961 0.06713660 -0.03975234
v -0.04693068 0.09182591 -0.03836955
v -0.04770764 0.08256742 -0.03220244
v -0.04784253 0.08256742 -0.03065696
v -0.04641270 0.06096427 -0.04146050
v -0.04664471 0.06250219 -0.04044004
v -0.04741089 0.14582861 -0.03065696
v -0.04874898 0.11959106 -0.01367892
v -0.04926696 0.10724640 -0.00597373
v -0.04756736 0.05170578 -0.02602793
v -0.04734074 0.04962081 -0.02810582
v -0.04745405 0.04962081 -0.02656035
v -0.04688212 0.06096427 -0.03836955
v -0.04492353 0.04962081 -0.04393030
v -0.04515014 0.04962081 -0.04378241
v -0.04560337 0.04962081 -0.04305774
v -0.04626163 0.04962081 -0.04146050
v -0.04628321 0.05015754 -0.04146050
v -0.04631559 0.05170578 -0.04146050
v 0.00454300 0.15271312 -0.04055096
v 0.00037762 0.15415815 -0.03683147
v 0.00192075 0.15411686 -0.03683147
v 0.00454300 0.15404461 -0.03648392
v 0.00192075 0.15429233 -0.03588496
v 0.00454300 0.15425104 -0.03533775
v -0.04677961 0.06558836 -0.03968579
v -0.04690910 0.06250219 -0.03836955
v -0.04886769 0.11341873 -0.01214084
v -0.04823101 0.12544342 -0.02074078
v -0.04664471 0.06096427 -0.04036610
v -0.04645587 0.05015754 -0.03991502
v -0.04643429 0.04962081 -0.03991502
v -0.04673644 0.06096427 -0.03959706
v -0.04637494 0.04962081 -0.04044744
v -0.04675263 0.06250219 -0.03967100
f 1 2 3
f 1 3 4
f 1 4 5
f 1 5 11
f 1 11 10
f 1 10 12
f 1 12 20
f 1 20 32
f 1 32 49
f 1 49 48
f 1 48 47
f 1 47 72
f 1 72 107
f 1 107 146
f 1 146 186
f 1 186 208
f 1 208 213
f 1 213 211
f 1 211 194
f 1 194 155
f 1 155 154
f 1 154 113
f 1 113 79
f 1 79 78
f 1 78 56
f 1 56 77
f 1 77 53
f 1 53 38
f 1 38 37
f 1 37 36
f 1 36 34
f 1 34 22
f 1 22 13
f 1 13 6
f 1 6 14
f 1 14 23
f 1 23 35
f 1 35 52
f 1 52 62
f 1 62 90
f 1 90 89
f 1 89 88
f 1 88 125
f 1 125 168
f 1 168 201
f 1 201 200
f 1 200 199
f 1 199 198
f 1 198 197
f 1 197 170
f 1 170 128
f 1 128 126
f 1 126 91
f 1 91 64
f 1 64 41
f 1 41 26
f 1 26 15
f 1 15 7
f 1 7 2
f 2 7 3
f 3 8 4
f 3 7 9
f 3 9 8
f 4 10 11
f 4 11 5
f 4 8 12
f 4 12 10
f 6 13 14
f 7 15 16
f 7 16 17
f 7 17 9
f 8 9 18
f 8 18 19
f 8 19 20
f 8 20 12
f 9 17 21
f 9 21 18
f 13 22 14
f 14 22 24
f 14 24 25
f 14 25 23
f 15 26 27
f 15 27 17
f 15 17 16
f 17 27 21
f 18 21 28
f 18 28 29
f 18 29 30
f 18 30 31
f 18 31 32
f 18 32 20
f 18 20 19
f 21 27 33
f 21 33 28
f 22 34 24
f 23 25 35
f 24 34 36
f 24 36 37
f 24 37 38
f 24 38 39
f 24 39 40
f 24 40 25
f 25 40 35
f 26 41 27
f 27 42 43
f 27 43 44
f 27 44 33
f 27 41 42
f 28 33 45
f 28 45 46
f 28 46 29
f 29 46 30
f 30 47 48
f 30 48 49
f 30 49 32
f 30 32 31
f 30 46 50
f 30 50 47
f 33 44 51
f 33 51 45
f 35 40 52
f 38 53 54
f 38 54 39
f 39 54 40
f 40 55 56
f 40 56 57
f 40 57 58
f 40 58 59
f 40 59 60
f 40 60 61
f 40 61 62
f 40 62 52
f 40 54 55
f 41 63 42
f 41 64 63
f 42 65 43
f 42 63 64
f 42 64 65
f 43 65 66
f 43 66 67
f 43 67 44
f 44 67 68
f 44 68 69
f 44 69 51
f 45 51 70
f 45 70 71
f 45 71 46
f 46 71 50
f 47 50 73
f 47 73 72
f 50 74 73
f 50 71 75
f 50 75 74
f 51 69 76
f 51 76 70
f 53 77 54
f 54 77 56
f 54 56 55
f 56 78 57
f 57 78 79
f 57 79 80
f 57 80 81
f 57 81 58
f 58 81 118
f 58 118 82
f 58 82 83
f 58 83 59
f 59 83 84
f 59 84 60
f 60 84 85
f 60 85 86
f 60 86 87
f 60 87 88
f 60 88 89
f 60 89 90
f 60 90 61
f 61 90 62
f 64 91 65
f 65 91 66
f 66 91 92
f 66 92 93
f 66 93 94
f 66 94 67
f 67 94 68
f 68 95 96
f 68 96 97
f 68 97 69
f 68 94 95
f 69 97 98
f 69 98 99
f 69 99 76
f 70 100 101
f 70 101 102
f 70 102 71
f 70 76 103
f 70 103 100
f 71 102 75
f 72 73 74
f 72 74 104
f 72 104 105
f 72 105 106
f 72 106 107
f 74 75 104
f 75 105 104
f 75 102 108
f 75 108 105
f 76 99 109
f 76 109 110
f 76 110 111
f 76 111 112
f 76 112 103
f 79 113 114
f 79 114 80
f 80 114 81
f 81 114 115
f 81 115 116
f 81 116 117
f 81 117 118
f 82 118 119
f 82 119 120
f 82 120 121
f 82 121 84
f 82 84 83
f 84 121 122
f 84 122 85
f 85 123 124
f 85 124 86
f 85 122 123
f 86 124 125
f 86 125 87
f 87 125 88
f 91 126 92
f 92 127 94
f 92 94 93
f 92 126 128
f 92 128 129
f 92 129 127
f 94 127 95
f 95 127 130
f 95 130 96
f 96 131 97
f 96 130 132
f 96 132 131
f 97 131 133
f 97 133 134
f 97 134 99
f 97 99 98
f 99 134 132
f 99 132 135
f 99 135 136
f 99 136 111
f 99 111 137
f 99 137 109
f 100 103 138
f 100 138 139
f 100 139 101
f 101 139 108
f 101 108 102
f 103 140 138
f 103 112 140
f 105 108 141
f 105 141 106
f 106 141 142
f 106 142 143
f 106 143 144
f 106 144 145
f 106 145 146
f 106 146 107
f 108 139 147
f 108 147 141
f 109 137 111
f 109 111 110
f 111 136 148
f 111 148 149
f 111 149 150
f 111 150 112
f 112 150 151
f 112 151 152
f 112 152 153
f 112 153 140
f 113 154 114
f 114 154 155
f 114 155 115
f 115 155 156
f 115 156 116
f 116 156 157
f 116 157 158
f 116 158 117
f 117 158 159
f 117 159 118
f 118 159 119
f 119 160 161
f 119 161 122
f 119 122 120
f 119 159 160
f 120 122 121
f 122 161 123
f 123 162 163
f 123 163 124
f 123 161 162
f 124 163 164
f 124 164 165
f 124 165 166
f 124 166 167
f 124 167 168
f 124 168 125
f 127 129 169
f 127 169 130
f 128 170 129
f 129 170 169
f 130 169 171
f 130 171 132
f 131 132 133
f 132 134 133
f 132 171 172
f 132 172 135
f 135 172 136
f 136 172 173
f 136 173 148
f 138 140 139
f 139 174 147
f 139 140 153
f 139 153 175
f 139 175 176
f 139 176 177
f 139 177 174
f 141 178 179
f 141 179 180
f 141 180 142
f 141 147 174
f 141 174 178
f 142 180 181
f 142 181 143
f 143 146 145
f 143 145 144
f 143 181 182
f 143 182 183
f 143 183 184
f 143 184 185
f 143 185 186
f 143 186 146
f 148 162 160
f 148 160 187
f 148 187 188
f 148 188 189
f 148 189 190
f 148 190 191
f 148 191 149
f 148 173 162
f 149 192 193
f 149 193 152
f 149 152 151
f 149 151 150
f 149 191 192
f 152 175 153
f 152 193 175
f 155 194 195
f 155 195 156
f 156 195 189
f 156 189 157
f 157 187 158
f 157 189 187
f 158 187 160
f 158 160 159
f 160 162 161
f 162 173 163
f 163 173 164
f 164 173 172
f 164 172 171
f 164 171 165
f 165 196 166
f 165 171 170
f 165 170 197
f 165 197 198
f 165 198 196
f 166 198 199
f 166 199 200
f 166 200 201
f 166 201 168
f 166 168 167
f 166 196 198
f 169 170 202
f 169 202 203
f 169 203 171
f 170 171 203
f 170 203 202
f 174 177 178
f 175 193 176
f 176 204 182
f 176 182 181
f 176 181 205
f 176 205 177
f 176 193 184
f 176 184 204
f 177 205 178
f 178 205 179
f 179 205 181
f 179 181 180
f 182 204 184
f 182 184 183
f 184 193 192
f 184 192 206
f 184 206 185
f 185 206 207
f 185 207 186
f 186 207 208
f 187 189 188
f 189 195 209
f 189 209 190
f 190 209 210
f 190 210 206
f 190 206 192
f 190 192 191
f 194 211 212
f 194 212 195
f 195 212 210
f 195 210 209
f 206 208 207
f 206 210 208
f 208 210 213
f 210 212 213
f 211 213 212
f 214 215 219
f 214 219 226
f 214 226 237
f 214 237 257
f 214 257 256
f 214 256 281
f 214 281 282
f 214 282 309
f 214 309 336
f 214 336 374
f 214 374 415
f 214 415 451
f 214 451 455
f 214 455 514
f 214 514 513
f 214 513 512
f 214 512 511
f 214 511 510
f 214 510 509
f 214 509 508
f 214 508 507
f 214 507 506
f 214 506 521
f 214 521 520
f 214 520 519
f 214 519 518
f 214 518 517
f 214 517 516
f 214 516 515
f 214 515 562
f 214 562 552
f 214 552 551
f 214 551 550
f 214 550 549
f 214 549 548
f 214 548 496
f 214 496 494
f 214 494 444
f 214 444 408
f 214 408 407
f 214 407 367
f 214 367 332
f 214 332 305
f 214 305 277
f 214 277 275
f 214 275 250
f 214 250 228
f 214 228 220
f 214 220 216
f 214 216 217
f 214 217 218
f 214 218 215
f 215 218 219
f 216 220 221
f 216 221 217
f 217 222 218
f 217 221 223
f 217 223 224
f 217 224 225
f 217 225 222
f 218 222 219
f 219 222 226
f 220 227 221
f 220 228 253
f 220 253 276
f 220 276 303
f 220 303 329
f 220 329 363
f 220 363 403
f 220 403 402
f 220 402 438
f 220 438 439
f 220 439 485
f 220 485 484
f 220 484 537
f 220 537 540
f 220 540 539
f 220 539 564
f 220 564 523
f 220 523 522
f 220 522 458
f 220 458 457
f 220 457 422
f 220 422 456
f 220 456 419
f 220 419 382
f 220 382 345
f 220 345 316
f 220 316 291
f 220 291 265
f 220 265 264
f 220 264 263
f 220 263 240
f 220 240 233
f 220 233 231
f 220 231 230
f 220 230 229
f 220 229 227
f 221 227 229
f 221 229 230
f 221 230 231
f 221 231 232
f 221 232 233
f 221 233 223
f 222 234 235
f 222 235 236
f 222 236 237
f 222 237 226
f 222 225 238
f 222 238 239
f 222 239 234
f 223 233 240
f 223 240 241
f 223 241 242
f 223 242 243
f 223 243 244
f 223 244 245
f 223 245 224
f 224 245 246
f 224 246 247
f 224 247 248
f 224 248 249
f 224 249 225
f 225 249 238
f 228 250 251
f 228 251 252
f 228 252 253
f 231 233 232
f 234 239 235
f 235 239 236
f 236 254 255
f 236 255 256
f 236 256 257
f 236 257 237
f 236 239 254
f 238 258 239
f 238 249 259
f 238 259 260
f 238 260 258
f 239 258 261
f 239 261 262
f 239 262 254
f 240 263 241
f 241 263 264
f 241 264 265
f 241 265 266
f 241 266 267
f 241 267 242
f 242 267 243
f 243 245 244
f 243 267 268
f 243 268 269
f 243 269 270
f 243 270 245
f 245 270 246
f 246 270 271
f 246 271 247
f 247 271 272
f 247 272 273
f 247 273 248
f 248 273 249
f 249 273 274
f 249 274 259
f 250 275 251
f 251 275 252
f 252 276 253
f 252 275 277
f 252 277 278
f 252 278 279
f 252 279 276
f 254 280 255
f 254 262 280
f 255 281 256
f 255 280 282
f 255 282 281
f 258 260 261
f 259 274 283
f 259 283 260
f 260 283 284
f 260 284 285
f 260 285 261
f 261 285 284
f 261 284 286
f 261 286 287
f 261 287 288
f 261 288 289
f 261 289 262
f 262 289 290
f 262 290 280
f 265 291 266
f 266 291 267
f 267 291 292
f 267 292 268
f 268 292 293
f 268 293 294
f 268 294 269
f 269 294 295
f 269 295 270
f 270 295 296
f 270 296 271
f 271 296 297
f 271 297 298
f 271 298 299
f 271 299 272
f 272 299 300
f 272 300 301
f 272 301 273
f 273 301 274
f 274 301 302
f 274 302 283
f 276 279 304
f 276 304 303
f 277 305 278
f 278 306 304
f 278 304 307
f 278 307 279
f 278 305 306
f 279 307 304
f 280 290 308
f 280 308 309
f 280 309 282
f 283 302 310
f 283 310 311
f 283 311 312
f 283 312 284
f 284 312 286
f 286 312 313
f 286 313 287
f 287 313 314
f 287 314 315
f 287 315 288
f 288 315 289
f 289 315 308
f 289 308 290
f 291 316 292
f 292 316 317
f 292 317 293
f 293 295 294
f 293 317 318
f 293 318 295
f 295 318 296
f 296 318 319
f 296 319 320
f 296 320 321
f 296 321 297
f 297 321 298
f 298 321 300
f 298 300 299
f 300 322 323
f 300 323 301
f 300 321 324
f 300 324 325
f 300 325 322
f 301 323 322
f 301 322 302
f 302 322 326
f 302 326 310
f 303 304 327
f 303 327 328
f 303 328 329
f 304 306 330
f 304 330 331
f 304 331 327
f 305 332 333
f 305 333 306
f 306 333 334
f 306 334 364
f 306 364 330
f 308 315 335
f 308 335 336
f 308 336 309
f 310 326 337
f 310 337 338
f 310 338 311
f 311 338 339
f 311 339 340
f 311 340 312
f 312 340 341
f 312 341 314
f 312 314 313
f 314 341 342
f 314 342 343
f 314 343 315
f 315 343 344
f 315 344 335
f 316 345 346
f 316 346 347
f 316 347 317
f 317 319 318
f 317 347 348
f 317 348 319
f 319 348 349
f 319 349 350
f 319 350 320
f 320 350 351
f 320 351 321
f 321 352 324
f 321 351 353
f 321 353 354
f 321 354 355
f 321 355 352
f 322 325 352
f 322 352 356
f 322 356 357
f 322 357 326
f 324 352 325
f 326 357 358
f 326 358 337
f 327 331 359
f 327 359 360
f 327 360 361
f 327 361 362
f 327 362 328
f 328 362 329
f 329 362 363
f 330 364 331
f 331 364 365
f 331 365 366
f 331 366 359
f 332 367 368
f 332 368 369
f 332 369 333
f 333 369 334
f 334 369 370
f 334 370 371
f 334 371 372
f 334 372 373
f 334 373 364
f 335 344 336
f 336 344 374
f 337 375 338
f 337 358 375
f 338 375 376
f 338 376 377
f 338 377 339
f 339 377 378
f 339 378 342
f 339 342 340
f 340 342 341
f 342 378 343
f 343 378 379
f 343 379 380
f 343 380 344
f 344 380 381
f 344 381 374
f 345 382 346
f 346 382 383
f 346 383 347
f 347 383 384
f 347 384 348
f 348 384 349
f 349 384 385
f 349 385 386
f 349 386 387
f 349 387 388
f 349 388 350
f 350 388 389
f 350 389 351
f 351 389 390
f 351 390 391
f 351 391 392
f 351 392 353
f 352 355 393
f 352 393 357
f 352 357 356
f 353 392 354
f 354 393 355
f 354 392 394
f 354 394 393
f 357 393 395
f 357 395 358
f 358 395 396
f 358 396 397
f 358 397 398
f 358 398 376
f 358 376 375
f 359 399 360
f 359 366 406
f 359 406 400
f 359 400 399
f 360 399 401
f 360 401 361
f 361 401 402
f 361 402 403
f 361 403 363
f 361 363 362
f 364 366 365
f 364 373 404
f 364 404 405
f 364 405 366
f 366 405 406
f 367 407 368
f 368 407 408
f 368 408 409
f 368 409 410
f 368 410 369
f 369 411 372
f 369 372 371
f 369 371 370
f 369 410 411
f 372 411 412
f 372 412 413
f 372 413 414
f 372 414 373
f 373 414 404
f 374 381 415
f 376 398 377
f 377 398 397
f 377 397 416
f 377 416 417
f 377 417 379
f 377 379 378
f 379 381 380
f 379 417 418
f 379 418 381
f 381 418 415
f 382 419 383
f 383 419 420
f 383 420 421
f 383 421 385
f 383 385 384
f 385 421 422
f 385 422 423
f 385 423 386
f 386 424 387
f 386 423 425
f 386 425 424
f 387 389 388
f 387 424 389
f 389 424 390
f 390 424 426
f 390 426 391
f 391 427 392
f 391 426 428
f 391 428 427
f 392 427 394
f 393 394 395
f 394 427 429
f 394 429 395
f 395 429 396
f 396 430 397
f 396 429 431
f 396 431 432
f 396 432 433
f 396 433 430
f 397 430 434
f 397 434 416
f 399 435 436
f 399 436 401
f 399 400 435
f 400 406 437
f 400 437 435
f 401 438 402
f 401 436 439
f 401 439 438
f 404 414 440
f 404 440 405
f 405 440 406
f 406 441 437
f 406 440 442
f 406 442 443
f 406 443 441
f 408 444 409
f 409 444 445
f 409 445 446
f 409 446 410
f 410 446 447
f 410 447 413
f 410 413 412
f 410 412 411
f 413 448 414
f 413 447 449
f 413 449 450
f 413 450 448
f 414 448 440
f 415 418 451
f 416 434 417
f 417 434 452
f 417 452 453
f 417 453 418
f 418 453 454
f 418 454 455
f 418 455 451
f 419 456 420
f 420 456 421
f 421 456 422
f 422 457 423
f 423 457 458
f 423 458 459
f 423 459 460
f 423 460 461
f 423 461 462
f 423 462 425
f 424 425 463
f 424 463 464
f 424 464 465
f 424 465 466
f 424 466 467
f 424 467 468
f 424 468 426
f 425 462 463
f 426 469 470
f 426 470 428
f 426 468 471
f 426 471 469
f 427 472 473
f 427 473 429
f 427 428 474
f 427 474 472
f 428 475 474
f 428 470 476
f 428 476 477
f 428 477 475
f 429 473 431
f 430 433 434
f 431 473 478
f 431 478 432
f 432 478 479
f 432 479 433
f 433 479 434
f 434 479 480
f 434 480 481
f 434 481 482
f 434 482 452
f 435 437 436
f 436 437 483
f 436 483 484
f 436 484 485
f 436 485 439
f 437 486 483
f 437 441 443
f 437 443 487
f 437 487 488
f 437 488 486
f 440 448 443
f 440 443 442
f 443 448 450
f 443 450 489
f 443 489 490
f 443 490 491
f 443 491 492
f 443 492 493
f 443 493 487
f 444 494 445
f 445 495 446
f 445 494 496
f 445 496 497
f 445 497 498
f 445 498 495
f 446 495 499
f 446 499 500
f 446 500 447
f 447 500 449
f 449 500 501
f 449 501 489
f 449 489 450
f 452 482 502
f 452 502 503
f 452 503 453
f 453 503 504
f 453 504 505
f 453 505 454
f 454 506 507
f 454 507 508
f 454 508 509
f 454 509 510
f 454 510 511
f 454 511 512
f 454 512 513
f 454 513 514
f 454 514 455
f 454 505 515
f 454 515 516
f 454 516 517
f 454 517 518
f 454 518 519
f 454 519 520
f 454 520 521
f 454 521 506
f 458 522 459
f 459 522 523
f 459 523 524
f 459 524 460
f 460 524 491
f 460 491 461
f 461 491 462
f 462 525 464
f 462 464 463
f 462 491 525
f 464 525 465
f 465 525 526
f 465 526 527
f 465 527 466
f 466 527 526
f 466 526 467
f 467 526 468
f 468 526 528
f 468 528 529
f 468 529 471
f 469 471 530
f 469 530 470
f 470 530 531
f 470 531 476
f 471 529 530
f 472 474 473
f 473 474 532
f 473 532 478
f 474 475 533
f 474 533 480
f 474 480 479
f 474 479 478
f 474 478 532
f 475 477 533
f 476 531 534
f 476 534 535
f 476 535 536
f 476 536 533
f 476 533 477
f 480 533 481
f 481 533 502
f 481 502 482
f 483 537 484
f 483 486 538
f 483 538 539
f 483 539 540
f 483 540 537
f 486 488 493
f 486 493 541
f 486 541 538
f 487 493 488
f 489 501 542
f 489 542 543
f 489 543 490
f 490 543 491
f 491 524 544
f 491 544 545
f 491 545 546
f 491 546 492
f 491 543 529
f 491 529 526
f 491 526 525
f 492 546 493
f 493 546 541
f 495 498 547
f 495 547 500
f 495 500 499
f 496 548 497
f 497 505 504
f 497 504 498
f 497 548 549
f 497 549 550
f 497 550 551
f 497 551 552
f 497 552 505
f 498 504 503
f 498 503 553
f 498 553 554
f 498 554 555
f 498 555 556
f 498 556 547
f 500 547 556
f 500 556 501
f 501 534 542
f 501 556 557
f 501 557 558
f 501 558 559
f 501 559 560
f 501 560 534
f 502 533 536
f 502 536 561
f 502 561 557
f 502 557 554
f 502 554 553
f 502 553 503
f 505 552 562
f 505 562 515
f 523 546 545
f 523 545 563
f 523 563 524
f 523 564 546
f 524 563 544
f 526 529 528
f 529 543 542
f 529 542 534
f 529 534 531
f 529 531 530
f 534 560 535
f 535 560 536
f 536 560 565
f 536 565 558
f 536 558 566
f 536 566 561
f 538 541 564
f 538 564 539
f 541 546 564
f 544 563 545
f 554 557 555
f 555 557 556
f 557 561 558
f 558 561 566
f 558 565 559
f 559 565 560
f 567 568 569
f 567 569 570
f 567 570 571
f 567 571 572
f 567 572 573
f 567 573 568
f 568 574 575
f 568 575 578
f 568 578 569
f 568 573 576
f 568 576 577
f 568 577 574
f 569 578 570
f 570 579 603
f 570 603 629
f 570 629 653
f 570 653 674
f 570 674 696
f 570 696 728
f 570 728 757
f 570 757 791
f 570 791 825
f 570 825 869
f 570 869 870
f 570 870 827
f 570 827 798
f 570 798 792
f 570 792 758
f 570 758 730
f 570 730 697
f 570 697 675
f 570 675 657
f 570 657 656
f 570 656 655
f 570 655 654
f 570 654 631
f 570 631 604
f 570 604 585
f 570 585 584
f 570 584 583
f 570 583 582
f 570 582 581
f 570 581 580
f 570 580 571
f 570 578 579
f 571 580 572
f 572 580 581
f 572 581 582
f 572 582 583
f 572 583 584
f 572 584 585
f 572 585 586
f 572 586 587
f 572 587 573
f 573 588 589
f 573 589 590
f 573 590 591
f 573 591 592
f 573 592 593
f 573 593 594
f 573 594 595
f 573 595 596
f 573 596 576
f 573 587 586
f 573 586 597
f 573 597 588
f 574 598 599
f 574 599 575
f 574 577 598
f 575 599 600
f 575 600 578
f 576 596 623
f 576 623 601
f 576 601 577
f 577 601 602
f 577 602 598
f 578 600 579
f 579 600 603
f 585 604 605
f 585 605 586
f 586 605 609
f 586 609 597
f 588 606 607
f 588 607 608
f 588 608 589
f 588 597 609
f 588 609 606
f 589 608 610
f 589 610 611
f 589 611 590
f 590 611 591
f 591 611 612
f 591 612 592
f 592 612 613
f 592 613 593
f 593 613 614
f 593 614 615
f 593 615 616
f 593 616 594
f 594 616 617
f 594 617 618
f 594 618 619
f 594 619 620
f 594 620 596
f 594 596 595
f 596 621 622
f 596 622 623
f 596 620 621
f 598 602 624
f 598 624 599
f 599 624 625
f 599 625 626
f 599 626 600
f 600 626 603
f 601 623 602
f 602 623 622
f 602 622 627
f 602 627 628
f 602 628 624
f 603 626 630
f 603 630 629
f 604 631 632
f 604 632 605
f 605 633 609
f 605 632 633
f 606 609 607
f 607 634 608
f 607 609 635
f 607 635 636
f 607 636 637
f 607 637 660
f 607 660 658
f 607 658 657
f 607 657 675
f 607 675 698
f 607 698 732
f 607 732 762
f 607 762 796
f 607 796 795
f 607 795 826
f 607 826 838
f 607 838 837
f 607 837 882
f 607 882 929
f 607 929 953
f 607 953 965
f 607 965 970
f 607 970 974
f 607 974 973
f 607 973 976
f 607 976 975
f 607 975 972
f 607 972 967
f 607 967 957
f 607 957 935
f 607 935 934
f 607 934 894
f 607 894 936
f 607 936 930
f 607 930 887
f 607 887 886
f 607 886 885
f 607 885 898
f 607 898 847
f 607 847 846
f 607 846 884
f 607 884 883
f 607 883 839
f 607 839 804
f 607 804 766
f 607 766 765
f 607 765 764
f 607 764 763
f 607 763 733
f 607 733 699
f 607 699 676
f 607 676 661
f 607 661 638
f 607 638 611
f 607 611 610
f 607 610 634
f 608 634 610
f 609 633 659
f 609 659 635
f 611 638 613
f 611 613 612
f 613 638 639
f 613 639 614
f 614 639 640
f 614 640 641
f 614 641 642
f 614 642 616
f 614 616 615
f 616 642 643
f 616 643 617
f 617 643 644
f 617 644 618
f 618 644 619
f 619 644 645
f 619 645 620
f 620 645 646
f 620 646 647
f 620 647 648
f 620 648 621
f 621 648 622
f 622 648 627
f 624 628 630
f 624 630 625
f 625 630 626
f 627 648 649
f 627 649 628
f 628 649 650
f 628 650 651
f 628 651 652
f 628 652 630
f 629 630 653
f 630 652 653
f 631 654 632
f 632 654 655
f 632 655 656
f 632 656 657
f 632 657 658
f 632 658 659
f 632 659 633
f 635 659 636
f 636 659 660
f 636 660 637
f 638 661 639
f 639 661 640
f 640 662 663
f 640 663 664
f 640 664 665
f 640 665 641
f 640 661 662
f 641 643 642
f 641 665 664
f 641 664 666
f 641 666 643
f 643 666 667
f 643 667 644
f 644 668 669
f 644 669 645
f 644 667 668
f 645 669 646
f 646 669 670
f 646 670 650
f 646 650 647
f 647 650 648
f 648 650 649
f 650 670 671
f 650 671 652
f 650 652 651
f 652 671 672
f 652 672 653
f 653 673 674
f 653 672 673
f 658 660 659
f 661 676 662
f 662 676 677
f 662 677 663
f 663 677 678
f 663 678 679
f 663 679 680
f 663 680 664
f 664 681 668
f 664 668 667
f 664 667 666
f 664 680 682
f 664 682 681
f 668 681 683
f 668 683 669
f 669 683 684
f 669 684 670
f 670 684 685
f 670 685 671
f 671 686 672
f 671 685 686
f 672 686 687
f 672 687 688
f 672 688 689
f 672 689 690
f 672 690 691
f 672 691 692
f 672 692 693
f 672 693 694
f 672 694 673
f 673 694 674
f 674 694 695
f 674 695 696
f 675 697 698
f 676 699 700
f 676 700 677
f 677 700 678
f 678 700 699
f 678 699 701
f 678 701 702
f 678 702 703
f 678 703 679
f 679 703 682
f 679 682 680
f 681 682 704
f 681 704 705
f 681 705 683
f 682 703 706
f 682 706 707
f 682 707 708
f 682 708 704
f 683 705 709
f 683 709 684
f 684 709 710
f 684 710 685
f 685 710 711
f 685 711 712
f 685 712 686
f 686 712 713
f 686 713 687
f 687 713 714
f 687 714 715
f 687 715 716
f 687 716 717
f 687 717 688
f 688 717 689
f 689 718 719
f 689 719 720
f 689 720 690
f 689 717 721
f 689 721 715
f 689 715 722
f 689 722 723
f 689 723 718
f 690 720 724
f 690 724 725
f 690 725 726
f 690 726 691
f 691 726 727
f 691 727 692
f 692 727 694
f 692 694 693
f 694 727 695
f 695 727 696
f 696 727 729
f 696 729 728
f 697 730 731
f 697 731 698
f 698 731 732
f 699 733 734
f 699 734 701
f 701 734 735
f 701 735 702
f 702 735 736
f 702 736 737
f 702 737 703
f 703 737 738
f 703 738 739
f 703 739 706
f 704 708 740
f 704 740 741
f 704 741 709
f 704 709 705
f 706 739 707
f 707 739 742
f 707 742 708
f 708 742 740
f 709 741 743
f 709 743 710
f 710 743 711
f 711 743 744
f 711 744 745
f 711 745 712
f 712 745 713
f 713 745 714
f 714 745 746
f 714 746 715
f 715 746 747
f 715 747 748
f 715 748 749
f 715 749 723
f 715 723 722
f 715 721 716
f 716 721 717
f 718 750 751
f 718 751 719
f 718 723 749
f 718 749 750
f 719 751 725
f 719 725 720
f 720 725 724
f 725 751 752
f 725 752 753
f 725 753 754
f 725 754 726
f 726 754 790
f 726 790 755
f 726 755 727
f 727 755 756
f 727 756 729
f 728 729 756
f 728 756 755
f 728 755 757
f 730 758 759
f 730 759 760
f 730 760 731
f 731 760 761
f 731 761 732
f 732 761 762
f 733 763 735
f 733 735 734
f 735 763 736
f 736 763 764
f 736 764 765
f 736 765 766
f 736 766 767
f 736 767 737
f 737 767 768
f 737 768 738
f 738 769 739
f 738 768 769
f 739 769 770
f 739 770 742
f 740 771 741
f 740 742 770
f 740 770 772
f 740 772 771
f 741 771 773
f 741 773 744
f 741 744 743
f 744 773 774
f 744 774 775
f 744 775 745
f 745 775 776
f 745 776 777
f 745 777 746
f 746 777 776
f 746 776 747
f 747 776 778
f 747 778 748
f 748 779 749
f 748 778 780
f 748 780 781
f 748 781 779
f 749 779 782
f 749 782 783
f 749 783 784
f 749 784 750
f 750 785 751
f 750 784 786
f 750 786 787
f 750 787 785
f 751 785 752
f 752 787 753
f 752 785 787
f 753 787 788
f 753 788 789
f 753 789 754
f 754 789 790
f 755 790 788
f 755 788 791
f 755 791 757
f 758 792 793
f 758 793 759
f 759 793 760
f 760 793 794
f 760 794 761
f 761 795 796
f 761 796 762
f 761 794 797
f 761 797 798
f 761 798 799
f 761 799 800
f 761 800 801
f 761 801 802
f 761 802 803
f 761 803 795
f 766 804 767
f 767 804 839
f 767 839 805
f 767 805 768
f 768 805 806
f 768 806 769
f 769 806 807
f 769 807 770
f 770 807 808
f 770 808 772
f 771 809 774
f 771 774 773
f 771 772 808
f 771 808 809
f 774 809 855
f 774 855 810
f 774 810 811
f 774 811 775
f 775 811 776
f 776 811 812
f 776 812 778
f 778 812 780
f 779 813 782
f 779 781 813
f 780 812 814
f 780 814 815
f 780 815 781
f 781 816 813
f 781 815 816
f 782 813 817
f 782 817 783
f 783 817 818
f 783 818 819
f 783 819 820
f 783 820 786
f 783 786 784
f 786 821 822
f 786 822 823
f 786 823 824
f 786 824 787
f 786 820 821
f 787 824 788
f 788 824 791
f 788 790 789
f 791 824 825
f 792 798 793
f 793 798 794
f 794 798 797
f 795 803 826
f 798 827 828
f 798 828 799
f 799 828 829
f 799 829 830
f 799 830 831
f 799 831 800
f 800 831 832
f 800 832 803
f 800 803 802
f 800 802 801
f 803 832 833
f 803 833 834
f 803 834 835
f 803 835 836
f 803 836 837
f 803 837 838
f 803 838 826
f 805 839 806
f 806 840 807
f 806 839 841
f 806 841 840
f 807 842 843
f 807 843 844
f 807 844 845
f 807 845 808
f 807 840 846
f 807 846 847
f 807 847 848
f 807 848 849
f 807 849 850
f 807 850 842
f 808 845 851
f 808 851 852
f 808 852 853
f 808 853 854
f 808 854 855
f 808 855 809
f 810 855 854
f 810 854 856
f 810 856 812
f 810 812 811
f 812 856 857
f 812 857 858
f 812 858 859
f 812 859 814
f 813 860 818
f 813 818 817
f 813 816 861
f 813 861 860
f 814 859 815
f 815 859 862
f 815 862 863
f 815 863 816
f 816 863 861
f 818 860 864
f 818 864 819
f 819 865 866
f 819 866 820
f 819 864 865
f 820 866 867
f 820 867 821
f 821 867 822
f 822 867 868
f 822 868 869
f 822 869 823
f 823 869 825
f 823 825 824
f 827 870 871
f 827 871 831
f 827 831 830
f 827 830 829
f 827 829 828
f 831 872 832
f 831 871 872
f 832 872 873
f 832 873 874
f 832 874 833
f 833 874 834
f 834 875 835
f 834 874 876
f 834 876 877
f 834 877 875
f 835 875 878
f 835 878 879
f 835 879 836
f 836 879 880
f 836 880 837
f 837 880 881
f 837 881 882
f 839 883 841
f 840 883 884
f 840 884 846
f 840 841 883
f 842 850 885
f 842 885 843
f 843 885 886
f 843 886 887
f 843 887 888
f 843 888 889
f 843 889 844
f 844 890 845
f 844 889 891
f 844 891 892
f 844 892 893
f 844 893 894
f 844 894 890
f 845 890 895
f 845 895 896
f 845 896 897
f 845 897 851
f 847 898 849
f 847 849 848
f 849 898 885
f 849 885 850
f 851 857 852
f 851 897 857
f 852 857 853
f 853 857 856
f 853 856 854
f 857 897 899
f 857 899 900
f 857 900 858
f 858 900 862
f 858 862 859
f 860 861 901
f 860 901 864
f 861 863 901
f 862 900 902
f 862 902 903
f 862 903 904
f 862 904 905
f 862 905 863
f 863 906 901
f 863 905 906
f 864 901 907
f 864 907 908
f 864 908 865
f 865 909 866
f 865 908 909
f 866 909 910
f 866 910 911
f 866 911 868
f 866 868 867
f 868 911 912
f 868 912 869
f 869 913 914
f 869 914 870
f 869 912 913
f 870 915 871
f 870 914 918
f 870 918 916
f 870 916 915
f 871 915 872
f 872 917 873
f 872 915 917
f 873 917 918
f 873 918 919
f 873 919 920
f 873 920 874
f 874 920 876
f 875 877 921
f 875 921 922
f 875 922 878
f 876 920 923
f 876 923 924
f 876 924 925
f 876 925 921
f 876 921 877
f 878 922 926
f 878 926 927
f 878 927 879
f 879 927 881
f 879 881 880
f 881 927 926
f 881 926 928
f 881 928 929
f 881 929 882
f 887 930 931
f 887 931 888
f 888 932 889
f 888 931 932
f 889 932 891
f 890 933 895
f 890 894 934
f 890 934 935
f 890 935 933
f 891 932 892
f 892 932 893
f 893 932 931
f 893 931 930
f 893 930 936
f 893 936 937
f 893 937 894
f 894 937 936
f 895 938 900
f 895 900 896
f 895 933 938
f 896 900 897
f 897 900 899
f 900 938 902
f 901 906 939
f 901 939 940
f 901 940 907
f 902 938 941
f 902 941 942
f 902 942 943
f 902 943 903
f 903 943 904
f 904 943 944
f 904 944 906
f 904 906 905
f 906 944 945
f 906 945 939
f 907 940 908
f 908 940 946
f 908 946 909
f 909 946 947
f 909 947 918
f 909 918 910
f 910 918 911
f 911 918 912
f 912 918 913
f 913 918 914
f 915 916 917
f 916 918 917
f 918 947 920
f 918 920 919
f 920 947 946
f 920 946 923
f 921 925 922
f 922 925 948
f 922 948 926
f 923 946 940
f 923 940 949
f 923 949 924
f 924 949 945
f 924 945 950
f 924 950 925
f 925 950 948
f 926 948 951
f 926 951 952
f 926 952 928
f 928 953 929
f 928 952 954
f 928 954 953
f 933 955 938
f 933 935 956
f 933 956 955
f 935 957 956
f 938 958 941
f 938 955 959
f 938 959 958
f 939 945 940
f 940 945 949
f 941 958 954
f 941 954 960
f 941 960 961
f 941 961 962
f 941 962 942
f 942 962 948
f 942 948 963
f 942 963 943
f 943 963 944
f 944 950 945
f 944 963 950
f 948 950 963
f 948 962 961
f 948 961 960
f 948 960 951
f 951 960 952
f 952 960 954
f 953 954 964
f 953 964 965
f 954 959 964
f 954 958 959
f 955 956 966
f 955 966 959
f 956 957 966
f 957 967 968
f 957 968 966
f 959 969 964
f 959 966 969
f 964 969 970
f 964 970 965
f 966 968 971
f 966 971 969
f 967 972 971
f 967 971 968
f 969 971 973
f 969 973 974
f 969 974 970
f 971 972 975
f 971 975 976
f 971 976 973
f 977 978 979
f 977 979 980
f 977 980 981
f 977 981 982
f 977 982 983
f 977 983 994
f 977 994 1006
f 977 1006 1025
f 977 1025 1049
f 977 1049 1048
f 977 1048 1071
f 977 1071 1097
f 977 1097 1118
f 977 1118 1152
f 977 1152 1190
f 977 1190 1237
f 977 1237 1272
f 977 1272 1240
f 977 1240 1275
f 977 1275 1277
f 977 1277 1249
f 977 1249 1248
f 977 1248 1196
f 977 1196 1195
f 977 1195 1193
f 977 1193 1192
f 977 1192 1153
f 977 1153 1120
f 977 1120 1098
f 977 1098 1072
f 977 1072 1052
f 977 1052 1051
f 977 1051 1050
f 977 1050 1026
f 977 1026 1007
f 977 1007 995
f 977 995 985
f 977 985 984
f 977 984 978
f 978 984 979
f 979 984 985
f 979 985 986
f 979 986 980
f 980 987 988
f 980 988 989
f 980 989 981
f 980 986 990
f 980 990 991
f 980 991 987
f 981 989 992
f 981 992 982
f 982 992 993
f 982 993 983
f 983 993 989
f 983 989 994
f 985 995 986
f 986 995 996
f 986 996 990
f 987 997 988
f 987 991 997
f 988 997 989
f 989 998 999
f 989 999 1000
f 989 1000 1001
f 989 1001 994
f 989 993 992
f 989 997 998
f 990 996 1002
f 990 1002 1003
f 990 1003 1004
f 990 1004 991
f 991 1004 1005
f 991 1005 997
f 994 1001 1000
f 994 1000 1014
f 994 1014 1013
f 994 1013 1012
f 994 1012 1011
f 994 1011 1033
f 994 1033 1057
f 994 1057 1066
f 994 1066 1085
f 994 1085 1114
f 994 1114 1113
f 994 1113 1112
f 994 1112 1141
f 994 1141 1180
f 994 1180 1225
f 994 1225 1264
f 994 1264 1263
f 994 1263 1284
f 994 1284 1286
f 994 1286 1269
f 994 1269 1268
f 994 1268 1267
f 994 1267 1266
f 994 1266 1241
f 994 1241 1191
f 994 1191 1151
f 994 1151 1150
f 994 1150 1142
f 994 1142 1115
f 994 1115 1087
f 994 1087 1067
f 994 1067 1045
f 994 1045 1044
f 994 1044 1023
f 994 1023 1006
f 995 1007 1008
f 995 1008 1002
f 995 1002 996
f 997 1009 1010
f 997 1010 998
f 997 1005 1009
f 998 1010 999
f 999 1011 1012
f 999 1012 1013
f 999 1013 1014
f 999 1014 1000
f 999 1010 1011
f 1002 1015 1016
f 1002 1016 1004
f 1002 1004 1003
f 1002 1008 1015
f 1004 1016 1017
f 1004 1017 1005
f 1005 1017 1018
f 1005 1018 1019
f 1005 1019 1020
f 1005 1020 1021
f 1005 1021 1022
f 1005 1022 1009
f 1006 1023 1024
f 1006 1024 1025
f 1007 1026 1027
f 1007 1027 1008
f 1008 1027 1028
f 1008 1028 1029
f 1008 1029 1030
f 1008 1030 1015
f 1009 1022 1021
f 1009 1021 1031
f 1009 1031 1032
f 1009 1032 1011
f 1009 1011 1010
f 1011 1032 1033
f 1015 1030 1034
f 1015 1034 1035
f 1015 1035 1036
f 1015 1036 1037
f 1015 1037 1016
f 1016 1037 1017
f 1017 1037 1038
f 1017 1038 1018
f 1018 1038 1039
f 1018 1039 1040
f 1018 1040 1019
f 1019 1040 1020
f 1020 1040 1041
f 1020 1041 1021
f 1021 1042 1043
f 1021 1043 1031
f 1021 1041 1042
f 1023 1044 1024
f 1024 1044 1045
f 1024 1045 1046
f 1024 1046 1047
f 1024 1047 1048
f 1024 1048 1049
f 1024 1049 1025
f 1026 1050 1027
f 1027 1050 1051
f 1027 1051 1052
f 1027 1052 1053
f 1027 1053 1028
f 1028 1053 1029
f 1029 1054 1055
f 1029 1055 1030
f 1029 1053 1056
f 1029 1056 1054
f 1030 1055 1034
f 1031 1043 1032
f 1032 1043 1033
f 1033 1043 1057
f 1034 1055 1036
f 1034 1036 1035
f 1036 1055 1058
f 1036 1058 1059
f 1036 1059 1060
f 1036 1060 1038
f 1036 1038 1037
f 1038 1060 1061
f 1038 1061 1039
f 1039 1061 1062
f 1039 1062 1041
f 1039 1041 1040
f 1041 1062 1063
f 1041 1063 1042
f 1042 1064 1065
f 1042 1065 1043
f 1042 1063 1064
f 1043 1066 1057
f 1043 1065 1066
f 1045 1067 1046
f 1046 1068 1047
f 1046 1067 1069
f 1046 1069 1070
f 1046 1070 1071
f 1046 1071 1068
f 1047 1068 1071
f 1047 1071 1048
f 1052 1072 1073
f 1052 1073 1053
f 1053 1073 1056
f 1054 1058 1055
f 1054 1056 1058
f 1056 1074 1059
f 1056 1059 1058
f 1056 1073 1075
f 1056 1075 1074
f 1059 1074 1076
f 1059 1076 1060
f 1060 1076 1077
f 1060 1077 1078
f 1060 1078 1079
f 1060 1079 1063
f 1060 1063 1061
f 1061 1063 1062
f 1063 1080 1081
f 1063 1081 1082
f 1063 1082 1064
f 1063 1079 1078
f 1063 1078 1083
f 1063 1083 1080
f 1064 1084 1065
f 1064 1082 1084
f 1065 1084 1066
f 1066 1084 1085
f 1067 1086 1069
f 1067 1087 1088
f 1067 1088 1089
f 1067 1089 1090
f 1067 1090 1091
f 1067 1091 1086
f 1069 1086 1092
f 1069 1092 1070
f 1070 1092 1071
f 1071 1092 1091
f 1071 1091 1093
f 1071 1093 1094
f 1071 1094 1095
f 1071 1095 1096
f 1071 1096 1097
f 1072 1098 1099
f 1072 1099 1073
f 1073 1099 1075
f 1074 1075 1100
f 1074 1100 1076
f 1075 1099 1101
f 1075 1101 1102
f 1075 1102 1103
f 1075 1103 1104
f 1075 1104 1105
f 1075 1105 1100
f 1076 1100 1106
f 1076 1106 1078
f 1076 1078 1077
f 1078 1107 1108
f 1078 1108 1109
f 1078 1109 1083
f 1078 1106 1107
f 1080 1083 1109
f 1080 1109 1110
f 1080 1110 1111
f 1080 1111 1081
f 1081 1111 1112
f 1081 1112 1113
f 1081 1113 1114
f 1081 1114 1084
f 1081 1084 1082
f 1084 1114 1085
f 1086 1091 1092
f 1087 1115 1088
f 1088 1116 1091
f 1088 1091 1090
f 1088 1090 1089
f 1088 1115 1116
f 1091 1117 1094
f 1091 1094 1093
f 1091 1116 1117
f 1094 1096 1095
f 1094 1117 1096
f 1096 1118 1097
f 1096 1117 1116
f 1096 1116 1119
f 1096 1119 1118
f 1098 1120 1099
f 1099 1121 1101
f 1099 1120 1121
f 1100 1105 1106
f 1101 1122 1123
f 1101 1123 1102
f 1101 1121 1122
f 1102 1123 1124
f 1102 1124 1104
f 1102 1104 1103
f 1104 1125 1105
f 1104 1124 1126
f 1104 1126 1125
f 1105 1125 1126
f 1105 1126 1127
f 1105 1127 1128
f 1105 1128 1106
f 1106 1128 1107
f 1107 1129 1130
f 1107 1130 1131
f 1107 1131 1132
f 1107 1132 1133
f 1107 1133 1108
f 1107 1128 1134
f 1107 1134 1135
f 1107 1135 1136
f 1107 1136 1129
f 1108 1133 1137
f 1108 1137 1138
f 1108 1138 1109
f 1109 1138 1110
f 1110 1139 1111
f 1110 1138 1139
f 1111 1139 1140
f 1111 1140 1141
f 1111 1141 1112
f 1115 1142 1116
f 1116 1143 1144
f 1116 1144 1145
f 1116 1145 1146
f 1116 1146 1147
f 1116 1147 1148
f 1116 1148 1149
f 1116 1149 1119
f 1116 1142 1150
f 1116 1150 1151
f 1116 1151 1143
f 1118 1119 1152
f 1119 1149 1152
f 1120 1153 1121
f 1121 1153 1154
f 1121 1154 1122
f 1122 1154 1155
f 1122 1155 1156
f 1122 1156 1157
f 1122 1157 1158
f 1122 1158 1126
f 1122 1126 1123
f 1123 1126 1124
f 1126 1158 1159
f 1126 1159 1160
f 1126 1160 1161
f 1126 1161 1127
f 1127 1161 1162
f 1127 1162 1134
f 1127 1134 1128
f 1129 1163 1130
f 1129 1136 1162
f 1129 1162 1163
f 1130 1163 1164
f 1130 1164 1165
f 1130 1165 1166
f 1130 1166 1131
f 1131 1167 1168
f 1131 1168 1169
f 1131 1169 1170
f 1131 1170 1171
f 1131 1171 1172
f 1131 1172 1132
f 1131 1166 1144
f 1131 1144 1167
f 1132 1172 1171
f 1132 1171 1137
f 1132 1137 1133
f 1134 1162 1135
f 1135 1162 1136
f 1137 1171 1173
f 1137 1173 1174
f 1137 1174 1175
f 1137 1175 1176
f 1137 1176 1139
f 1137 1139 1138
f 1139 1176 1177
f 1139 1177 1140
f 1140 1177 1178
f 1140 1178 1179
f 1140 1179 1141
f 1141 1179 1180
f 1143 1151 1144
f 1144 1181 1167
f 1144 1166 1182
f 1144 1182 1183
f 1144 1183 1145
f 1144 1151 1184
f 1144 1184 1185
f 1144 1185 1186
f 1144 1186 1181
f 1145 1183 1146
f 1146 1183 1187
f 1146 1187 1188
f 1146 1188 1189
f 1146 1189 1147
f 1147 1189 1190
f 1147 1190 1148
f 1148 1190 1152
f 1148 1152 1149
f 1151 1191 1184
f 1153 1192 1154
f 1154 1193 1155
f 1154 1192 1193
f 1155 1194 1156
f 1155 1193 1195
f 1155 1195 1196
f 1155 1196 1197
f 1155 1197 1194
f 1156 1194 1198
f 1156 1198 1199
f 1156 1199 1200
f 1156 1200 1157
f 1157 1200 1201
f 1157 1201 1199
f 1157 1199 1202
f 1157 1202 1158
f 1158 1202 1203
f 1158 1203 1159
f 1159 1203 1160
f 1160 1203 1204
f 1160 1204 1161
f 1161 1204 1162
f 1162 1204 1205
f 1162 1205 1206
f 1162 1206 1207
f 1162 1207 1208
f 1162 1208 1163
f 1163 1208 1164
f 1164 1208 1165
f 1165 1182 1166
f 1165 1208 1209
f 1165 1209 1182
f 1167 1210 1211
f 1167 1211 1168
f 1167 1181 1186
f 1167 1186 1212
f 1167 1212 1213
f 1167 1213 1210
f 1168 1214 1215
f 1168 1215 1169
f 1168 1211 1214
f 1169 1216 1217
f 1169 1217 1171
f 1169 1171 1170
f 1169 1215 1218
f 1169 1218 1216
f 1171 1217 1173
f 1173 1217 1218
f 1173 1218 1219
f 1173 1219 1174
f 1174 1220 1221
f 1174 1221 1175
f 1174 1219 1220
f 1175 1221 1176
f 1176 1221 1222
f 1176 1222 1177
f 1177 1222 1180
f 1177 1180 1178
f 1178 1180 1179
f 1180 1223 1224
f 1180 1224 1225
f 1180 1222 1226
f 1180 1226 1227
f 1180 1227 1223
f 1182 1209 1228
f 1182 1228 1183
f 1183 1228 1229
f 1183 1229 1187
f 1184 1191 1230
f 1184 1230 1185
f 1185 1230 1231
f 1185 1231 1232
f 1185 1232 1233
f 1185 1233 1186
f 1186 1233 1212
f 1187 1229 1234
f 1187 1234 1235
f 1187 1235 1188
f 1188 1236 1237
f 1188 1237 1190
f 1188 1190 1189
f 1188 1235 1238
f 1188 1238 1239
f 1188 1239 1240
f 1188 1240 1236
f 1191 1241 1242
f 1191 1242 1230
f 1194 1197 1243
f 1194 1243 1244
f 1194 1244 1245
f 1194 1245 1246
f 1194 1246 1247
f 1194 1247 1199
f 1194 1199 1198
f 1196 1248 1197
f 1197 1244 1243
f 1197 1248 1249
f 1197 1249 1250
f 1197 1250 1244
f 1199 1205 1202
f 1199 1201 1200
f 1199 1247 1251
f 1199 1251 1209
f 1199 1209 1208
f 1199 1208 1205
f 1202 1205 1203
f 1203 1205 1204
f 1205 1207 1206
f 1205 1208 1207
f 1209 1251 1228
f 1210 1252 1211
f 1210 1213 1253
f 1210 1253 1254
f 1210 1254 1255
f 1210 1255 1256
f 1210 1256 1252
f 1211 1252 1215
f 1211 1215 1214
f 1212 1233 1232
f 1212 1232 1257
f 1212 1257 1213
f 1213 1257 1258
f 1213 1258 1253
f 1215 1252 1259
f 1215 1259 1218
f 1216 1218 1217
f 1218 1259 1219
f 1219 1259 1220
f 1220 1259 1221
f 1221 1259 1260
f 1221 1260 1261
f 1221 1261 1227
f 1221 1227 1226
f 1221 1226 1222
f 1223 1262 1224
f 1223 1227 1262
f 1224 1263 1264
f 1224 1264 1225
f 1224 1262 1263
f 1227 1265 1262
f 1227 1261 1256
f 1227 1256 1265
f 1228 1251 1229
f 1229 1251 1246
f 1229 1246 1234
f 1230 1242 1231
f 1231 1242 1241
f 1231 1241 1266
f 1231 1266 1267
f 1231 1267 1232
f 1232 1267 1268
f 1232 1268 1269
f 1232 1269 1270
f 1232 1270 1271
f 1232 1271 1257
f 1234 1238 1235
f 1234 1246 1239
f 1234 1239 1238
f 1236 1272 1237
f 1236 1240 1272
f 1239 1246 1273
f 1239 1273 1274
f 1239 1274 1240
f 1240 1274 1275
f 1244 1250 1245
f 1245 1250 1276
f 1245 1276 1274
f 1245 1274 1273
f 1245 1273 1246
f 1246 1251 1247
f 1249 1277 1250
f 1250 1277 1275
f 1250 1275 1274
f 1250 1274 1276
f 1252 1256 1259
f 1253 1258 1278
f 1253 1278 1255
f 1253 1255 1254
f 1255 1278 1279
f 1255 1279 1256
f 1256 1279 1265
f 1256 1261 1280
f 1256 1280 1260
f 1256 1260 1281
f 1256 1281 1259
f 1257 1271 1282
f 1257 1282 1258
f 1258 1282 1278
f 1259 1281 1260
f 1260 1280 1261
f 1262 1265 1283
f 1262 1283 1263
f 1263 1283 1284
f 1265 1279 1285
f 1265 1285 1270
f 1265 1270 1283
f 1269 1286 1270
f 1270 1286 1283
f 1270 1285 1282
f 1270 1282 1271
f 1278 1282 1287
f 1278 1287 1279
f 1279 1287 1282
f 1279 1282 1285
f 1283 1286 1284

